<?xml version="1.0" encoding="utf-8"?>
<!-- Generator: Adobe Illustrator 23.0.4, SVG Export Plug-In . SVG Version: 6.00 Build 0)  -->
<svg version="1.1" id="Layer_1" xmlns="http://www.w3.org/2000/svg" xmlns:xlink="http://www.w3.org/1999/xlink" x="0px" y="0px"
	 viewBox="0 0 134 149.2" style="enable-background:new 0 0 134 149.2;" xml:space="preserve">
<style type="text/css">
	.st0{fill:#FFFFFF;}
</style>
<title>280-</title>
<g>
	<path class="st0" d="M65,23.9c0.3,0,0.4,0,0.7-0.1l3.8-2.3c0.7-0.4,0.8-1.1,0.6-1.8c-0.3-0.7-1.1-0.8-1.8-0.6l0,0l-3.8,2.3
		c-0.7,0.4-0.8,1.1-0.6,1.8C64,23.6,64.5,23.9,65,23.9L65,23.9z"/>
	<path class="st0" d="M74.6,18.4c0.3,0,0.4,0,0.7-0.1l3.8-2.3c0.7-0.4,0.8-1.1,0.6-1.8c-0.3-0.7-1.1-0.8-1.8-0.6l0,0L74,15.9
		c-0.7,0.4-0.8,1.1-0.6,1.8C73.6,18.1,74,18.4,74.6,18.4L74.6,18.4z"/>
	<path class="st0" d="M74.3,26.1c0.3,0.4,0.7,0.7,1.1,0.7c0.7,0,1.4-0.6,1.3-1.4c0-0.3,0-0.4-0.1-0.7l-2.3-3.8
		c-0.4-0.7-1.1-0.8-1.8-0.6s-0.8,1.1-0.6,1.8l0,0L74.3,26.1z"/>
	<path class="st0" d="M68.8,16.6c0.4,0.7,1.1,0.8,1.8,0.6c0.7-0.3,0.8-1.1,0.6-1.8L69,11.5c-0.4-0.7-1.1-0.8-1.8-0.4
		c-0.7,0.4-0.8,1.1-0.4,1.8L68.8,16.6z"/>
	<path class="st0" d="M27.2,113.3c-0.7,0-1.4,0.4-1.4,1.1c0,0,0,0,0,0.1l-0.1,4.4c0,0.7,0.6,1.4,1.3,1.4l0,0c0.7,0,1.3-0.6,1.4-1.3
		l0.1-4.4C28.5,114,27.9,113.3,27.2,113.3L27.2,113.3z"/>
	<path class="st0" d="M27.6,102.4c-0.7,0-1.4,0.6-1.4,1.3l0,0l-0.1,4.4c0,0.7,0.6,1.4,1.3,1.4l0,0c0.7,0,1.3-0.6,1.4-1.3l0.1-4.4
		C28.9,103.1,28.3,102.4,27.6,102.4L27.6,102.4z"/>
	<path class="st0" d="M34.9,110.4l-4.4-0.1l0,0c-0.7,0-1.4,0.6-1.4,1.3s0.6,1.4,1.3,1.4l4.4,0.1l0,0c0.7,0,1.4-0.6,1.4-1.3
		C36.3,111.1,35.8,110.4,34.9,110.4z"/>
	<path class="st0" d="M24,110l-4.4-0.1c-0.7,0-1.3,0.4-1.4,1.1c0,0,0,0,0,0.1c0,0.7,0.6,1.4,1.3,1.4l4.4,0.1l0,0
		c0.7,0,1.4-0.6,1.4-1.3C25.4,110.5,24.7,110,24,110L24,110z"/>
	<path class="st0" d="M7.6,82.7c-1.1,0-2,1-2,2.1c0,1,0.8,1.8,2,2c1.1,0,2-1,2-2.1C9.5,83.5,8.8,82.7,7.6,82.7z"/>
	<path class="st0" d="M113.7,123c-1.1,0-2,1-2,2.1c0,1,0.8,1.8,2,2c1.1,0,2-1,2-2.1C115.5,123.9,114.7,123,113.7,123z"/>
	<path class="st0" d="M126.4,74.2c-1.1,0-2,1-2,2.1c0,1,0.8,1.8,2,2c1.1,0,2-1,2-2.1C128.2,75.2,127.3,74.4,126.4,74.2z"/>
	<path class="st0" d="M112.6,44.1c-0.6,0.6-0.6,1.4,0,1.8l0,0l9.6,9.6l-9.6,9.6c-0.6,0.6-0.6,1.4,0,1.8c0.6,0.6,1.3,0.6,1.8,0
		l10.4-10.4c0.6-0.6,0.6-1.4,0-1.8l-10.4-10.4C114,43.7,113.1,43.7,112.6,44.1z"/>
	<path class="st0" d="M55.9,44.1c-0.6-0.6-1.4-0.6-1.8,0L43.6,54.5c-0.6,0.6-0.6,1.4,0,1.8l10.4,10.4c0.6,0.6,1.4,0.6,1.8,0
		c0.6-0.6,0.6-1.4,0-1.8l0,0l-9.6-9.6l9.6-9.6C56.3,45.5,56.3,44.7,55.9,44.1z"/>
	<path class="st0" d="M71.6,88c-1.1,0-2,1-2,2.1c0,1,0.8,1.8,2,2c1.1,0,2-1,2-2.1C73.5,88.9,72.6,88,71.6,88z"/>
	<path class="st0" d="M84.4,92.1c1.1,0,2-1,2-2.1c0-1-0.8-1.8-2-2c-1.1,0-2,1-2,2.1C82.5,91.1,83.3,92,84.4,92.1z"/>
	<path class="st0" d="M97.9,92.1c1.1,0,2-1,2-2.1c0-1-0.8-1.8-2-2c-1.1,0-2,1-2,2.1C96.1,91.1,97,92,97.9,92.1z"/>
	<path class="st0" d="M85.7,59.3c2-1.5,4.2-2.8,6.5-3.7c3.1-1.3,6-3.1,8.6-5.2c0,0,0,0,0.1-0.1c1.1-1,2.3-2.1,3.2-3.4
		c0.4-0.4,0.7-1,1.1-1.4l0,0c6.3-9.1,9.6-27.1,9.7-28c0,0,0,0,0-0.1v-0.1v-0.1c0-0.1,0-0.1,0-0.1v-0.1c0,0,0-0.1-0.1-0.1l-0.1-0.1
		c0,0,0-0.1-0.1-0.1l0,0c0,0,0,0-0.1,0l-0.1-0.1c0,0,0,0-0.1,0l0,0H114c0,0,0,0-0.1,0c0,0,0,0-0.1,0h-0.1h-0.1c-0.1,0-0.1,0-0.3,0
		H113c0,0-0.1,0-0.1,0.1l-0.1,0.1c0,0,0,0-0.1,0.1l0,0c-4.6,4.8-9.8,9.1-15.5,12.9c-3.7,2.4-7.5,4.5-11.4,6.2
		c-5.1,2.4-9.7,4.5-14.3,9.6L56.4,30.5l0,0L49,23c-0.8-0.7-2.1-0.7-2.8,0L9.3,59.7c-0.8,0.8-0.8,2.1,0,2.8l7.5,7.5l0,0L83,136.3
		c0.8,0.8,2.1,0.8,2.8,0l0,0l37-37c0.8-0.8,0.8-2.1,0-2.8L85.7,59.3z M91.1,53.1c-3.8,1.7-7.7,3.5-11.3,8.7l-3.2-0.7
		c-0.7-0.1-1.4,0.3-1.5,1c-0.1,0.7,0.3,1.4,1,1.5l2.3,0.6c-0.6,1.1-1.3,2.1-2,3.1c-0.4-0.1-1.1-0.3-1.7-0.3
		c-2.4-0.6-3.1-0.7-3.8,0.1c-0.3,0.3-0.4,0.7-0.3,1.1c0.1,0.8,0.8,1.3,2.4,2.3l0.4,0.3c-3,2.7-5.2,2.4-6.3,1.8
		c2-3.9,4.4-8.4,7.5-13.5c2.3-3.7,5.2-6.8,8.6-9.1l0,0l5.1,1.1c0.7,0.1,1.4-0.3,1.5-1s-0.3-1.4-1-1.5l0,0l-2.4-0.6
		c1-0.6,2.1-1.3,3.1-1.8c6.5-3.7,13.6-7.7,20.4-18.7c-0.7,2.4-1.4,4.8-2.3,7.3l-1.4-0.3c-0.7-0.1-1.4,0.3-1.5,1s0.3,1.4,1,1.5l0,0
		l1,0.3c-0.8,2.1-2,4.2-3.1,6.2l-3.1-0.7c-0.7-0.1-1.4,0.3-1.5,1c-0.1,0.7,0.3,1.4,1,1.5l1.8,0.4c-0.7,0.8-1.4,1.5-2.3,2.3l-5.1-1.1
		c-0.7-0.1-1.4,0.3-1.5,1s0.3,1.4,1,1.5l3,0.7C95,51.3,93.2,52.3,91.1,53.1L91.1,53.1z M75.4,45l-0.7,3.2c-0.1,0.7,0.3,1.4,1,1.5
		s1.4-0.3,1.5-1l0,0l1.4-6.5c1.3-0.8,2.5-1.5,3.8-2.3l-0.6,2.3c-0.1,0.7,0.3,1.4,1,1.5s1.4-0.3,1.5-1l0,0l1-4.4l1.4-0.7
		c4.1-1.8,8-3.9,11.8-6.5c1.4-1,2.8-2,4.2-3c0.1,0.6,0.6,0.8,1,1c0.1,0,0.1,0,0.3,0c0.6,0,1.1-0.4,1.3-1l0.6-2.5c1-0.8,2-1.7,3-2.5
		c-3.2,6-7.7,11.4-13.4,15.5l0.4-2c0.1-0.7-0.3-1.4-1-1.5c-0.7-0.1-1.4,0.3-1.5,1l0,0l-1,4.6c-1.4,0.8-2.8,1.7-4.2,2.5
		c-5.2,3-10,5.6-14.3,11.5l0.3-1.1c0.1-0.7-0.3-1.4-1-1.5c-0.7-0.1-1.4,0.3-1.5,1l-1.8,7.9c0,0.1,0,0.3,0,0.6
		c-1.7,3-3.1,5.6-4.4,8.2c-1.1-3.1-1.8-9.3,3.8-17.7C70.9,49.6,73,47.2,75.4,45z M26.6,50.3l9.3-9.3c0.8-0.7,2.1-0.7,2.8,0
		c0.7,0.8,0.7,2,0,2.8l-9.3,9.3c-0.8,0.7-2.1,0.7-2.8,0C25.9,52.3,25.9,51,26.6,50.3L26.6,50.3z M102.9,115.4
		c-1.8,1.8-4.9,1.8-6.8,0c-1.8-1.8-1.8-4.9,0-6.8c1.8-1.8,4.9-1.8,6.8,0C104.7,110.7,104.7,113.6,102.9,115.4L102.9,115.4z
		 M77,124.5l-28-28l-28-28l34.2-34.2L69,48.1c-0.6,0.8-1.3,1.7-2,2.7c-5.9,8.9-5.5,15.6-4.4,19.6L60.1,69c-0.7-0.3-1.4,0-1.8,0.7
		c-0.3,0.6,0,1.4,0.6,1.7l2.4,1.3l-2.8,0.4c-0.7,0.1-1.3,0.8-1.1,1.5c0.1,0.7,0.7,1.1,1.3,1.1c0.1,0,0.1,0,0.3,0l3.9-0.6
		c-2.1,4.8-4.1,9.7-5.6,14.6l-0.3,0.7c-0.3,0.6,0,1.3,0.7,1.7c0.1,0.1,0.4,0.1,0.6,0.1c0.4,0,0.8-0.1,1.1-0.6c1-1.4,2.1-2.8,3.5-4.1
		c2-1.3,2.8-2.5,2.8-3.9c-0.1-1.4-1-2.5-2.1-3.2c0.6-1.3,1.1-2.5,1.7-3.9l1,3.2c0.1,0.6,0.7,1,1.3,1c0.1,0,0.3,0,0.4,0
		c0.7-0.1,1.1-1,0.8-1.7l-0.8-2.7l2.3,1.7c0.6,0.4,1.4,0.3,1.8-0.3c0.4-0.6,0.3-1.4-0.3-1.8l-1.1-0.8c2.3-0.7,4.4-2,5.8-3.8
		c0.4-0.4,0.4-1,0.3-1.4c0.6,0.1,1.1-0.1,1.4-0.6c1-1.3,1.8-2.7,2.7-4.1c0.7-1.1,1.4-2.3,2.3-3.2L111,90.3L77,124.5z M62.9,83.9
		c0,0,0,0.6-1.3,1.4c0.3-0.7,0.6-1.4,0.8-2.1C62.8,83.5,62.9,83.8,62.9,83.9L62.9,83.9z"/>
</g>
</svg>
