<?xml version="1.0" encoding="utf-8"?>
<!-- Generator: Adobe Illustrator 23.0.4, SVG Export Plug-In . SVG Version: 6.00 Build 0)  -->
<svg version="1.1" id="Layer_1" xmlns="http://www.w3.org/2000/svg" xmlns:xlink="http://www.w3.org/1999/xlink" x="0px" y="0px"
	 viewBox="0 0 134 149.2" style="enable-background:new 0 0 134 149.2;" xml:space="preserve">
<style type="text/css">
	.st0{fill:#FFFFFF;}
</style>
<title>280-</title>
<path class="st0" d="M103.7,94.2c-0.5,0-0.9-0.3-1.1-0.8c-0.2-0.6,0.2-1.2,0.8-1.5l4.9-1.7c0.6-0.2,1.2,0.2,1.5,0.8
	c0.2,0.6-0.2,1.2-0.8,1.5l-4.9,1.7C103.8,94.2,103.8,94.2,103.7,94.2z M99,95.9l4.9-1.7c0.6-0.2,0.9-0.9,0.8-1.5
	c-0.2-0.6-0.9-0.9-1.5-0.8l-4.9,1.7c-0.6,0.2-0.9,0.9-0.8,1.5c0.2,0.5,0.6,0.8,1.1,0.8C98.9,95.9,99,95.9,99,95.9z M104,94.2
	c0.6-0.2,0.9-0.9,0.8-1.5l-1.7-5c-0.2-0.6-0.9-0.9-1.5-0.8c-0.6,0.2-0.9,0.9-0.8,1.5l1.7,5c0.2,0.5,0.6,0.8,1.1,0.8
	C103.8,94.2,103.8,94.2,104,94.2z M105.7,99.2c0.6-0.2,0.9-0.9,0.8-1.5l-1.7-5c-0.2-0.6-0.9-0.9-1.5-0.8c-0.6,0.2-0.9,0.9-0.8,1.5
	l1.7,5c0.2,0.5,0.6,0.8,1.1,0.8C105.4,99.2,105.5,99.2,105.7,99.2z M45.5,58.8l5.1-0.5c0.6,0,1.1-0.6,1.1-1.2c0-0.6-0.6-1.1-1.2-1.1
	l-5.1,0.5c-0.6,0-1.1,0.6-1.1,1.2C44.3,58.4,44.7,58.8,45.5,58.8L45.5,58.8z M50.6,58.5l5.1-0.5c0.6,0,1.1-0.6,1.1-1.2
	c0-0.6-0.6-1.1-1.2-1.1l-5.1,0.5c-0.6,0-1.1,0.6-1.1,1.2C49.5,58,50,58.5,50.6,58.5L50.6,58.5z M51.1,63.6c0.6,0,1.1-0.6,1.1-1.2
	l-0.5-5.1c0-0.6-0.6-1.1-1.2-1.1c-0.6,0-1.1,0.6-1.1,1.2l0.5,5.1C49.8,63.2,50.4,63.6,51.1,63.6L51.1,63.6z M50.6,58.5
	c0.6,0,1.1-0.6,1.1-1.2l-0.5-5.1c0-0.6-0.6-1.1-1.2-1.1c-0.6,0-1.1,0.6-1.1,1.2l0.5,5.1C49.5,58,50,58.5,50.6,58.5L50.6,58.5z
	 M19.7,91.5l5.1-0.6c0.6-0.2,1.1-0.6,1.1-1.2s-0.6-1.1-1.2-1.1l-5.1,0.6c-0.6,0.2-1.1,0.6-1.1,1.2C18.4,91,18.9,91.5,19.7,91.5
	C19.5,91.5,19.7,91.5,19.7,91.5z M24.8,90.8l5.1-0.6c0.6-0.2,1.1-0.6,1.1-1.2c-0.2-0.6-0.6-1.1-1.2-1.1l-5.1,0.6
	c-0.6,0.2-1.1,0.6-1.1,1.2C23.5,90.4,24,90.8,24.8,90.8L24.8,90.8z M25.4,95.9c0.6-0.2,1.1-0.6,1.1-1.2l-0.6-5.1
	c-0.2-0.6-0.6-1.1-1.2-1.1c-0.6,0.2-1.1,0.6-1.1,1.2l0.6,5.1C24.2,95.5,24.8,95.9,25.4,95.9L25.4,95.9z M24.8,90.8
	c0.6-0.2,1.1-0.6,1.1-1.2l-0.6-5.3c-0.2-0.6-0.6-1.1-1.2-1.1c-0.6,0.2-1.1,0.6-1.1,1.2l0.6,5.1C23.5,90.4,24,90.8,24.8,90.8
	L24.8,90.8z M40.5,38.7V26.6c0-0.5-0.3-0.8-0.8-0.8c-0.5,0-0.8,0.3-0.8,0.8v12.1c0,0.5,0.3,0.8,0.8,0.8
	C40.2,39.5,40.5,39.2,40.5,38.7z M40.5,108V74.1c0-0.5-0.3-0.8-0.8-0.8c-0.5,0-0.8,0.3-0.8,0.8V108c0,0.5,0.3,0.8,0.8,0.8
	C40.2,108.8,40.5,108.5,40.5,108z M67.8,108V89.1c0-0.5-0.3-0.8-0.8-0.8c-0.5,0-0.8,0.3-0.8,0.8V108c0,0.5,0.3,0.8,0.8,0.8
	C67.5,108.8,67.8,108.5,67.8,108z M67.8,78.5V46.9c0-0.5-0.3-0.8-0.8-0.8c-0.5,0-0.8,0.3-0.8,0.8v31.6c0,0.5,0.3,0.8,0.8,0.8
	C67.5,79.2,67.8,78.9,67.8,78.5z M67.8,37v-5.7c0-0.5-0.3-0.8-0.8-0.8c-0.5,0-0.8,0.3-0.8,0.8V37c0,0.5,0.3,0.8,0.8,0.8
	C67.5,37.8,67.8,37.5,67.8,37z M95,81.3V51.7c0-0.5-0.3-0.8-0.8-0.8s-0.8,0.3-0.8,0.8v29.5c0,0.5,0.3,0.8,0.8,0.8
	C94.5,82,95,81.7,95,81.3z M95,36.2v-9.4c0-0.5-0.3-0.8-0.8-0.8s-0.8,0.3-0.8,0.8v9.4c0,0.5,0.3,0.8,0.8,0.8
	C94.5,37,95,36.7,95,36.2z M95,108V95c0-0.5-0.3-0.8-0.8-0.8s-0.8,0.3-0.8,0.8v13c0,0.5,0.3,0.8,0.8,0.8C94.5,108.8,95,108.5,95,108
	z M67.2,72.4l12.5-2.3c0.5-0.2,0.8-0.5,0.6-0.9c-0.2-0.5-0.5-0.8-0.9-0.6L67,70.9L61.9,70c-0.5-0.2-0.8,0.2-0.9,0.6s0.2,0.8,0.6,0.9
	l5.3,0.9C66.8,72.4,67,72.4,67.2,72.4C67,72.4,67.2,72.4,67.2,72.4z M122.1,72c0.2-0.5-0.2-0.8-0.6-0.9l-5.3-0.9
	c-0.5-0.2-0.8,0.2-0.9,0.6c-0.2,0.5,0.2,0.8,0.6,0.9l5.3,0.9h0.2C121.6,72.6,121.9,72.3,122.1,72z M122.1,39.2
	c0.2-0.5-0.2-0.8-0.6-0.9l-13.9-2.6c-0.5-0.2-0.8,0.2-0.9,0.6c-0.2,0.5,0.2,0.8,0.6,0.9l13.9,2.6h0.2
	C121.6,39.8,121.9,39.5,122.1,39.2z M109.7,69.5c0.2-0.5-0.2-0.8-0.6-0.9l-14.4-2.8c-0.5-0.2-0.8,0.2-0.9,0.6
	c-0.2,0.5,0.2,0.8,0.6,0.9l14.4,2.8h0.2C109.4,70.1,109.7,70,109.7,69.5z M88,68.7l6.3-1.2c0.5-0.2,0.8-0.5,0.6-0.9
	c-0.2-0.5-0.5-0.8-0.9-0.6l-6.3,1.2c-0.5,0.2-0.8,0.5-0.6,0.9C87.1,68.4,87.4,68.7,88,68.7C87.9,68.7,87.9,68.7,88,68.7z M12.9,72.4
	l15.8-2.9c0.5-0.2,0.8-0.5,0.6-0.9c-0.2-0.5-0.5-0.8-0.9-0.6l-15.8,2.9c-0.5,0.2-0.8,0.5-0.6,0.9C11.9,72.3,12.2,72.4,12.9,72.4
	C12.7,72.4,12.7,72.4,12.9,72.4z M12.9,79.1l6.8-1.2c0.5-0.2,0.8-0.5,0.6-0.9c-0.2-0.5-0.5-0.8-0.9-0.6l-6.8,1.2
	c-0.5,0.2-0.8,0.5-0.6,0.9C11.9,78.9,12.2,79.1,12.9,79.1C12.7,79.1,12.7,79.1,12.9,79.1z M56,69.7c0.2-0.5-0.2-0.8-0.6-0.9
	l-14.8-2.8V44c0-0.5-0.3-0.8-0.8-0.8c-0.5,0-0.8,0.3-0.8,0.8v22.6c0,0.3,0.3,0.8,0.6,0.8l15.5,2.9h0.2C55.7,70.3,56,70,56,69.7z
	 M93.6,106.2c-5.7,1.1-11.6,2.2-17.3,3.2c-2.9,0.6-6,0.8-9,1.7c-1.1,0.3-0.8,0,0,0.2c-0.9-0.2-1.7-0.3-2.6-0.5c-7-1.4-14.1-2.6-21-4
	c-1.5-0.3-3.1-0.8-4.6-0.6c-2.3,0.2-4.6,0.9-7,1.2c-6.7,1.2-13.5,2.5-20.1,3.7c0.8,0.6,1.7,1.2,2.5,1.9c0-23.8,0-47.6,0-71.5
	c0-3.4,0-6.8,0-10.2c-0.5,0.6-0.9,1.2-1.4,1.9c7.9-1.5,15.8-2.9,23.8-4.5c1.1-0.2,2.2-0.5,3.4-0.6c-1.9,0.3,0.5,0.3,1.5,0.5
	c4.6,0.9,9.4,1.7,14.1,2.6c3.4,0.6,7,1.7,10.5,2c2.5,0.2,5.1-0.8,7.6-1.2C79.1,31,84.2,30,89.3,29c1.5-0.3,3.1-0.5,4.6-0.9
	c1.4-0.5-1.1-0.5,0.8,0c8.5,2,17.5,3.2,26.1,5c-0.5-0.6-0.9-1.2-1.4-1.9c0,23.8,0,47.6,0,71.5c0,3.4,0,6.8,0,10.2
	c0.8-0.6,1.7-1.2,2.5-1.9c-9.1-1.7-18.1-3.4-27.2-4.9c-2.5-0.5-3.6,3.2-1.1,3.7c9.1,1.7,18.1,3.4,27.2,4.9c1.2,0.2,2.5-0.5,2.5-1.9
	c0-23.8,0-47.6,0-71.5c0-3.4,0-6.8,0-10.2c0-0.8-0.6-1.7-1.4-1.9c-8-1.5-16.2-3.1-24.3-4.6c-6.3-1.2-13.1,1.2-19.5,2.3
	c-3.9,0.8-7.7,1.4-11.4,2.2c-0.8,0.2,1.2,0.2,0.6,0c-0.5-0.2-0.9-0.2-1.4-0.3c-2-0.3-4-0.8-6.2-1.1c-5.1-0.9-10.2-1.9-15.2-2.9
	c-2.2-0.5-4-0.9-6.2-0.6c-8.8,1.2-17.5,3.2-26.3,5c-0.8,0.2-1.4,1.1-1.4,1.9c0,23.8,0,47.6,0,71.5c0,3.4,0,6.8,0,10.2
	c0,1.4,1.2,2.2,2.5,1.9c5.7-1.1,11.6-2.2,17.3-3.2c2.9-0.5,6-0.8,9-1.7c1.1-0.3,0.8,0,0-0.2c0.9,0.2,1.7,0.3,2.6,0.5
	c7,1.4,14.1,2.6,21,4c1.5,0.3,3.1,0.8,4.6,0.6c2.3-0.2,4.6-0.9,7-1.2c6.7-1.2,13.5-2.5,20.1-3.9C97.2,109.4,96.1,105.7,93.6,106.2z
	 M23.8,40.4c-3.1,0-5.6,2.5-5.6,5.6s2.5,5.6,5.6,5.6s5.6-2.5,5.6-5.6S26.9,40.4,23.8,40.4z M50.6,93c-3.1,0-5.6,2.5-5.6,5.6
	s2.5,5.6,5.6,5.6s5.6-2.5,5.6-5.6C56.2,95.5,53.7,93,50.6,93z M101.6,50.2c3.1,0,5.6-2.5,5.6-5.6s-2.5-5.6-5.6-5.6s-5.6,2.5-5.6,5.6
	S98.7,50.2,101.6,50.2z M109.2,85.6c6-10.4,6.2-22.7,0.6-32.9c-0.3-0.6-1.1-0.8-1.5-0.5c-0.6,0.3-0.8,1.1-0.5,1.5
	c5.3,9.4,4.9,20.9-0.6,30.6c-0.3,0.6-0.2,1.2,0.5,1.5c0.2,0.2,0.3,0.2,0.6,0.2C108.6,86.2,108.9,86,109.2,85.6z M32.3,81.6
	c4.5-8.5,3.6-19-2.3-26.9c-0.5-0.5-1.1-0.6-1.7-0.3c-0.5,0.5-0.6,1.1-0.3,1.7c5.4,7.1,6.2,16.7,2.2,24.4c-0.3,0.6-0.2,1.2,0.5,1.5
	c0.2,0.2,0.3,0.2,0.6,0.2C31.7,82.2,32,81.9,32.3,81.6z M57.1,51.4c7.9-10.5,22-14.5,33.7-9.4c0.6,0.3,1.2,0,1.5-0.6
	c0.3-0.6,0-1.2-0.6-1.5c-12.5-5.6-28-1.2-36.5,10.2c-0.3,0.5-0.3,1.2,0.3,1.7c0.2,0.2,0.5,0.3,0.8,0.3
	C56.5,51.9,56.8,51.7,57.1,51.4z M56,91.5c11-10.2,28.5-10.5,40.7-0.9c0.5,0.5,1.2,0.3,1.7-0.2c0.5-0.5,0.3-1.2-0.2-1.7
	c-13.1-10.4-32-9.9-43.8,1.1c-0.5,0.5-0.5,1.2,0,1.7c0.2,0.3,0.6,0.3,0.9,0.3C55.6,91.8,55.9,91.8,56,91.5z M64.8,13
	c0.6,0,1.2-0.5,1.2-1.2V6.5c0-0.6-0.5-1.2-1.2-1.2c-0.6,0-1.2,0.5-1.2,1.2v5.3C63.8,12.6,64.2,13,64.8,13L64.8,13z M71.6,15.4
	l4.2-4.2c0.5-0.5,0.5-1.2,0-1.7c-0.5-0.5-1.2-0.5-1.7,0l-4.2,4.2c-0.5,0.5-0.5,1.2,0,1.7c0.2,0.2,0.5,0.3,0.8,0.3
	C71,15.7,71.3,15.7,71.6,15.4z M59,15.2c0.5-0.5,0.5-1.2,0-1.7l-3.1-3.4c-0.5-0.5-1.2-0.5-1.7,0c-0.5,0.5-0.5,1.2,0,1.7l3.2,3.6
	c0.2,0.3,0.6,0.3,0.9,0.3C58.5,15.5,58.8,15.5,59,15.2z M56.2,51.9l3.6-0.3c0.6,0,1.1-0.6,1.1-1.2s-0.6-1.1-1.2-1.1l-2.5,0.2
	l-0.5-2.3c-0.2-0.6-0.8-1.1-1.4-0.9c-0.6,0.2-1.1,0.8-0.9,1.4l0.6,3.4C55.1,51.4,55.6,51.9,56.2,51.9L56.2,51.9z M94.4,91.6l3.4-0.8
	c0.6-0.2,0.9-0.8,0.9-1.2L98.2,86c-0.2-0.6-0.6-1.1-1.4-0.9c-0.6,0.2-1.1,0.6-0.9,1.4l0.3,2.5l-2.3,0.6c-0.6,0.2-1.1,0.8-0.8,1.4
	c0.2,0.5,0.6,0.9,1.1,0.9C94.2,91.8,94.4,91.6,94.4,91.6z M108.9,57l0.6-2.3l2.3,0.5c0.6,0.2,1.2-0.3,1.4-0.9
	c0.2-0.6-0.3-1.2-0.9-1.4l-3.4-0.6c-0.6-0.2-1.2,0.3-1.4,0.8l-0.9,3.4c-0.2,0.6,0.2,1.2,0.8,1.4c0.2,0,0.2,0,0.3,0
	C108.3,57.9,108.8,57.6,108.9,57z M29.4,58.7l0.3-2.5h2.5c0.6,0,1.2-0.5,1.2-1.1c0-0.6-0.5-1.2-1.1-1.2h-3.4l0,0
	c-0.6,0-1.1,0.5-1.2,1.1l-0.5,3.6c0,0.6,0.5,1.2,1.1,1.2h0.2C28.8,59.6,29.3,59.3,29.4,58.7z M81.1,95.9c-0.8,0-1.4,0.6-1.4,1.4
	s0.6,1.4,1.4,1.4s1.4-0.6,1.4-1.4S81.8,95.9,81.1,95.9z M48,77.7c-0.8,0-1.4,0.6-1.4,1.4s0.6,1.4,1.4,1.4s1.4-0.6,1.4-1.4
	S48.7,77.7,48,77.7z M77.5,46c-1.2,0-2.2,0.9-2.2,2.2s0.9,2.2,2.2,2.2c1.2,0,2.2-0.9,2.2-2.2S78.8,46,77.5,46z M49.4,35.5
	c-1.2,0-2.2,0.9-2.2,2.2s0.9,2.2,2.2,2.2c1.2,0,2.2-0.9,2.2-2.2S50.6,35.5,49.4,35.5z M20,100.9c-1.2,0-2.2,0.9-2.2,2.2
	c0,1.2,0.9,2.2,2.2,2.2s2.2-0.9,2.2-2.2C22.1,101.8,21.1,100.9,20,100.9z M114,101.5c-1.2,0-2.2,0.9-2.2,2.2c0,1.2,0.9,2.2,2.2,2.2
	c1.2,0,2.2-0.9,2.2-2.2C116.2,102.6,115.3,101.5,114,101.5z M67,130.9c-27.8,0-50.3,2.8-50.3,6c0,3.2,22.6,6,50.3,6s50.3-2.8,50.3-6
	C117.3,133.7,94.8,130.9,67,130.9z M102.7,142c15.5-1.9,15.5-4.2,15.5-5.1c0-0.9,0-3.2-15.5-5.1c-9.6-1.1-22.1-1.9-35.7-1.9
	s-26.1,0.8-35.6,1.9C16,133.7,16,136,16,136.9s0,3.2,15.5,5.1c9.6,1.1,22.1,1.9,35.7,1.9C80.5,143.7,93.1,143.1,102.7,142z
	 M116.5,136.9c-0.3,1.9-17.2,5.3-49.5,5.3s-49.2-3.4-49.5-5.3c0.3-1.9,17.2-5.3,49.5-5.3S116.2,135.1,116.5,136.9z M116.5,136.9
	L116.5,136.9L116.5,136.9z"/>
</svg>
