<?xml version="1.0" encoding="utf-8"?>
<!-- Generator: Adobe Illustrator 23.0.4, SVG Export Plug-In . SVG Version: 6.00 Build 0)  -->
<svg version="1.1" id="Layer_1" xmlns="http://www.w3.org/2000/svg" xmlns:xlink="http://www.w3.org/1999/xlink" x="0px" y="0px"
	 viewBox="0 0 134 149.2" style="enable-background:new 0 0 134 149.2;" xml:space="preserve">
<style type="text/css">
	.st0{fill:#FFFFFF;}
</style>
<title>280-</title>
<g>
	<path class="st0" d="M86.9,111.3c-12.6,5.1-26.4,5.1-38.9,0c-1.5-0.7-2.2,1.9-0.7,2.6c13,5.2,27.4,5.2,40.3,0
		C89.1,113.2,88.4,110.7,86.9,111.3L86.9,111.3z"/>
	<path class="st0" d="M45.4,20c16.1-8.3,35.6-7,50.1,3.7c12.8,9.5,20,25.4,18.6,41.1c-1.4,15.6-11.2,29.8-25.3,37
		c-14.4,7.3-32.2,6.5-45.9-1.9C26.1,89.6,18,70,22,51.1c0.3-1.7-2.2-2.3-2.7-0.7c-3.6,17.8,2.5,36.2,16.6,47.9
		c13.3,10.8,31.5,14.2,47.9,8.6c15.9-5.5,28.3-19.2,32-35.5c3.8-16.6-1.7-34.2-14-46C86.3,10.9,63,8,44,17.8
		C42.5,18.7,43.9,20.9,45.4,20L45.4,20z"/>
	<g>
		<path class="st0" d="M19.6,43.1c-1.1,0.7-2.2,1.2-3.5,1.9c-1.5,0.8-0.1,3.2,1.4,2.3c1.1-0.7,2.2-1.2,3.5-1.9
			C22.4,44.6,21.1,42.3,19.6,43.1z"/>
		<path class="st0" d="M28.2,38.3c-1.1,0.7-2.2,1.2-3.5,1.9c-1.5,0.8-0.1,3.2,1.4,2.3c1.1-0.7,2.2-1.2,3.5-1.9
			C31,39.8,29.6,37.4,28.2,38.3z"/>
		<path class="st0" d="M25.4,44.7c-0.8-1.5-3.2-0.1-2.4,1.4c0.7,1.1,1.3,2.2,2,3.5c0.8,1.5,3.2,0.1,2.4-1.4
			C26.8,47,26.1,45.8,25.4,44.7z"/>
		<path class="st0" d="M20.6,36.2c-0.8-1.5-3.2-0.1-2.4,1.4c0.7,1.1,1.3,2.2,2,3.5c0.8,1.5,3.2,0.1,2.4-1.4
			C21.8,38.5,21.3,37.3,20.6,36.2z"/>
	</g>
	<g>
		<path class="st0" d="M34.9,22.1c-1.3-0.3-2.7-0.6-3.9-0.8c-1.7-0.4-2.4,2.2-0.7,2.6c1.3,0.3,2.7,0.6,3.9,0.8
			C35.9,25.1,36.7,22.5,34.9,22.1z"/>
		<path class="st0" d="M44.7,24.2c-1.3-0.3-2.7-0.6-3.9-0.8c-1.7-0.4-2.4,2.2-0.7,2.6c1.3,0.3,2.7,0.6,3.9,0.8
			C45.7,27.2,46.4,24.6,44.7,24.2z"/>
		<path class="st0" d="M35.6,26.5c-0.3,1.2-0.6,2.6-0.8,3.9c-0.4,1.7,2.2,2.3,2.7,0.7c0.3-1.2,0.6-2.6,0.8-3.9
			C38.6,25.6,36,24.9,35.6,26.5z"/>
		<path class="st0" d="M40.4,17.7c0.4-1.7-2.2-2.3-2.7-0.7c-0.3,1.2-0.6,2.6-0.8,3.9c-0.4,1.7,2.2,2.3,2.7,0.7
			C39.8,20.3,40.1,18.9,40.4,17.7z"/>
	</g>
	<g>
		<path class="st0" d="M35.6,117.9c0-2.5,0-5.2-0.6-7.7c-2-8.6-7.5-10.4-12.1-14.4c-1.4-1.2-4-4-5.7-5.2c-1.4-1-2.1-0.8-3.1-0.7
			c-0.7,0.1-1.3,0.6-1.8,1c-0.7,0.7-1,1.8-0.8,3c0.1,1,0.7,1.9,1.5,2.6l11.9,11.3l-1,1L12,97.5c-1-1-1.7-2.2-1.8-3.5
			c-0.3-1.5-0.3-3,0.8-4.1c-0.3-1.8-1.8-7.2-2-8c-0.4-2.2,4.6-12.3-0.6-13.9c-2.1-0.7-4,4-8.1,13.1c-1.4,3.2,0.6,7.5,3.9,26.2
			c0.8,4.7,12.4,11.5,15.2,16.2c2.4,4,3.2,8.1,3.5,12.3h15.1C36,129.8,35.6,120,35.6,117.9z M20.7,112.4c-0.7,0.7-1.8,0.8-2.5,0.1
			c-0.7-0.7-0.8-1.8-0.1-2.5c0.7-0.7,1.8-0.8,2.5-0.1C21.4,110.5,21.4,111.6,20.7,112.4z M24.7,120.7c-1.5,0.3-3.1-0.8-3.3-2.3
			c-0.3-1.5,0.8-3,2.4-3.3c1.5-0.3,3.1,0.8,3.3,2.3C27.4,118.9,26.4,120.4,24.7,120.7z"/>
		<path class="st0" d="M10.6,68.1c0,0,2-3.9,4.2-6.2c0,0,1.1-1.9-1.4-1.1c0,0-3.6,1.5-5.9,6.2C7.6,67.1,9.4,66.3,10.6,68.1z"/>
	</g>
	<g>
		<path class="st0" d="M133.5,81.2c-4-9.1-6-13.8-8.1-13.1c-5.2,1.7-0.3,11.7-0.6,13.9c-0.1,0.8-1.5,6.1-2,8c1.1,1,1.1,2.6,0.8,4.1
			c-0.3,1.2-0.8,2.5-1.8,3.5L110,108.9l-1-1l11.9-11.3c0.8-0.8,1.3-1.8,1.5-2.6c0.1-1.1-0.1-2.2-0.8-3c-0.4-0.4-1.1-0.8-1.8-1
			c-1-0.1-1.7-0.1-3.1,0.7c-1.7,1.2-4.3,4-5.7,5.2c-4.6,3.9-10.2,5.8-12.1,14.4c-0.6,2.3-0.7,5.2-0.6,7.7c0,2.1-0.4,11.9-2.5,17.9
			h15.1c0.3-4,1.1-8.3,3.5-12.3c2.8-4.7,14.4-11.5,15.2-16.2C133.1,88.6,135,84.5,133.5,81.2z M112.7,118.3
			c-0.3,1.5-1.8,2.6-3.3,2.3c-1.5-0.3-2.7-1.8-2.4-3.3c0.3-1.5,1.8-2.6,3.3-2.3C112,115.3,113,116.8,112.7,118.3z M115.9,112.5
			c-0.7,0.7-1.8,0.6-2.5-0.1c-0.7-0.7-0.6-1.8,0.1-2.5c0.7-0.7,1.8-0.6,2.5,0.1C116.7,110.7,116.7,111.8,115.9,112.5z"/>
		<path class="st0" d="M123.4,68.1c1.4-1.8,3.1-1.1,3.1-1.1c-2.2-4.7-5.9-6.2-5.9-6.2c-2.5-0.8-1.4,1.1-1.4,1.1
			C121.6,64.3,123.4,68.1,123.4,68.1z"/>
	</g>
	<rect x="51.4" y="84.8" class="st0" width="32.4" height="5"/>
	<g>
		<path class="st0" d="M31.3,39.1l2.4-1.9c9.2-7.7,21.1-11.9,33.2-11.9h0.3c12.1,0,24,4.3,33.2,11.9l2.2,1.9H31.3z"/>
	</g>
	<path class="st0" d="M101.2,78.7c-0.6,0-1.1,0-1.7,0V40.5h-1.8l-3.9,3.9l-3.9-3.9h-1.8v4H47.4v-4h-1.8l-3.9,3.9l-3.9-3.9h-1.8v38.2
		c-0.6,0-1.1,0-1.7,0c-0.6,0-1.1,0.6-1.1,1.1c0,2.5,0,5,0,7.5c0,0.6,0.6,1.1,1.1,1.1c4.7,0,9.4,0,14.1,0c1.5,0,1.5-2.2,0-2.2
		c-4.3,0-8.7,0-12.8,0c0-1.7,0-3.5,0-5.1c19.1,0,38.4,0,57.5,0c2.5,0,4.9,0,7.4,0c0,1.7,0,3.5,0,5.1c-4.3,0-8.7,0-12.8,0
		c-1.5,0-1.5,2.2,0,2.2c4.7,0,9.4,0,14.1,0c0.6,0,1.1-0.6,1.1-1.1c0-2.5,0-5,0-7.5C102.3,79.3,101.9,78.7,101.2,78.7z M97.7,50.4
		l-3.9,3.9l-3.9-3.9l3.9-3.9L97.7,50.4z M89.9,60.2l3.9-3.9l3.9,3.9l-3.9,3.9L89.9,60.2z M97.7,70l-3.9,3.9L89.9,70l3.9-3.9L97.7,70
		z M89.5,42.3l3.2,3l-3.2,3V42.3z M89.5,52.2l3.2,3l-3.2,3V52.2z M89.5,62l3.2,3l-3.2,3V62z M45.4,50.4l-3.9,3.9l-3.9-3.9l3.9-3.9
		L45.4,50.4z M37.6,60.2l3.9-3.9l3.9,3.9l-3.9,3.9L37.6,60.2z M45.4,70l-3.9,3.9L37.6,70l3.9-3.9L45.4,70z M37.3,42.3l3.1,3l-3.1,3
		V42.3z M37.3,52.2l3.1,3l-3.1,3V52.2z M37.3,62l3.1,3l-3.1,3V62z M37.3,71.9l3.1,3l-3.1,3V71.9z M42.6,78.7c-1.3,0-2.5,0-3.9,0
		l2.8-2.8l2.8,2.8C43.7,78.7,43.2,78.7,42.6,78.7z M45.7,78l-3.1-3l3.1-3V78z M45.7,68.2l-3.1-3l3.1-3V68.2z M45.7,58.4l-3.1-3
		l3.1-3V58.4z M45.7,48.5l-3.1-3l3.1-3V48.5z M47.2,78.7V46.4h5v2.3h-0.6V51h3.5v-2.2h-0.6v-2.3h11.7v2.3h-0.6V51h3.5v-2.2h-0.6
		v-2.3h11.6v2.3h-0.6V51h3.5v-2.2h-0.6v-2.3h5.4v32.4C74.4,78.7,60.9,78.7,47.2,78.7z M89.5,71.9l3.2,3l-3.2,3V71.9z M91,78.7
		l2.8-2.8l2.8,2.8C94.7,78.7,92.9,78.7,91,78.7z M98,78l-3.2-3l3.2-3V78z M98,68.2l-3.2-3l3.2-3V68.2z M98,58.4l-3.2-3l3.2-3.2V58.4
		z M98,48.5l-3.2-3l3.2-3V48.5z"/>
</g>
</svg>
