<?xml version="1.0" encoding="utf-8"?>
<!-- Generator: Adobe Illustrator 23.0.4, SVG Export Plug-In . SVG Version: 6.00 Build 0)  -->
<svg version="1.1" id="Layer_1" xmlns="http://www.w3.org/2000/svg" xmlns:xlink="http://www.w3.org/1999/xlink" x="0px" y="0px"
	 viewBox="0 0 134 149.2" style="enable-background:new 0 0 134 149.2;" xml:space="preserve">
<style type="text/css">
	.st0{fill:#FFFFFF;}
</style>
<title>280-</title>
<path class="st0" d="M49.4,118.2c-0.6,0-1.1-0.1-1.7-0.3c-1.1-0.4-2.2-1.4-2.7-2.6c-0.9-2-1-10.1-1-11.6c0-0.4,0.3-1,0.7-1.1
	s1-0.1,1.3,0.3c1.1,1.1,7,6.7,7.9,8.6c1.1,2.4,0,5.3-2.6,6.5C50.7,118.1,49.9,118.2,49.4,118.2z M46.3,106.6
	c0.1,3.3,0.4,6.9,0.7,7.8c0.3,0.6,0.7,1,1.3,1.3c0.6,0.3,1.3,0.3,1.9,0c1.3-0.6,1.7-2,1.3-3.2C51.2,111.5,48.6,108.9,46.3,106.6z
	 M116,116.4c-0.6,0.1-1,0.1-1.6,0c-1.1-0.1-2-0.9-2.6-1.7c-1-1.6-2.4-8.2-2.7-9.6c-0.1-0.4,0.1-0.9,0.4-1c0.3-0.3,0.9-0.3,1.1,0
	c1.1,0.7,6.9,4.5,7.9,6c1.3,1.9,0.7,4.5-1.1,5.7C117,116.1,116.6,116.2,116,116.4z M111.7,107c0.6,2.7,1.4,5.6,1.9,6.3
	c0.3,0.4,0.7,0.7,1.3,0.9c0.6,0.1,1.1,0,1.6-0.3c1-0.6,1.1-1.9,0.6-2.9C116.4,110.5,114,108.6,111.7,107z M92.2,78.8
	c-1.4-0.1-2.7,0.9-2.9,2.2c-0.1,1.4,0.9,2.7,2.2,2.9c1.4,0.1,2.7-0.9,2.9-2.2C94.6,80.2,93.6,78.9,92.2,78.8z M98,72.4
	c-0.6-0.6-1.6-0.6-2.2,0c-0.6,0.6-0.6,1.6,0,2.2c0.6,0.6,1.6,0.6,2.2,0C98.6,74.2,98.6,73.2,98,72.4z M115.9,81.1
	c-1,0-1.9,0.9-1.9,1.9s0.9,1.9,1.9,1.9c1,0,1.9-0.9,1.9-1.9C117.7,81.8,116.9,81.1,115.9,81.1z M100.3,21.9c-1,0-1.9,0.9-1.9,1.9
	c0,1,0.9,1.9,1.9,1.9c1,0,1.9-0.9,1.9-1.9C102.2,22.7,101.3,21.9,100.3,21.9z M27.7,85.2c-1.1,0-2,0.9-2,2c0,1.1,0.9,2,2,2
	c1.1,0,2-0.9,2-2C29.7,86.2,28.7,85.2,27.7,85.2z M59.6,13.7c-1.1,0-2,0.9-2,2s0.9,2,2,2c1.1,0,2-0.9,2-2
	C61.7,14.7,60.7,13.7,59.6,13.7z M26.7,55.8c0.4,2.2,1.1,4.3,2.2,6.5c0,0,0,0.1,0.1,0.1c-0.3,0-0.6,0.1-0.9,0.3l0,0
	c-0.3,0.1-0.6,0.3-0.9,0.4c-1.1,0.7-1.9,1.9-2.2,3.2L24.5,70c-0.3,1.3,0,2.6,0.7,3.7c0.7,1.1,1.7,1.9,3,2.2l5.6,1.3
	c6,9.5,20.1,24,28.4,29.9l5.2,16.5l4.9-0.6c0.6,0,1.3-0.1,1.9-0.3l4.3-1.1l4.3,14.5c-1.7,0.6-2.7,2.4-2.2,4.2s2.4,2.7,4.2,2.2
	c0.9-0.3,1.6-0.9,2-1.7c0.9,1,2.3,1.6,3.6,1.1c1.7-0.6,2.7-2.4,2.2-4.2c-0.4-1.4-1.6-2.3-3-2.3l-4.7-15.5l2-0.6l0.7-0.3l3.6,11.9
	l4.9-1l-1.3-5l4.2,14.1l3.2-3.6l-6-20l0.9-0.4c0.1-0.1,0.4-0.1,0.6-0.3l3-1.7l-5.6-17.7l6.7-8.9l0.1-0.1l7.8-26.4l0.4-9.6
	c1.4-3.6,3-12.1,3-12.4v-0.4l-3.7-1.6l-0.4,1.3l-4.5-0.3v0.4c0,0,0,0.4,0,1c-3.3,0.6-5.6,2-7,4.2c-1.4-3.7-3.9-6.9-7.3-9.3
	c-0.9-0.6-1.9-1.1-2.9-1.7l-0.6-9.5c0-1.3-0.1-2.2-0.7-2.7c-0.6-0.6-1.4-0.7-2.7-0.7H83l-0.4-4.2c1.9-0.1,3.3-1.7,3.2-3.6
	S84,7.4,82.1,7.5c-0.9,0-1.7,0.6-2.3,1.1c-0.6-1.3-1.9-2-3.3-2c-1.9,0.1-3.3,1.7-3.2,3.6c0.1,1.4,1.1,2.6,2.4,3l0.6,5.3
	c-3,0-3,2-3.2,4.2l0.4,7.2c-3.7,0.9-6.9,2.6-9.3,5.7c-0.6,0.7-1,1.6-1.6,2.3c-0.1,0.3-0.3,0.4-0.4,0.9c-0.4-0.7-0.7-1.4-1.1-2
	c-2.3-3.7-5.6-5.9-9.6-7l-4.9-8c-1.1-2.4-4.2-3.4-6.6-2.2l-3.2,1.7c-1.1,0.6-2,1.6-2.4,2.9c-0.4,1.3-0.3,2.6,0.3,3.7l2,3.3
	c-0.9,0.4-1.6,0.9-2.4,1.4c-3,2.2-5.2,4.9-6.6,8.2L23.5,39c-2.3-1.3-5.3-0.4-6.6,1.9l-1.6,3.3c-1.3,2.3-0.4,5.3,2,6.6 M76.4,20.7
	h0.1l6.9-0.3c0.7,0,1.4,0,1.7,0.3c0.3,0.1,0.3,1,0.3,1.6l0.6,8.9l0,0c-1.4-0.6-2.9-0.9-4.5-1c-0.9-0.1-1.7-0.1-2.6-0.3
	c-0.1,0-0.4,0-0.6,0c-0.7,0.1-1.4,0.1-2.2,0.3c-0.3,0-0.6,0.1-0.9,0.1l-0.4-6.9C74.9,21,75.1,20.7,76.4,20.7z M54,37.3
	c0.6,1.1,3.4,5.6,4.3,7L53.7,47l-1.6-2.2c-0.1-0.1-0.4-0.3-0.6-0.1s-0.3,0.4-0.1,0.6l2.4,3.4l-2.9,2.6L48.4,47c0,0-2.4-3.9-3-5.2
	c-0.3-0.4-0.4-1-0.4-1.4l0,0c0,0-0.1-0.9,0-2c0.3-1.3,1.1-2.6,2.4-3.3c0.7-0.4,1.4-0.6,2.3-0.6c0.1,0,0.1,0,0.3,0l0,0
	c0.1,0,0.3,0,0.3,0c0.3,0,0.6,0.1,0.9,0.1C52.4,35.2,53.4,36.1,54,37.3z M48.8,75.9l6,0.6l-0.4,2.9c-1.4-0.1-5.7-0.7-8.6-1.3
	c-0.6-0.1-1.1-0.3-1.4-0.3h-0.1c-1.3-0.3-2.3-1.1-3-2.4c-0.7-1.1-0.9-2.6-0.4-3.9c0.6-2.3,2.6-3.7,4.9-3.7c0.4,0,0.9,0,1.3,0.1
	c1.3,0.3,7.6,1.3,9.3,1.6l-1,6.2l-6-0.6c-0.3,0-0.4,0.1-0.4,0.4C48.4,75.6,48.5,75.9,48.8,75.9z M36.3,28.1
	c-0.4-0.9-0.4-1.7-0.1-2.6c0.3-0.9,0.9-1.6,1.7-2l3.2-1.7c1.7-0.9,3.7-0.1,4.6,1.6l6.2,10.2c-1.3-0.4-3.4-0.7-5.7,0.6
	c-2.3,1.3-2.7,3.9-2.7,5.3L36.3,28.1z M18.1,50.3c-1.6-0.9-2.2-3-1.3-4.6l1.6-3.3c0.6-1.1,1.7-1.7,2.9-1.7c0.6,0,1.1,0.1,1.7,0.4
	l11.8,5.2c-2,0.1-3.7,1.3-4.7,3.2c-1.1,2.2-0.7,4.7,0.7,6.5L18.1,50.3z M33,56.5c-2.4-1.3-3.3-4.2-2-6.6c0.9-1.7,2.6-2.6,4.3-2.6
	c0.7,0,1.6,0.1,2.3,0.6c1.1,0.6,9.6,3.7,9.6,3.7l1.1,0.4l-1.1,2.9L39.4,52c-0.3-0.1-0.4,0-0.6,0.3c-0.1,0.3,0,0.4,0.3,0.6l5.6,2.2
	l-0.9,1.7l-2-0.7c-0.3-0.1-0.4,0-0.6,0.3s0,0.4,0.3,0.6l2,0.7l-1.1,2.7C40.9,59.8,35.1,57.6,33,56.5z M28.4,74.3
	c-0.9-0.1-1.6-0.7-2.2-1.4c-0.4-0.7-0.7-1.7-0.4-2.6l0.6-3.7c0.1-0.9,0.7-1.7,1.4-2.2c0.7-0.4,1.6-0.7,2.6-0.4l13.4,3
	c-2,0.6-3.6,2.2-4.2,4.3c-0.4,1.6-0.1,3.2,0.6,4.6c0.3,0.6,0.7,1.1,1.3,1.6L28.4,74.3z M100.5,85.8l-6,7.9l-1.1,1.4l-2.7,3.6
	c-0.3,0.3-0.1,0.9,0.1,1c0.1,0.1,0.3,0.1,0.4,0.1c0.3,0,0.4-0.1,0.6-0.3l2-2.7l4.9,15.4l-1.9,1.1c-7.8,4.3-16.1,7-24.8,8l-3.6,0.4
	l-5-15.8l-0.3-0.1c-9.2-6.2-21.4-19.4-27.4-28.1l5.2,1.1c2.2,2.2,4.5,4.2,6.9,6c4.3,3.4,8.8,6.5,13.5,9.5c0.6,0.4,1.1,0.4,1.7,0
	c1.3-0.9,2.6-1.7,3.9-2.6c0.1,1.9,0.4,3,0.4,3c0.1,0.4,0.6,0.6,1,0.4c0.4-0.1,0.6-0.6,0.4-1c0-0.1-3-10.1,7.6-17.2
	c6.3-4.3,12.5-7.2,12.5-7.2h0.1l0.1-0.1l1.4-1.6c2.2-2.6,6-8.2,5.9-14.4c-0.1-8,2.4-12.4,7.8-13.5c-0.1,2.9-0.3,7.3-0.3,8.8
	c0.1,2.4,1.4,4.2,3,4.2c0,0,0,0,0.1,0h0.1c0.4,0,0.7-0.1,1-0.4l-0.3,7L100.5,85.8z M108.8,50.8c-0.1,0.4-0.6,0.9-0.9,1.1
	c-0.3,0.1-0.4,0.3-0.7,0.3c-1,0-2.2-1.4-2.2-3.3c-0.1-1.9,0.3-8.9,0.4-10.8l3.3,0.3l-0.9,2.7c-0.1,0.3,0,0.4,0.3,0.6
	c0.3,0.1,0.4,0,0.6-0.3l1.3-4.2l2.2,0.9C111.8,40.1,110.2,48.3,108.8,50.8z"/>
</svg>
