<?xml version="1.0" encoding="utf-8"?>
<!-- Generator: Adobe Illustrator 23.0.4, SVG Export Plug-In . SVG Version: 6.00 Build 0)  -->
<svg version="1.1" id="Layer_1" xmlns="http://www.w3.org/2000/svg" xmlns:xlink="http://www.w3.org/1999/xlink" x="0px" y="0px"
	 viewBox="0 0 134 149.2" style="enable-background:new 0 0 134 149.2;" xml:space="preserve">
<style type="text/css">
	.st0{fill:#FFFFFF;}
</style>
<title>280-</title>
<g>
	<path class="st0" d="M79.2,50.4c-7.3,0-13-10.9-13-24.6s5.7-24.6,13-24.6c7.3,0,13,10.9,13,24.6S86.5,50.4,79.2,50.4z M79.2,4
		C73.7,4,69,13.9,69,25.9s4.6,21.9,10.2,21.9s10.2-10,10.2-21.9S84.7,4,79.2,4z"/>
	<path class="st0" d="M79.2,50.4h-7.3c-7.3,0-13-10.9-13-24.6s5.7-24.6,13-24.6h7.3c0.7,0,1.4,0.7,1.4,1.4c0,0.7-0.7,1.4-1.4,1.4
		l0,0h-7.3c-5.5,0-10.2,10-10.2,21.9S66.4,48,71.9,48h7.3c0.7,0,1.4,0.7,1.4,1.4C80.6,49.9,79.9,50.4,79.2,50.4z"/>
	<path class="st0" d="M79.2,12.2c-1.8,0-4.6,5.3-4.6,13.5s2.7,13.5,4.6,13.5c2,0,4.6-5.3,4.6-13.5S81,12.2,79.2,12.2z M79.2,33.9
		c-0.7,0-1.4-0.7-1.4-1.4l0,0V19.1c0-0.7,0.7-1.4,1.4-1.4c0.7,0,1.4,0.7,1.4,1.4v13.4C80.6,33.3,79.9,33.9,79.2,33.9L79.2,33.9z"/>
	<path class="st0" d="M79.2,2.5c-6.4,0-11.6,10.3-11.6,23.3s5.2,23.3,11.6,23.3c6.4,0,11.6-10.3,11.6-23.3S85.6,2.5,79.2,2.5z
		 M79.2,42.3c-4.8,0-7.3-8.5-7.3-16.4s2.7-16.4,7.3-16.4c4.8,0,7.3,8.5,7.3,16.4S84,42.3,79.2,42.3z"/>
	<path class="st0" d="M113.6,122H37.3c-0.7,0-1.2-0.5-1.4-1.2l-8.7-64.7h-16c-0.7,0-1.4-0.7-1.4-1.4c0-0.7,0.7-1.4,1.4-1.4l0,0h17.3
		c0.7,0,1.2,0.5,1.4,1.2l1.4,10.5h91.4c0.7,0,1.4,0.7,1.4,1.4v0.2l-9.1,54.1C114.8,121.7,114.3,122,113.6,122z M38.6,119.4h73.7
		l8.5-51.3H31.6L38.6,119.4z"/>
	<path class="st0" d="M46.4,145.9c-5,0-9.1-4.1-9.1-9.1s4.1-9.1,9.1-9.1c5,0,9.1,4.1,9.1,9.1l0,0C55.5,142,51.4,145.9,46.4,145.9z
		 M46.4,130.6c-3.4,0-6.2,2.8-6.2,6.2s2.8,6.2,6.2,6.2s6.2-2.8,6.2-6.2l0,0C52.7,133.4,49.8,130.6,46.4,130.6z"/>
	<path class="st0" d="M103.4,145.9c-5,0-9.1-4.1-9.1-9.1c0-5,4.1-9.1,9.1-9.1c5,0,9.1,4.1,9.1,9.1l0,0
		C112.5,142,108.4,145.9,103.4,145.9z M103.4,130.6c-3.4,0-6.2,2.8-6.2,6.2s2.8,6.2,6.2,6.2c3.4,0,6.2-2.8,6.2-6.2
		S106.8,130.6,103.4,130.6z"/>
	<path class="st0" d="M46.4,130.2c-0.5,0-1.1-0.4-1.1-1.1v-8.5c0-0.5,0.4-1.1,1.1-1.1c0.5,0,1.1,0.4,1.1,1.1v8.5
		C47.3,129.7,47,130.2,46.4,130.2z"/>
	<path class="st0" d="M103.4,130.2c-0.5,0-1.1-0.4-1.1-1.1v-8.5c0-0.5,0.5-0.9,1.1-0.9c0.5,0,0.9,0.4,0.9,0.9v8.5
		C104.3,129.7,104,130.2,103.4,130.2z"/>
	<path class="st0" d="M103.4,139c1.2,0,2.1-1.1,2-2.1c0-1.1-0.9-2-2-2c-1.2,0-2.1,1.1-2,2.1C101.3,138.1,102.2,139,103.4,139z"/>
	<path class="st0" d="M41.3,51.2c1.2,0,2.1-1.1,2-2.1c0-1.1-0.9-2-2-2c-1.2,0-2.1,1.1-2,2.1C39.3,50.3,40.2,51.2,41.3,51.2z"/>
	<path class="st0" d="M105.4,12.9c1.2,0,2.1-1.1,2-2.1c0-1.1-0.9-2-2-2c-1.2,0-2.1,1.1-2,2.1C103.4,12,104.3,12.9,105.4,12.9z"/>
	<path class="st0" d="M16.9,90c1.2,0,2.1-1.1,2-2.1c0-1.1-0.9-2-2-2c-1.2,0-2.1,1.1-2,2.1C14.9,89.1,15.8,89.8,16.9,90z"/>
	<path class="st0" d="M46.4,139c1.2,0,2.1-1.1,2-2.1c0-1.1-0.9-2-2-2c-1.2,0-2.1,1.1-2,2.1C44.3,138.1,45.2,139,46.4,139z"/>
	<path class="st0" d="M108.8,47.8c-0.7,0-1.4-0.7-1.4-1.4c0-0.5,0.4-0.9,0.7-1.2l4.1-2.3c0.7-0.4,1.6-0.2,2,0.5
		c0.4,0.7,0.2,1.6-0.5,2l0,0l-4.1,2.3C109.1,47.6,108.9,47.8,108.8,47.8z"/>
	<path class="st0" d="M118.7,41.9c-0.7,0-1.4-0.7-1.4-1.4c0-0.5,0.4-0.9,0.7-1.2l4.1-2.3c0.7-0.4,1.6-0.2,2,0.5
		c0.4,0.7,0.2,1.4-0.5,2l-4.1,2.3C119.3,41.9,118.9,41.9,118.7,41.9z"/>
	<path class="st0" d="M119.8,50.6c-0.5,0-0.9-0.4-1.2-0.7l-2.3-4.1c-0.4-0.7-0.2-1.6,0.5-2c0.7-0.4,1.6-0.2,2,0.5l2.3,4.1
		c0.4,0.7,0.2,1.6-0.5,2C120.3,50.6,120,50.6,119.8,50.6L119.8,50.6z"/>
	<path class="st0" d="M113.9,40.6c-0.5,0-0.9-0.4-1.2-0.7l-2.3-4.1c-0.4-0.7-0.2-1.6,0.5-2c0.7-0.4,1.6-0.2,2,0.5l2.3,4.1
		c0.4,0.7,0.2,1.6-0.5,2C114.5,40.6,114.3,40.6,113.9,40.6z"/>
	<path class="st0" d="M27.2,31.6c-0.7,0-1.4-0.7-1.4-1.4c0-0.2,0-0.4,0.2-0.5l1.8-4.3c0.4-0.7,1.1-1.1,1.8-0.7
		c0.7,0.4,1.1,1.1,0.7,1.8l-1.8,4.3C28.3,31.2,27.7,31.6,27.2,31.6z"/>
	<path class="st0" d="M31.8,20.9c-0.7,0-1.4-0.7-1.4-1.4c0-0.2,0-0.4,0.2-0.5l1.8-4.3c0.4-0.7,1.1-1.1,1.8-0.7
		c0.7,0.4,1.1,1.1,0.7,1.8l0,0L33.1,20C32.9,20.5,32.4,20.9,31.8,20.9z"/>
	<path class="st0" d="M37.9,27.3c-0.2,0-0.4,0-0.5-0.2l-4.3-1.8c-0.7-0.4-1.1-1.1-0.7-1.8c0.4-0.7,1.1-1.1,1.8-0.7l0,0l4.3,1.8
		c0.7,0.4,1.1,1.1,0.7,1.8C38.9,26.9,38.4,27.3,37.9,27.3L37.9,27.3z"/>
	<path class="st0" d="M27.2,22.7c-0.2,0-0.4,0-0.5-0.2l-4.3-1.8c-0.7-0.4-1.1-1.1-0.7-1.8s1.1-1.1,1.8-0.7l0,0l4.3,1.8
		c0.7,0.4,1.1,1.1,0.7,1.8C28.3,22.3,27.9,22.7,27.2,22.7L27.2,22.7z"/>
	<path class="st0" d="M68.9,88.4h-6.2v-7.1l2.8-3h17.5l3,3v10l-3.4,3h-4.3l-1.6,2.1v3.4h-6.6v-6.4l3-3.4h5.3l0.9-1.1v-5.2l-0.9-1.1
		h-8.5l-1.2,0.9L68.9,88.4z"/>
	<path class="st0" d="M77.1,100.1h-6.6c-0.4,0-0.7-0.4-0.7-0.7l0,0V93c0-0.2,0-0.4,0.2-0.5l3-3.4c0.2-0.2,0.4-0.2,0.5-0.2h5l0.5-0.5
		v-4.6L78.5,83h-8l-0.7,0.5v4.6c0,0.4-0.4,0.7-0.7,0.7h-6.2c-0.4,0-0.7-0.4-0.7-0.7l0,0v-7.1c0-0.2,0-0.4,0.2-0.5l2.8-3
		c0.2-0.2,0.4-0.2,0.5-0.2h17.5c0.2,0,0.4,0,0.5,0.2l3,3c0.2,0.2,0.2,0.4,0.2,0.5v10c0,0.2,0,0.4-0.2,0.5l-3.4,3
		c-0.2,0.2-0.4,0.2-0.5,0.2h-3.9l-1.2,1.6v3.2C77.8,99.8,77.4,100.1,77.1,100.1L77.1,100.1z M71.2,98.7h5.2V96c0-0.2,0-0.4,0.2-0.4
		l1.6-2.1c0.2-0.2,0.4-0.4,0.5-0.4h3.9l2.8-2.7v-9.3l-2.7-2.5H65.8l-2.5,2.5v6.2h4.8v-4.3c0-0.2,0.2-0.4,0.4-0.5l1.2-0.9
		c0.2,0,0.4,0,0.4-0.2h8.5c0.2,0,0.4,0.2,0.5,0.2l0.9,1.1c0.2,0.2,0.2,0.4,0.2,0.5v5.2c0,0.2,0,0.4-0.2,0.5l-0.9,1.1
		c-0.2,0.2-0.4,0.2-0.5,0.2h-5L71,93.2L71.2,98.7z"/>
	<path class="st0" d="M70.5,103.3h6.6v5.2h-6.6V103.3z"/>
	<path class="st0" d="M77.1,109.2h-6.6c-0.4,0-0.7-0.4-0.7-0.7l0,0v-5.2c0-0.4,0.4-0.7,0.7-0.7l0,0h6.6c0.4,0,0.7,0.4,0.7,0.7l0,0
		v5.2C77.8,108.9,77.4,109.2,77.1,109.2L77.1,109.2z M71.2,107.8h5.2v-3.7h-5.2V107.8z"/>
	<path class="st0" d="M105.4,115.8H45.5c-1.8,0-3.2-1.2-3.4-3l-5-37.8c-0.2-2,1.1-3.6,3-3.9c0.2,0,0.4,0,0.4,0h71.1
		c2,0,3.4,1.6,3.4,3.4c0,0.2,0,0.4,0,0.5l-6.2,37.8C108.6,114.7,107.2,115.8,105.4,115.8z M40.5,72.7c-1.1,0-2,0.9-2,2v0.2l5,37.8
		c0.2,1.1,1.1,1.8,2,1.8h59.8c1.1,0,1.8-0.7,2-1.8l6.2-37.8c0.2-1.1-0.5-2.1-1.8-2.3c-0.2,0-0.2,0-0.4,0L40.5,72.7z"/>
	<path class="st0" d="M101.3,110.6c1.2,0,2.1-1.1,2-2.1c0-1.1-0.9-2-2-2c-1.2,0-2.1,1.1-2,2.1C99.3,109.6,100.2,110.5,101.3,110.6z"
		/>
	<path class="st0" d="M107,80.5c1.2,0,2.1-1.1,2-2.1c0-1.1-0.9-2-2-2c-1.2,0-2.1,1.1-2,2.1C105,79.7,105.9,80.5,107,80.5z"/>
	<path class="st0" d="M48.9,110.6c1.2,0,2.1-1.1,2-2.1c0-1.1-0.9-2-2-2c-1.2,0-2.1,1.1-2,2.1C47,109.6,47.9,110.5,48.9,110.6z"/>
	<path class="st0" d="M44.6,80.5c1.2,0,2.1-1.1,2-2.1c0-1.1-0.9-2-2-2c-1.2,0-2.1,1.1-2,2.1C42.7,79.7,43.6,80.5,44.6,80.5z"/>
</g>
</svg>
