<?xml version="1.0" encoding="utf-8"?>
<!-- Generator: Adobe Illustrator 23.0.4, SVG Export Plug-In . SVG Version: 6.00 Build 0)  -->
<svg version="1.1" id="Layer_1" xmlns="http://www.w3.org/2000/svg" xmlns:xlink="http://www.w3.org/1999/xlink" x="0px" y="0px"
	 viewBox="0 0 134 149.2" style="enable-background:new 0 0 134 149.2;" xml:space="preserve">
<style type="text/css">
	.st0{fill:#FFFFFF;}
</style>
<title>280-</title>
<g>
	<path class="st0" d="M102,55.6c-0.5,0-1.2-0.3-1.5-0.8c-0.5-0.8-0.2-1.8,0.7-2.1l3.8-2.1c0.8-0.5,1.8-0.2,2.1,0.7
		c0.5,0.8,0.2,1.8-0.7,2.1l-3.8,2.1C102.5,55.6,102.2,55.6,102,55.6z"/>
	<path class="st0" d="M111.5,50.1c-0.5,0-1.2-0.3-1.5-0.8c-0.5-0.8-0.2-1.8,0.7-2.1l3.8-2.1c0.8-0.5,1.8-0.2,2.1,0.7
		c0.5,0.8,0.2,1.8-0.7,2.1l-3.8,2.1C112,50.1,111.7,50.1,111.5,50.1z"/>
	<path class="st0" d="M112.4,58.4c-0.5,0-1.2-0.3-1.5-0.8l-2.1-3.8c-0.5-0.8-0.2-1.8,0.7-2.1c0.8-0.5,1.8-0.2,2.1,0.7l2.1,3.8
		c0.5,0.8,0.2,1.8-0.7,2.1C113,58.4,112.7,58.4,112.4,58.4z"/>
	<path class="st0" d="M106.9,49c-0.5,0-1.2-0.3-1.5-0.8l-2.1-3.8c-0.5-0.8-0.2-1.8,0.7-2.1c0.8-0.5,1.8-0.2,2.1,0.7l2.1,3.8
		c0.5,0.8,0.2,1.8-0.7,2.1C107.6,48.8,107.3,49,106.9,49z"/>
	<g>
		<path class="st0" d="M40.5,13h-0.2l-4.3-0.5c-0.8-0.2-1.5-0.8-1.5-1.8c0.2-0.8,0.8-1.5,1.8-1.5l4.3,0.5c0.8,0.2,1.5,0.8,1.5,1.8
			C42,12.3,41.2,13,40.5,13z"/>
		<path class="st0" d="M44,10.2h-0.2C43,10,42.3,9.4,42.3,8.4l0.5-4.9C43,2.6,43.6,2,44.6,2c0.8,0.2,1.5,0.8,1.5,1.8l-0.5,4.9
			C45.4,9.5,44.8,10.2,44,10.2z"/>
		<path class="st0" d="M51.4,14.1h-0.2l-4.3-0.5c-0.8-0.2-1.5-0.8-1.5-1.8c0.2-0.8,0.8-1.5,1.8-1.5l4.3,0.5c0.8,0.2,1.5,0.8,1.5,1.8
			C52.8,13.6,52.2,14.1,51.4,14.1z"/>
		<path class="st0" d="M42.8,20.9h-0.2c-0.8-0.2-1.5-0.8-1.5-1.8l0.5-4.3c0.2-0.8,0.8-1.5,1.8-1.5c0.8,0.2,1.5,0.8,1.5,1.8l-0.5,4.3
			C44.3,20.4,43.6,20.9,42.8,20.9z"/>
	</g>
	<path class="st0" d="M67.3,140.4c-1,0-1.8,0-2.8,0c-15.8-0.8-27.8-8.7-34.7-22.9c-5.3-10.7-5.9-21.4-2.1-34.4
		c0.2-0.7,1-1.2,1.6-0.8c0.7,0.2,1.2,1,0.8,1.6c-3.6,12.3-3,22.4,2,32.5c6.6,13.5,17.4,20.5,32.5,21.4c11.3,0.3,19.9-1.6,27-6.6
		c10.4-7.1,15.5-16.8,15.3-28.6c-0.2-10.4-3.8-19.7-11-28.8c-0.5-0.5-0.3-1.3,0.2-1.8s1.3-0.3,1.8,0.2c7.6,9.2,11.5,19.4,11.7,30.4
		c0.2,12.8-5.3,23.2-16.4,30.9C86.2,138.1,78,140.4,67.3,140.4z"/>
	<path class="st0" d="M62.7,54.2c-0.5,0-1.2-0.3-1.3-1c-3.8-13.3,3.1-29.8,14.1-33.4c0.5-0.2,1.2,0,1.5,0.5c0.3,0.5,0.3,1,0.2,1.5
		C76.8,22.5,67.8,39,81,51.9c0.5,0.5,0.5,1.3,0,1.8c-0.5,0.5-1.3,0.5-1.8,0c-10.8-10.8-7.9-24-5.6-29.9c-7.7,4.9-12.5,18.1-9.4,28.6
		c0.2,0.7-0.2,1.5-0.8,1.6C62.9,54.2,62.7,54.2,62.7,54.2z"/>
	<path class="st0" d="M103,67.6c-8.1-9.4-23.2-21.2-21.4-35c1-7.2,4.3-13.6,9-19.1c1.2-1.3,2.8-2.6,1.3-4.1
		c-0.8-0.8-3.6-0.5-4.6-0.5c-4.4,0.2-8.7,1-12.8,2.6c-6.2,2.5-12.2,6.4-16.3,11.8C53.3,29.7,51.9,38.1,52,46
		c0.2,3.6,0.7,7.2,1.3,10.7c0.8,3.5,2.1,7.1,1.5,10.7c-0.5,3-2.8,5.6-5.9,4.9c-3.8-0.7-3.9-4.4-3.6-7.4c0.3-2.8,1.5-5.8,1.2-8.7
		c-0.3-3.1-2.1-4.4-5.3-3.3c-6.7,2.6-13,10.8-16.6,16.8c-4.3,7.1-6.4,15.5-7.2,23.7c-1.5,16.8,5.6,34.5,19.2,44.7
		c11.8,8.9,26.6,10.4,40.9,8.4c15.5-2.3,30.1-12,36-26.8C121.2,101.9,114.7,81.9,103,67.6z M112.4,117.9
		c-5.3,14.3-18.9,24-33.5,26.5c-14.6,2.5-30.4,0.8-42.1-9c-14.5-12-19.6-31.7-15.5-49.6c2-8.9,5.9-16.4,12.2-23
		c1.5-1.5,8.7-10,11.2-6.7c1.3,1.6-1,7.2-1.2,9c-0.5,3.6,0.3,7.9,4.1,9.4c3.3,1.3,7.1-0.3,8.9-3.3c2.3-3.9,0.8-9-0.2-13.2
		c-1.8-7.7-2.6-16.1-0.5-23.8c2.3-8.2,8.1-14.3,15.5-18.4c4.3-2.3,9-3.9,13.8-4.4c1.6-0.2,3.5-0.2,5.1-0.2l0,0
		c-7.1,7.1-12.8,19.1-9.7,29.1C84.1,51.8,94.1,60,101.7,69C112.4,82.5,118.6,100.9,112.4,117.9z"/>
	<circle class="st0" cx="93.4" cy="38.5" r="3.9"/>
	<circle class="st0" cx="45.1" cy="32.5" r="3.9"/>
	<circle class="st0" cx="61.2" cy="6.2" r="3.9"/>
	<g>
		<path class="st0" d="M42.5,93.5c2.5,0.3,7.9,1,11.3,1.5c1.6,0.2,3.3-1,3.5-2.8l0.2-0.7c0.2-1.6-1-3.3-2.6-3.5
			c-3.5-0.5-9-1.2-11.3-1.3c-1.8-0.2-3.5,1.2-3.6,3C39.4,91.6,40.7,93.2,42.5,93.5z"/>
		<path class="st0" d="M38.5,101.8c3,0.3,9.5,1.2,13.5,1.5c1.6,0.2,3.3-1,3.5-2.8v-0.5c0.2-1.6-1-3.3-2.6-3.5
			c-3.8-0.5-10.4-1.3-13.5-1.6c-1.6-0.2-3.3,1-3.5,2.8v0.5C35.7,100.1,36.9,101.6,38.5,101.8z"/>
		<path class="st0" d="M51,112.6c1.6,0.2,3.3-1,3.5-2.8v-0.7c0.2-1.6-1-3.3-2.8-3.5c-3.6-0.3-9.2-1-12.3-1.3c-1.6-0.2-3.3,1-3.5,2.8
			v0.7c-0.2,1.6,1,3.3,2.8,3.5C41.5,111.4,47.4,112.1,51,112.6z"/>
		<path class="st0" d="M50.9,114.4c-3-0.3-7.2-0.8-9.7-1.2c-1.6-0.2-3.3,1-3.5,2.8c-0.2,1.6,1,3.3,2.8,3.5c2.5,0.3,6.7,0.8,9.7,1.2
			c1.6,0.2,3.3-1,3.5-2.8C53.8,116.2,52.5,114.6,50.9,114.4z"/>
		<path class="st0" d="M79.8,115.6c-2.5-2.3-4.4-6.4-3.6-8.4l0.3-0.7c-3.1-3.5-4.6-7.9-3.1-9.9l0.5-0.7l0.7,0.5
			c1.6,1.2,3.3,2.1,4.1,2.1c0-0.2-0.2-0.5-0.3-0.8c-2.8-3.6-3.5-6.7-2-9.2C75.5,87,74.5,85,72.6,83c-1.3-1.3-1.8-14.1-2.5-15.9
			c-0.3-1-4.6-2-6.1,1.6c-0.7,1.8-0.3,3.6,0,5.4c1.2,6.6-1.6,11.7-2.1,13.5c-0.8,2.6-1.2,4.1,0,7.6c0.8,2.6,3.5,5.6,6.1,6.9
			c1.3,0.7,2.3,1.3,2,1.8c-0.5,0.5-4.3-1.3-5.4-2.5c-1.8-2-3.1-3.5-3.9-6.1c-0.5-1.6-1.6-0.8-2.6-0.3c-1,0.5-1.8,1.2-1.8,1.2
			l0.8,1.2c1.3,1.8,1,4.4-0.7,5.9l-1.2,1L55,105l0.8,1.3c1.2,2,0.8,4.4-0.8,5.9l-0.8,0.8l-0.2,0.8l0.5,0.8c1.3,1.8,1.2,4.4-0.5,6.1
			l0,0c0,0,3.3,0.3,3.5,0.3c10.4,0.3,15.9-5.1,16.6-5.1c1,0,2.6,0.2,4.3,0.3C78.5,116.4,79.1,115.9,79.8,115.6z"/>
		<path class="st0" d="M99.4,93.7c-3.9-4.1-6.6-7.9-6.6-7.9c-0.8,0.7-1.5,2.3,0,5.4c-4.3-4.1-5.9-6.6-5.9-6.6
			c-1,0.7-1.5,2.5-1.3,4.8c-3.1-2.5-4.9-4.9-4.9-4.9c-1,0.8-1.2,3.5-0.5,5.9c-1,1.3-3-2-3-2c-2.3,2.6-1,5.9,1.5,9
			c2.3,4.6-4.8-0.3-4.8-0.3c-1.5,2.1,0.8,7.4,4.9,10.7c0.3,0.5,1.3,1.3,0.8,1.3c-0.5,0.2-2.8-1.6-2.8-1.6c-0.7,1.8,1.5,6.2,4.1,8.2
			v0.2c-3.3,1.5-5.9,4.8-5.3,6.1c0,0,2.6-1,6.4-1.6c-1,1.5-1.5,2.8-1,3.6c0,0,2-1,7.4-2.3c-2.6,1.6-2.3,2.8-1.8,3.5
			c0,0,3.8-1.5,8.9-3C103.3,112.1,101.5,101.1,99.4,93.7z"/>
	</g>
</g>
</svg>
