<svg xmlns="http://www.w3.org/2000/svg" viewBox="0 0 26.96 20.07"><defs><style>.cls-1{fill:#fff;}</style></defs><title>arrow</title><g id="Layer_2" data-name="Layer 2"><g id="Desktop_Openings_POP" data-name="Desktop Openings POP"><path class="cls-1" d="M7.41,12H25.18A2.58,2.58,0,0,0,27,9.89a2,2,0,0,0-1.18-2.08A3.86,3.86,0,0,0,24,7.52H7.41l.89-.89L11,4a2.65,2.65,0,0,0,.89-2.07C11.56,1,11.26.41,10.37.11A2,2,0,0,0,8,1L.89,8.11C-.3,9.3-.3,10.48.89,12L8,19.07l.59.6a2.25,2.25,0,0,0,3.56-1.49,2.49,2.49,0,0,0-.89-2.37A46.58,46.58,0,0,1,7.41,12Z"/></g></g></svg>