<svg xmlns="http://www.w3.org/2000/svg" viewBox="0 0 34 34"><defs><style>.cls-1{fill:#fff;}</style></defs><title>close</title><g id="Layer_2" data-name="Layer 2"><g id="Desktop_Openings_POP" data-name="Desktop Openings POP"><path class="cls-1" d="M20.26,17,33.32,3.94a2.29,2.29,0,0,0,0-3.26,2.29,2.29,0,0,0-3.26,0L17,13.74,3.94.68A2.29,2.29,0,0,0,.68.68a2.29,2.29,0,0,0,0,3.26L13.74,17,.68,30.06a2.29,2.29,0,0,0,0,3.26,2.29,2.29,0,0,0,3.26,0L17,20.26,30.06,33.32a2.31,2.31,0,0,0,3.26-3.26Z"/></g></g></svg>