<?xml version="1.0" encoding="utf-8"?>
<!-- Generator: Adobe Illustrator 23.0.4, SVG Export Plug-In . SVG Version: 6.00 Build 0)  -->
<svg version="1.1" id="Layer_1" xmlns="http://www.w3.org/2000/svg" xmlns:xlink="http://www.w3.org/1999/xlink" x="0px" y="0px"
	 viewBox="0 0 35.5 35.5" style="enable-background:new 0 0 35.5 35.5;" xml:space="preserve">
<style type="text/css">
	.st0{fill:#34D07C;}
</style>
<title>facebook</title>
<g>
	<g id="Layer_1-2">
		<path class="st0" d="M17.8,35.5C8,35.5,0,27.6,0,17.8S8,0,17.8,0s17.8,8,17.8,17.8l0,0C35.5,27.6,27.6,35.5,17.8,35.5z M17.8,1
			C8.5,1,1,8.5,1,17.8s7.5,16.8,16.8,16.8S34.5,27,34.5,17.8l0,0C34.5,8.5,27,1,17.8,1z"/>
		<path class="st0" d="M21.7,10h-2c-2-0.1-3.6,1.4-3.8,3.4c0,0.2,0,0.3,0,0.5v1.8h-2c-0.2,0-0.3,0.1-0.3,0.3v2.6
			c0,0.2,0.1,0.3,0.3,0.3h2v6.5c0,0.2,0.1,0.3,0.3,0.3h2.7c0.2,0,0.3-0.1,0.3-0.3v-6.5h2.4c0.2,0,0.3-0.1,0.3-0.3v-2.6
			c0-0.2-0.1-0.3-0.3-0.3h-2.4v-1.5c0-0.7,0.2-1.1,1.1-1.1h1.4c0.2,0,0.3-0.1,0.3-0.3v-2.4C22,10.1,21.8,10,21.7,10z"/>
	</g>
</g>
</svg>
