<?xml version="1.0" encoding="utf-8"?>
<!-- Generator: Adobe Illustrator 23.0.4, SVG Export Plug-In . SVG Version: 6.00 Build 0)  -->
<svg version="1.1" id="Layer_1" xmlns="http://www.w3.org/2000/svg" xmlns:xlink="http://www.w3.org/1999/xlink" x="0px" y="0px"
	 viewBox="0 0 35.5 35.5" style="enable-background:new 0 0 35.5 35.5;" xml:space="preserve">
<style type="text/css">
	.st0{fill:#34D07C;}
</style>
<title>facebook</title>
<g>
	<g id="Layer_1-2">
		<path class="st0" d="M17.8,0C8,0,0,8,0,17.8s8,17.8,17.8,17.8s17.8-8,17.8-17.8S27.6,0,17.8,0C17.8,0,17.8,0,17.8,0z M22,12.6
			c0,0.2-0.1,0.3-0.3,0.3h-1.4c-0.9,0-1.1,0.4-1.1,1.1v1.5h2.4c0.2,0,0.3,0.1,0.3,0.3v2.6c0,0.2-0.1,0.3-0.3,0.3h-2.4v6.5
			c0,0.2-0.1,0.3-0.3,0.3h-2.7c-0.2,0-0.3-0.1-0.3-0.3v-6.5h-2c-0.2,0-0.3-0.1-0.3-0.3v-2.6c0-0.2,0.1-0.3,0.3-0.3h2v-1.8
			c-0.2-2,1.3-3.7,3.3-3.8c0.2,0,0.3,0,0.5,0h2c0.2,0,0.3,0.1,0.3,0.3L22,12.6z"/>
	</g>
</g>
</svg>
