<?xml version="1.0" encoding="utf-8"?>
<!-- Generator: Adobe Illustrator 23.0.6, SVG Export Plug-In . SVG Version: 6.00 Build 0)  -->
<svg version="1.1" id="Layer_1" xmlns="http://www.w3.org/2000/svg" xmlns:xlink="http://www.w3.org/1999/xlink" x="0px" y="0px"
	 viewBox="0 0 87.4 88" style="enable-background:new 0 0 87.4 88;" xml:space="preserve">
<style type="text/css">
	.st0{fill:#34D07C;}
</style>
<title>play</title>
<path class="st0" d="M51.3,44c0,2.1,0,4.2,0,6.1c0,0.2,0,0.4-0.1,0.6c-0.1,0.4-0.5,0.5-0.9,0.4c-0.2-0.1-0.4-0.2-0.6-0.4
	c-1.5-1.2-2.8-2.6-4.3-3.8c-0.1-0.1-0.1-0.1-0.2-0.2c-0.2-0.1-0.4,0-0.5,0.1c0,0.1,0,0.2,0,0.4c0,1,0,1.8,0,2.8c0,0.2,0,0.5-0.1,0.7
	c-0.1,0.4-0.4,0.4-0.7,0.4c-0.2-0.1-0.5-0.2-0.6-0.4c-2.3-2-4.5-4-6.9-6c-0.5-0.5-0.5-1.1,0-1.5c2.2-2,4.4-3.9,6.6-5.9
	c0.2-0.2,0.5-0.5,0.9-0.5c0.2-0.1,0.6,0,0.7,0.2s0.1,0.4,0.1,0.6c0,1,0,2,0,2.9c0,0.1,0,0.2,0,0.4c0,0.2,0.2,0.4,0.5,0.1
	c0.1-0.1,0.2-0.1,0.4-0.2c1.3-1.2,2.7-2.5,4.2-3.7c0.1-0.1,0.4-0.4,0.6-0.4c0.4-0.2,0.7,0,1,0.4c0.1,0.2,0.1,0.4,0.1,0.6
	C51.3,39.9,51.3,41.9,51.3,44z"/>
</svg>
