<?xml version="1.0" encoding="utf-8"?>
<!-- Generator: Adobe Illustrator 23.0.4, SVG Export Plug-In . SVG Version: 6.00 Build 0)  -->
<svg version="1.1" id="Layer_1" xmlns="http://www.w3.org/2000/svg" xmlns:xlink="http://www.w3.org/1999/xlink" x="0px" y="0px"
	 viewBox="0 0 60.6 65.3" style="enable-background:new 0 0 60.6 65.3;" xml:space="preserve">
<style type="text/css">
	.st0{fill:#34D07C;}
</style>
<title>hex</title>
<g>
	<path class="st0" d="M58.4,17.1L58.4,17.1L58.4,17.1c0-0.1,0-0.1,0-0.1l0,0v-0.1l0,0l0,0c0,0,0-0.1-0.1-0.1l0,0c0,0,0-0.1-0.1-0.1
		l0,0l-0.1-0.1l0,0l0,0l-28-14.7l0,0c-0.1,0-0.1-0.1-0.2-0.1c0,0,0,0-0.1,0h-0.1l0,0h-0.1h-0.1c0,0,0,0-0.1,0h-0.1l0,0L2.6,16.4l0,0
		c-0.1,0-0.1,0.1-0.2,0.1l0,0l-0.1,0.1c0,0,0,0,0,0.1l0,0v0.1l0,0c0,0.1,0,0.1,0,0.2l0,0v31.2l0,0c0,0.1,0,0.1,0,0.2l0,0
		c0,0,0,0.1,0.1,0.1l0,0c0,0,0,0,0,0.1l0.1,0.1c0,0,0,0,0.1,0.1l0.1,0.1l0,0l26.7,14.5l0,0h0.1l0,0c0.1,0,0.1,0,0.2,0s0.1,0,0.2,0
		l0,0H30l0,0l27.8-14.5h0.1l0,0l0.1-0.1l0,0l0.1-0.1l0,0l0,0c0-0.1,0-0.1,0.1-0.2l0,0c0-0.1,0-0.1,0-0.2l0,0l0,0V17.1H58.4z
		 M3.8,18.3L14.2,23L3.8,44.7V18.3z M29.7,49.8L16.6,23.5h26.3L29.7,49.8z M16.8,21.8L29.7,4l12.9,17.9H16.8V21.8z M28.3,50.6
		l-24.1-3l11.1-23.1L28.3,50.6z M44.2,24.4l12.1,23.2l-25.2,3L44.2,24.4z M44.5,21.7L32.4,4.9L55.7,17L44.5,21.7z M15,21.6L4.8,17
		L27,5L15,21.6z M28.9,52.3v9.1L7.2,49.6L28.9,52.3z M30.5,52.3l22.7-2.7L30.5,61.4V52.3z M45.3,23.1l11.4-4.8V45L45.3,23.1z"/>
</g>
</svg>
