<?xml version="1.0" encoding="utf-8"?>
<!-- Generator: Adobe Illustrator 23.0.4, SVG Export Plug-In . SVG Version: 6.00 Build 0)  -->
<svg version="1.1" id="Layer_1" xmlns="http://www.w3.org/2000/svg" xmlns:xlink="http://www.w3.org/1999/xlink" x="0px" y="0px"
	 viewBox="0 0 35.5 35.5" style="enable-background:new 0 0 35.5 35.5;" xml:space="preserve">
<style type="text/css">
	.st0{fill:#34D07C;}
</style>
<title>instagram</title>
<g>
	<g id="Layer_1-2">
		<path class="st0" d="M17.8,35.5C8,35.5,0,27.6,0,17.8S8,0,17.8,0s17.8,8,17.8,17.8l0,0C35.5,27.6,27.6,35.5,17.8,35.5z M17.8,1
			C8.5,1,1,8.5,1,17.8s7.5,16.8,16.8,16.8S34.5,27,34.5,17.8l0,0C34.5,8.5,27,1,17.8,1z"/>
		<path class="st0" d="M21.3,10h-7c-2.3,0-4.2,1.9-4.3,4.3v7c0,2.4,1.9,4.3,4.3,4.3h7c2.4,0,4.3-1.9,4.3-4.3v-7
			C25.6,11.9,23.6,10,21.3,10z M24.2,21.3c0,1.6-1.3,2.9-2.9,2.9h-7c-1.6,0-2.9-1.3-2.9-2.9v-7c0-1.6,1.3-2.9,2.9-2.9h7
			c1.6,0,2.9,1.3,2.9,2.9V21.3z"/>
		<path class="st0" d="M17.8,13.7c-2.2,0-4,1.8-4,4s1.8,4,4,4s4-1.8,4-4S20,13.7,17.8,13.7z M17.8,20.4c-1.5,0-2.6-1.2-2.6-2.6
			c0-1.5,1.2-2.6,2.6-2.6c1.5,0,2.6,1.2,2.6,2.6v0C20.4,19.2,19.2,20.4,17.8,20.4z"/>
		<path class="st0" d="M22,12.6c-0.6,0-1,0.4-1,1c0,0.3,0.1,0.5,0.3,0.7c0.4,0.4,1,0.4,1.4,0c0,0,0,0,0,0c0.2-0.2,0.3-0.4,0.3-0.7
			C23,13,22.6,12.6,22,12.6L22,12.6z"/>
	</g>
</g>
</svg>
