<?xml version="1.0" encoding="utf-8"?>
<!-- Generator: Adobe Illustrator 23.0.4, SVG Export Plug-In . SVG Version: 6.00 Build 0)  -->
<svg version="1.1" id="Layer_1" xmlns="http://www.w3.org/2000/svg" xmlns:xlink="http://www.w3.org/1999/xlink" x="0px" y="0px"
	 viewBox="0 0 35.5 35.5" style="enable-background:new 0 0 35.5 35.5;" xml:space="preserve">
<style type="text/css">
	.st0{fill:#34D07C;}
</style>
<title>instagram</title>
<g>
	<g id="Layer_1-2">
		<path class="st0" d="M24.2,14.3c0-1.6-1.3-2.9-2.9-2.9h-7c-1.6,0-2.9,1.3-2.9,2.9v7c0,1.6,1.3,2.9,2.9,2.9h7
			c1.6,0,2.9-1.3,2.9-2.9l0,0V14.3z M17.8,21.8c-2.2,0-4-1.8-4-4s1.8-4,4-4s4,1.8,4,4S20,21.8,17.8,21.8z M22.7,14.3
			c-0.4,0.4-1,0.4-1.4,0c0,0,0,0,0,0c-0.2-0.2-0.3-0.4-0.3-0.7c0-0.6,0.4-1,1-1s1,0.4,1,1C22.9,13.8,22.8,14.1,22.7,14.3z"/>
		<path class="st0" d="M17.8,15.1c-1.5,0-2.6,1.2-2.6,2.6c0,1.5,1.2,2.6,2.6,2.6c1.5,0,2.6-1.2,2.6-2.6l0,0
			C20.4,16.3,19.2,15.1,17.8,15.1z"/>
		<path class="st0" d="M17.8,0C8,0,0,8,0,17.8s8,17.8,17.8,17.8s17.8-8,17.8-17.8S27.6,0,17.8,0C17.8,0,17.8,0,17.8,0z M25.6,21.3
			c0,2.4-1.9,4.3-4.3,4.3h-7c-2.4,0-4.3-2-4.3-4.3v-7c0-2.3,1.9-4.2,4.3-4.3h7c2.4,0,4.3,1.9,4.3,4.3V21.3z"/>
	</g>
</g>
</svg>
