<?xml version="1.0" encoding="utf-8"?>
<!-- Generator: Adobe Illustrator 23.0.4, SVG Export Plug-In . SVG Version: 6.00 Build 0)  -->
<svg version="1.1" id="Layer_1" xmlns="http://www.w3.org/2000/svg" xmlns:xlink="http://www.w3.org/1999/xlink" x="0px" y="0px"
	 viewBox="0 0 86.3 86.4" style="enable-background:new 0 0 86.3 86.4;" xml:space="preserve">
<style type="text/css">
	.st0{fill:#34D07C;}
</style>
<title>next</title>
<path class="st0" d="M38.2,43.2c0-1.7,0-3.3,0-5c0-0.2,0-0.3,0.1-0.5c0.1-0.3,0.4-0.4,0.6-0.3c0,0,0.1,0,0.1,0
	c0.2,0.1,0.3,0.2,0.5,0.3l3.6,3.1c0.1,0.1,0.1,0.1,0.2,0.2c0.1,0.1,0.2,0,0.3-0.1c0,0,0-0.1,0-0.1c0-0.1,0-0.2,0-0.3
	c0-0.8,0-1.5,0-2.3c0-0.2,0-0.4,0.1-0.7c0.1-0.2,0.3-0.4,0.6-0.3c0,0,0,0,0,0c0.2,0.1,0.4,0.2,0.5,0.3l5.5,4.9
	c0.3,0.2,0.4,0.7,0.2,1.1c0,0.1-0.1,0.1-0.2,0.2L45,48.6c-0.2,0.2-0.4,0.3-0.7,0.4c-0.2,0.1-0.5,0-0.6-0.2c-0.1-0.2-0.1-0.3-0.1-0.5
	c0-0.8,0-1.6,0-2.4c0-0.1,0-0.2,0-0.3c0-0.1-0.1-0.2-0.3-0.2c0,0-0.1,0-0.1,0.1c-0.1,0.1-0.2,0.1-0.3,0.2l-3.4,3
	c-0.2,0.1-0.4,0.2-0.6,0.3c-0.2,0.1-0.6,0.1-0.7-0.2c0,0,0-0.1,0-0.1c-0.1-0.2-0.1-0.3-0.1-0.5C38.2,46.6,38.2,44.9,38.2,43.2z"/>
</svg>
