<?xml version="1.0" encoding="utf-8"?>
<!-- Generator: Adobe Illustrator 23.0.4, SVG Export Plug-In . SVG Version: 6.00 Build 0)  -->
<svg version="1.1" id="Layer_1" xmlns="http://www.w3.org/2000/svg" xmlns:xlink="http://www.w3.org/1999/xlink" x="0px" y="0px"
	 viewBox="0 0 86.3 86.4" style="enable-background:new 0 0 86.3 86.4;" xml:space="preserve">
<style type="text/css">
	.st0{fill:#34D07C;}
</style>
<title>next</title>
<path class="st0" d="M4.3,42.7L0,42.4l0.1-0.8l3.3-2l-3.1-0.2v-0.7L4.5,39l-0.1,0.8l-3.3,2L4.3,42L4.3,42.7z"/>
<path class="st0" d="M4.6,38l-4.2-0.7l0.4-2.7l0.6,0.1l-0.3,1.9l1.1,0.2L2.6,35l0.6,0.1L2.9,37l1.2,0.2l0.3-2l0.6,0.1L4.6,38z"/>
<path class="st0" d="M5.1,35l-1.7-2.1L1,33.8l0.2-0.9L3,32.3l-1.2-1.4L2,30.1l1.6,2l2.5-0.9l-0.2,0.9l-1.8,0.6l1.2,1.5L5.1,35z"/>
<path class="st0" d="M6.6,29.9l-3.4-1.3l-0.5,1.2l-0.6-0.2l1.2-3.2L4,26.7l-0.5,1.2l3.4,1.3L6.6,29.9z"/>
<path class="st0" d="M9,24.9c-0.1,0.3-0.3,0.5-0.5,0.7c-0.2,0.2-0.4,0.3-0.6,0.4l-0.3-0.5c0.2-0.1,0.4-0.2,0.5-0.4
	c0.2-0.1,0.3-0.3,0.4-0.5c0.1-0.2,0.1-0.4,0.1-0.6c0-0.2-0.1-0.3-0.3-0.4L8,23.6c-0.1,0-0.1,0-0.2,0c-0.1,0-0.2,0-0.2,0.1
	c-0.1,0.1-0.2,0.1-0.3,0.2l-0.2,0.2c-0.1,0.1-0.2,0.2-0.2,0.2c-0.2,0.2-0.5,0.4-0.8,0.5c-0.3,0-0.5,0-0.8-0.1
	c-0.2-0.1-0.4-0.3-0.5-0.5c-0.1-0.2-0.1-0.4-0.1-0.6c0-0.3,0.1-0.5,0.2-0.7c0.1-0.3,0.3-0.5,0.5-0.7c0.2-0.2,0.4-0.3,0.6-0.4
	l0.3,0.6c-0.3,0.1-0.6,0.4-0.8,0.7c-0.1,0.2-0.2,0.4-0.2,0.6c0,0.2,0.1,0.3,0.2,0.4C5.8,24,5.8,24,5.9,24c0.1,0,0.1,0,0.2,0
	c0.1,0,0.1-0.1,0.2-0.1c0.1-0.1,0.2-0.1,0.3-0.2l0.2-0.2c0.1-0.1,0.2-0.2,0.3-0.2c0.2-0.2,0.5-0.3,0.8-0.4c0.3,0,0.5,0,0.8,0.2
	c0.2,0.1,0.3,0.2,0.4,0.4c0.1,0.1,0.2,0.3,0.2,0.5c0,0.2,0,0.4,0,0.5C9.1,24.5,9.1,24.7,9,24.9z"/>
<path class="st0" d="M10.1,22.8l-3.6-2.3l0.4-0.6l3,2l1.1-1.6l0.5,0.4L10.1,22.8z"/>
<path class="st0" d="M11.9,20.1l-3.4-2.6l0.4-0.6l3.4,2.6L11.9,20.1z"/>
<path class="st0" d="M12.9,18.7l-3.2-2.8l0.8-0.9c0.4-0.5,1-0.9,1.7-1.1c0.6-0.1,1.2,0.2,1.6,0.6c0.5,0.4,0.8,0.9,0.8,1.5
	c0,0.6-0.3,1.3-0.8,1.7L12.9,18.7z M12.9,17.7l0.4-0.5c0.3-0.3,0.5-0.7,0.5-1.1c0-0.4-0.2-0.8-0.6-1.1c-0.3-0.3-0.7-0.4-1.1-0.4
	c-0.4,0.1-0.9,0.3-1.1,0.7l-0.3,0.4L12.9,17.7z"/>
<path class="st0" d="M16,15.4l-2.9-3.1l2-1.8l0.4,0.5l-1.4,1.3l0.8,0.8l1.4-1.2l0.4,0.5l-1.4,1.2l0.8,0.9l1.5-1.4l0.4,0.5L16,15.4z"
	/>
<path class="st0" d="M24.3,9.2l-1.9-3.8L23.1,5l3.3,1.9L25,4l0.6-0.3l1.9,3.8l-0.7,0.3L23.5,6l1.4,2.8L24.3,9.2z"/>
<path class="st0" d="M28.5,7.2l-1.5-4l2.5-0.9l0.2,0.6L28,3.5l0.4,1.1l1.7-0.6l0.2,0.6l-1.7,0.6L29,6.3l1.9-0.7l0.2,0.6L28.5,7.2z"
	/>
<path class="st0" d="M31.4,6.1l1-2.5l-2-1.7l0.9-0.2l1.3,1.2l0.7-1.7L34.2,1l-0.9,2.4l2,1.7l-0.9,0.2l-1.4-1.3l-0.7,1.8L31.4,6.1z"
	/>
<path class="st0" d="M36.6,4.9L36,1.3l-1.3,0.2l-0.1-0.6l3.4-0.5L38,1l-1.3,0.2l0.6,3.6L36.6,4.9z"/>
<path class="st0" d="M42.1,4.4c-0.3,0-0.6,0-0.8-0.1C41,4.3,40.8,4.2,40.6,4l0.3-0.5c0.2,0.1,0.4,0.2,0.5,0.3
	c0.2,0.1,0.4,0.1,0.6,0.1c0.2,0,0.4,0,0.6-0.2c0.1-0.1,0.2-0.3,0.2-0.5c0-0.1,0-0.1,0-0.2c0-0.1,0-0.1-0.1-0.2
	c-0.1-0.1-0.1-0.1-0.2-0.1l-0.3-0.1l-0.3-0.1l-0.3-0.1C41.3,2.3,41,2.2,40.8,2c-0.2-0.2-0.3-0.5-0.3-0.7c0-0.2,0-0.5,0.2-0.6
	c0.1-0.2,0.3-0.3,0.5-0.4C41.5,0.1,41.7,0,42,0c0.3,0,0.6,0,0.9,0.1c0.2,0.1,0.4,0.2,0.6,0.4L43.1,1c-0.3-0.2-0.6-0.4-1-0.3
	c-0.2,0-0.4,0-0.6,0.1c-0.1,0.1-0.2,0.2-0.2,0.4c0,0.1,0,0.1,0,0.2c0,0.1,0,0.1,0.1,0.1c0.1,0.1,0.1,0.1,0.2,0.1
	c0.1,0,0.2,0.1,0.3,0.1l0.3,0.1c0.1,0,0.2,0.1,0.3,0.1c0.3,0.1,0.5,0.2,0.7,0.5c0.2,0.2,0.2,0.5,0.2,0.7c0,0.2,0,0.4-0.1,0.6
	c-0.1,0.2-0.2,0.3-0.3,0.4c-0.1,0.1-0.3,0.2-0.5,0.2C42.5,4.4,42.3,4.4,42.1,4.4z"/>
<path class="st0" d="M44.4,4.3l0.3-4.2h0.8l-0.2,3.6l2,0.1v0.6L44.4,4.3z"/>
<path class="st0" d="M47.7,4.6l0.5-4.2L49,0.4l-0.5,4.2L47.7,4.6z"/>
<path class="st0" d="M49.4,4.8l0.9-4.2l1.2,0.2c0.7,0.1,1.3,0.4,1.8,0.9c0.3,0.5,0.5,1.1,0.3,1.7c-0.1,0.6-0.4,1.1-0.9,1.4
	c-0.6,0.3-1.3,0.4-1.9,0.2L49.4,4.8z M50.3,4.3l0.6,0.1c0.4,0.1,0.9,0.1,1.2-0.1c0.3-0.2,0.6-0.6,0.6-1c0.1-0.4,0-0.8-0.2-1.2
	c-0.3-0.3-0.7-0.6-1.2-0.6l-0.5-0.1L50.3,4.3z"/>
<path class="st0" d="M53.8,5.8l1.3-4.1l2.6,0.8l-0.2,0.6l-1.8-0.6l-0.3,1.1L57,4.2l-0.2,0.6L55,4.2l-0.3,1.2L56.6,6l-0.2,0.6
	L53.8,5.8z"/>
<path class="st0" d="M63.3,9.9l2.4-3.5l0.7,0.4c0,2.4,0,3.7,0,3.8L68.2,8l0.6,0.4L66.4,12l-0.7-0.4c0-2.3,0-3.6,0-3.8L64,10.3
	L63.3,9.9z"/>
<path class="st0" d="M67.2,12.6l2.8-3.3l2.1,1.7l-0.4,0.5l-1.5-1.3l-0.7,0.9l1.4,1.2l-0.4,0.5L69,11.7l-0.8,0.9l1.6,1.3l-0.4,0.5
	L67.2,12.6z"/>
<path class="st0" d="M69.5,14.6l2.6-0.4l0.5-2.5l0.7,0.7l-0.4,1.7l1.8-0.3l0.6,0.6l-2.5,0.4l-0.5,2.6l-0.7-0.7l0.3-1.9l-1.9,0.3
	L69.5,14.6z"/>
<path class="st0" d="M73.1,18.5l2.9-2.3l-0.8-1l0.5-0.4l2.1,2.6l-0.5,0.4l-0.8-1l-2.8,2.3L73.1,18.5z"/>
<path class="st0" d="M76.3,23c-0.2-0.2-0.3-0.5-0.3-0.8c-0.1-0.2-0.1-0.5,0-0.7h0.6c0,0.2,0,0.4,0,0.6c0,0.2,0.1,0.4,0.2,0.5
	c0.1,0.2,0.2,0.3,0.4,0.4c0.2,0.1,0.3,0,0.5-0.1c0.1,0,0.1-0.1,0.2-0.1c0,0,0.1-0.1,0.1-0.1c0-0.1,0-0.2,0-0.2c0-0.1,0-0.2,0-0.4
	s0-0.2-0.1-0.3s0-0.2-0.1-0.3c-0.1-0.3-0.1-0.6,0-0.9c0.1-0.3,0.3-0.5,0.5-0.6c0.2-0.1,0.4-0.2,0.7-0.2c0.2,0,0.4,0.1,0.6,0.2
	c0.2,0.2,0.4,0.4,0.5,0.6c0.2,0.2,0.3,0.5,0.4,0.8c0.1,0.2,0.1,0.5,0,0.7l-0.6-0.1c0.1-0.4,0-0.7-0.2-1c-0.1-0.2-0.2-0.3-0.4-0.4
	c-0.1-0.1-0.3-0.1-0.4,0c-0.1,0-0.1,0.1-0.2,0.1c0,0-0.1,0.1-0.1,0.2c0,0.1,0,0.2,0,0.2c0,0.1,0,0.2,0,0.4c0,0,0,0.2,0.1,0.3
	s0.1,0.3,0.1,0.4c0.1,0.3,0.1,0.6,0,0.9c-0.1,0.2-0.3,0.4-0.5,0.6c-0.2,0.1-0.3,0.2-0.5,0.2c-0.2,0-0.3,0-0.5-0.1
	c-0.2-0.1-0.3-0.2-0.4-0.3C76.5,23.3,76.4,23.2,76.3,23z"/>
<path class="st0" d="M77.5,25l3.8-1.9l0.3,0.7l-3.3,1.6l0.9,1.8l-0.6,0.3L77.5,25z"/>
<path class="st0" d="M78.9,28l3.9-1.6l0.3,0.7l-3.9,1.6L78.9,28z"/>
<path class="st0" d="M79.6,29.5l4.1-1.3l0.3,1.1c0.3,0.6,0.3,1.3,0.1,2c-0.2,0.5-0.7,0.9-1.3,1.1c-0.6,0.2-1.2,0.2-1.7-0.1
	c-0.5-0.4-0.9-0.9-1.1-1.6L79.6,29.5z M80.4,30.1l0.2,0.6c0.1,0.4,0.4,0.8,0.7,1c0.4,0.2,0.8,0.2,1.2,0c0.4-0.1,0.7-0.4,0.9-0.7
	c0.2-0.4,0.2-0.9,0-1.3l-0.2-0.5L80.4,30.1z"/>
<path class="st0" d="M80.9,33.8l4.2-0.8l0.6,2.6L85,35.8l-0.4-1.9l-1.1,0.2l0.4,1.8L83.2,36l-0.4-1.8l-1.2,0.2l0.4,2l-0.6,0.1
	L80.9,33.8z"/>
<path class="st0" d="M82.1,44.2l4.2,0.3v0.8L83,47.2l3.1,0.2v0.7l-4.3-0.3l0.1-0.8l3.3-2L82,44.9L82.1,44.2z"/>
<path class="st0" d="M81.6,48.8l4.2,0.8l-0.5,2.7l-0.6-0.1l0.3-1.9L84,50l-0.3,1.8L83,51.7l0.3-1.8l-1.2-0.2l-0.4,2l-0.6-0.1
	L81.6,48.8z"/>
<path class="st0" d="M81.1,51.9l1.6,2.1l2.4-0.8l-0.2,0.9l-1.7,0.6l1.1,1.4l-0.2,0.8l-1.6-2L80,55.7l0.2-0.9l1.8-0.6l-1.2-1.5
	L81.1,51.9z"/>
<path class="st0" d="M79.5,57l3.4,1.3l0.5-1.3l0.6,0.2l-1.2,3.2l-0.6-0.2l0.5-1.2l-3.4-1.3L79.5,57z"/>
<path class="st0" d="M77.1,62c0.1-0.2,0.3-0.5,0.5-0.7c0.2-0.2,0.4-0.3,0.6-0.4l0.3,0.5c-0.2,0.1-0.4,0.2-0.5,0.3
	c-0.2,0.1-0.3,0.3-0.4,0.5c-0.1,0.2-0.2,0.4-0.2,0.6c0,0.2,0.1,0.3,0.3,0.4c0.1,0,0.1,0.1,0.2,0.1c0.1,0,0.1,0,0.2,0
	c0.1,0,0.2,0,0.2-0.1c0.1-0.1,0.2-0.1,0.3-0.2l0.2-0.2l0.2-0.2c0.2-0.2,0.5-0.4,0.8-0.4c0.3,0,0.5,0,0.8,0.2
	c0.2,0.1,0.4,0.3,0.5,0.5c0.1,0.2,0.1,0.4,0.1,0.7c0,0.3-0.1,0.5-0.3,0.7c-0.1,0.3-0.3,0.5-0.5,0.7c-0.2,0.2-0.4,0.3-0.6,0.3
	l-0.2-0.6c0.3-0.1,0.6-0.4,0.8-0.7c0.1-0.2,0.2-0.4,0.2-0.5c0-0.2-0.1-0.3-0.2-0.4c-0.1,0-0.1-0.1-0.2-0.1H80
	c-0.1,0-0.1,0.1-0.2,0.1c-0.1,0.1-0.2,0.1-0.3,0.2l-0.2,0.2L79,63.7c-0.2,0.2-0.5,0.3-0.8,0.4c-0.5,0-1-0.2-1.2-0.6
	c-0.1-0.1-0.2-0.3-0.2-0.5c0-0.2,0-0.3,0.1-0.5C76.9,62.3,77,62.2,77.1,62z"/>
<path class="st0" d="M76,64l3.5,2.4L79.1,67l-3-2L75,66.6l-0.5-0.3L76,64z"/>
<path class="st0" d="M74.1,66.7l3.4,2.6L77,69.9l-3.4-2.6L74.1,66.7z"/>
<path class="st0" d="M73.1,68.1l3.2,2.9l-0.8,0.9c-0.4,0.5-1,0.9-1.7,1c-0.6,0-1.2-0.2-1.6-0.6c-0.5-0.4-0.8-0.9-0.8-1.5
	c0-0.6,0.3-1.2,0.8-1.7L73.1,68.1z M73.1,69.1l-0.4,0.4c-0.3,0.3-0.5,0.7-0.5,1.1c0,0.4,0.2,0.8,0.6,1.1c0.3,0.3,0.7,0.4,1.1,0.4
	c0.4-0.1,0.9-0.3,1.1-0.7l0.3-0.4L73.1,69.1z"/>
<path class="st0" d="M70,71.3l2.8,3.2l-2,1.8l-0.4-0.5l1.4-1.3l-0.8-0.8l-1.4,1.2l-0.4-0.5l1.4-1.2l-0.8-0.9l-1.5,1.3l-0.4-0.5
	L70,71.3z"/>
<path class="st0" d="M61.6,77.5l1.8,3.8l-0.7,0.3l-3.3-1.9l1.4,2.8l-0.6,0.3l-1.8-3.8l0.7-0.3l3.3,1.9L61,77.8L61.6,77.5z"/>
<path class="st0" d="M57.3,79.4l1.4,4l-2.5,0.9L56,83.7l1.8-0.7L57.5,82l-1.7,0.6L55.5,82l1.7-0.6l-0.4-1.1L55,80.9l-0.2-0.6
	L57.3,79.4z"/>
<path class="st0" d="M54.5,80.4l-1,2.5l1.9,1.7l-0.9,0.2l-1.3-1.2l-0.7,1.7l-0.8,0.2l1-2.4l-2-1.8l0.9-0.2l1.4,1.3l0.7-1.8
	L54.5,80.4z"/>
<path class="st0" d="M49.3,81.6l0.5,3.6l1.3-0.2l0.1,0.6l-3.4,0.5l-0.1-0.6l1.3-0.2l-0.5-3.6L49.3,81.6z"/>
<path class="st0" d="M43.7,82c0.3,0,0.6,0,0.8,0.1c0.2,0.1,0.5,0.2,0.7,0.3L44.9,83c-0.2-0.1-0.3-0.2-0.5-0.3
	c-0.2-0.1-0.4-0.1-0.6-0.1c-0.2,0-0.4,0-0.6,0.2c-0.1,0.1-0.2,0.3-0.2,0.4c0,0.1,0,0.1,0,0.2c0,0.1,0,0.1,0.1,0.2
	c0.1,0.1,0.1,0.1,0.2,0.1l0.3,0.1l0.3,0.1l0.3,0.1c0.3,0.1,0.6,0.2,0.8,0.5c0.2,0.2,0.3,0.5,0.2,0.7c0,0.2,0,0.5-0.2,0.6
	c-0.1,0.2-0.3,0.3-0.5,0.4c-0.2,0.1-0.5,0.1-0.8,0.1c-0.3,0-0.6,0-0.9-0.1c-0.2-0.1-0.4-0.2-0.6-0.4l0.4-0.5c0.3,0.2,0.6,0.4,1,0.3
	c0.2,0,0.4,0,0.6-0.1c0.1-0.1,0.2-0.2,0.2-0.4c0-0.1,0-0.1,0-0.2c0-0.1-0.1-0.1-0.1-0.2c-0.1-0.1-0.1-0.1-0.2-0.1
	c-0.1-0.1-0.2-0.1-0.3-0.1l-0.3-0.1l-0.3-0.1c-0.3-0.1-0.5-0.2-0.7-0.5c-0.2-0.2-0.2-0.5-0.2-0.7c0-0.2,0-0.4,0.1-0.6
	c0.1-0.2,0.2-0.3,0.3-0.4c0.1-0.1,0.3-0.2,0.5-0.2C43.4,82,43.5,82,43.7,82z"/>
<path class="st0" d="M41.4,82l-0.3,4.2h-0.7l0.3-3.6l-2-0.2v-0.6L41.4,82z"/>
<path class="st0" d="M38.1,81.7L37.5,86l-0.7-0.1l0.6-4.2L38.1,81.7z"/>
<path class="st0" d="M36.4,81.5l-0.9,4.2l-1.2-0.3c-0.7-0.1-1.3-0.4-1.8-0.9c-0.3-0.5-0.4-1.1-0.3-1.7c0.1-0.6,0.5-1.1,1-1.4
	c0.6-0.3,1.3-0.3,1.9-0.2L36.4,81.5z M35.5,82L35,81.8c-0.4-0.1-0.9-0.1-1.2,0.1c-0.3,0.2-0.6,0.6-0.7,1c-0.1,0.4,0,0.8,0.2,1.2
	c0.3,0.4,0.7,0.6,1.2,0.7l0.5,0.1L35.5,82z"/>
<path class="st0" d="M32,80.5l-1.4,4.1l-2.5-0.9l0.2-0.6l1.9,0.6l0.4-1.1L28.8,82l0.2-0.6l1.7,0.6l0.4-1.1l-1.9-0.6l0.2-0.6L32,80.5
	z"/>
<path class="st0" d="M22.5,76.2l-2.4,3.5l-0.6-0.4c0-2.4,0-3.7,0-3.8L17.7,78l-0.6-0.4l2.4-3.5l0.6,0.4v3.8l1.8-2.6L22.5,76.2z"/>
<path class="st0" d="M18.8,73.5L16,76.7L14,75l0.4-0.5l1.5,1.3l0.7-0.9l-1.4-1.2l0.4-0.5l1.3,1.2l0.8-0.9l-1.5-1.3l0.4-0.5
	L18.8,73.5z"/>
<path class="st0" d="M16.4,71.5l-2.6,0.3l-0.5,2.5l-0.6-0.7l0.4-1.7l-1.8,0.3l-0.6-0.6l2.5-0.3l0.5-2.6l0.6,0.7l-0.4,1.8l1.9-0.3
	L16.4,71.5z"/>
<path class="st0" d="M12.9,67.5L10,69.8l0.8,1l-0.5,0.4l-2.1-2.7l0.5-0.4l0.8,1l2.9-2.2L12.9,67.5z"/>
<path class="st0" d="M9.8,62.9c0.1,0.2,0.3,0.5,0.3,0.8c0.1,0.2,0.1,0.5,0,0.7H9.5c0-0.2,0-0.4,0-0.6c0-0.2-0.1-0.4-0.2-0.6
	C9.2,63.1,9,63,8.9,62.9c-0.2-0.1-0.3,0-0.5,0.1l-0.2,0.1c0,0-0.1,0.1-0.1,0.2c0,0.1,0,0.2,0,0.2c0,0.1,0,0.2,0,0.3
	c0,0.1,0,0.2,0.1,0.3s0.1,0.2,0.1,0.3c0.1,0.3,0.1,0.6,0,0.9c-0.1,0.3-0.3,0.5-0.5,0.6C7.6,66,7.3,66.1,7.1,66
	c-0.2,0-0.4-0.1-0.6-0.2c-0.2-0.2-0.4-0.4-0.5-0.6c-0.2-0.3-0.3-0.5-0.3-0.8c-0.1-0.2-0.1-0.5,0-0.7l0.6,0.1c-0.1,0.3,0,0.7,0.2,1
	c0.1,0.2,0.2,0.3,0.4,0.4c0.1,0.1,0.3,0.1,0.4,0c0.1,0,0.1-0.1,0.2-0.1c0,0,0.1-0.1,0.1-0.2c0-0.1,0-0.2,0-0.2c0-0.1,0-0.2,0-0.3
	c0-0.1,0-0.2-0.1-0.3c0-0.1-0.1-0.2-0.1-0.4c-0.1-0.3-0.1-0.6,0-0.9c0.1-0.2,0.3-0.4,0.6-0.5c0.2-0.1,0.3-0.2,0.5-0.2
	c0.2,0,0.4,0,0.5,0.1c0.2,0.1,0.3,0.2,0.4,0.3C9.6,62.6,9.7,62.8,9.8,62.9z"/>
<path class="st0" d="M8.6,61l-3.8,1.8l-0.3-0.7l3.3-1.6l-0.8-1.8l0.6-0.3L8.6,61z"/>
<path class="st0" d="M7.2,58l-4,1.6L3,58.9l4-1.6L7.2,58z"/>
<path class="st0" d="M6.5,56.4l-4.1,1.3l-0.3-1.1c-0.3-0.6-0.3-1.3,0-2c0.3-0.5,0.7-0.9,1.3-1.1c0.6-0.2,1.2-0.2,1.7,0.1
	c0.5,0.4,0.9,0.9,1.1,1.6L6.5,56.4z M5.7,55.8l-0.2-0.6c-0.1-0.4-0.4-0.8-0.7-1C4.4,54.1,4,54,3.6,54.2c-0.4,0.1-0.7,0.4-0.9,0.7
	c-0.2,0.4-0.2,0.9,0,1.3l0.2,0.5L5.7,55.8z"/>
<path class="st0" d="M5.3,52l-4.2,0.8l-0.5-2.6l0.6-0.1L1.6,52l1.1-0.2L2.3,50L3,49.8l0.4,1.8l1.2-0.2l-0.4-2l0.6-0.1L5.3,52z"/>
<path class="st0" d="M59.5,5c0.2-0.3,0.4-0.7,0.6-1h0.1c0-0.1,0.1-0.1,0.2,0c0,0,0,0,0,0c0,0,0,0.1,0,0.1c0.1,0.3,0.2,0.7,0.3,1v0.1
	c0,0,0,0,0.1,0c0,0,0,0,0,0l0,0l0.3-0.4c0,0,0.1-0.1,0.1-0.1c0,0,0.1,0,0.2,0c0,0,0,0,0,0c0,0,0.1,0.1,0.1,0.1
	c0.2,0.6,0.3,1.1,0.5,1.7c0,0.1,0,0.2-0.1,0.2c0,0,0,0-0.1,0L60.2,7c-0.1,0-0.1,0-0.2,0c-0.1,0-0.1-0.1-0.1-0.1c0,0,0-0.1,0-0.1
	l0.3-0.5l0,0c0,0,0-0.1-0.1-0.1h-0.1l-1,0.2H59c-0.1,0-0.1-0.1-0.1-0.1c0,0,0,0,0,0c0,0,0-0.1,0-0.1C59.1,5.7,59.3,5.4,59.5,5z"/>
<path class="st0" d="M84.2,38.5l1.2-0.1h0.1c0.1,0,0.1,0.1,0.1,0.1c0,0,0,0,0,0c0,0,0,0.1-0.1,0.1c-0.2,0.3-0.4,0.6-0.7,0.9v0v0.1
	H85h0.5c0,0,0.1,0,0.2,0c0.1,0,0.1,0.1,0.1,0.1c0,0,0,0,0,0c0,0.1,0,0.1-0.1,0.1l-1,1.4c-0.1,0.1-0.2,0.1-0.3,0c0,0,0,0,0,0
	l-1.3-1.2c0,0-0.1-0.1-0.1-0.2c0,0,0-0.1,0-0.1c0,0,0.1,0,0.1,0l0.6,0h0.1c0,0,0-0.1,0-0.1c0,0,0,0,0,0c0,0,0,0-0.1-0.1L83,39
	c0,0-0.1-0.1-0.1-0.1c0,0-0.1-0.1,0-0.2c0,0,0,0,0,0H83L84.2,38.5z"/>
<path class="st0" d="M67.5,76.6l0.6,1c0,0,0,0.1,0,0.1c0,0.1,0,0.1-0.1,0.1c0,0,0,0,0,0h-0.1l-1.1-0.2h-0.1c0,0,0,0.1,0,0.1l0,0
	c0.1,0.2,0.2,0.3,0.3,0.5c0,0,0,0.1,0,0.2c0,0.1,0,0.1-0.1,0.1c0,0,0,0,0,0c0,0-0.1,0-0.2,0L65,78.1c-0.1,0-0.2-0.1-0.2-0.2
	c0,0,0,0,0-0.1c0.2-0.5,0.4-1.1,0.6-1.6c0-0.1,0-0.1,0.1-0.2c0,0,0.1,0,0.1,0c0,0,0.1,0.1,0.1,0.1c0.1,0.2,0.2,0.3,0.3,0.5l0,0
	 M66.1,76.6C66.1,76.6,66.1,76.6,66.1,76.6l0.3-1.1l0.1-0.1c0-0.1,0.1-0.1,0.2,0c0,0,0,0,0,0c0,0,0.1,0,0.1,0.1L66.1,76.6z"/>
<path class="st0" d="M26,80.9l-0.6,1c0,0,0,0.1-0.1,0.1c0,0-0.1,0.1-0.2,0c0,0,0,0,0,0c0,0,0-0.1,0-0.1l-0.3-1.1c0,0,0,0,0-0.1
	s-0.1,0-0.1,0l0,0l-0.3,0.4l-0.1,0.1c0,0-0.1,0-0.1,0c0,0,0,0,0,0c0,0-0.1-0.1-0.1-0.1c-0.2-0.6-0.3-1.1-0.5-1.7
	c0-0.1,0-0.2,0.1-0.2c0,0,0,0,0.1,0l1.6-0.3c0.1,0,0.1,0,0.2,0c0.1,0,0.1,0.1,0.1,0.1c0,0,0,0.1,0,0.1l-0.3,0.5v0.1
	c0,0,0,0.1,0.1,0.1h0.1l1-0.2c0,0,0.1,0,0.1,0c0.1,0,0.1,0.1,0.1,0.1c0,0,0,0,0,0c0,0,0,0.1,0,0.1L26,80.9z"/>
<path class="st0" d="M1.8,47.6H0.6H0.4c-0.1,0-0.1-0.1-0.1-0.2c0,0,0,0,0,0c0,0,0-0.1,0.1-0.1l0.7-0.8l0,0c0,0,0-0.1,0-0.1H0.6H0.4
	c-0.1,0-0.1-0.1-0.1-0.1c0,0,0,0,0,0c0,0,0-0.1,0.1-0.1l1.2-1.3c0.1-0.1,0.2-0.1,0.3,0c0,0,0,0,0,0L3,46c0,0,0.1,0.1,0.1,0.2
	c0,0.1,0,0.1-0.1,0.1H2.9H2.3c0,0,0,0.1,0,0.1c0,0,0,0,0,0v0.1C2.6,46.7,2.8,47,3,47.2l0.1,0.1c0,0.1,0,0.1,0,0.2c0,0,0,0,0,0H2.9
	L1.8,47.6z"/>
<path class="st0" d="M19.1,9.9L18.4,9c0,0,0-0.1,0-0.1c0-0.1,0-0.1,0.1-0.1c0,0,0,0,0,0h0.1l1.1,0.1h0.1c0,0,0.1,0,0-0.1s0,0,0-0.1
	l-0.3-0.4c0,0-0.1-0.1-0.1-0.1c0,0,0-0.1,0-0.2h0.1l1.7,0.2c0.1,0,0.2,0.1,0.2,0.2c0,0,0,0,0,0.1c-0.1,0.6-0.3,1.1-0.4,1.7
	c0,0.1,0,0.1-0.1,0.2c0,0-0.1,0-0.1,0c0,0-0.1,0-0.1-0.1l-0.3-0.5V9.7c0,0-0.1,0-0.1,0c0,0,0,0.1,0,0.1l-0.2,1
	c0,0.1-0.1,0.2-0.2,0.2c0,0.1-0.1,0.1-0.2,0.1c0,0-0.1-0.1-0.1-0.1L19.1,9.9z"/>
</svg>
