<svg xmlns="http://www.w3.org/2000/svg" viewBox="0 0 60.59 69.55"><defs><style>.cls-1{fill:#34cf7c;}</style></defs><title>hex</title><g id="Layer_2" data-name="Layer 2"><g id="D1:_Proyecto" data-name="D1: Proyecto"><path class="cls-1" d="M0,34.73c0-5.62,0-11.24,0-16.86a.92.92,0,0,1,.52-.93Q15,8.65,29.37.3a1.56,1.56,0,0,1,1.81,0q14.48,8.4,29,16.74a1,1,0,0,1,.43.75q0,17,0,33.91a1,1,0,0,1-.6.9q-13.87,8-27.72,16a16.55,16.55,0,0,1-1.53.86,1.1,1.1,0,0,1-.87,0Q15.25,61.06.62,52.6A1.09,1.09,0,0,1,0,51.52C0,45.92,0,40.32,0,34.73ZM30.29,13.62,12.51,44.45H48.07ZM47.94,45.36H12.64L30.31,68.63C36.18,60.87,42,53.15,47.94,45.36ZM1,17.79,11.84,44,29.53,13.37ZM48.74,44,59.63,17.79,31.05,13.36ZM32,67.73l.09.1L59.44,52,48.87,45.4Zm-3.45.06.08-.11L11.7,45.39,1.14,52ZM49.27,44.74l10.48,6.55V19.79h-.09ZM.83,51.29,11.3,44.74C7.82,36.37,4.37,28.09.93,19.8l-.1,0ZM57.9,16.75l0-.11L30.71.88c0,.18,0,.26,0,.34,0,3.6,0,7.21,0,10.81,0,.52.29.53.64.59l6.3,1ZM29.85.91l-27,15.64,0,.16,2.4-.36q12-1.86,24-3.72c.51-.07.68-.23.68-.76,0-3.43,0-6.86,0-10.29C29.89,1.4,29.87,1.21,29.85.91Z"/></g></g></svg>