<?xml version="1.0" encoding="utf-8"?>
<!-- Generator: Adobe Illustrator 23.0.4, SVG Export Plug-In . SVG Version: 6.00 Build 0)  -->
<svg version="1.1" id="Layer_1" xmlns="http://www.w3.org/2000/svg" xmlns:xlink="http://www.w3.org/1999/xlink" x="0px" y="0px"
	 viewBox="0 0 87.4 88" style="enable-background:new 0 0 87.4 88;" xml:space="preserve">
<style type="text/css">
	.st0{fill:#34D07C;}
</style>
<title>play</title>
<g>
	<path class="st0" d="M47.4,52.2h-0.2c-0.8,0-1.4-0.6-1.4-1.4v-14c0-0.8,0.6-1.4,1.4-1.4h0.2c0.8,0,1.4,0.6,1.4,1.4v14
		C48.8,51.6,48.2,52.2,47.4,52.2z"/>
	<path class="st0" d="M40.2,52.2H40c-0.8,0-1.4-0.6-1.4-1.4v-14c0-0.8,0.6-1.4,1.4-1.4h0.2c0.8,0,1.4,0.6,1.4,1.4v14
		C41.6,51.6,41,52.2,40.2,52.2z"/>
</g>
</svg>
