<svg xmlns="http://www.w3.org/2000/svg" viewBox="0 0 87.19 87.85"><defs><style>.cls-1{fill:#34d07c;}</style></defs><title>pause</title><g id="Layer_2" data-name="Layer 2"><g id="Layer_1-2" data-name="Layer 1"><path class="cls-1" d="M5.7,36.79.16,35.47l.38-1.58c0-.18.08-.35.12-.48L.8,33A1.81,1.81,0,0,1,1,32.59a2.92,2.92,0,0,1,.21-.32A.91.91,0,0,1,1.45,32a1.26,1.26,0,0,1,.33-.15,1.05,1.05,0,0,1,.41-.05,1.81,1.81,0,0,1,.49.07,1.71,1.71,0,0,1,.72.32,1.09,1.09,0,0,1,.38.54,1.93,1.93,0,0,1,.1.73,5.13,5.13,0,0,1-.14.93l-.2.84,2.39.57Zm-3-1.74.19-.82A4.28,4.28,0,0,0,3,33.75a1.17,1.17,0,0,0,0-.38.51.51,0,0,0-.17-.3.82.82,0,0,0-.35-.17l-.23,0H2a.26.26,0,0,0-.15.07L1.76,33a.76.76,0,0,0-.1.15l-.08.17a1.65,1.65,0,0,0-.07.21,1.62,1.62,0,0,1-.06.22c0,.06,0,.15-.06.26l-.16.65Z"/><path class="cls-1" d="M6.7,32.5,2.25,28.28l.37-.94,6.14-.05-.41,1H6.86L6,30.47l1.09,1ZM5.29,29.79l.56-1.42-2.34-.11Z"/><path class="cls-1" d="M10.34,24.73a3,3,0,0,1-.6.77,1.84,1.84,0,0,1-.64.39,1.65,1.65,0,0,1-.67.09,2.51,2.51,0,0,1-.67-.15,4.21,4.21,0,0,1-.68-.33L4.19,23.81l.5-.85,2.93,1.71a2.75,2.75,0,0,0,.57.25,1.38,1.38,0,0,0,.47.07,1,1,0,0,0,.39-.11,1,1,0,0,0,.31-.23,1.87,1.87,0,0,0,.25-.34,2,2,0,0,0,.2-.49,1.29,1.29,0,0,0,0-.48,1.12,1.12,0,0,0-.28-.49,2.75,2.75,0,0,0-.59-.46L6,20.69l.51-.86,2.89,1.69a4.6,4.6,0,0,1,.61.42,2,2,0,0,1,.46.51,1.59,1.59,0,0,1,.27.63,2,2,0,0,1,0,.75A3.35,3.35,0,0,1,10.34,24.73Z"/><path class="cls-1" d="M13.36,20.3a3.6,3.6,0,0,1-.83.78,2.12,2.12,0,0,1-.91.38l-.29-.77a2.49,2.49,0,0,0,.73-.34,2.67,2.67,0,0,0,.6-.52A1.25,1.25,0,0,0,13,19.1a.7.7,0,0,0-.31-.57,1,1,0,0,0-.21-.14.48.48,0,0,0-.22,0,.92.92,0,0,0-.3.07c-.11,0-.25.13-.42.23l-.35.23-.36.24a2.66,2.66,0,0,1-1.12.41,1.48,1.48,0,0,1-1-.36,1.41,1.41,0,0,1-.51-.74,1.55,1.55,0,0,1,0-.88,2.87,2.87,0,0,1,.49-.88,3.87,3.87,0,0,1,.85-.84,2.29,2.29,0,0,1,.9-.31l.2.81a1.82,1.82,0,0,0-1.19.76,1.48,1.48,0,0,0-.34.69.52.52,0,0,0,.2.53,1,1,0,0,0,.22.14.59.59,0,0,0,.23,0,1,1,0,0,0,.3-.09,2.64,2.64,0,0,0,.42-.23l.36-.23.41-.27a2.16,2.16,0,0,1,1.1-.36,1.58,1.58,0,0,1,.95.4,1.61,1.61,0,0,1,.49.6A1.44,1.44,0,0,1,14,19a2.48,2.48,0,0,1-.19.68A2.61,2.61,0,0,1,13.36,20.3Z"/><path class="cls-1" d="M15.37,17.78l-4-4.07L14,11.21l.6.61L12.7,13.63l1.06,1.09L15.52,13l.6.61-1.75,1.71,1.12,1.15,1.93-1.88.6.61Z"/><path class="cls-1" d="M21.77,12.35l-2.67-4-1.46,1-.47-.71,3.77-2.5.47.71-1.48,1,2.67,4Z"/><path class="cls-1" d="M24.79,10.41,22.34,5.28l.9-.43,1,2.11,2.41-1.14-1-2.12.9-.42L29,8.42l-.88.41L27,6.58,24.63,7.73,25.7,10Z"/><path class="cls-1" d="M30.4,7.92,28.72,2.48l3.43-1.06.26.82L29.92,3l.45,1.45,2.35-.72.25.82-2.34.72.48,1.54L33.68,6l.26.82Z"/><path class="cls-1" d="M39,6,36.28.52,37.39.41l.84,1.81,1.14,2.4c.17-.64.55-2.15,1.15-4.52l1-.1L40,5.87Z"/><path class="cls-1" d="M42.87,5.73,43,0l1,0-.09,5.68Z"/><path class="cls-1" d="M45.34,5.72,46,.07l1.58.18a3.79,3.79,0,0,1,2.45,1,2.6,2.6,0,0,1,.6,2.16,2.72,2.72,0,0,1-1.06,2,3.5,3.5,0,0,1-2.48.46ZM46.42,5l.8.09a2.28,2.28,0,0,0,1.63-.33,2,2,0,0,0,.72-1.45,1.85,1.85,0,0,0-.39-1.5,2.48,2.48,0,0,0-1.63-.7L46.87,1Z"/><path class="cls-1" d="M51.39,6.56l1.45-5.5L56.31,2l-.21.82-2.51-.66L53.2,3.61l2.37.63-.21.82L53,4.44,52.58,6l2.61.68L55,7.51Z"/><path class="cls-1" d="M58.4,9a2.77,2.77,0,0,1-1.61-1.57A3,3,0,0,1,57,5.09,2.9,2.9,0,0,1,58.5,3.46a2.74,2.74,0,0,1,2.25.1,2.72,2.72,0,0,1,1.57,1.55,2.92,2.92,0,0,1-.14,2.25A3,3,0,0,1,60.63,9,2.73,2.73,0,0,1,58.4,9Zm.32-.79a1.63,1.63,0,0,0,1.43,0,2.45,2.45,0,0,0,1-1.26,2.34,2.34,0,0,0,.19-1.58,1.56,1.56,0,0,0-1-1A1.64,1.64,0,0,0,59,4.3a2.28,2.28,0,0,0-1,1.22,2.41,2.41,0,0,0-.21,1.62A1.6,1.6,0,0,0,58.72,8.16Z"/><path class="cls-1" d="M68.05,14.82l3.89-4.15,1.18,1.1.36.35c.09.1.2.21.3.33a2.21,2.21,0,0,1,.26.34,3.59,3.59,0,0,1,.17.34,1.19,1.19,0,0,1,.09.36,1.59,1.59,0,0,1,0,.36,1.11,1.11,0,0,1-.16.38,2.45,2.45,0,0,1-.3.4,1.87,1.87,0,0,1-.64.46,1.06,1.06,0,0,1-.66.06,1.93,1.93,0,0,1-.68-.27,5.43,5.43,0,0,1-.74-.58l-.63-.6-1.68,1.8Zm3-1.73.62.58A4,4,0,0,0,72,14a1.17,1.17,0,0,0,.34.16.5.5,0,0,0,.34,0,.71.71,0,0,0,.32-.22,1.1,1.1,0,0,0,.14-.18.79.79,0,0,0,.08-.16.33.33,0,0,0,0-.17.61.61,0,0,0,0-.15.34.34,0,0,0-.08-.16l-.11-.16a.81.81,0,0,0-.14-.16l-.17-.17-.19-.18L72.07,12Z"/><path class="cls-1" d="M71.26,17.81,77.13,16l.63.78-3,5.37-.7-.88.74-1.3-1.45-1.78L72,18.65Zm3.06.1,1,1.19q.77-1.19,1.26-2Z"/><path class="cls-1" d="M76.23,24.81a2.82,2.82,0,0,1-.37-.9,1.94,1.94,0,0,1,0-.75,1.53,1.53,0,0,1,.26-.62,2.56,2.56,0,0,1,.46-.52,4.75,4.75,0,0,1,.62-.43l2.89-1.68.5.86-2.93,1.7a2.6,2.6,0,0,0-.5.37,1.32,1.32,0,0,0-.29.38.94.94,0,0,0-.1.39,1.26,1.26,0,0,0,0,.39,1.85,1.85,0,0,0,.18.38,1.81,1.81,0,0,0,.33.42,1.11,1.11,0,0,0,.41.23,1.16,1.16,0,0,0,.56,0,2.77,2.77,0,0,0,.69-.29L81.88,23l.5.86-2.9,1.69a5,5,0,0,1-.67.32,2.43,2.43,0,0,1-.67.15,1.65,1.65,0,0,1-.67-.08,1.82,1.82,0,0,1-.64-.4A2.86,2.86,0,0,1,76.23,24.81Z"/><path class="cls-1" d="M78.58,29.61a3.59,3.59,0,0,1-.26-1.11,2.11,2.11,0,0,1,.12-1l.82.12a2.29,2.29,0,0,0-.07.81,2.7,2.7,0,0,0,.15.78,1.25,1.25,0,0,0,.48.64.68.68,0,0,0,.64,0,.82.82,0,0,0,.23-.11.61.61,0,0,0,.14-.17.82.82,0,0,0,.09-.3c0-.12,0-.28,0-.48s0-.22,0-.41,0-.34,0-.43a2.58,2.58,0,0,1,.2-1.18,1.61,1.61,0,0,1,1.68-.74,1.72,1.72,0,0,1,.75.45,2.85,2.85,0,0,1,.53.87,3.9,3.9,0,0,1,.31,1.15,2.26,2.26,0,0,1-.18.93l-.8-.22a1.84,1.84,0,0,0-.07-1.41,1.59,1.59,0,0,0-.43-.64.54.54,0,0,0-.57-.09,1,1,0,0,0-.23.13.37.37,0,0,0-.14.18.82.82,0,0,0-.08.3,3.8,3.8,0,0,0,0,.48c0,.07,0,.21,0,.42s0,.38,0,.49a2.21,2.21,0,0,1-.23,1.14,1.57,1.57,0,0,1-.82.63,1.48,1.48,0,0,1-.76.12,1.3,1.3,0,0,1-.64-.23,2.28,2.28,0,0,1-.49-.49A3.31,3.31,0,0,1,78.58,29.61Z"/><path class="cls-1" d="M79.79,32.62l5.5-1.43.91,3.47-.82.22-.66-2.52-1.47.39.62,2.37-.83.22L82.43,33l-1.56.41L81.55,36l-.83.22Z"/><path class="cls-1" d="M81.33,40.87l4.83-.32L86,38.8l.85,0,.3,4.51-.85.06-.12-1.78-4.82.32Z"/><path class="cls-1" d="M81.52,44.45l5.67.42-.07,1-2.34-.18-.19,2.67,2.33.17-.07,1-5.67-.42.07-1,2.48.18.19-2.66-2.48-.18Z"/><path class="cls-1" d="M80.92,50.54l5.55,1.23-.77,3.5-.84-.18.57-2.54-1.49-.32-.53,2.4-.83-.19.52-2.39-1.57-.34L81,54.34l-.83-.18Z"/><path class="cls-1" d="M78.36,59l6.08.34-.46,1-2-.16c-1.16-.09-2-.16-2.65-.19l3.36,3.23-.42.95L78,59.91Z"/><path class="cls-1" d="M76.65,62.48l4.93,2.84-.49.86-4.93-2.84Z"/><path class="cls-1" d="M75.44,64.62,80,68l-.94,1.27A3.83,3.83,0,0,1,77,70.89a2.58,2.58,0,0,1-2.18-.55,2.72,2.72,0,0,1-1.24-1.94A3.52,3.52,0,0,1,74.41,66Zm.1,1.3-.47.65a2.22,2.22,0,0,0-.52,1.58,2,2,0,0,0,.89,1.34,1.84,1.84,0,0,0,1.5.41,2.43,2.43,0,0,0,1.41-1.07l.41-.55Z"/><path class="cls-1" d="M71.7,69.47l4,4L73.24,76l-.61-.6,1.82-1.85L73.37,72.5l-1.72,1.76-.61-.6,1.71-1.75L71.6,70.78l-1.89,1.93-.61-.6Z"/><path class="cls-1" d="M66.16,74.38a2.79,2.79,0,0,1,2.16-.63A3,3,0,0,1,70.23,75a2.91,2.91,0,0,1,.66,2.15,2.78,2.78,0,0,1-1.2,1.91,2.7,2.7,0,0,1-2.12.6,3,3,0,0,1-1.89-1.23,3,3,0,0,1-.7-2.18A2.7,2.7,0,0,1,66.16,74.38Zm.53.66A1.6,1.6,0,0,0,66,76.28a2.39,2.39,0,0,0,.58,1.52,2.34,2.34,0,0,0,1.28,1,1.61,1.61,0,0,0,1.37-.36,1.64,1.64,0,0,0,.74-1.23,2.35,2.35,0,0,0-.55-1.5,2.43,2.43,0,0,0-1.31-1A1.6,1.6,0,0,0,66.69,75Z"/><path class="cls-1" d="M58.56,79l2,5.31-1.51.58-.47.17-.43.13a2.76,2.76,0,0,1-.42.08,2.41,2.41,0,0,1-.38,0,1,1,0,0,1-.36-.07,1.73,1.73,0,0,1-.31-.19,1.18,1.18,0,0,1-.27-.31,2.37,2.37,0,0,1-.23-.45,1.93,1.93,0,0,1-.14-.78,1.16,1.16,0,0,1,.24-.62,2,2,0,0,1,.55-.49,4.71,4.71,0,0,1,.84-.41l.81-.31-.87-2.29Zm.25,3.44-.79.3a3.88,3.88,0,0,0-.44.2,1.5,1.5,0,0,0-.31.24.52.52,0,0,0-.14.3.78.78,0,0,0,0,.39,1.8,1.8,0,0,0,.11.2.58.58,0,0,0,.11.15.34.34,0,0,0,.14.09l.15,0a.48.48,0,0,0,.17,0l.19,0,.21-.06.22-.08.25-.09.63-.24Z"/><path class="cls-1" d="M54.47,80.55l-1,6-1,.22-3.51-5,1.1-.25L51,82.77l2.24-.51.22-1.47ZM53,83.25l-1.48.33c.49.8.89,1.47,1.22,2C52.83,85.06,52.92,84.28,53,83.25Z"/><path class="cls-1" d="M46,81.92A3.31,3.31,0,0,1,47,82a2,2,0,0,1,.69.3,1.69,1.69,0,0,1,.44.51,2.21,2.21,0,0,1,.26.64,4,4,0,0,1,.12.74l.23,3.34-1,.07-.24-3.38a2.14,2.14,0,0,0-.11-.61,1.15,1.15,0,0,0-.21-.43.93.93,0,0,0-.3-.26,1.09,1.09,0,0,0-.37-.13,2,2,0,0,0-.43,0,1.53,1.53,0,0,0-.51.11,1,1,0,0,0-.64.77,2.22,2.22,0,0,0-.05.75l.24,3.38-1,.07-.24-3.34a3.7,3.7,0,0,1,0-.75,2.42,2.42,0,0,1,.16-.67,1.85,1.85,0,0,1,.36-.57,2.07,2.07,0,0,1,.64-.4A3.61,3.61,0,0,1,46,81.92Z"/><path class="cls-1" d="M40.65,81.93a3.88,3.88,0,0,1,1.12.25,2.28,2.28,0,0,1,.82.53l-.47.69a2.53,2.53,0,0,0-.69-.42,3,3,0,0,0-.77-.2,1.27,1.27,0,0,0-.79.15.69.69,0,0,0-.3.57,1.78,1.78,0,0,0,0,.25.48.48,0,0,0,.09.21,1,1,0,0,0,.23.21l.43.21.38.16.4.16a2.41,2.41,0,0,1,1,.7,1.37,1.37,0,0,1,.25,1,1.4,1.4,0,0,1-.32.84,1.52,1.52,0,0,1-.73.47,2.54,2.54,0,0,1-1,.1,3.79,3.79,0,0,1-1.17-.22,2.14,2.14,0,0,1-.76-.57l.55-.62a1.85,1.85,0,0,0,1.3.55,1.48,1.48,0,0,0,.76-.11.51.51,0,0,0,.32-.46,1.2,1.2,0,0,0,0-.27.53.53,0,0,0-.11-.21.77.77,0,0,0-.23-.2l-.43-.21-.4-.16-.45-.19a2.23,2.23,0,0,1-.92-.7,1.67,1.67,0,0,1-.21-1,1.73,1.73,0,0,1,.22-.74,1.38,1.38,0,0,1,.49-.47,2.34,2.34,0,0,1,.66-.23A3.76,3.76,0,0,1,40.65,81.93Z"/><path class="cls-1" d="M37.41,81.7l-1.12,5.58-3.52-.7.17-.84,2.55.51.29-1.49-2.41-.48.17-.84,2.4.48.31-1.58-2.64-.53.16-.83Z"/><path class="cls-1" d="M29.33,79.49,27.5,84l1.62.66-.32.79-4.19-1.71.32-.79,1.65.67,1.83-4.47Z"/><path class="cls-1" d="M26,78.1,23.17,83l-.86-.5,1.18-2-2.3-1.35-1.18,2-.86-.5L22,75.75l.84.49-1.25,2.15,2.3,1.34,1.26-2.14Z"/><path class="cls-1" d="M20.81,74.86l-3.54,4.45-2.81-2.23.53-.67L17,78,18,76.84l-1.92-1.53.53-.67,1.91,1.52,1-1.26-2.11-1.68.53-.66Z"/><path class="cls-1" d="M14.35,68.88l-3,5.31-.72-.85c.09-.14.43-.72,1-1.72s1-1.77,1.33-2.3L8.64,70.93,8,70.13l5.74-2Z"/><path class="cls-1" d="M12,65.8,7.25,69l-.56-.82,4.7-3.2Z"/><path class="cls-1" d="M10.55,63.78l-5,2.65L4.78,65a3.82,3.82,0,0,1-.55-2.6,2.61,2.61,0,0,1,1.45-1.72A2.74,2.74,0,0,1,8,60.44a3.53,3.53,0,0,1,1.77,1.79Zm-1.22-.49L9,62.58a2.27,2.27,0,0,0-1.2-1.16,2,2,0,0,0-1.59.22,1.88,1.88,0,0,0-1,1.17,2.52,2.52,0,0,0,.35,1.74l.32.6Z"/><path class="cls-1" d="M7.83,58.3,2.47,60.2l-1.2-3.38.8-.29L2.94,59l1.43-.51-.82-2.31.81-.29.82,2.3,1.51-.53-.9-2.55.8-.28Z"/><path class="cls-1" d="M5.85,51.15a2.79,2.79,0,0,1-.4,2.21,3,3,0,0,1-2,1.16,2.94,2.94,0,0,1-2.23-.35A2.82,2.82,0,0,1,.07,52.25a2.7,2.7,0,0,1,.39-2.17A3,3,0,0,1,2.4,48.92a3,3,0,0,1,2.27.34A2.71,2.71,0,0,1,5.85,51.15ZM5,51.33a1.62,1.62,0,0,0-.79-1.2A2.49,2.49,0,0,0,2.61,50a2.33,2.33,0,0,0-1.42.74A1.63,1.63,0,0,0,.9,52.11a1.62,1.62,0,0,0,.79,1.19,2.28,2.28,0,0,0,1.59.17,2.36,2.36,0,0,0,1.45-.74A1.61,1.61,0,0,0,5,51.33Z"/><circle class="cls-1" cx="66.49" cy="9.67" r="1.04"/><circle class="cls-1" cx="63.1" cy="80.19" r="1.04"/><circle class="cls-1" cx="2.67" cy="42.88" r="1.04"/></g></g></svg>