<?xml version="1.0" encoding="utf-8"?>
<!-- Generator: Adobe Illustrator 23.0.4, SVG Export Plug-In . SVG Version: 6.00 Build 0)  -->
<svg version="1.1" id="Layer_1" xmlns="http://www.w3.org/2000/svg" xmlns:xlink="http://www.w3.org/1999/xlink" x="0px" y="0px"
	 viewBox="0 0 87.4 88" style="enable-background:new 0 0 87.4 88;" xml:space="preserve">
<style type="text/css">
	.st0{fill:#34D07C;}
</style>
<title>play</title>
<g>
	<g id="Layer_1-2">
		<circle class="st0" cx="2.2" cy="42.9" r="1.3"/>
		<circle class="st0" cx="64.4" cy="8" r="1.3"/>
		<circle class="st0" cx="62.8" cy="80.7" r="1.3"/>
		<path class="st0" d="M5.8,36.8l-5.7-1.4l0.4-1.6c0-0.2,0.1-0.3,0.1-0.5c0-0.1,0.1-0.3,0.1-0.4c0-0.1,0.1-0.3,0.2-0.4
			C1,32.4,1,32.3,1.1,32.2C1.2,32,1.3,32,1.4,31.9s0.2-0.1,0.3-0.2c0.1,0,0.3,0,0.4,0c0.2,0,0.3,0,0.5,0.1c0.3,0.1,0.5,0.2,0.7,0.3
			s0.3,0.3,0.4,0.5c0.1,0.2,0.1,0.5,0.1,0.8s-0.1,0.7-0.1,1l-0.2,0.9L6,35.8L5.8,36.8z M2.7,35l0.2-0.8C3,34,3,33.8,3,33.7
			s0-0.3,0-0.4c0-0.1-0.1-0.2-0.2-0.3c-0.1-0.1-0.2-0.1-0.4-0.2H2.2H2c-0.1,0-0.1,0-0.2,0.1L1.7,33c0,0-0.1,0.1-0.1,0.2
			c0,0.1-0.1,0.1-0.1,0.2c0,0.1-0.1,0.1-0.1,0.2c0,0.1,0,0.2-0.1,0.2s0,0.2-0.1,0.3L1,34.8L2.7,35z"/>
		<path class="st0" d="M7.1,31.7l-5.4-2.1L2,28.7l4.6,1.8l1-2.5l0.8,0.3L7.1,31.7z"/>
		<path class="st0" d="M8.5,28l-4-4.9L5,22.2l6.3,0.8l-0.6,1l-1.5-0.2l-1.1,2l1,1.2L8.5,28z M7.4,25l0.8-1.4l-2.4-0.4
			C6.2,23.6,6.7,24.2,7.4,25z"/>
		<path class="st0" d="M12.6,21.3l-1.8-1.4l-4.1-0.5l0.7-0.9l3,0.5l-1.2-2.8l0.7-0.9l1.6,3.8l1.8,1.4L12.6,21.3z"/>
		<path class="st0" d="M17.6,15.8l-3.3-3.7L13,13.3l-0.6-0.6l3.5-3.1l0.6,0.6l-1.4,1.2l3.3,3.7L17.6,15.8z"/>
		<path class="st0" d="M20.4,13.4l-3.2-4.9L18,8l1.3,2l2.3-1.5l-1.3-2l0.9-0.6l3.2,4.9l-0.8,0.6l-1.4-2.2l-2.3,1.5l1.4,2.1
			L20.4,13.4z"/>
		<path class="st0" d="M25.7,10.1l-2.5-5.3l3.3-1.5L27,4l-2.5,1.1l0.6,1.4l2.3-1.1l0.4,0.8l-2.3,1l0.7,1.5l2.5-1.2l0.4,0.8
			L25.7,10.1z"/>
		<path class="st0" d="M34.2,6.9l-3.5-5.2l1.1-0.3c0.1,0.1,0.5,0.7,1.1,1.7l1.5,2.3c0.1-0.7,0.3-2.3,0.6-4.8l1-0.2l-0.8,6.2
			L34.2,6.9z"/>
		<path class="st0" d="M38.1,6.2l-0.7-5.8l1-0.1L39.1,6L38.1,6.2z"/>
		<path class="st0" d="M40.6,5.9L40.5,0h1.6C43-0.1,44,0.2,44.7,0.7c0.6,0.5,0.9,1.3,0.9,2.1c0.1,0.8-0.2,1.6-0.8,2.2
			c-0.7,0.6-1.6,0.8-2.5,0.8L40.6,5.9z M41.6,5h0.8C43,5,43.6,4.8,44,4.4s0.6-1,0.5-1.6c0-0.5-0.2-1.1-0.5-1.5
			c-0.5-0.4-1.1-0.6-1.8-0.5h-0.7L41.6,5z"/>
		<path class="st0" d="M46.9,5.9l0.8-5.8l3.6,0.5l-0.1,0.9l-2.6-0.4l-0.2,1.5l2.5,0.3l-0.1,0.9l-2.5-0.3L48,5.2l2.7,0.4l-0.1,0.9
			L46.9,5.9z"/>
		<path class="st0" d="M54.3,7.5c-0.8-0.2-1.4-0.7-1.8-1.4c-0.4-0.7-0.4-1.6-0.1-2.3C52.5,3,53,2.3,53.7,1.9s1.5-0.4,2.3-0.2
			s1.4,0.7,1.8,1.4c0.3,0.7,0.4,1.6,0.1,2.3c-0.2,0.8-0.7,1.5-1.4,1.9C55.8,7.7,55,7.8,54.3,7.5z M54.5,6.7C55,6.9,55.6,6.8,56,6.5
			c0.5-0.3,0.8-0.8,0.9-1.4c0.2-0.5,0.2-1.1,0-1.6s-0.6-0.8-1.1-0.9c-0.5-0.2-1-0.1-1.5,0.2s-0.8,0.8-0.9,1.4
			c-0.2,0.5-0.2,1.1,0,1.7C53.6,6.2,54,6.5,54.5,6.7z"/>
		<path class="st0" d="M68.8,15.5l4.1-4.2l1.2,1.2c0.1,0.1,0.2,0.2,0.3,0.4c0.1,0.1,0.2,0.2,0.3,0.4c0.1,0.1,0.2,0.2,0.2,0.4
			c0.1,0.1,0.1,0.2,0.2,0.4c0.1,0.1,0.1,0.2,0.1,0.4c0,0.1,0,0.2,0,0.4c0,0.1-0.1,0.3-0.2,0.4c-0.1,0.1-0.2,0.3-0.3,0.4
			c-0.2,0.2-0.4,0.4-0.7,0.5c-0.2,0.1-0.5,0.1-0.7,0s-0.5-0.2-0.7-0.3c-0.3-0.2-0.5-0.4-0.7-0.6l-0.6-0.6l-1.8,1.8L68.8,15.5z
			 M71.8,13.8l0.6,0.6c0.1,0.1,0.2,0.2,0.4,0.3c0.1,0.1,0.2,0.1,0.3,0.2c0.1,0,0.2,0,0.3,0c0.1,0,0.2-0.1,0.3-0.2
			c0.1-0.1,0.1-0.1,0.2-0.2c0-0.1,0.1-0.1,0.1-0.2c0-0.1,0-0.1,0-0.2V14c0-0.1,0-0.1-0.1-0.2l-0.1-0.2l-0.1-0.2l-0.2-0.2L73.3,13
			L73,12.7L71.8,13.8z"/>
		<path class="st0" d="M72.4,19.2l4.6-3.6l0.6,0.8l-3.9,3l1.7,2.1L74.7,22L72.4,19.2z"/>
		<path class="st0" d="M74.9,22.3l6.2-0.9l0.5,0.9l-3.8,5l-0.6-1l1-1.2l-1.2-2l-1.5,0.2L74.9,22.3z M78,22.9l0.8,1.4l1.6-1.8
			L78,22.9z"/>
		<path class="st0" d="M78.6,29.3l2.1-0.9l2.5-3.3l0.4,1.1l-1.9,2.3l3,0.3l0.4,1.1L81,29.4l-2.1,0.8L78.6,29.3z"/>
		<path class="st0" d="M80.7,36.4l4.9-0.9l-0.3-1.8l0.9-0.2l0.9,4.6l-0.9,0.2l-0.3-1.8L81,37.4L80.7,36.4z"/>
		<path class="st0" d="M81.4,40l5.8-0.2v1l-2.4,0.1l0.2,2.7l2.4-0.1v1l-5.8,0.2v-1l2.6-0.1L84,40.9L81.4,41V40z"/>
		<path class="st0" d="M81.5,46.3l5.8,0.6l-0.4,3.7L86,50.5l0.3-2.7l-1.5-0.2l-0.3,2.5L83.6,50l0.3-2.5l-1.6-0.2L82,50.1L81.1,50
			L81.5,46.3z"/>
		<path class="st0" d="M79.8,55.2l6.2-0.3L85.7,56l-2,0.1H81l3.7,2.9l-0.3,1l-4.9-3.9L79.8,55.2z"/>
		<path class="st0" d="M78.5,58.9l5.3,2.4l-0.4,0.9l-5.3-2.4L78.5,58.9z"/>
		<path class="st0" d="M77.5,61.2l5,3l-0.8,1.4c-0.4,0.8-1.1,1.5-2,1.9c-0.8,0.2-1.6,0.1-2.3-0.3c-0.7-0.4-1.2-1.1-1.4-1.9
			c-0.1-0.9,0.1-1.8,0.6-2.5L77.5,61.2z M77.7,62.5l-0.4,0.7c-0.3,0.5-0.5,1.1-0.4,1.7c0.2,0.6,0.5,1,1.1,1.3c0.5,0.3,1,0.4,1.6,0.3
			c0.6-0.2,1-0.7,1.3-1.2l0.4-0.6L77.7,62.5z"/>
		<path class="st0" d="M74.2,66.6l4.5,3.7l-2.3,2.9l-0.7-0.6l1.7-2.1l-1.2-1l-1.6,2l-0.7-0.6l1.6-2l-1.3-1l-1.7,2.2l-0.7-0.6
			L74.2,66.6z"/>
		<path class="st0" d="M69,72.1c0.6-0.6,1.3-0.9,2.1-0.8c0.8,0.1,1.6,0.5,2.1,1.1c0.6,0.6,0.9,1.3,0.9,2.1c0,0.8-0.4,1.5-1,2.1
			s-1.3,0.9-2.1,0.8c-0.8-0.1-1.5-0.5-2-1.1c-0.6-0.6-1-1.3-1-2.2C68,73.4,68.4,72.6,69,72.1z M69.6,72.7C69.2,73,69,73.5,69,74
			c0.1,0.6,0.3,1.1,0.7,1.5c0.4,0.4,0.8,0.7,1.4,0.8c0.5,0.1,1-0.1,1.4-0.5c0.4-0.3,0.6-0.8,0.6-1.3c0-0.6-0.3-1.1-0.7-1.5
			c-0.4-0.4-0.9-0.8-1.4-0.9C70.5,72.2,70,72.4,69.6,72.7L69.6,72.7z"/>
		<path class="st0" d="M54.8,80.5l1.5,5.6l-1.6,0.4l-0.5,0.1l-0.5,0.1c-0.1,0-0.3,0-0.4,0c-0.1,0-0.3,0-0.4,0
			c-0.1,0-0.2-0.1-0.3-0.1c-0.1-0.1-0.2-0.1-0.3-0.2s-0.2-0.2-0.2-0.3c-0.1-0.2-0.1-0.3-0.2-0.5c-0.1-0.3-0.1-0.5-0.1-0.8
			c0-0.2,0.2-0.4,0.3-0.6c0.2-0.2,0.4-0.3,0.6-0.4c0.3-0.1,0.6-0.2,0.9-0.3l0.9-0.2l-0.6-2.4L54.8,80.5z M54.7,84l-0.8,0.2l-0.5,0.2
			c-0.1,0.1-0.2,0.1-0.3,0.2s-0.2,0.2-0.2,0.3c0,0.1,0,0.3,0,0.4s0,0.1,0.1,0.2c0,0.1,0.1,0.1,0.1,0.2l0.1,0.1l0.2,0.1h0.2h0.2H54
			h0.2l0.3-0.1l0.7-0.2L54.7,84z"/>
		<path class="st0" d="M49.7,81.7l0.7,5.8l-1,0.1l-0.6-4.9L46.1,83L46,82.2L49.7,81.7z"/>
		<path class="st0" d="M45.7,82.2L43.3,88h-1L40,82.1h1.2l0.5,1.4h2.4l0.6-1.4L45.7,82.2z M43.6,84.6H42c0.3,0.9,0.5,1.7,0.7,2.3
			C43,86.3,43.3,85.6,43.6,84.6z"/>
		<path class="st0" d="M37.9,81.8L37.6,84l1.5,3.9l-1.2-0.2l-1-2.9l-1.8,2.4L33.9,87l2.7-3.2l0.3-2.2L37.9,81.8z"/>
		<path class="st0" d="M30.6,80l-1.7,4.7l1.7,0.6l-0.3,0.8L26,84.5l0.3-0.8l1.7,0.6l1.7-4.7L30.6,80z"/>
		<path class="st0" d="M27.3,78.8l-2.8,5.1l-0.9-0.5l1.1-2.1L22.3,80l-1.1,2.1l-0.9-0.5l2.8-5.1L24,77l-1.2,2.2l2.4,1.3l1.2-2.2
			L27.3,78.8z"/>
		<path class="st0" d="M21.8,75.6l-3.5,4.7l-3-2.3l0.5-0.7L18,79l0.9-1.2l-2-1.5l0.5-0.7l2,1.5l1-1.3L18.2,74l0.5-0.7L21.8,75.6z"/>
		<path class="st0" d="M15,69.6l-2.9,5.5l-0.8-0.9c0.1-0.2,0.4-0.8,1-1.8s1-1.8,1.3-2.4l-4.4,1.8L8.5,71l5.8-2.2L15,69.6z"/>
		<path class="st0" d="M12.5,66.6L7.8,70l-0.6-0.8l4.7-3.4L12.5,66.6z"/>
		<path class="st0" d="M11,64.5l-5.1,2.8l-0.8-1.4c-0.5-0.8-0.7-1.7-0.6-2.6c0.2-0.8,0.7-1.5,1.5-1.8c0.7-0.4,1.5-0.6,2.3-0.3
			c0.8,0.4,1.5,1,1.8,1.8L11,64.5z M9.7,64l-0.4-0.7c-0.2-0.5-0.7-0.9-1.2-1.2c-0.6-0.2-1.2-0.1-1.6,0.2c-0.5,0.2-0.9,0.7-1,1.2
			c-0.1,0.6,0,1.2,0.4,1.8L6.2,66L9.7,64z"/>
		<path class="st0" d="M8.1,58.9L2.6,61l-1.3-3.5l0.8-0.3L3,59.7l1.5-0.5l-0.9-2.4l0.8-0.3l0.9,2.3l1.6-0.6l-1-2.6l0.8-0.3L8.1,58.9
			z"/>
		<path class="st0" d="M6,51.7c0.2,0.8,0.1,1.6-0.4,2.3s-1.2,1.1-2,1.2c-0.8,0.2-1.6,0.1-2.3-0.3c-0.7-0.5-1.1-1.2-1.2-2
			C-0.1,52,0,51.2,0.5,50.6c0.5-0.7,1.2-1.1,2-1.2c0.8-0.2,1.6-0.1,2.3,0.3C5.5,50.2,5.9,50.9,6,51.7z M5.2,51.9
			c-0.1-0.5-0.4-1-0.8-1.2c-0.5-0.2-1.1-0.3-1.7-0.1c-0.6,0.1-1.1,0.4-1.4,0.8C0.7,52.3,1,53.5,1.8,54l0,0c0.5,0.2,1.1,0.3,1.6,0.2
			C4,54,4.5,53.7,4.9,53.3C5.2,52.9,5.3,52.4,5.2,51.9L5.2,51.9z"/>
	</g>
</g>
</svg>
