<?xml version="1.0" encoding="utf-8"?>
<!-- Generator: Adobe Illustrator 23.0.4, SVG Export Plug-In . SVG Version: 6.00 Build 0)  -->
<svg version="1.1" id="Layer_1" xmlns="http://www.w3.org/2000/svg" xmlns:xlink="http://www.w3.org/1999/xlink" x="0px" y="0px"
	 viewBox="0 0 87.4 88" style="enable-background:new 0 0 87.4 88;" xml:space="preserve">
<style type="text/css">
	.st0{fill:#34D07C;}
</style>
<title>play</title>
<path class="st0" d="M37.4,44c0-2.4,0-4.7,0-7.1c0-0.7,0.4-1.1,1.1-1.2c0.3,0,0.5,0.1,0.8,0.2c1.1,0.7,2.1,1.5,3.2,2.2
	c2.3,1.6,4.6,3.2,6.9,4.8c0.8,0.5,0.8,1.5,0,2c-2.6,1.8-5.2,3.6-7.7,5.4c-0.8,0.6-1.6,1.1-2.4,1.7c-0.7,0.5-1.6,0.1-1.8-0.7
	c0-0.1,0-0.2,0-0.4C37.4,48.7,37.4,46.3,37.4,44z"/>
</svg>
