<svg xmlns="http://www.w3.org/2000/svg" viewBox="0 0 72 72"><defs><style>.cls-1{fill:#079;}</style></defs><title>Asset 7</title><g id="Layer_2" data-name="Layer 2"><g id="D2:_AboutUs" data-name="D2: AboutUs"><path class="cls-1" d="M36,0A36,36,0,1,0,72,36,36,36,0,0,0,36,0ZM30.46,54.81a24.64,24.64,0,0,1-5.71-.71V50.58A14.52,14.52,0,0,0,29,51.2c6.85,0,10.8-3.71,10.8-8.14,0-4-2.38-6.32-7.18-6.47l-2.86.72-1-2.9a17.5,17.5,0,0,0,3.86-1.19c3.71-1.67,5.8-4.33,5.8-7.14,0-3.37-2.47-4.56-5.14-4.56a11.5,11.5,0,0,0-7,2.47l-1.66-2.9a17.8,17.8,0,0,1,10.84-3.9c5.66,0,10.18,2.28,10.18,7.75,0,4.9-4.56,8.37-9.18,10,6.38-.57,10.94,2.66,10.94,7.8C47.44,49.58,41,54.81,30.46,54.81Z"/></g></g></svg>