<svg xmlns="http://www.w3.org/2000/svg" viewBox="0 0 72 72"><defs><style>.cls-1{fill:#079;}</style></defs><title>Asset 6</title><g id="Layer_2" data-name="Layer 2"><g id="D2:_AboutUs" data-name="D2: AboutUs"><path class="cls-1" d="M36,0A36,36,0,1,0,72,36,36,36,0,0,0,36,0ZM49.18,53.37H22.38l-1.16-3C30.74,44.78,38.67,37,38.67,29.92c0-3.58-2.31-6-6.39-6-4.34,0-7,2.37-8.64,3.86l-2.09-3a18.94,18.94,0,0,1,13.54-6.17c8.42,0,12.11,4.79,12.11,10,0,7.49-8.48,15-17.94,20.42l16-1.48L47.31,43l3.47.72Z"/></g></g></svg>