<?xml version="1.0" encoding="utf-8"?>
<!-- Generator: Adobe Illustrator 23.0.4, SVG Export Plug-In . SVG Version: 6.00 Build 0)  -->
<svg version="1.1" id="Layer_1" xmlns="http://www.w3.org/2000/svg" xmlns:xlink="http://www.w3.org/1999/xlink" x="0px" y="0px"
	 viewBox="0 0 85.7 85.8" style="enable-background:new 0 0 85.7 85.8;" xml:space="preserve">
<style type="text/css">
	.st0{fill:#34D07C;}
</style>
<title>prev</title>
<path class="st0" d="M4.7,34.9l-4.2-1l0.3-1.2c0-0.1,0-0.3,0.1-0.4C0.9,32.3,1,32.2,1,32c0-0.1,0.1-0.2,0.1-0.3
	c0-0.1,0.1-0.2,0.2-0.2c0.1-0.1,0.1-0.1,0.2-0.2c0.1-0.1,0.2-0.1,0.2-0.1c0.1,0,0.2,0,0.3,0c0.1,0,0.2,0,0.4,0
	c0.2,0,0.4,0.1,0.5,0.2c0.1,0.1,0.2,0.2,0.3,0.4c0.1,0.2,0.1,0.4,0.1,0.6c0,0.2,0,0.5-0.1,0.7l-0.2,0.6l1.8,0.4L4.7,34.9z M2.5,33.6
	L2.6,33c0-0.1,0.1-0.2,0.1-0.3c0-0.1,0-0.2,0-0.3c0-0.1-0.1-0.2-0.1-0.2C2.5,32.1,2.4,32,2.3,32H2.1H2H1.9l-0.1,0.1
	c0,0-0.1,0.1-0.1,0.1c0,0,0,0.1-0.1,0.1v0.2l0,0.2c0,0,0,0.1,0,0.2l-0.1,0.5L2.5,33.6z"/>
<path class="st0" d="M5.6,31.3l-4-1.4l0.5-1.5c0.1-0.2,0.1-0.4,0.2-0.5c0.1-0.1,0.2-0.3,0.3-0.4c0.1-0.1,0.3-0.2,0.4-0.2
	c0.2,0,0.4,0,0.6,0.1c0.2,0.1,0.4,0.2,0.5,0.4c0.1,0.2,0.2,0.5,0.1,0.7c0.2-0.2,0.5-0.3,0.8-0.3l1.5-0.1l-0.3,0.8L5.1,29
	c-0.2,0-0.3,0-0.5,0.1c-0.1,0.1-0.2,0.2-0.2,0.4L4.2,30l1.7,0.6L5.6,31.3z M3.6,29.8l0.2-0.7c0.2-0.5,0.1-0.8-0.3-1
	c-0.2-0.1-0.3-0.1-0.5,0c-0.1,0.1-0.2,0.3-0.3,0.5l-0.3,0.8L3.6,29.8z"/>
<path class="st0" d="M7,27.6l-3.9-1.8l1.1-2.5l0.6,0.3L4,25.4l1,0.5l0.8-1.7l0.6,0.3l-0.8,1.7l1.1,0.5l0.9-1.8l0.6,0.3L7,27.6z"/>
<path class="st0" d="M9.1,23.4l-4.5-0.8L5,21.9l1.5,0.3l2,0.4c-0.3-0.4-1.1-1.3-2.2-2.7l0.4-0.7l2.9,3.6L9.1,23.4z"/>
<path class="st0" d="M10.6,21l-3.5-2.4L7.5,18l3.5,2.4L10.6,21z"/>
<path class="st0" d="M12.8,18.2c-0.3,0.5-0.9,0.8-1.5,0.8c-0.6,0-1.2-0.2-1.6-0.6c-0.5-0.3-0.8-0.9-0.9-1.4c0-0.6,0.1-1.2,0.5-1.6
	c0.3-0.5,0.9-0.8,1.4-0.8c0.6,0,1.2,0.2,1.6,0.6c0.5,0.4,0.8,0.9,0.9,1.5C13.4,17.2,13.2,17.7,12.8,18.2z M12.3,17.8
	c0.2-0.3,0.4-0.6,0.3-1c-0.1-0.4-0.4-0.8-0.7-1c-0.3-0.3-0.7-0.4-1.1-0.5c-0.8,0.1-1.3,0.7-1.3,1.5c0.1,0.4,0.3,0.8,0.7,1
	c0.3,0.3,0.7,0.5,1.1,0.5C11.7,18.3,12.1,18.1,12.3,17.8z"/>
<path class="st0" d="M15.9,14.8c-0.2,0.2-0.4,0.3-0.6,0.4c-0.2,0.1-0.4,0.1-0.5,0.2c-0.2,0-0.3,0-0.5-0.1c-0.2-0.1-0.3-0.1-0.5-0.2
	c-0.2-0.1-0.3-0.2-0.4-0.4l-1.8-1.8l0.5-0.5l1.8,1.8c0.1,0.1,0.2,0.2,0.4,0.3c0.1,0.1,0.2,0.1,0.3,0.1c0.1,0,0.2,0,0.3,0
	c0.1,0,0.2-0.1,0.3-0.1c0.1-0.1,0.2-0.1,0.2-0.2c0.1-0.1,0.2-0.2,0.2-0.3c0.1-0.1,0.1-0.2,0.1-0.4c0-0.1,0-0.3-0.1-0.4
	c-0.1-0.2-0.2-0.3-0.3-0.5L13.6,11l0.5-0.5l1.8,1.8c0.1,0.1,0.2,0.3,0.4,0.4c0.1,0.1,0.2,0.3,0.2,0.5c0.1,0.2,0.1,0.3,0.1,0.5
	c0,0.2-0.1,0.4-0.2,0.5C16.2,14.5,16.1,14.7,15.9,14.8z"/>
<path class="st0" d="M18.8,12.3c-0.2,0.2-0.5,0.3-0.7,0.4c-0.2,0.1-0.5,0.1-0.7,0.1l-0.1-0.6c0.2,0,0.4,0,0.6-0.1
	c0.2-0.1,0.4-0.2,0.5-0.3c0.2-0.1,0.3-0.3,0.4-0.5c0-0.2,0-0.3-0.1-0.5c0-0.1-0.1-0.1-0.1-0.1c0,0-0.1-0.1-0.1-0.1
	c-0.1,0-0.2,0-0.2,0c-0.1,0-0.2,0-0.4,0.1l-0.3,0.1L17.2,11c-0.3,0.1-0.6,0.1-0.9,0.1c-0.3-0.1-0.5-0.2-0.6-0.4
	c-0.1-0.2-0.2-0.4-0.2-0.6c0-0.2,0.1-0.4,0.2-0.6c0.1-0.2,0.3-0.4,0.5-0.6c0.2-0.2,0.5-0.4,0.8-0.5c0.2-0.1,0.5-0.1,0.7-0.1v0.6
	c-0.4,0-0.7,0.1-1,0.4c-0.2,0.1-0.3,0.3-0.4,0.4c-0.1,0.1,0,0.3,0.1,0.4c0,0.1,0.1,0.1,0.1,0.1c0,0,0.1,0.1,0.2,0.1
	c0.1,0,0.2,0,0.2,0c0.1,0,0.2,0,0.3-0.1l0.3-0.1l0.3-0.1c0.3-0.1,0.6-0.1,0.9-0.1c0.3,0.1,0.5,0.2,0.6,0.5c0.1,0.1,0.2,0.3,0.2,0.5
	c0,0.2,0,0.3,0,0.5c-0.1,0.2-0.1,0.3-0.2,0.4C19.1,12,19,12.2,18.8,12.3z"/>
<path class="st0" d="M23.2,9.3c-0.2,0.1-0.5,0.2-0.8,0.3c-0.2,0.1-0.5,0.1-0.7,0V9c0.2,0,0.4,0,0.6,0c0.2,0,0.4-0.1,0.6-0.2
	c0.2-0.1,0.3-0.2,0.4-0.4c0.1-0.2,0-0.3-0.1-0.5c0-0.1-0.1-0.1-0.1-0.2c0,0-0.1-0.1-0.1-0.1c-0.1,0-0.2,0-0.2,0h-0.4l-0.3,0.1
	l-0.3,0.1c-0.3,0.1-0.6,0.1-0.9,0c-0.3-0.1-0.5-0.3-0.6-0.5c-0.1-0.2-0.2-0.4-0.1-0.7c0-0.2,0.1-0.4,0.2-0.6
	c0.2-0.2,0.4-0.4,0.6-0.5c0.3-0.2,0.5-0.3,0.8-0.3c0.2,0,0.5,0,0.7,0l-0.1,0.6c-0.3-0.1-0.7,0-1,0.2C21.3,6,21.1,6.2,21,6.3
	c-0.1,0.1-0.1,0.3,0,0.4c0,0.1,0.1,0.1,0.1,0.2c0,0,0.1,0.1,0.1,0.1c0.1,0,0.2,0,0.2,0c0.1,0,0.2,0,0.4,0l0.2,0l0.4-0.1
	c0.3-0.1,0.6-0.1,0.9,0c0.2,0.1,0.4,0.3,0.5,0.5C24,7.6,24.1,7.8,24.1,8c0,0.2,0,0.3-0.1,0.5c-0.1,0.2-0.2,0.3-0.3,0.4
	C23.5,9.1,23.4,9.2,23.2,9.3z"/>
<path class="st0" d="M25.2,8.1l-1.8-3.9l0.7-0.3l1.5,3.3l1.8-0.8l0.3,0.6L25.2,8.1z"/>
<path class="st0" d="M28.2,6.7l-1.6-4l0.7-0.3l1.6,4L28.2,6.7z"/>
<path class="st0" d="M29.8,6.1L28.5,2l1.1-0.3c0.6-0.2,1.4-0.2,2,0c0.5,0.3,0.9,0.7,1.1,1.3c0.2,0.6,0.2,1.2-0.1,1.7
	c-0.4,0.5-0.9,0.9-1.6,1L29.8,6.1z M30.3,5.3l0.6-0.2c0.4-0.1,0.8-0.4,1-0.7C32.1,4,32.1,3.6,32,3.2c-0.1-0.4-0.4-0.7-0.7-0.9
	c-0.4-0.2-0.9-0.2-1.3,0l-0.5,0.2L30.3,5.3z"/>
<path class="st0" d="M34.1,4.8l-0.8-4.2l2.6-0.5L36,0.8l-1.9,0.4l0.2,1.1l1.8-0.4l0.1,0.6l-1.8,0.3l0.2,1.2l2-0.4l0.1,0.6L34.1,4.8z
	"/>
<path class="st0" d="M47.9,4.2L48.6,0l1.2,0.2l0.4,0.1c0.1,0,0.2,0,0.3,0.1l0.3,0.1c0.1,0,0.1,0.1,0.2,0.2c0.1,0,0.2,0.1,0.2,0.2
	c0.1,0.1,0.1,0.2,0.1,0.2c0,0.1,0.1,0.2,0.1,0.3c0,0.1,0,0.3,0,0.4c0,0.2-0.1,0.4-0.2,0.6c-0.1,0.1-0.2,0.3-0.4,0.3
	c-0.2,0.1-0.4,0.1-0.5,0.1c-0.2,0-0.5,0-0.7-0.1l-0.6-0.1l-0.3,1.8L47.9,4.2z M49,1.9L49.6,2c0.1,0,0.2,0,0.4,0c0.1,0,0.2,0,0.3,0
	c0.1,0,0.2-0.1,0.2-0.1c0.1-0.1,0.1-0.2,0.1-0.3c0-0.1,0-0.1,0-0.2c0,0,0-0.1,0-0.1c0,0,0-0.1-0.1-0.1l-0.1-0.1L50.4,1h-0.1h-0.2
	h-0.2h-0.2l-0.5-0.2L49,1.9z"/>
<path class="st0" d="M51.5,4.9l1.1-4.1l1.5,0.4c0.2,0.1,0.4,0.1,0.6,0.2c0.2,0.1,0.3,0.2,0.4,0.3c0.1,0.1,0.2,0.3,0.2,0.4
	c0,0.2,0,0.4,0,0.6c-0.1,0.2-0.2,0.4-0.4,0.6c-0.2,0.1-0.5,0.2-0.7,0.2c0.2,0.2,0.3,0.5,0.4,0.8l0.2,1.5L54,5.5l-0.1-1.4
	c0-0.2-0.1-0.3-0.1-0.5c-0.1-0.1-0.2-0.2-0.4-0.2l-0.6-0.2L52.3,5L51.5,4.9z M52.9,2.7l0.7,0.2c0.5,0.1,0.8,0,0.9-0.4
	c0.1-0.1,0.1-0.3,0-0.5c-0.1-0.1-0.3-0.2-0.5-0.3l-0.8-0.2L52.9,2.7z"/>
<path class="st0" d="M55.4,6l1.5-4l2.5,1l-0.2,0.6l-1.8-0.7L56.9,4l1.7,0.7l-0.2,0.6l-1.7-0.7l-0.4,1.1l1.9,0.7L58,7L55.4,6z"/>
<path class="st0" d="M59.7,7.8l0.4-4.5l0.8,0.4c0,0.1-0.1,0.6-0.2,1.5s-0.2,1.5-0.2,2L63,4.6L63.7,5l-3.4,3.1L59.7,7.8z"/>
<path class="st0" d="M62.2,9.1l2.2-3.7L65,5.8l-2.2,3.7L62.2,9.1z"/>
<path class="st0" d="M65.2,11.1c-0.5-0.3-0.8-0.8-0.9-1.4c-0.1-0.6,0.1-1.2,0.5-1.7c0.3-0.5,0.8-0.9,1.4-1c0.6-0.1,1.2,0.1,1.6,0.4
	c0.5,0.3,0.8,0.8,0.9,1.4c0.1,0.6-0.1,1.2-0.4,1.6c-0.3,0.5-0.8,0.9-1.4,1C66.2,11.6,65.6,11.4,65.2,11.1z M65.5,10.5
	c0.3,0.2,0.6,0.3,1,0.2c0.4-0.1,0.8-0.4,1-0.8c0.3-0.3,0.4-0.7,0.4-1.1c0-0.4-0.2-0.7-0.6-0.9c-0.3-0.2-0.6-0.3-1-0.2
	c-0.4,0.1-0.8,0.4-1,0.7C65.1,8.8,65,9.2,65,9.6C65,10,65.2,10.3,65.5,10.5z"/>
<path class="st0" d="M68.7,13.9c-0.2-0.2-0.3-0.4-0.5-0.6c-0.1-0.2-0.2-0.3-0.2-0.5c0-0.2,0-0.3,0-0.5c0-0.2,0.1-0.3,0.2-0.5
	c0.1-0.2,0.2-0.3,0.3-0.4l1.7-1.9l0.6,0.5l-1.7,1.9c-0.1,0.1-0.2,0.2-0.3,0.4c-0.1,0.1-0.1,0.2-0.1,0.3c0,0.1,0,0.2,0,0.3
	c0,0.1,0.1,0.2,0.1,0.3c0.1,0.1,0.1,0.2,0.2,0.2c0.1,0.1,0.2,0.2,0.3,0.2c0.1,0,0.2,0.1,0.4,0.1c0.1,0,0.3-0.1,0.4-0.1
	c0.2-0.1,0.3-0.2,0.4-0.4l1.7-1.9l0.6,0.5l-1.7,1.9c-0.1,0.1-0.3,0.3-0.4,0.4c-0.1,0.1-0.3,0.2-0.4,0.3c-0.2,0.1-0.3,0.1-0.5,0.1
	c-0.2,0-0.4-0.1-0.6-0.1C69.1,14.2,68.9,14,68.7,13.9z"/>
<path class="st0" d="M71.5,16.6c-0.2-0.2-0.4-0.5-0.5-0.7c-0.1-0.2-0.2-0.5-0.2-0.7l0.6-0.1c0,0.2,0.1,0.4,0.2,0.6
	c0.1,0.2,0.2,0.4,0.3,0.5c0.1,0.2,0.3,0.3,0.5,0.3c0.2,0,0.3,0,0.5-0.2c0.1,0,0.1-0.1,0.1-0.1c0,0,0-0.1,0.1-0.1c0-0.1,0-0.2,0-0.2
	c0-0.1-0.1-0.2-0.1-0.3c0-0.1-0.1-0.1-0.1-0.3l-0.1-0.3c-0.1-0.3-0.2-0.6-0.2-0.9c0-0.3,0.2-0.5,0.4-0.7c0.2-0.2,0.4-0.3,0.6-0.3
	c0.2,0,0.4,0,0.6,0.1c0.2,0.1,0.4,0.3,0.6,0.5c0.2,0.2,0.4,0.5,0.5,0.7c0.1,0.2,0.1,0.5,0.1,0.7l-0.6,0.1c0-0.4-0.1-0.7-0.4-1
	c-0.1-0.2-0.3-0.3-0.5-0.3c-0.1-0.1-0.3,0-0.4,0.1c-0.1,0-0.1,0.1-0.1,0.1c0,0.1,0,0.1,0,0.2c0,0.1,0,0.2,0,0.2
	c0,0.1,0.1,0.2,0.1,0.3c0,0.1,0.1,0.2,0.1,0.3l0.1,0.3c0.1,0.3,0.2,0.6,0.1,0.9c-0.1,0.3-0.2,0.5-0.4,0.7c-0.1,0.1-0.3,0.2-0.5,0.3
	c-0.2,0-0.3,0-0.5,0c-0.2-0.1-0.3-0.1-0.5-0.2C71.8,16.9,71.6,16.8,71.5,16.6z"/>
<path class="st0" d="M74.8,20.8c-0.2-0.2-0.3-0.5-0.4-0.8c-0.1-0.2-0.1-0.5-0.1-0.7H75c0,0.2,0,0.4,0.1,0.6c0.1,0.2,0.1,0.4,0.2,0.5
	c0.1,0.2,0.3,0.3,0.4,0.4c0.2,0,0.3,0,0.5-0.1c0.1,0,0.1-0.1,0.1-0.1c0,0,0.1-0.1,0.1-0.1c0-0.1,0-0.2,0-0.2c0-0.1,0-0.2-0.1-0.4
	s-0.1-0.1-0.1-0.3l-0.1-0.3c-0.1-0.3-0.1-0.6,0-0.9c0.1-0.3,0.2-0.5,0.5-0.6c0.2-0.1,0.4-0.2,0.6-0.2c0.2,0,0.4,0.1,0.6,0.2
	c0.2,0.1,0.4,0.3,0.5,0.5c0.2,0.2,0.3,0.5,0.4,0.8c0,0.2,0,0.5,0,0.7h-0.6c0-0.6-0.2-1.1-0.7-1.4c-0.1-0.1-0.3-0.1-0.4,0
	c-0.1,0-0.1,0.1-0.2,0.1c0,0-0.1,0.1-0.1,0.2c0,0.1,0,0.2,0,0.2c0,0.1,0,0.2,0.1,0.4c0,0,0,0.1,0.1,0.3s0.1,0.3,0.1,0.4
	c0.1,0.3,0.1,0.6,0,0.9c-0.1,0.3-0.3,0.5-0.5,0.6c-0.2,0.1-0.3,0.2-0.5,0.2c-0.2,0-0.3,0-0.5-0.1c-0.2-0.1-0.3-0.2-0.4-0.3
	C75,21.1,74.9,21,74.8,20.8z"/>
<path class="st0" d="M76.1,22.7l3.7-2.1l0.4,0.6L77,23l1,1.7l-0.6,0.3L76.1,22.7z"/>
<path class="st0" d="M77.7,25.6l3.8-1.9l0.3,0.7L78,26.3L77.7,25.6z"/>
<path class="st0" d="M78.4,27.1l4-1.5l0.4,1.1c0.3,0.6,0.4,1.3,0.2,2c-0.2,0.6-0.7,1-1.2,1.2c-0.5,0.3-1.2,0.3-1.7,0
	c-0.6-0.3-1-0.9-1.2-1.5L78.4,27.1z M79.3,27.6l0.2,0.6c0.1,0.4,0.4,0.8,0.8,1c0.4,0.2,0.8,0.2,1.2,0c0.4-0.1,0.7-0.4,0.9-0.8
	c0.1-0.5,0.1-1-0.1-1.4l-0.2-0.5L79.3,27.6z"/>
<path class="st0" d="M80,31.4l4.1-1.1l0.7,2.6L84.2,33l-0.5-1.9l-1.1,0.3l0.5,1.8l-0.6,0.2L82,31.6l-1.2,0.3l0.5,2l-0.6,0.2L80,31.4
	z"/>
<path class="st0" d="M81.5,46.8l4.2,0.6l-0.2,1.2c0,0.1,0,0.3-0.1,0.4c0,0.1,0,0.2-0.1,0.3c0,0.1-0.1,0.2-0.1,0.3
	c0,0.1-0.1,0.2-0.1,0.2c-0.1,0.1-0.1,0.1-0.2,0.2c-0.1,0.1-0.2,0.1-0.2,0.1c-0.1,0-0.2,0.1-0.3,0.1c-0.1,0-0.3,0-0.4,0
	c-0.2,0-0.4-0.1-0.6-0.2c-0.1-0.1-0.3-0.2-0.3-0.4c-0.1-0.2-0.1-0.4-0.1-0.5c0-0.2,0-0.5,0-0.7l0.1-0.6l-1.8-0.2L81.5,46.8z
	 M83.8,47.8l-0.1,0.6c0,0.1,0,0.2,0,0.4c0,0.1,0,0.2,0.1,0.3c0,0.1,0.1,0.2,0.2,0.2c0.1,0.1,0.2,0.1,0.3,0.1h0.2h0.1
	c0,0,0.1,0,0.1-0.1l0.1-0.1c0,0,0-0.1,0.1-0.1c0,0,0-0.1,0-0.1c0-0.1,0-0.1,0-0.2c0-0.1,0-0.1,0-0.2c0-0.1,0-0.1,0-0.2L85,48
	L83.8,47.8z"/>
<path class="st0" d="M80.9,50.5l4.1,1l-0.4,1.5c0,0.2-0.1,0.4-0.2,0.6c-0.1,0.2-0.2,0.3-0.3,0.4c-0.1,0.1-0.3,0.2-0.4,0.2
	c-0.2,0-0.4,0-0.6,0c-0.2-0.1-0.4-0.2-0.6-0.4c-0.2-0.2-0.2-0.5-0.2-0.7c-0.2,0.2-0.5,0.4-0.8,0.4l-1.5,0.2l0.2-0.8l1.3-0.2
	c0.2,0,0.3-0.1,0.5-0.2c0.1-0.1,0.2-0.2,0.2-0.4l0.1-0.6l-1.8-0.4L80.9,50.5z M83.1,51.7L83,52.4c-0.1,0.5,0,0.8,0.4,0.9
	c0.2,0.1,0.3,0,0.5-0.1c0.1-0.1,0.2-0.3,0.2-0.5l0.2-0.8L83.1,51.7z"/>
<path class="st0" d="M79.9,54.3l4,1.4l-0.9,2.5L82.5,58l0.6-1.8L82,55.8l-0.6,1.7l-0.6-0.2l0.6-1.7l-1.1-0.4l-0.7,1.9L79,56.9
	L79.9,54.3z"/>
<path class="st0" d="M78.3,58.7l4.6,0.3l-0.3,0.8L81,59.6l-2-0.2l2.5,2.5l-0.3,0.7L78,59.3L78.3,58.7z"/>
<path class="st0" d="M77,61.2l3.7,2.1l-0.4,0.7l-3.7-2.1L77,61.2z"/>
<path class="st0" d="M75.1,64.2c0.3-0.5,0.8-0.9,1.4-1c0.6-0.1,1.2,0.1,1.7,0.4c0.5,0.3,0.9,0.8,1,1.4c0.1,0.6,0,1.2-0.4,1.7
	c-0.3,0.5-0.8,0.9-1.3,1c-0.6,0.1-1.2-0.1-1.6-0.4c-0.5-0.3-0.9-0.8-1-1.4C74.6,65.3,74.8,64.7,75.1,64.2z M75.6,64.6
	c-0.2,0.3-0.3,0.7-0.2,1c0.1,0.4,0.4,0.7,0.8,0.9c0.3,0.2,0.7,0.4,1.2,0.3c0.4,0,0.7-0.3,0.9-0.6c0.2-0.3,0.3-0.7,0.2-1.1
	c-0.1-0.4-0.4-0.7-0.8-0.9c-0.3-0.2-0.8-0.3-1.2-0.3C76.2,64,75.8,64.3,75.6,64.6z"/>
<path class="st0" d="M72.4,67.8c0.2-0.2,0.3-0.4,0.5-0.5c0.2-0.1,0.3-0.2,0.5-0.2c0.2,0,0.3,0,0.5,0c0.2,0,0.3,0.1,0.5,0.2
	c0.2,0.1,0.3,0.2,0.5,0.3l1.9,1.6l-0.5,0.6l-1.9-1.6c-0.1-0.1-0.3-0.2-0.4-0.2c-0.1-0.1-0.2-0.1-0.3-0.1c-0.1,0-0.2,0-0.3,0
	c-0.1,0-0.2,0.1-0.3,0.1c-0.1,0.1-0.2,0.1-0.2,0.2c-0.1,0.1-0.2,0.2-0.2,0.3c-0.1,0.1-0.1,0.2-0.1,0.4c0,0.1,0.1,0.3,0.1,0.4
	c0.1,0.2,0.2,0.3,0.4,0.4l1.9,1.6l-0.5,0.6l-1.9-1.6c-0.1-0.1-0.3-0.3-0.4-0.4c-0.1-0.1-0.2-0.3-0.3-0.4c-0.1-0.2-0.1-0.3-0.1-0.5
	c0-0.2,0-0.4,0.1-0.6C72.1,68.2,72.2,68,72.4,67.8z"/>
<path class="st0" d="M69.7,70.7c0.2-0.2,0.4-0.4,0.7-0.5c0.2-0.1,0.5-0.2,0.7-0.2l0.1,0.6c-0.2,0-0.4,0.1-0.6,0.2
	c-0.2,0.1-0.3,0.2-0.5,0.3c-0.2,0.1-0.3,0.3-0.3,0.5c0,0.2,0.1,0.3,0.2,0.4l0.1,0.1c0.1,0,0.1,0,0.2,0c0.1,0,0.2,0,0.2,0
	c0.1,0,0.2-0.1,0.3-0.1l0.3-0.1l0.3-0.1c0.3-0.1,0.6-0.2,0.9-0.2c0.3,0,0.5,0.2,0.7,0.4c0.2,0.2,0.3,0.4,0.3,0.6
	c0,0.2,0,0.4-0.1,0.7c-0.1,0.2-0.3,0.4-0.4,0.6c-0.2,0.2-0.5,0.4-0.7,0.5c-0.2,0.1-0.5,0.1-0.7,0.1l-0.1-0.6c0.4,0,0.7-0.2,1-0.4
	c0.1-0.1,0.3-0.3,0.3-0.5c0.1-0.1,0-0.3-0.1-0.4c0-0.1-0.1-0.1-0.2-0.1c-0.1,0-0.1,0-0.2,0c-0.1,0-0.2,0-0.2,0l-0.3,0.1l-0.3,0.1
	L71,72.9c-0.3,0.1-0.6,0.2-0.9,0.2c-0.3-0.1-0.5-0.2-0.7-0.4c-0.1-0.1-0.2-0.3-0.3-0.5c0-0.2,0-0.3,0-0.5c0-0.2,0.1-0.3,0.2-0.5
	C69.5,71,69.6,70.8,69.7,70.7z"/>
<path class="st0" d="M65.6,74.1c0.2-0.2,0.5-0.3,0.8-0.4c0.2-0.1,0.5-0.1,0.7-0.1l0.1,0.6c-0.2,0-0.4,0-0.6,0.1
	c-0.2,0.1-0.4,0.1-0.5,0.3c-0.2,0.1-0.3,0.3-0.4,0.5c0,0.2,0,0.3,0.1,0.5c0,0.1,0.1,0.1,0.1,0.2c0,0,0.1,0.1,0.2,0.1
	c0.1,0,0.2,0,0.2,0c0.1,0,0.2,0,0.3-0.1l0.3-0.1l0.3-0.1c0.3-0.1,0.6-0.1,0.9-0.1c0.3,0.1,0.5,0.2,0.6,0.5c0.1,0.2,0.2,0.4,0.2,0.6
	c0,0.2-0.1,0.4-0.2,0.6c-0.1,0.2-0.3,0.4-0.5,0.5c-0.2,0.2-0.5,0.3-0.8,0.4c-0.2,0.1-0.5,0.1-0.7,0.1v-0.6c0.4,0,0.7-0.1,1-0.3
	c0.2-0.1,0.3-0.3,0.4-0.4c0.1-0.1,0.1-0.3,0-0.4c0-0.1-0.1-0.1-0.1-0.2c0,0-0.1-0.1-0.2-0.1c-0.1,0-0.2,0-0.2,0
	c-0.1,0-0.2,0-0.3,0.1L67,76.3l-0.3,0.1c-0.3,0.1-0.6,0.1-0.9,0c-0.3-0.1-0.5-0.3-0.6-0.5c-0.1-0.2-0.2-0.3-0.2-0.5
	c0-0.1,0-0.3,0.1-0.4c0.1-0.2,0.2-0.3,0.3-0.4C65.4,74.4,65.5,74.2,65.6,74.1z"/>
<path class="st0" d="M63.8,75.5l2.2,3.7l-0.6,0.4l-1.9-3.1l-1.7,1l-0.3-0.5L63.8,75.5z"/>
<path class="st0" d="M60.9,77.1l2,3.8l-0.7,0.3l-2-3.8L60.9,77.1z"/>
<path class="st0" d="M59.4,77.9l1.7,3.9L60,82.3c-0.6,0.3-1.3,0.4-2,0.2c-0.6-0.2-1-0.6-1.2-1.2c-0.3-0.5-0.3-1.2,0-1.7
	c0.3-0.6,0.8-1,1.5-1.2L59.4,77.9z M59,78.8l-0.5,0.2c-0.4,0.1-0.8,0.4-1,0.8c-0.1,0.4-0.1,0.8,0.1,1.2c0.1,0.4,0.4,0.7,0.8,0.8
	c0.4,0.1,0.9,0.1,1.3-0.1l0.5-0.2L59,78.8z"/>
<path class="st0" d="M55.2,79.6l1.2,4.1l-2.6,0.8l-0.2-0.6l1.9-0.6l-0.3-1.1l-1.8,0.5l-0.2-0.6l1.7-0.5l-0.3-1.2L52.8,81l-0.2-0.6
	L55.2,79.6z"/>
<path class="st0" d="M39.9,81.5l-0.5,4.2l-1.2-0.1h-0.4l-0.3-0.1c-0.1,0-0.2,0-0.3-0.1c-0.1,0-0.2-0.1-0.2-0.1
	c-0.1,0-0.2-0.1-0.2-0.2c-0.1-0.1-0.1-0.1-0.2-0.2c0-0.1-0.1-0.2-0.1-0.3c0-0.1,0-0.3,0-0.4c0-0.2,0.1-0.4,0.2-0.6
	c0.1-0.1,0.2-0.3,0.4-0.3c0.2-0.1,0.4-0.1,0.5-0.1c0.2,0,0.5,0,0.7,0l0.7,0.1l0.2-1.8L39.9,81.5z M38.9,83.9l-0.6-0.1
	c-0.1,0-0.2,0-0.4,0c-0.1,0-0.2,0-0.3,0c-0.1,0-0.2,0.1-0.2,0.2c-0.1,0.1-0.1,0.2-0.1,0.3c0,0.1,0,0.1,0,0.2c0,0,0,0.1,0,0.1
	c0,0,0,0.1,0.1,0.1c0,0,0.1,0.1,0.1,0.1l0.1,0.1h0.1h0.2L38,85h0.2l0.5,0.1L38.9,83.9z"/>
<path class="st0" d="M36.2,81.1l-0.9,4.2l-1.5-0.3c-0.2,0-0.4-0.1-0.6-0.2c-0.2-0.1-0.3-0.2-0.4-0.3c-0.1-0.1-0.2-0.3-0.2-0.4
	c0-0.2,0-0.4,0-0.6c0.1-0.5,0.5-0.8,1-0.8c-0.2-0.2-0.4-0.5-0.4-0.8l-0.3-1.5l0.8,0.2l0.2,1.3c0,0.2,0.1,0.3,0.2,0.5
	c0.1,0.1,0.2,0.2,0.4,0.2l0.6,0.1l0.4-1.8L36.2,81.1z M35,83.3l-0.7-0.1c-0.5-0.1-0.8,0-0.9,0.4c-0.1,0.2,0,0.3,0.1,0.5
	c0.1,0.1,0.3,0.2,0.5,0.2l0.8,0.2L35,83.3z"/>
<path class="st0" d="M32.3,80.2L31,84.3l-2.6-0.8l0.2-0.6l1.9,0.6l0.4-1.1l-1.7-0.6l0.2-0.6l1.8,0.6l0.4-1.2L29.5,80l0.2-0.6
	L32.3,80.2z"/>
<path class="st0" d="M27.9,78.7l-0.2,4.6L27,82.9c0-0.1,0-0.6,0.1-1.5s0.1-1.5,0.1-2L24.8,82l-0.7-0.3l3.2-3.3L27.9,78.7z"/>
<path class="st0" d="M25.4,77.5l-2,3.8l-0.7-0.3l2-3.8L25.4,77.5z"/>
<path class="st0" d="M22.2,75.7c0.5,0.3,0.9,0.8,1,1.3c0.1,0.6,0,1.2-0.4,1.7c-0.3,0.5-0.8,0.9-1.3,1c-1.2,0.2-2.3-0.5-2.6-1.7
	c-0.1-0.6,0-1.2,0.4-1.7c0.3-0.5,0.8-0.9,1.3-1.1C21.1,75.2,21.7,75.3,22.2,75.7z M21.9,76.2c-0.3-0.2-0.7-0.3-1.1-0.2
	c-0.4,0.2-0.7,0.4-0.9,0.8c-0.2,0.3-0.4,0.8-0.3,1.2c0.1,0.4,0.3,0.7,0.6,0.9c0.3,0.2,0.7,0.3,1.1,0.2c0.4-0.1,0.7-0.4,0.9-0.8
	c0.2-0.3,0.4-0.8,0.3-1.2C22.5,76.7,22.2,76.4,21.9,76.2z"/>
<path class="st0" d="M18.5,73c0.2,0.2,0.4,0.3,0.5,0.5c0.1,0.2,0.2,0.3,0.2,0.5c0,0.2,0,0.3,0,0.5c0,0.2-0.1,0.3-0.2,0.5
	c-0.1,0.2-0.2,0.3-0.3,0.5l-1.6,2L16.6,77l1.6-2c0.1-0.1,0.2-0.3,0.2-0.4c0.1-0.1,0.1-0.2,0.1-0.3c0-0.1,0-0.2,0-0.3
	c0-0.1-0.1-0.2-0.1-0.3c-0.1-0.1-0.1-0.2-0.2-0.2c-0.1-0.1-0.2-0.2-0.4-0.2c-0.1,0-0.2,0-0.4,0c-0.1,0-0.3,0.1-0.4,0.1
	c-0.2,0.1-0.3,0.2-0.4,0.4l-1.6,2l-0.6-0.5l1.6-2c0.1-0.1,0.2-0.3,0.4-0.4c0.1-0.1,0.3-0.2,0.4-0.3c0.2-0.1,0.3-0.1,0.5-0.1
	c0.2,0,0.4,0,0.5,0.1C18.2,72.7,18.4,72.8,18.5,73z"/>
<path class="st0" d="M15.6,70.4c0.2,0.2,0.4,0.4,0.5,0.7c0.1,0.2,0.2,0.5,0.2,0.7L15.7,72c0-0.2-0.1-0.4-0.2-0.6
	c-0.1-0.2-0.2-0.3-0.3-0.5c-0.1-0.2-0.3-0.3-0.5-0.3c-0.2,0-0.3,0.1-0.4,0.2c0,0-0.1,0.1-0.1,0.2c0,0.1,0,0.1,0,0.2
	c0,0.1,0,0.2,0,0.2c0,0.1,0.1,0.2,0.1,0.3l0.1,0.3c0.1,0.1,0.1,0.2,0.1,0.3c0.1,0.3,0.2,0.6,0.2,0.9c0,0.3-0.1,0.5-0.4,0.7
	c-0.2,0.2-0.4,0.3-0.6,0.3c-0.2,0-0.4,0-0.6-0.1c-0.2-0.1-0.4-0.2-0.6-0.4c-0.2-0.2-0.4-0.4-0.6-0.7c-0.1-0.2-0.1-0.5-0.1-0.7
	l0.6-0.1c0,0.4,0.2,0.7,0.5,1c0.1,0.1,0.3,0.2,0.5,0.3c0.1,0,0.3,0,0.4-0.1l0.1-0.2c0-0.1,0-0.1,0-0.2c0-0.1,0-0.2,0-0.2
	c0-0.1-0.1-0.2-0.1-0.3c0-0.1-0.1-0.1-0.1-0.3c-0.1-0.1-0.1-0.2-0.2-0.3c-0.1-0.3-0.2-0.6-0.2-0.8c0.1-0.3,0.2-0.5,0.4-0.7
	c0.1-0.1,0.3-0.2,0.5-0.3c0.2,0,0.3,0,0.5,0c0.2,0,0.3,0.1,0.5,0.2C15.3,70.2,15.5,70.3,15.6,70.4z"/>
<path class="st0" d="M12.1,66.5c0.2,0.2,0.3,0.5,0.4,0.8c0.1,0.2,0.1,0.5,0.1,0.7L12,68c0-0.2,0-0.4-0.1-0.6
	c-0.1-0.2-0.2-0.4-0.3-0.5c-0.1-0.2-0.3-0.3-0.5-0.4c-0.2,0-0.3,0-0.5,0.1c-0.1,0-0.1,0.1-0.1,0.1c0,0-0.1,0.1-0.1,0.2
	c0,0.1,0,0.2,0,0.2c0,0.1,0,0.2,0.1,0.3c0,0.1,0,0.2,0.1,0.3l0.1,0.3c0.1,0.3,0.1,0.6,0.1,0.9c-0.1,0.3-0.2,0.5-0.4,0.6
	c-0.2,0.1-0.4,0.2-0.6,0.2c-0.2,0-0.4-0.1-0.6-0.2c-0.2-0.1-0.4-0.3-0.6-0.5c-0.2-0.2-0.4-0.5-0.5-0.8c-0.1-0.2-0.1-0.5-0.1-0.7h0.6
	c0,0.4,0.1,0.7,0.3,1c0.1,0.2,0.3,0.3,0.4,0.4c0.1,0.1,0.3,0.1,0.4,0c0.1,0,0.1-0.1,0.1-0.1c0-0.1,0.1-0.1,0.1-0.2
	c0-0.1,0-0.2,0-0.2c0-0.1,0-0.2-0.1-0.3l-0.1-0.3c-0.1-0.2-0.1-0.3-0.1-0.3c-0.1-0.3-0.1-0.6-0.1-0.9c0.1-0.3,0.2-0.5,0.5-0.7
	c0.2-0.1,0.3-0.2,0.5-0.2c0.2,0,0.3,0,0.5,0c0.2,0.1,0.3,0.1,0.5,0.3C11.8,66.2,12,66.3,12.1,66.5z"/>
<path class="st0" d="M10.7,64.7L7.1,67l-0.4-0.6l3-2l-1.1-1.7l0.5-0.3L10.7,64.7z"/>
<path class="st0" d="M8.9,61.8l-3.7,2.1l-0.4-0.7l3.7-2.1L8.9,61.8z"/>
<path class="st0" d="M8.1,60.3l-3.9,1.8L3.7,61c-0.3-0.6-0.4-1.3-0.3-2c0.2-0.6,0.6-1,1.2-1.2c0.5-0.3,1.2-0.3,1.7-0.1
	c0.6,0.3,1,0.8,1.2,1.4L8.1,60.3z M7.2,59.9L7,59.4c-0.2-0.4-0.5-0.7-0.8-0.9c-0.4-0.1-0.8-0.1-1.2,0.1c-0.4,0.1-0.7,0.4-0.8,0.8
	c-0.1,0.4,0,0.9,0.2,1.3l0.2,0.5L7.2,59.9z"/>
<path class="st0" d="M6.3,56.2l-4,1.3L1.4,55L2,54.8l0.6,1.8l1.1-0.4l-0.6-1.8l0.6-0.2l0.6,1.7l1.1-0.4l-0.6-1.9l0.6-0.2L6.3,56.2z"
	/>
<path class="st0" d="M42.8,1.5v1.2c0,0,0,0.1,0,0.1c0,0.1-0.1,0.1-0.1,0.1c0,0,0,0,0,0c0,0-0.1,0-0.1-0.1l-0.8-0.7h0c0,0,0,0-0.1,0
	c0,0,0,0,0,0v0.6v0.2c0,0.1-0.1,0.1-0.2,0.1c0,0-0.1,0-0.1-0.1l-1.4-1.2c-0.1-0.1-0.1-0.2,0-0.3c0,0,0,0,0,0l1.3-1.1
	c0,0,0.1-0.1,0.2-0.1c0.1,0,0.1,0,0.1,0.1c0,0,0,0.1,0,0.1c0,0.2,0,0.4,0,0.6V1c0,0,0.1,0,0.1,0c0,0,0,0,0,0h0.1l0.8-0.7l0.1-0.1
	c0.1,0,0.1,0,0.2,0.1c0,0,0,0,0,0c0,0,0,0.1,0,0.1L42.8,1.5z"/>
<path class="st0" d="M83.8,42h-1.2h-0.1c-0.1,0-0.1-0.1-0.1-0.2c0,0,0,0,0,0l0.1-0.1c0.2-0.3,0.5-0.5,0.7-0.8l0,0c0,0,0,0,0-0.1
	c0,0,0,0,0,0h-0.6c-0.1,0-0.1,0-0.2,0c-0.1,0-0.1-0.1-0.1-0.1c0,0,0,0,0,0c0,0,0-0.1,0.1-0.1l1.2-1.3c0.1-0.1,0.2-0.1,0.3,0
	c0,0,0,0,0,0l1.1,1.3c0,0,0.1,0.1,0.1,0.2c0,0.1,0,0.1-0.1,0.1H85h-0.6c0,0-0.1,0,0,0.1c0,0,0,0,0,0.1c0.2,0.3,0.5,0.5,0.7,0.8
	c0,0,0.1,0.1,0.1,0.1c0,0.1,0,0.1,0,0.2c0,0,0,0,0,0L85,42H83.8z"/>
<path class="st0" d="M45.3,83.8l0.1-1.2c0,0,0-0.1,0-0.1c0-0.1,0.1-0.1,0.2-0.1c0,0,0,0,0,0c0,0,0.1,0,0.1,0.1l0.8,0.8l0,0
	c0,0,0,0,0.1,0c0,0,0,0,0,0c0,0,0,0,0-0.1c0-0.2,0-0.4,0-0.5c0,0,0-0.1,0-0.2c0,0,0.1,0,0.1,0c0,0,0,0,0,0l0.1,0.1L48,84
	c0.1,0,0.1,0.2,0.1,0.2c0,0,0,0-0.1,0.1l-1.4,1c0,0-0.1,0.1-0.2,0.1c-0.1,0-0.1,0-0.1-0.1c0,0,0-0.1,0-0.1c0-0.2,0-0.4,0-0.6v-0.1
	c0-0.1,0-0.1-0.1,0h-0.1l-0.8,0.6c0,0-0.1,0.1-0.1,0.1c-0.1,0-0.1,0-0.2-0.1c0,0,0,0,0,0c0,0,0-0.1,0-0.1L45.3,83.8z"/>
<path class="st0" d="M1.5,42.6l1.2,0.1h0.1c0.1,0,0.1,0.1,0.1,0.2c0,0,0,0,0,0c0,0,0,0.1-0.1,0.1L2,43.8v0c0,0,0,0,0,0.1
	c0,0,0,0,0,0l0,0h0.5c0,0,0.1,0,0.2,0c0,0,0,0.1,0,0.1c0,0,0,0,0,0c0,0,0,0.1-0.1,0.1l-1.2,1.3c-0.1,0.1-0.2,0.1-0.2,0.1
	c0,0,0,0-0.1-0.1l-1.1-1.4C0,44.1,0,44.1,0,44c0-0.1,0-0.1,0.1-0.1h0.1h0.6h0.1c0,0,0-0.1,0-0.1c0,0,0,0,0,0v-0.1l-0.7-0.8
	c0,0-0.1-0.1-0.1-0.1c0-0.1,0-0.1,0.1-0.2c0,0,0,0,0,0h0.1L1.5,42.6z"/>
</svg>
