<?xml version="1.0" encoding="utf-8"?>
<!-- Generator: Adobe Illustrator 23.0.4, SVG Export Plug-In . SVG Version: 6.00 Build 0)  -->
<svg version="1.1" id="Layer_1" xmlns="http://www.w3.org/2000/svg" xmlns:xlink="http://www.w3.org/1999/xlink" x="0px" y="0px"
	 viewBox="0 0 85.7 85.8" style="enable-background:new 0 0 85.7 85.8;" xml:space="preserve">
<style type="text/css">
	.st0{fill:#34D07C;}
</style>
<title>prev</title>
<path class="st0" d="M49.1,42.9c0,1.7,0,3.4,0,5c0,0.2,0,0.3-0.1,0.5c-0.1,0.3-0.4,0.4-0.6,0.3c0,0-0.1,0-0.1-0.1
	c-0.2-0.1-0.3-0.2-0.5-0.3c-1.2-1-2.3-2.1-3.5-3.1c-0.1-0.1-0.1-0.1-0.2-0.2c-0.1-0.1-0.2,0-0.3,0.1c0,0,0,0.1,0,0.1
	c0,0.1,0,0.2,0,0.3c0,0.8,0,1.5,0,2.3c0,0.2,0,0.4-0.1,0.7c-0.1,0.2-0.3,0.3-0.6,0.3c0,0,0,0,0,0c-0.2-0.1-0.4-0.2-0.5-0.3
	c-1.9-1.6-3.8-3.2-5.6-4.9c-0.3-0.2-0.4-0.7-0.2-1.1c0-0.1,0.1-0.1,0.2-0.2l5.4-4.8c0.2-0.2,0.4-0.4,0.7-0.4c0.2-0.1,0.5,0,0.6,0.2
	c0.1,0.2,0.1,0.3,0.1,0.5c0,0.8,0,1.6,0,2.4c0,0.1,0,0.2,0,0.3c0,0.1,0.1,0.2,0.3,0.2c0,0,0.1,0,0.1-0.1c0.1-0.1,0.2-0.1,0.3-0.2
	l3.4-3c0.1-0.1,0.3-0.3,0.5-0.3c0.2-0.1,0.6-0.1,0.7,0.2c0,0,0,0.1,0,0.1c0.1,0.2,0.1,0.3,0.1,0.5C49.1,39.5,49.1,41.2,49.1,42.9z"
	/>
</svg>
