<?xml version="1.0" encoding="utf-8"?>
<!-- Generator: Adobe Illustrator 23.0.4, SVG Export Plug-In . SVG Version: 6.00 Build 0)  -->
<svg version="1.1" id="Layer_1" xmlns="http://www.w3.org/2000/svg" xmlns:xlink="http://www.w3.org/1999/xlink" x="0px" y="0px"
	 viewBox="0 0 35.5 35.5" style="enable-background:new 0 0 35.5 35.5;" xml:space="preserve">
<style type="text/css">
	.st0{fill:#34D07C;}
</style>
<title>twitter</title>
<g>
	<g id="Layer_1-2">
		<path class="st0" d="M17.8,0C8,0,0,8,0,17.8s8,17.8,17.8,17.8s17.8-8,17.8-17.8S27.6,0,17.8,0C17.8,0,17.8,0,17.8,0z M26.1,12.4
			c-0.5,0.7-1,1.3-1.7,1.8v0.5c0,4.7-3.5,10-9.8,10c-1.9,0-3.7-0.5-5.3-1.6c1.8,0.2,3.7-0.3,5.1-1.5c-1.5,0-2.8-1-3.2-2.5
			c0.2,0,0.4,0.1,0.6,0.1c0.3,0,0.6,0,0.9-0.1c-1.6-0.3-2.8-1.8-2.8-3.4v-0.1c0.5,0.3,1,0.4,1.6,0.4c-1-0.7-1.5-1.8-1.5-2.9
			c0-0.6,0.2-1.2,0.5-1.8c1.7,2.2,4.3,3.5,7.1,3.7c-0.1-0.3-0.1-0.5-0.1-0.8c0-1.9,1.5-3.5,3.5-3.5c1,0,1.9,0.4,2.5,1.1
			c0.8-0.2,1.5-0.5,2.2-0.9c-0.2,0.8-0.8,1.5-1.5,2C24.9,12.9,25.5,12.7,26.1,12.4L26.1,12.4z"/>
	</g>
</g>
</svg>
