<?xml version="1.0" encoding="utf-8"?>
<!-- Generator: Adobe Illustrator 23.0.4, SVG Export Plug-In . SVG Version: 6.00 Build 0)  -->
<svg version="1.1" id="Layer_1" xmlns="http://www.w3.org/2000/svg" xmlns:xlink="http://www.w3.org/1999/xlink" x="0px" y="0px"
	 viewBox="0 0 35.5 35.5" style="enable-background:new 0 0 35.5 35.5;" xml:space="preserve">
<style type="text/css">
	.st0{fill:#34D07C;}
</style>
<title>twitter</title>
<g>
	<g id="Layer_1-2">
		<path class="st0" d="M17.8,35.5C8,35.5,0,27.6,0,17.8S8,0,17.8,0s17.8,8,17.8,17.8l0,0C35.5,27.6,27.6,35.5,17.8,35.5z M17.8,1
			C8.5,1,1,8.5,1,17.8s7.5,16.8,16.8,16.8S34.5,27,34.5,17.8l0,0C34.5,8.5,27,1,17.8,1z"/>
		<path class="st0" d="M26.1,12.4c-0.6,0.3-1.3,0.5-2,0.6c0.7-0.5,1.3-1.2,1.5-2c-0.7,0.4-1.4,0.7-2.2,0.9c-0.6-0.7-1.5-1.1-2.5-1.1
			c-1.9,0-3.5,1.6-3.4,3.5c0,0.3,0,0.5,0.1,0.8c-2.8-0.2-5.4-1.5-7.1-3.7c-0.3,0.5-0.5,1.2-0.5,1.8c0,1.2,0.6,2.3,1.5,2.9
			c-0.5,0-1.1-0.2-1.6-0.4v0.1c0,1.7,1.1,3.1,2.8,3.5c-0.3,0.1-0.6,0.1-0.9,0.1c-0.2,0-0.4,0-0.6-0.1c0.4,1.4,1.7,2.4,3.2,2.5
			c-1.4,1.2-3.3,1.7-5.1,1.5c1.6,1,3.4,1.6,5.3,1.6c6.3,0,9.8-5.4,9.8-10v-0.5C25.1,13.8,25.7,13.2,26.1,12.4"/>
	</g>
</g>
</svg>
