<?xml version="1.0" encoding="utf-8"?>
<!-- Generator: Adobe Illustrator 23.0.4, SVG Export Plug-In . SVG Version: 6.00 Build 0)  -->
<svg version="1.1" id="Layer_1" xmlns="http://www.w3.org/2000/svg" xmlns:xlink="http://www.w3.org/1999/xlink" x="0px" y="0px"
	 viewBox="0 0 92.4 91.3" style="enable-background:new 0 0 92.4 91.3;" xml:space="preserve">
<style type="text/css">
	.st0{fill:#34D07C;}
	.st1{fill:none;stroke:#34D07C;stroke-miterlimit:10;}
</style>
<g>
	<path class="st0" d="M-210.5,779.5c0.2-2,2-3.4,3.9-3.2c2.5,0.2,8.4,1,12.1,1.4c1.8,0.2,3.1,1.8,2.9,3.6l-0.1,0.8
		c-0.2,1.8-1.9,3.1-3.7,2.9c-3.7-0.5-9.4-1.2-12.1-1.6C-209.3,783.2-210.7,781.5-210.5,779.5L-210.5,779.5z"/>
	<path class="st0" d="M-214.5,788.7l0.1-0.6c0.2-1.8,1.9-3.1,3.7-2.9c3.3,0.4,10.3,1.3,14.4,1.8c1.8,0.2,3.1,1.8,2.9,3.6l-0.1,0.5
		c-0.2,1.8-1.8,3.1-3.6,2.9c-4.2-0.5-11.3-1.3-14.4-1.6C-213.4,792.1-214.7,790.5-214.5,788.7z"/>
	<path class="st0" d="M-214.3,797.8l0.1-0.6c0.2-1.8,1.8-3.1,3.6-2.9c3.2,0.4,9.3,1.1,13.1,1.5c1.8,0.2,3.1,1.8,2.9,3.6l-0.1,0.7
		c-0.2,1.8-1.8,3.1-3.6,2.9c-3.9-0.4-10.1-1.2-13.1-1.5C-213.2,801.2-214.5,799.6-214.3,797.8z"/>
	<path class="st0" d="M-195.6,808.5c-0.2,1.8-1.8,3.1-3.6,2.9c-3.1-0.4-7.8-0.9-10.3-1.2c-1.8-0.2-3.1-1.8-2.9-3.6l0,0
		c0.2-1.8,1.8-3.1,3.6-2.9c2.7,0.3,7.3,0.8,10.4,1.2C-196.7,805.1-195.4,806.7-195.6,808.5L-195.6,808.5z"/>
	<path class="st0" d="M-167.9,807c-2.7-2.3-4.6-6.7-3.8-8.9l0.3-0.8c-3.4-3.7-5-8.3-3.4-10.5l0.5-0.6l0.6,0.4
		c1.7,1.2,3.6,2.2,4.3,2.4c0-0.2-0.1-0.5-0.3-0.9c-3-3.8-3.7-7.2-2-9.8c-0.8-1.8-2-3.9-4-5.9c-1.4-1.4-1.9-15-2.7-17
		c-0.4-1-4.9-2.2-6.4,1.7c-0.8,1.9-0.3,3.9,0.1,5.8c1.2,6.9-1.7,12.4-2.3,14.4c-0.8,2.8-1.2,4.4-0.1,8c0.9,2.8,3.7,5.9,6.4,7.3
		c1.3,0.7,2.4,1.4,2,1.9c-0.5,0.6-4.5-1.5-5.7-2.7c-2-2.1-3.4-3.7-4.2-6.4c-0.5-1.7-1.7-1-2.9-0.3c-1,0.6-1.9,1.2-1.9,1.2l0.8,1.3
		c1.3,2,1,4.6-0.7,6.3l-1.1,1.1h-0.1l0.9,1.4c1.3,2.1,0.9,4.7-0.9,6.4l-1,0.9l-0.1,0.8l0.6,0.8c1.5,2,1.2,4.8-0.5,6.5
		c0,0,3.5,0.4,3.6,0.4c10.9,0.3,17-4.5,17.6-4.5c1.1,0.1,2.7,0.2,4.6,0.4C-169.1,807.8-168.5,807.4-167.9,807z"/>
	<path class="st0" d="M-147.7,784.1c-3-3.1-5.3-6-6.3-7.4c-0.2,0.6-0.3,1.8,0.5,3.8h-0.1c0.3,2.1-2.3,0-2.8-0.4
		c-2-2.1-3.3-3.7-4-4.6c-0.4,0.8-0.6,2.2-0.6,3.7v1.7l-1.3-1.1c-2.2-1.8-3.8-3.5-4.7-4.5c-0.3,0.9-0.3,2.5,0.1,4.5
		c0.2,0.9-0.4,1.3-0.4,1.3c-0.3,0.2-0.5,0.3-0.9,0.3l0,0c-0.9,0-1.9-1-2.6-1.9c-1.3,2.5,0.4,5.5,2.2,7.8l0.1,0.1
		c0.3,0.6,1,2.1,0.1,2.9c-0.9,0.7-2.7,0.1-5.6-1.8c-0.4,2.2,1.8,6.7,5.4,9.6l0.1,0.1c0.1,0.1,0.2,0.2,0.3,0.3c0.5,0.5,1,1.1,0.8,1.8
		c-0.1,0.3-0.3,0.6-0.7,0.7c-0.2,0.1-0.7,0.2-2.4-1.1c0.3,2,1.9,5,3.9,6.4l0.2,0.2c0.2,0.1,0.2,0.2,0.3,0.3l0.6,0.8l-0.9,0.4
		c-2.6,1.2-4.6,3.3-5.2,4.7c1.2-0.4,3.3-1,6-1.5l1.9-0.4l-1.1,1.6c-0.7,1-1,1.8-1.1,2.3c1.1-0.4,3.4-1.2,7.2-2.1l0.3-0.1
		c0.2,0,0.5,0,0.7,0.2s0.4,0.6,0.1,1l-0.5,0.3c-1.5,1-1.9,1.6-1.9,2c1.4-0.5,4.6-1.7,8.4-2.8C-143.6,803-145.5,791.7-147.7,784.1z"
		/>
</g>
<g>
	<circle class="st0" cx="-244.5" cy="784.6" r="2.1"/>
	<circle class="st0" cx="-115.5" cy="784.6" r="2.1"/>
	<g>
		<path class="st0" d="M-239.5,777.1l-7.5-1.1l-0.4,2.7l-1.3-0.2l1-7l1.3,0.2l-0.4,2.8l7.5,1.1L-239.5,777.1z"/>
		<path class="st0" d="M-238.6,771.5l-8.5-2.5l0.4-1.5l3.5,1l1.2-4l-3.5-1l0.4-1.5l8.5,2.5l-0.4,1.5l-3.7-1.1l-1.2,4l3.7,1.1
			L-238.6,771.5z"/>
		<path class="st0" d="M-234,759.3c-0.2,0.5-0.5,0.9-0.8,1.3c-0.3,0.3-0.6,0.6-0.9,0.7c-0.3,0.1-0.7,0.2-1,0.2s-0.7,0-1.1-0.1
			c-0.3-0.1-0.7-0.2-1.1-0.4l-4.7-2.3l0.7-1.4l4.8,2.3c0.3,0.2,0.6,0.3,0.9,0.3c0.3,0.1,0.5,0.1,0.7,0c0.2,0,0.4-0.1,0.6-0.2
			c0.2-0.1,0.3-0.2,0.5-0.4c0.1-0.2,0.2-0.3,0.3-0.6s0.2-0.5,0.3-0.8c0-0.2,0-0.5-0.1-0.7s-0.2-0.5-0.5-0.7c-0.2-0.2-0.6-0.4-1-0.6
			l-4.8-2.3l0.7-1.4l4.7,2.3c0.4,0.2,0.7,0.4,1,0.6c0.3,0.2,0.5,0.4,0.8,0.7c0.2,0.3,0.4,0.6,0.5,0.9c0.1,0.3,0.1,0.7,0,1.2
			C-233.6,758.3-233.7,758.8-234,759.3z"/>
		<path class="st0" d="M-231.5,754l-7.2-5.2l1.1-1.5c0.3,0.1,1.4,0.3,3.2,0.7s3.2,0.7,4.2,0.9c-0.4-0.7-0.8-1.3-1.2-2
			s-0.9-1.5-1.4-2.5c-0.5-0.9-0.9-1.6-1.2-2l1.1-1.5l7.2,5.2l-0.9,1.2l-5.1-3.7c0.3,0.4,1.4,2.5,3.5,6l-0.7,0.9
			c-0.5-0.1-1.2-0.2-2.1-0.4c-0.9-0.2-1.7-0.4-2.5-0.5c-0.7-0.2-1.5-0.3-2.1-0.4l5.1,3.7L-231.5,754z"/>
		<path class="st0" d="M-224.1,744.4l-6.2-6.4l1.8-1.7c0.2-0.2,0.4-0.3,0.5-0.5c0.2-0.1,0.3-0.3,0.5-0.4c0.2-0.2,0.4-0.3,0.6-0.4
			c0.2-0.1,0.4-0.2,0.6-0.2c0.2-0.1,0.4-0.1,0.6-0.1c0.2,0,0.4,0.1,0.6,0.2c0.2,0.1,0.4,0.3,0.6,0.5c0.6,0.6,0.8,1.4,0.5,2.2
			c0.5-0.3,0.9-0.4,1.4-0.3c0.5,0.1,0.9,0.3,1.3,0.7c0.2,0.2,0.4,0.5,0.5,0.8s0.2,0.6,0.1,1c0,0.3-0.1,0.7-0.3,1.1
			c-0.2,0.4-0.5,0.8-0.9,1.2L-224.1,744.4z M-226.6,739.6l0.9-0.9c0.1-0.1,0.3-0.3,0.4-0.4c0.1-0.2,0.2-0.3,0.2-0.5s0-0.3,0-0.5
			s-0.2-0.4-0.3-0.5c-0.3-0.3-0.6-0.4-1-0.3c-0.3,0.1-0.7,0.4-1.2,0.8l-0.7,0.7L-226.6,739.6z M-223.9,742.4l1-1
			c0.9-0.9,1-1.6,0.5-2.2c-0.4-0.4-0.7-0.5-1-0.5c-0.3,0.1-0.8,0.3-1.3,0.8l-1,1L-223.9,742.4z"/>
		<path class="st0" d="M-215.7,737.2c-0.5,0.4-1,0.6-1.6,0.8s-1.1,0.3-1.5,0.2l-0.1-1.3c0.4,0,0.8-0.1,1.2-0.2
			c0.5-0.2,0.8-0.3,1.1-0.5c0.4-0.3,0.7-0.7,0.8-1s0-0.6-0.2-1c-0.1-0.1-0.2-0.2-0.3-0.3s-0.2-0.1-0.3-0.2c-0.1,0-0.3,0-0.5,0
			s-0.4,0.1-0.7,0.2c-0.1,0-0.3,0.1-0.6,0.2c-0.3,0.1-0.5,0.2-0.6,0.2c-0.8,0.2-1.4,0.3-1.9,0.2s-0.9-0.4-1.3-0.9
			c-0.3-0.4-0.5-0.9-0.5-1.3c0-0.5,0.1-0.9,0.4-1.3c0.3-0.4,0.6-0.8,1.1-1.1c0.6-0.5,1.2-0.8,1.6-0.9c0.4-0.1,0.9-0.2,1.5-0.1v1.3
			c-0.7-0.1-1.4,0.1-2.1,0.7c-0.4,0.3-0.7,0.6-0.8,0.9c-0.1,0.3-0.1,0.6,0.1,0.9c0.1,0.1,0.2,0.2,0.3,0.3s0.2,0.1,0.3,0.1
			s0.3,0,0.5,0s0.4-0.1,0.7-0.2c0.1,0,0.3-0.1,0.6-0.2c0.3-0.1,0.6-0.2,0.7-0.2c0.8-0.2,1.4-0.2,1.8-0.1s0.9,0.5,1.3,1
			c0.3,0.4,0.4,0.7,0.5,1.1c0.1,0.4,0,0.7-0.1,1.1c-0.1,0.3-0.3,0.6-0.5,0.9C-215.1,736.6-215.4,736.9-215.7,737.2z"/>
		<path class="st0" d="M-205,730.8c-0.5,0.2-1,0.4-1.5,0.4s-0.8,0-1.2-0.1c-0.3-0.1-0.6-0.3-0.9-0.5c-0.3-0.2-0.5-0.5-0.7-0.8
			s-0.4-0.6-0.6-1l-2.2-4.8l1.4-0.6l2.2,4.8c0.2,0.3,0.3,0.6,0.5,0.8s0.4,0.4,0.5,0.5c0.2,0.1,0.4,0.2,0.6,0.2c0.2,0,0.4,0,0.6,0
			c0.2,0,0.4-0.1,0.6-0.2c0.3-0.1,0.5-0.3,0.7-0.4c0.2-0.2,0.3-0.4,0.4-0.6c0.1-0.2,0.1-0.5,0.1-0.9c0-0.3-0.2-0.7-0.3-1.1l-2.2-4.8
			l1.4-0.6l2.2,4.8c0.2,0.4,0.3,0.8,0.4,1.1c0.1,0.3,0.1,0.7,0.1,1.1c0,0.4-0.1,0.7-0.2,1c-0.1,0.3-0.4,0.6-0.7,0.9
			C-204,730.3-204.5,730.6-205,730.8z"/>
		<path class="st0" d="M-199.7,728.4l-2.5-8.5l2.4-0.7c0.3-0.1,0.5-0.2,0.7-0.2c0.2-0.1,0.4-0.1,0.7-0.1s0.5-0.1,0.7-0.1
			s0.4,0,0.6,0c0.2,0,0.4,0.1,0.5,0.2c0.2,0.1,0.3,0.2,0.5,0.3c0.1,0.1,0.3,0.3,0.4,0.5c0.1,0.2,0.2,0.5,0.3,0.7
			c0.1,0.5,0.2,0.9,0.1,1.2c-0.1,0.4-0.2,0.7-0.4,0.9c-0.2,0.3-0.5,0.5-0.9,0.7s-0.8,0.4-1.4,0.5l-1.3,0.4l1.1,3.7L-199.7,728.4z
			 M-199.6,723.1l1.3-0.4c0.3-0.1,0.5-0.2,0.7-0.3s0.4-0.2,0.5-0.3s0.2-0.3,0.3-0.5c0-0.2,0-0.4,0-0.6c0-0.1-0.1-0.2-0.1-0.3
			s-0.1-0.2-0.2-0.2c-0.1-0.1-0.1-0.1-0.2-0.2s-0.2-0.1-0.2-0.1c-0.1,0-0.2,0-0.3,0s-0.2,0-0.3,0s-0.2,0-0.3,0.1
			c-0.2,0-0.3,0.1-0.4,0.1c-0.1,0-0.2,0.1-0.4,0.1l-1,0.3L-199.6,723.1z"/>
		<path class="st0" d="M-188,725.7l-0.8-8.8l5.4-0.5l0.1,1.3l-3.9,0.4l0.2,2.4l3.6-0.3l0.1,1.3l-3.6,0.3l0.4,3.8L-188,725.7z"/>
		<path class="st0" d="M-176.9,725.5c-1.4-0.1-2.4-0.6-3.2-1.5c-0.7-0.9-1.1-2-1-3.4s0.6-2.4,1.4-3.2s2-1.1,3.4-1
			c1.3,0.1,2.4,0.6,3.1,1.5s1.1,2,1,3.4s-0.6,2.5-1.4,3.3C-174.5,725.2-175.6,725.5-176.9,725.5z M-176.9,724.1
			c0.9,0.1,1.6-0.2,2.1-0.7s0.8-1.3,0.9-2.4c0.1-1-0.1-1.8-0.5-2.4c-0.4-0.6-1.1-0.9-2-1s-1.6,0.2-2.1,0.7s-0.8,1.3-0.9,2.3
			c-0.1,1.1,0.1,1.9,0.5,2.5C-178.5,723.7-177.8,724.1-176.9,724.1z"/>
		<path class="st0" d="M-170.7,725.9l1.8-8.7l3.1,0.7c0.5,0.1,0.9,0.2,1.2,0.4c0.3,0.1,0.6,0.3,0.9,0.6c0.2,0.2,0.4,0.5,0.5,0.9
			c0.1,0.3,0.1,0.8,0,1.2c-0.1,0.5-0.3,0.9-0.7,1.2s-0.9,0.5-1.5,0.5c0.5,0.4,0.8,0.9,0.9,1.6l0.6,3.1l-1.6-0.3l-0.5-2.8
			c-0.1-0.5-0.2-0.8-0.4-1s-0.4-0.3-0.8-0.4l-1.2-0.3l-0.8,3.7L-170.7,725.9z M-168.1,721.2l1.5,0.3c1.1,0.2,1.7-0.1,1.9-0.9
			c0.1-0.5,0-0.8-0.1-1c-0.2-0.2-0.6-0.4-1.1-0.5l-1.6-0.3L-168.1,721.2z"/>
		<path class="st0" d="M-157.1,729.8l3-6.9l-2.5-1.1l0.5-1.2l6.5,2.8l-0.5,1.2l-2.6-1.1l-3,6.9L-157.1,729.8z"/>
		<path class="st0" d="M-151.9,732.1l4.6-7.6l1.3,0.8l-1.9,3.1l3.6,2.2l1.9-3.1l1.3,0.8l-4.6,7.6l-1.3-0.8l2-3.3l-3.6-2.2l-2,3.3
			L-151.9,732.1z"/>
		<path class="st0" d="M-143.7,737.4l5.7-6.8l4.3,3.6l-0.9,1l-3.1-2.6l-1.5,1.8l3,2.5l-0.9,1l-2.9-2.4l-1.6,1.9l3.2,2.7l-0.9,1
			L-143.7,737.4z"/>
		<path class="st0" d="M-134.1,746.6l5.8-4.8l-1.7-2.1l1-0.8l4.5,5.5l-1,0.8l-1.8-2.2l-5.8,4.8L-134.1,746.6z"/>
		<path class="st0" d="M-130.6,751.1l7.5-4.7l3,4.7l-1.1,0.7l-2.2-3.4l-2,1.3l2,3.2l-1.1,0.7l-2-3.2l-2.1,1.3l2.2,3.6l-1.1,0.7
			L-130.6,751.1z"/>
		<path class="st0" d="M-127.1,756.7l9.6-0.4l0.6,1.4l-6.6,6.9l-0.7-1.6l1.6-1.7l-1.5-3.3l-2.3,0.1L-127.1,756.7z M-122.5,758.1
			l1,2.2c1.1-1,2-1.8,2.7-2.5C-119.6,757.8-120.9,757.9-122.5,758.1z"/>
		<path class="st0" d="M-123,765.9l8.6-2.2l0.4,1.8c-0.2,0.2-1.1,0.9-2.6,2c-1.5,1.2-2.6,2-3.4,2.7c0.7,0.1,1.5,0.3,2.3,0.4
			c0.8,0.1,1.7,0.3,2.8,0.5c1.1,0.2,1.8,0.3,2.3,0.4l0.4,1.8l-8.6,2.2l-0.4-1.4l6.2-1.5c-0.5-0.1-2.8-0.5-6.9-1.2l-0.3-1.1
			c0.4-0.3,1-0.8,1.7-1.3c0.7-0.6,1.4-1.1,2-1.6s1.2-0.9,1.7-1.4l-6.1,1.5L-123,765.9z"/>
		<path class="st0" d="M-120.8,795.1l7.4,1.3l0.5-2.7l1.3,0.2l-1.2,7l-1.3-0.2l0.5-2.7l-7.4-1.3L-120.8,795.1z"/>
		<path class="st0" d="M-121.9,800.7l8.4,2.8l-0.5,1.5l-3.5-1.2l-1.3,4l3.5,1.1l-0.5,1.5l-8.4-2.8l0.5-1.4l3.7,1.2l1.3-4l-3.7-1.2
			L-121.9,800.7z"/>
		<path class="st0" d="M-126.9,812.8c0.3-0.5,0.6-0.9,0.9-1.2s0.6-0.5,1-0.7c0.3-0.1,0.7-0.2,1-0.2c0.4,0,0.7,0.1,1.1,0.2
			c0.3,0.1,0.7,0.3,1.1,0.5l4.6,2.4l-0.7,1.4l-4.7-2.4c-0.3-0.2-0.6-0.3-0.9-0.4c-0.3-0.1-0.5-0.1-0.7-0.1s-0.4,0.1-0.6,0.2
			c-0.2,0.1-0.3,0.2-0.5,0.4c-0.1,0.2-0.3,0.3-0.4,0.6s-0.2,0.5-0.3,0.8c0,0.2,0,0.5,0,0.7c0.1,0.3,0.2,0.5,0.5,0.7
			c0.2,0.2,0.6,0.5,1,0.7l4.7,2.4l-0.7,1.4l-4.6-2.4c-0.4-0.2-0.7-0.4-1-0.6c-0.3-0.2-0.5-0.5-0.8-0.8c-0.2-0.3-0.4-0.6-0.5-1
			c-0.1-0.3-0.1-0.7,0-1.2C-127.3,813.8-127.1,813.3-126.9,812.8z"/>
		<path class="st0" d="M-129.5,818l7,5.4l-1.1,1.4c-0.3-0.1-1.4-0.3-3.2-0.8c-1.8-0.4-3.2-0.8-4.2-1c0.3,0.7,0.7,1.4,1.1,2.1
			c0.4,0.7,0.8,1.6,1.4,2.5c0.5,0.9,0.9,1.6,1.1,2.1l-1.1,1.4l-7-5.4l0.9-1.2l5,3.9c-0.2-0.5-1.3-2.5-3.3-6.1l0.7-0.9
			c0.5,0.1,1.2,0.3,2.1,0.5c0.9,0.2,1.7,0.4,2.5,0.6c0.7,0.2,1.4,0.3,2.1,0.5l-4.9-3.8L-129.5,818z"/>
		<path class="st0" d="M-137.2,827.4l6,6.5l-1.8,1.7c-0.2,0.2-0.4,0.3-0.5,0.5c-0.2,0.1-0.3,0.3-0.6,0.4c-0.2,0.2-0.4,0.3-0.6,0.4
			c-0.2,0.1-0.4,0.2-0.6,0.2c-0.2,0.1-0.4,0.1-0.6,0c-0.2,0-0.4-0.1-0.6-0.2c-0.2-0.1-0.4-0.3-0.6-0.5c-0.6-0.6-0.7-1.4-0.4-2.2
			c-0.5,0.3-1,0.3-1.4,0.2c-0.5-0.1-0.9-0.4-1.2-0.8c-0.2-0.2-0.4-0.5-0.5-0.8s-0.1-0.6-0.1-1c0-0.3,0.2-0.7,0.4-1.1
			c0.2-0.4,0.5-0.8,0.9-1.1L-137.2,827.4z M-137.5,829.4l-1,0.9c-0.9,0.8-1.1,1.6-0.5,2.2c0.4,0.4,0.7,0.6,1,0.5
			c0.3,0,0.8-0.3,1.3-0.8l1-0.9L-137.5,829.4z M-134.8,832.2l-1,0.9c-0.2,0.1-0.3,0.3-0.4,0.4c-0.1,0.1-0.2,0.3-0.2,0.5
			c-0.1,0.2-0.1,0.3,0,0.5c0,0.2,0.1,0.4,0.3,0.5c0.3,0.3,0.6,0.4,0.9,0.4c0.3-0.1,0.7-0.4,1.2-0.8l0.7-0.7L-134.8,832.2z"/>
		<path class="st0" d="M-145.8,834.3c0.5-0.3,1-0.6,1.6-0.8s1.1-0.2,1.5-0.2l0.1,1.3c-0.4,0-0.8,0-1.2,0.2s-0.8,0.3-1.1,0.5
			c-0.5,0.3-0.7,0.6-0.8,0.9c-0.1,0.3,0,0.6,0.2,1c0.1,0.1,0.2,0.2,0.3,0.3s0.2,0.1,0.3,0.2s0.3,0,0.5,0s0.4-0.1,0.7-0.1
			c0.1,0,0.3-0.1,0.6-0.2c0.3-0.1,0.5-0.2,0.6-0.2c0.8-0.2,1.4-0.2,1.9-0.1c0.5,0.1,0.9,0.4,1.3,1c0.3,0.4,0.4,0.9,0.4,1.3
			c0,0.5-0.2,0.9-0.4,1.3c-0.3,0.4-0.7,0.8-1.1,1.1c-0.7,0.5-1.2,0.7-1.6,0.9c-0.4,0.1-0.9,0.1-1.5,0.1l0.1-1.3
			c0.7,0.1,1.4-0.1,2.1-0.6c0.4-0.3,0.7-0.6,0.8-0.9c0.2-0.3,0.1-0.6-0.1-0.9c-0.1-0.1-0.2-0.2-0.3-0.3s-0.2-0.1-0.3-0.2
			c-0.1,0-0.3,0-0.5,0s-0.4,0.1-0.7,0.2c-0.1,0-0.3,0.1-0.6,0.2c-0.3,0.1-0.6,0.2-0.7,0.2c-0.8,0.2-1.4,0.2-1.8,0
			c-0.4-0.1-0.9-0.5-1.2-1c-0.3-0.4-0.4-0.7-0.5-1.1c0-0.4,0-0.7,0.1-1.1c0.1-0.3,0.3-0.6,0.6-0.9
			C-146.4,834.9-146.1,834.6-145.8,834.3z"/>
		<path class="st0" d="M-156.7,840.4c0.5-0.2,1-0.4,1.5-0.4s0.8,0,1.2,0.1s0.6,0.3,0.9,0.5c0.3,0.2,0.5,0.5,0.7,0.8s0.4,0.6,0.5,1
			l2,4.8l-1.4,0.6l-2.1-4.9c-0.1-0.3-0.3-0.6-0.5-0.9c-0.2-0.2-0.4-0.4-0.5-0.5c-0.2-0.1-0.4-0.2-0.6-0.2c-0.2,0-0.4,0-0.6,0
			c-0.2,0-0.4,0.1-0.6,0.2c-0.3,0.1-0.5,0.3-0.7,0.4c-0.2,0.2-0.3,0.4-0.4,0.6c-0.1,0.2-0.1,0.5-0.1,0.9c0,0.3,0.1,0.7,0.3,1.1
			l2.1,4.9l-1.4,0.6l-2-4.8c-0.2-0.4-0.3-0.8-0.4-1.1c-0.1-0.3-0.1-0.7-0.1-1.1c0-0.4,0.1-0.7,0.3-1s0.4-0.6,0.7-0.9
			C-157.7,840.9-157.2,840.6-156.7,840.4z"/>
		<path class="st0" d="M-162.1,842.6l2.2,8.6l-2.5,0.6c-0.3,0.1-0.5,0.1-0.8,0.2c-0.2,0-0.4,0.1-0.7,0.1s-0.5,0.1-0.7,0.1
			s-0.4,0-0.6-0.1s-0.4-0.1-0.5-0.2c-0.2-0.1-0.3-0.2-0.4-0.3c-0.1-0.1-0.3-0.3-0.4-0.5s-0.2-0.5-0.3-0.7c-0.1-0.5-0.1-0.9-0.1-1.2
			c0.1-0.4,0.2-0.7,0.5-0.9c0.2-0.3,0.6-0.5,0.9-0.7c0.4-0.2,0.8-0.3,1.4-0.5l1.3-0.3l-1-3.7L-162.1,842.6z M-162.3,848l-1.3,0.3
			c-0.3,0.1-0.5,0.2-0.7,0.2c-0.2,0.1-0.4,0.2-0.5,0.3s-0.2,0.3-0.3,0.5c0,0.2,0,0.4,0,0.6c0,0.1,0.1,0.2,0.1,0.3s0.1,0.2,0.1,0.2
			c0.1,0.1,0.1,0.1,0.2,0.2c0.1,0,0.2,0.1,0.2,0.1c0.1,0,0.2,0,0.3,0s0.2,0,0.3,0s0.2,0,0.3-0.1c0.2,0,0.3-0.1,0.4-0.1
			c0.1,0,0.2-0.1,0.4-0.1l1-0.3L-162.3,848z"/>
		<path class="st0" d="M-173.9,845l0.6,8.9l-5.4,0.3l-0.1-1.3l3.9-0.2l-0.2-2.4l-3.6,0.2l-0.1-1.3l3.6-0.2l-0.2-3.8L-173.9,845z"/>
		<path class="st0" d="M-184.9,844.9c1.4,0.1,2.4,0.6,3.2,1.5s1,2.1,0.9,3.5s-0.6,2.4-1.5,3.2s-2,1.1-3.4,1
			c-1.3-0.1-2.4-0.6-3.1-1.5c-0.7-0.9-1-2-0.9-3.4s0.6-2.5,1.4-3.3S-186.3,844.8-184.9,844.9z M-185,846.2c-0.9-0.1-1.6,0.2-2.1,0.7
			s-0.8,1.3-0.9,2.4c-0.1,1,0.1,1.8,0.5,2.4c0.4,0.6,1.1,0.9,2,1s1.6-0.2,2.1-0.7s0.8-1.3,0.9-2.3c0.1-1.1-0.1-1.9-0.5-2.5
			C-183.4,846.6-184,846.3-185,846.2z"/>
		<path class="st0" d="M-191.2,844.3l-2.1,8.6l-3.1-0.8c-0.5-0.1-0.9-0.2-1.2-0.4s-0.6-0.4-0.9-0.6c-0.2-0.2-0.4-0.5-0.5-0.9
			s0-0.8,0.1-1.2c0.1-0.5,0.4-0.9,0.7-1.2c0.4-0.3,0.9-0.5,1.5-0.4c-0.4-0.4-0.7-1-0.8-1.6l-0.5-3.1l1.6,0.4l0.4,2.8
			c0.1,0.5,0.2,0.8,0.3,1c0.2,0.2,0.4,0.3,0.8,0.4l1.2,0.3l0.9-3.7L-191.2,844.3z M-193.8,848.9l-1.4-0.3c-1.1-0.3-1.7,0-1.9,0.9
			c-0.1,0.5-0.1,0.8,0.1,1c0.2,0.2,0.5,0.4,1.1,0.5l1.6,0.4L-193.8,848.9z"/>
		<path class="st0" d="M-204.7,840l-3.2,6.8l2.5,1.2l-0.6,1.2l-6.4-3l0.6-1.2l2.5,1.2l3.2-6.8L-204.7,840z"/>
		<path class="st0" d="M-209.7,837.5l-4.9,7.4l-1.3-0.8l2-3.1l-3.5-2.3l-2,3.1l-1.3-0.8l4.9-7.4l1.3,0.8l-2.1,3.3l3.5,2.3l2.1-3.3
			L-209.7,837.5z"/>
		<path class="st0" d="M-217.7,832l-5.9,6.7l-4.2-3.7l0.9-1l3,2.7l1.6-1.8l-2.9-2.5l0.9-1l2.9,2.5l1.7-1.9l-3.2-2.8l0.9-1
			L-217.7,832z"/>
		<path class="st0" d="M-227.1,822.5l-6,4.6l1.7,2.2l-1.1,0.8l-4.3-5.6l1.1-0.8l1.7,2.2l6-4.6L-227.1,822.5z"/>
		<path class="st0" d="M-230.4,817.9l-7.7,4.5l-2.8-4.8l1.1-0.7l2.1,3.5l2-1.2l-1.9-3.3l1.2-0.7l1.9,3.3l2.2-1.3l-2.1-3.6l1.1-0.7
			L-230.4,817.9z"/>
		<path class="st0" d="M-233.8,812.2l-9.6,0.1l-0.6-1.5l6.8-6.7l0.7,1.6l-1.7,1.6l1.4,3.3h2.3L-233.8,812.2z M-238.4,810.7l-0.9-2.2
			c-1.1,1-2,1.8-2.7,2.4C-241.2,810.8-240,810.7-238.4,810.7z"/>
		<path class="st0" d="M-237.6,802.9l-8.7,1.9l-0.4-1.8c0.2-0.2,1.1-0.8,2.6-1.9c1.5-1.1,2.7-2,3.4-2.6c-0.7-0.2-1.5-0.3-2.3-0.5
			s-1.7-0.4-2.8-0.6c-1.1-0.2-1.8-0.4-2.3-0.5l-0.4-1.8l8.7-1.9l0.3,1.4l-6.2,1.4c0.5,0.1,2.8,0.6,6.8,1.4l0.2,1.1
			c-0.4,0.3-1,0.7-1.7,1.3c-0.8,0.6-1.4,1.1-2,1.5c-0.6,0.5-1.2,0.9-1.7,1.3l6.1-1.3L-237.6,802.9z"/>
	</g>
</g>
<rect x="-248.5" y="716.5" class="st1" width="136.5" height="138"/>
<g>
	<circle class="st0" cx="5" cy="45.2" r="1.3"/>
	<circle class="st0" cx="87.5" cy="45.2" r="1.3"/>
	<g>
		<path class="st0" d="M8.2,40.5l-4.8-0.7l-0.3,1.7l-0.8-0.1L3,36.9L3.9,37l-0.3,1.8l4.8,0.7L8.2,40.5z"/>
		<path class="st0" d="M8.8,36.9l-5.4-1.6l0.3-1L5.9,35l0.8-2.6l-2.2-0.7l0.3-0.9l5.4,1.6l-0.3,0.9l-2.4-0.7l-0.8,2.6l2.4,0.7
			L8.8,36.9z"/>
		<path class="st0" d="M11.8,29.1c-0.2,0.3-0.3,0.6-0.5,0.8c-0.2,0.2-0.4,0.4-0.6,0.4c-0.2,0.1-0.4,0.1-0.7,0.1
			c-0.2,0-0.5,0-0.7-0.1S8.8,30.1,8.6,30l-3-1.5L6,27.8l3,1.4c0.2,0.1,0.4,0.2,0.6,0.2c0.2,0,0.3,0,0.5,0c0.1,0,0.3-0.1,0.4-0.1
			c0.1-0.1,0.2-0.2,0.3-0.3c0.1-0.1,0.2-0.2,0.2-0.4c0.1-0.2,0.1-0.3,0.2-0.5c0-0.2,0-0.3,0-0.5s-0.2-0.3-0.3-0.5
			c-0.2-0.1-0.4-0.3-0.6-0.4l-3-1.5l0.4-0.9l3,1.5c0.2,0.1,0.5,0.2,0.6,0.4c0.2,0.1,0.4,0.3,0.5,0.5c0.2,0.2,0.3,0.4,0.3,0.6
			c0.1,0.2,0.1,0.5,0,0.8C12,28.4,11.9,28.8,11.8,29.1z"/>
		<path class="st0" d="M13.3,25.7l-4.6-3.3l0.7-0.9c0.2,0,0.9,0.2,2,0.4c1.2,0.2,2.1,0.4,2.7,0.6c-0.2-0.4-0.5-0.9-0.7-1.3
			c-0.3-0.5-0.6-1-0.9-1.6c-0.3-0.6-0.6-1-0.8-1.3l0.7-0.9l4.6,3.3l-0.5,0.8L13.2,19c0.2,0.3,0.9,1.6,2.2,3.9L15,23.5
			c-0.3-0.1-0.8-0.2-1.4-0.3C13,23.1,12.5,23,12,22.9s-0.9-0.2-1.4-0.3l3.2,2.3L13.3,25.7z"/>
		<path class="st0" d="M18.1,19.6l-4-4.1l1.1-1.1c0.1-0.1,0.2-0.2,0.3-0.3s0.2-0.2,0.4-0.3c0.1-0.1,0.3-0.2,0.4-0.2
			c0.1-0.1,0.3-0.1,0.4-0.1s0.3-0.1,0.4,0c0.1,0,0.3,0.1,0.4,0.1c0.1,0.1,0.3,0.2,0.4,0.3c0.4,0.4,0.5,0.9,0.3,1.4
			c0.3-0.2,0.6-0.2,0.9-0.2c0.3,0.1,0.6,0.2,0.8,0.5c0.2,0.2,0.3,0.3,0.3,0.5c0.1,0.2,0.1,0.4,0.1,0.6s-0.1,0.5-0.2,0.7
			c-0.1,0.3-0.3,0.5-0.6,0.7L18.1,19.6z M16.5,16.5l0.6-0.6c0.1-0.1,0.2-0.2,0.2-0.3c0.1-0.1,0.1-0.2,0.1-0.3s0-0.2,0-0.3
			s-0.1-0.2-0.2-0.3c-0.2-0.2-0.4-0.3-0.6-0.2s-0.5,0.2-0.8,0.5l-0.5,0.4L16.5,16.5z M18.2,18.3l0.6-0.6c0.6-0.6,0.7-1,0.3-1.4
			c-0.2-0.2-0.5-0.3-0.7-0.3s-0.5,0.2-0.8,0.5L17,17.1L18.2,18.3z"/>
		<path class="st0" d="M23.4,14.9c-0.3,0.2-0.6,0.4-1,0.5s-0.7,0.2-1,0.1l-0.1-0.8c0.2,0,0.5,0,0.8-0.1s0.5-0.2,0.7-0.3
			c0.3-0.2,0.5-0.4,0.5-0.6c0.1-0.2,0-0.4-0.2-0.6C23,13,23,13,22.9,12.9c-0.1,0-0.1-0.1-0.2-0.1s-0.2,0-0.3,0
			c-0.1,0-0.3,0.1-0.5,0.1c-0.1,0-0.2,0.1-0.4,0.1c-0.2,0.1-0.3,0.1-0.4,0.1c-0.5,0.1-0.9,0.2-1.2,0.1c-0.3-0.1-0.6-0.3-0.8-0.6
			c-0.2-0.3-0.3-0.5-0.3-0.8s0.1-0.6,0.3-0.8c0.2-0.3,0.4-0.5,0.7-0.7c0.4-0.3,0.8-0.5,1-0.6c0.3-0.1,0.6-0.1,0.9-0.1v0.8
			c-0.4-0.1-0.9,0.1-1.3,0.4c-0.2,0.2-0.4,0.4-0.5,0.6c-0.1,0.2-0.1,0.4,0.1,0.6c0.1,0.1,0.1,0.2,0.2,0.2s0.1,0.1,0.2,0.1
			s0.2,0,0.3,0c0.1,0,0.3-0.1,0.5-0.1c0.1,0,0.2-0.1,0.4-0.1C21.8,12,22,12,22.1,12c0.5-0.1,0.9-0.1,1.2-0.1
			c0.3,0.1,0.6,0.3,0.8,0.6c0.2,0.2,0.3,0.5,0.3,0.7s0,0.5-0.1,0.7s-0.2,0.4-0.4,0.6C23.8,14.6,23.7,14.8,23.4,14.9z"/>
		<path class="st0" d="M30.3,10.9c-0.3,0.2-0.6,0.2-0.9,0.3c-0.3,0-0.5,0-0.8,0c-0.2-0.1-0.4-0.2-0.6-0.3c-0.2-0.2-0.3-0.3-0.5-0.5
			s-0.3-0.4-0.4-0.7l-1.4-3l0.9-0.4L28,9.4c0.1,0.2,0.2,0.4,0.3,0.5c0.1,0.1,0.2,0.3,0.3,0.3c0.1,0.1,0.2,0.1,0.4,0.1
			c0.1,0,0.3,0,0.4,0s0.3-0.1,0.4-0.1c0.2-0.1,0.3-0.2,0.4-0.3s0.2-0.2,0.3-0.4c0.1-0.2,0.1-0.3,0.1-0.6c0-0.2-0.1-0.5-0.2-0.7
			L29,5.1l1-0.4l1.4,3c0.1,0.2,0.2,0.5,0.3,0.7c0.1,0.2,0.1,0.4,0.1,0.7c0,0.2,0,0.5-0.1,0.7s-0.2,0.4-0.5,0.6
			C30.9,10.5,30.6,10.7,30.3,10.9z"/>
		<path class="st0" d="M33.7,9.4l-1.6-5.5l1.6-0.5c0.2-0.1,0.3-0.1,0.5-0.1c0.1,0,0.3-0.1,0.4-0.1c0.2,0,0.3,0,0.4,0
			c0.1,0,0.2,0,0.4,0c0.1,0,0.2,0.1,0.3,0.1c0.1,0.1,0.2,0.1,0.3,0.2c0.1,0.1,0.2,0.2,0.2,0.3c0.1,0.1,0.1,0.3,0.2,0.5
			c0.1,0.3,0.1,0.6,0.1,0.8c0,0.2-0.1,0.4-0.3,0.6S35.9,6,35.6,6.1c-0.2,0.1-0.5,0.2-0.9,0.3L34,6.7l0.7,2.4L33.7,9.4z M33.7,5.9
			l0.8-0.2c0.2-0.1,0.3-0.1,0.5-0.2c0.1-0.1,0.2-0.1,0.3-0.2s0.1-0.2,0.2-0.3c0-0.1,0-0.2,0-0.4c0-0.1-0.1-0.2-0.1-0.2
			c0-0.1-0.1-0.1-0.1-0.2l-0.1-0.1c-0.1,0-0.1,0-0.1-0.1c0,0-0.1,0-0.2,0c-0.1,0-0.1,0-0.2,0c0,0-0.1,0-0.2,0c-0.1,0-0.2,0-0.2,0.1
			c-0.1,0-0.1,0-0.3,0.1l-0.6,0.2L33.7,5.9z"/>
		<path class="st0" d="M41.2,7.6L40.6,2l3.5-0.3l0.1,0.8l-2.5,0.2l0.1,1.5L44.2,4l0.1,0.9L42,5.1l0.2,2.4L41.2,7.6z"/>
		<path class="st0" d="M48.2,7.4c-0.9-0.1-1.6-0.4-2-0.9c-0.5-0.6-0.7-1.3-0.6-2.2c0.1-0.9,0.4-1.6,0.9-2.1s1.3-0.7,2.2-0.7
			c0.9,0.1,1.5,0.4,2,0.9c0.5,0.6,0.7,1.3,0.6,2.2c-0.1,0.9-0.4,1.6-0.9,2.1C49.8,7.3,49.1,7.5,48.2,7.4z M48.3,6.6
			c0.6,0,1-0.1,1.4-0.5c0.3-0.3,0.5-0.9,0.6-1.5c0-0.7-0.1-1.2-0.4-1.6c-0.3-0.4-0.7-0.6-1.3-0.6s-1,0.1-1.4,0.5
			c-0.3,0.3-0.5,0.8-0.6,1.5c0,0.7,0.1,1.2,0.3,1.6C47.3,6.3,47.7,6.6,48.3,6.6z"/>
		<path class="st0" d="M52.3,7.7l1.2-5.6l2,0.4c0.3,0.1,0.6,0.1,0.8,0.2c0.2,0.1,0.4,0.2,0.6,0.4c0.2,0.1,0.3,0.3,0.3,0.6
			c0,0.2,0,0.5,0,0.8c-0.1,0.3-0.2,0.6-0.5,0.8c-0.2,0.2-0.6,0.3-0.9,0.3c0.3,0.3,0.5,0.6,0.6,1l0.4,2l-1.1-0.2l-0.3-1.8
			c0-0.3-0.1-0.5-0.2-0.6c-0.1-0.1-0.3-0.2-0.5-0.3l-0.8-0.2l-0.5,2.4L52.3,7.7z M53.9,4.7l0.9,0.2C55.5,5,55.9,4.8,56,4.3
			c0.1-0.3,0-0.5-0.1-0.6s-0.4-0.2-0.7-0.3l-1-0.2L53.9,4.7z"/>
		<path class="st0" d="M60.9,10.2l1.9-4.4l-1.6-0.7l0.3-0.8l4.2,1.8l-0.3,0.8l-1.6-0.7l-1.9,4.4L60.9,10.2z"/>
		<path class="st0" d="M64.3,11.7l3-4.8l0.8,0.5l-1.2,2l2.3,1.4l1.2-2l0.8,0.5l-3,4.8l-0.8-0.5l1.3-2.1l-2.3-1.4l-1.3,2.1L64.3,11.7
			z"/>
		<path class="st0" d="M69.5,15.1l3.6-4.4l2.8,2.3l-0.5,0.7l-2-1.7l-1,1.2l1.9,1.6l-0.5,0.7l-1.9-1.6l-1,1.2l2.1,1.7l-0.5,0.7
			L69.5,15.1z"/>
		<path class="st0" d="M75.6,20.9l3.7-3.1l-1.1-1.4l0.7-0.5l2.9,3.5L81.1,20L80,18.7l-3.7,3.1L75.6,20.9z"/>
		<path class="st0" d="M77.8,23.8l4.8-3l1.9,3l-0.7,0.5l-1.4-2.2l-1.3,0.8l1.3,2.1l-0.7,0.5l-1.3-2.1L79,24.3l1.4,2.3L79.8,27
			L77.8,23.8z"/>
		<path class="st0" d="M80.1,27.4l6.1-0.2l0.4,0.9l-4.2,4.4l-0.5-1l1-1.1L82,28.3l-1.5,0.1L80.1,27.4z M83.1,28.3l0.6,1.4
			c0.7-0.6,1.3-1.2,1.7-1.6C84.9,28.1,84.1,28.2,83.1,28.3z"/>
		<path class="st0" d="M82.7,33.3l5.5-1.4l0.3,1.1c-0.2,0.1-0.7,0.6-1.6,1.3s-1.7,1.3-2.2,1.7c0.5,0.1,1,0.2,1.5,0.3
			s1.1,0.2,1.8,0.3c0.7,0.1,1.2,0.2,1.5,0.3l0.3,1.1l-5.5,1.4L84,38.5l3.9-1c-0.3-0.1-1.8-0.3-4.4-0.8L83.4,36
			c0.3-0.2,0.6-0.5,1.1-0.9s0.9-0.7,1.3-1s0.7-0.6,1.1-0.9l-3.9,1L82.7,33.3z"/>
		<path class="st0" d="M84.1,52l4.8,0.9l0.3-1.7l0.8,0.2l-0.8,4.5l-0.8-0.1l0.3-1.8l-4.8-1L84.1,52z"/>
		<path class="st0" d="M83.4,55.6l5.4,1.8l-0.3,0.9l-2.2-0.7l-0.8,2.5l2.2,0.7l-0.3,0.9L82,60l0.3-0.9l2.4,0.8l0.8-2.5l-2.4-0.8
			L83.4,55.6z"/>
		<path class="st0" d="M80.3,63.3c0.2-0.3,0.4-0.6,0.6-0.8s0.4-0.3,0.6-0.4c0.2-0.1,0.4-0.1,0.7-0.1c0.2,0,0.5,0,0.7,0.1
			s0.4,0.2,0.7,0.3l3,1.5L86,64.8l-3-1.6c-0.2-0.1-0.4-0.2-0.6-0.2s-0.3-0.1-0.5,0c-0.1,0-0.3,0.1-0.4,0.1c-0.1,0.1-0.2,0.1-0.3,0.2
			c-0.1,0.1-0.2,0.2-0.2,0.4c-0.1,0.2-0.1,0.3-0.2,0.5c0,0.2,0,0.3,0,0.5s0.1,0.3,0.3,0.5c0.2,0.2,0.4,0.3,0.6,0.4l3,1.6L84.3,68
			l-3-1.5c-0.2-0.1-0.5-0.3-0.6-0.4c-0.2-0.1-0.3-0.3-0.5-0.5c-0.1-0.2-0.2-0.4-0.3-0.6c-0.1-0.2-0.1-0.5,0-0.8
			C80,63.9,80.1,63.6,80.3,63.3z"/>
		<path class="st0" d="M78.6,66.6l4.5,3.5L82.4,71c-0.2,0-0.9-0.2-2-0.5c-1.2-0.3-2.1-0.5-2.7-0.6c0.2,0.4,0.5,0.9,0.7,1.3
			c0.2,0.5,0.5,1,0.9,1.6c0.3,0.6,0.6,1,0.7,1.3L79.2,75l-4.5-3.5l0.6-0.7l3.2,2.5c-0.2-0.3-0.9-1.6-2.1-3.9l0.4-0.6
			c0.3,0.1,0.8,0.2,1.3,0.3c0.6,0.1,1.1,0.3,1.6,0.4s0.9,0.2,1.3,0.3l-3-2.4L78.6,66.6z"/>
		<path class="st0" d="M73.6,72.6l3.8,4.2l-1.2,1.1c-0.1,0.1-0.2,0.2-0.3,0.3c-0.1,0.1-0.2,0.2-0.4,0.3c-0.1,0.1-0.3,0.2-0.4,0.2
			c-0.1,0.1-0.3,0.1-0.4,0.1s-0.3,0-0.4,0s-0.3-0.1-0.4-0.1c-0.1-0.1-0.3-0.2-0.4-0.3C73.1,78,73,77.5,73.2,77
			c-0.3,0.2-0.6,0.2-0.9,0.1s-0.6-0.2-0.8-0.5c-0.1-0.2-0.3-0.3-0.3-0.5c-0.1-0.2-0.1-0.4-0.1-0.6s0.1-0.5,0.2-0.7s0.3-0.5,0.6-0.7
			L73.6,72.6z M73.5,73.9l-0.7,0.6c-0.6,0.5-0.7,1-0.3,1.4c0.2,0.2,0.4,0.4,0.7,0.3c0.2,0,0.5-0.2,0.8-0.5l0.6-0.6L73.5,73.9z
			 M75.2,75.7l-0.6,0.6c-0.1,0.1-0.2,0.2-0.2,0.3c-0.1,0.1-0.1,0.2-0.2,0.3c0,0.1,0,0.2,0,0.3c0,0.1,0.1,0.2,0.2,0.3
			c0.2,0.2,0.4,0.3,0.6,0.2c0.2-0.1,0.5-0.2,0.8-0.5l0.5-0.4L75.2,75.7z"/>
		<path class="st0" d="M68.1,77.1c0.3-0.2,0.7-0.4,1-0.5c0.4-0.1,0.7-0.1,1-0.1l0.1,0.8c-0.2,0-0.5,0-0.8,0.1s-0.5,0.2-0.7,0.3
			c-0.3,0.2-0.5,0.4-0.5,0.6c-0.1,0.2,0,0.4,0.1,0.6c0.1,0.1,0.1,0.1,0.2,0.2c0,0,0.1,0.1,0.2,0.1s0.2,0,0.3,0c0.1,0,0.3,0,0.5-0.1
			c0.1,0,0.2-0.1,0.4-0.1c0.2-0.1,0.3-0.1,0.4-0.1c0.5-0.1,0.9-0.1,1.2-0.1c0.3,0.1,0.6,0.3,0.8,0.6c0.2,0.3,0.3,0.6,0.3,0.9
			s-0.1,0.6-0.3,0.8c-0.2,0.3-0.4,0.5-0.7,0.7c-0.4,0.3-0.8,0.5-1.1,0.6c-0.3,0.1-0.6,0.1-0.9,0v-0.8c0.4,0.1,0.9-0.1,1.4-0.4
			c0.3-0.2,0.4-0.4,0.5-0.6s0.1-0.4,0-0.6c-0.1-0.1-0.1-0.2-0.2-0.2s-0.1-0.1-0.2-0.1s-0.2,0-0.3,0c-0.1,0-0.3,0.1-0.5,0.1
			c-0.1,0-0.2,0.1-0.4,0.1C69.7,80,69.5,80,69.4,80c-0.5,0.1-0.9,0.1-1.2,0c-0.3-0.1-0.6-0.3-0.8-0.7c-0.2-0.2-0.3-0.5-0.3-0.7
			s0-0.5,0.1-0.7s0.2-0.4,0.4-0.6C67.7,77.4,67.9,77.2,68.1,77.1z"/>
		<path class="st0" d="M61.2,80.9c0.3-0.1,0.6-0.2,0.9-0.3c0.3,0,0.5,0,0.7,0.1s0.4,0.2,0.6,0.3c0.2,0.2,0.3,0.3,0.5,0.5
			c0.1,0.2,0.2,0.4,0.3,0.7l1.3,3.1l-0.9,0.4l-1.3-3.1c-0.1-0.2-0.2-0.4-0.3-0.5s-0.2-0.3-0.3-0.3c-0.1-0.1-0.2-0.1-0.4-0.1
			c-0.1,0-0.3,0-0.4,0c-0.1,0-0.3,0.1-0.4,0.1c-0.2,0.1-0.3,0.2-0.5,0.3c-0.1,0.1-0.2,0.2-0.3,0.4c-0.1,0.2-0.1,0.3-0.1,0.5
			s0.1,0.5,0.2,0.7l1.3,3.1l-0.9,0.4L60,84.1c-0.1-0.3-0.2-0.5-0.2-0.7c-0.1-0.2-0.1-0.4-0.1-0.7c0-0.2,0.1-0.5,0.2-0.7
			c0.1-0.2,0.3-0.4,0.5-0.6C60.6,81.2,60.8,81.1,61.2,80.9z"/>
		<path class="st0" d="M57.7,82.3l1.4,5.5l-1.6,0.4c-0.2,0-0.3,0.1-0.5,0.1c-0.1,0-0.3,0.1-0.4,0.1c-0.2,0-0.3,0-0.4,0
			c-0.1,0-0.2,0-0.4,0s-0.2-0.1-0.3-0.1c-0.1-0.1-0.2-0.1-0.3-0.2C55.1,88,55,87.9,55,87.8c-0.1-0.1-0.1-0.3-0.2-0.5
			c-0.1-0.3-0.1-0.6-0.1-0.8c0-0.2,0.1-0.4,0.3-0.6s0.4-0.3,0.6-0.4c0.2-0.1,0.5-0.2,0.9-0.3l0.8-0.2l-0.6-2.4L57.7,82.3z
			 M57.6,85.8L56.8,86c-0.2,0-0.3,0.1-0.5,0.2c-0.1,0.1-0.2,0.1-0.3,0.2s-0.2,0.2-0.2,0.3c0,0.1,0,0.2,0,0.4c0,0.1,0,0.2,0.1,0.2
			c0,0.1,0.1,0.1,0.1,0.2l0.1,0.1c0.1,0,0.1,0,0.1,0.1c0,0,0.1,0,0.2,0c0.1,0,0.1,0,0.2,0c0,0,0.1,0,0.2,0c0.1,0,0.2,0,0.2-0.1
			c0.1,0,0.1,0,0.3-0.1l0.6-0.2L57.6,85.8z"/>
		<path class="st0" d="M50.2,83.9l0.4,5.7l-3.5,0.2L47,88.9l2.5-0.2l-0.1-1.5l-2.3,0.1L47,86.5l2.3-0.1L49.1,84L50.2,83.9z"/>
		<path class="st0" d="M43.2,83.8c0.9,0.1,1.6,0.4,2,1c0.5,0.6,0.7,1.3,0.6,2.2c-0.1,0.9-0.4,1.6-0.9,2.1c-0.6,0.5-1.3,0.7-2.2,0.6
			s-1.5-0.4-2-1s-0.7-1.3-0.6-2.2c0.1-0.9,0.4-1.6,0.9-2.1C41.6,84,42.3,83.8,43.2,83.8z M43.1,84.7c-0.6,0-1,0.1-1.4,0.4
			c-0.3,0.3-0.5,0.8-0.6,1.5s0.1,1.2,0.3,1.6c0.3,0.4,0.7,0.6,1.3,0.6s1-0.1,1.4-0.4c0.3-0.3,0.5-0.8,0.6-1.5s-0.1-1.2-0.3-1.6
			C44.1,84.9,43.7,84.7,43.1,84.7z"/>
		<path class="st0" d="M39.1,83.4L37.8,89l-2-0.5c-0.3-0.1-0.6-0.2-0.8-0.3c-0.2-0.1-0.4-0.2-0.5-0.4c-0.2-0.2-0.3-0.3-0.3-0.6
			c0-0.2,0-0.5,0-0.8c0.1-0.3,0.2-0.6,0.5-0.8c0.2-0.2,0.6-0.3,1-0.3c-0.3-0.3-0.5-0.6-0.5-1l-0.3-2l1,0.3l0.2,1.8
			c0,0.3,0.1,0.5,0.2,0.6c0.1,0.1,0.3,0.2,0.5,0.3l0.8,0.2l0.6-2.3L39.1,83.4z M37.4,86.4l-0.9-0.2c-0.7-0.2-1.1,0-1.2,0.6
			c-0.1,0.3,0,0.5,0.1,0.6s0.3,0.2,0.7,0.3l1,0.2L37.4,86.4z"/>
		<path class="st0" d="M30.5,80.7l-2,4.4l1.6,0.7l-0.4,0.8l-4.1-1.9l0.4-0.8l1.6,0.8l2-4.4L30.5,80.7z"/>
		<path class="st0" d="M27.3,79.1l-3.1,4.8l-0.8-0.5l1.3-2l-2.2-1.5l-1.3,2l-0.8-0.5l3.1-4.8l0.8,0.5l-1.4,2.1l2.2,1.5l1.4-2.1
			L27.3,79.1z"/>
		<path class="st0" d="M22.2,75.6l-3.8,4.3l-2.7-2.4l0.6-0.6l1.9,1.7l1-1.1l-1.8-1.6l0.6-0.6l1.8,1.6l1.1-1.2l-2-1.8l0.6-0.6
			L22.2,75.6z"/>
		<path class="st0" d="M16.2,69.5l-3.8,3l1.1,1.4l-0.7,0.5L10,70.8l0.7-0.5l1.1,1.4l3.8-3L16.2,69.5z"/>
		<path class="st0" d="M14,66.6l-4.9,2.9l-1.8-3.1L8,66l1.3,2.2l1.3-0.8l-1.2-2.1l0.7-0.4l1.2,2.1l1.4-0.8l-1.4-2.3l0.7-0.4L14,66.6
			z"/>
		<path class="st0" d="M11.9,62.9L5.7,63l-0.4-1l4.4-4.3l0.4,1l-1.1,1l0.9,2.1h1.5L11.9,62.9z M9,61.9l-0.6-1.4
			c-0.7,0.6-1.3,1.1-1.8,1.5C7.1,62,7.9,62,9,61.9z"/>
		<path class="st0" d="M9.4,57l-5.6,1.2L3.6,57c0.2-0.1,0.7-0.5,1.7-1.2s1.7-1.3,2.2-1.6C7,54.1,6.5,54,6,53.9s-1.1-0.2-1.8-0.4
			c-0.7-0.1-1.2-0.2-1.5-0.3L2.6,52l5.6-1.2l0.2,0.9l-4,0.9c0.3,0.1,1.8,0.4,4.4,0.9L9,54.2c-0.3,0.2-0.6,0.5-1.1,0.8
			c-0.5,0.4-0.9,0.7-1.3,1c-0.4,0.3-0.8,0.6-1.1,0.8L9.2,56L9.4,57z"/>
	</g>
</g>
</svg>
