<?xml version="1.0" encoding="utf-8"?>
<!-- Generator: Adobe Illustrator 23.0.6, SVG Export Plug-In . SVG Version: 6.00 Build 0)  -->
<svg version="1.1" id="Layer_1" xmlns="http://www.w3.org/2000/svg" xmlns:xlink="http://www.w3.org/1999/xlink" x="0px" y="0px"
	 viewBox="0 0 87.4 88" style="enable-background:new 0 0 87.4 88;" xml:space="preserve">
<style type="text/css">
	.st0{fill:#6D55D3;}
</style>
<title>play</title>
<g>
	<path class="st0" d="M5,38.1c0,0.3-0.1,0.5-0.2,0.7c-0.1,0.2-0.2,0.4-0.4,0.5s-0.3,0.2-0.5,0.3c-0.2,0.1-0.4,0.1-0.5,0.1
		c-0.2,0-0.4,0-0.6,0l-2.6-0.4l0.1-0.8L3,38.8c0.2,0,0.3,0,0.5,0c0.1,0,0.3,0,0.4-0.1c0.1,0,0.2-0.1,0.3-0.2
		c0.1-0.1,0.1-0.2,0.2-0.3c0-0.1,0.1-0.2,0.1-0.3c0-0.2,0-0.3,0-0.4s-0.1-0.2-0.1-0.4C4.1,37.1,4,37,3.8,37
		c-0.2-0.1-0.3-0.1-0.6-0.2l-2.6-0.4l0.1-0.8L3.4,36c0.2,0,0.4,0.1,0.6,0.1c0.2,0.1,0.3,0.1,0.5,0.2c0.2,0.1,0.3,0.2,0.4,0.4
		C4.9,36.9,5,37.1,5,37.3C5,37.6,5,37.8,5,38.1z"/>
	<path class="st0" d="M5.4,35.4l-4.3-1.2L1.4,33c0-0.1,0.1-0.3,0.1-0.4c0-0.1,0.1-0.2,0.1-0.3c0-0.1,0.1-0.2,0.1-0.3
		c0.1-0.1,0.1-0.2,0.2-0.2c0.1-0.1,0.1-0.1,0.2-0.2c0.1,0,0.2-0.1,0.3-0.1c0.1,0,0.2,0,0.3,0c0.1,0,0.2,0,0.4,0.1
		c0.2,0.1,0.4,0.2,0.6,0.3C3.9,31.8,4,32,4,32.1c0.1,0.2,0.1,0.4,0.1,0.6c0,0.2-0.1,0.5-0.1,0.7l-0.2,0.7l1.9,0.5L5.4,35.4z
		 M3.1,33.9l0.2-0.6c0-0.1,0.1-0.3,0.1-0.4c0-0.1,0-0.2,0-0.3c0-0.1-0.1-0.2-0.1-0.2c-0.1-0.1-0.2-0.1-0.3-0.1c-0.1,0-0.1,0-0.2,0
		c-0.1,0-0.1,0-0.1,0c0,0-0.1,0-0.1,0c0,0-0.1,0.1-0.1,0.1c0,0-0.1,0.1-0.1,0.1c0,0.1-0.1,0.1-0.1,0.1c0,0,0,0.1-0.1,0.2
		c0,0.1,0,0.1-0.1,0.2c0,0,0,0.1-0.1,0.2L2,33.6L3.1,33.9z"/>
	<path class="st0" d="M6.5,31.6L2.3,30l0.3-0.7l3.6,1.3l0.7-1.9L7.5,29L6.5,31.6z"/>
	<path class="st0" d="M8.7,26.6c-0.3,0.6-0.8,1-1.3,1.2c-0.6,0.2-1.2,0.1-1.8-0.2c-0.6-0.3-1-0.7-1.2-1.3c-0.2-0.6-0.1-1.1,0.2-1.8
		c0.3-0.6,0.7-1,1.3-1.2c0.6-0.2,1.1-0.1,1.8,0.2c0.6,0.3,1.1,0.8,1.2,1.3C9.1,25.4,9,26,8.7,26.6z M8.1,26.3
		c0.2-0.4,0.2-0.8,0.1-1.1c-0.1-0.3-0.5-0.6-0.9-0.9C6.8,24.1,6.4,24,6,24.1c-0.4,0.1-0.6,0.3-0.8,0.7C5,25.2,5,25.6,5.1,25.9
		c0.1,0.3,0.4,0.6,0.9,0.9c0.5,0.2,0.9,0.3,1.3,0.2C7.6,27,7.9,26.7,8.1,26.3z"/>
	<path class="st0" d="M9.8,24.4l-2.7-4l0.4-0.7l4.7,1l-0.5,0.7l-1.1-0.2l-1,1.5l0.7,1L9.8,24.4z M9.2,22.1l0.7-1
		c-0.7-0.2-1.3-0.4-1.8-0.5C8.3,20.9,8.7,21.4,9.2,22.1z"/>
	<path class="st0" d="M12.6,20.3l-3.4-2.9l0.8-0.9c0.6-0.7,1.2-1.1,1.7-1.2c0.6-0.1,1.1,0.1,1.7,0.6c0.6,0.5,0.9,1,0.9,1.6
		c0,0.6-0.3,1.2-0.8,1.8L12.6,20.3z M12.6,19.3l0.4-0.5c0.4-0.4,0.5-0.8,0.5-1.2c0-0.4-0.2-0.8-0.6-1.1c-0.4-0.3-0.8-0.5-1.2-0.4
		c-0.4,0.1-0.8,0.3-1.2,0.8l-0.3,0.4L12.6,19.3z"/>
	<path class="st0" d="M17.7,14.9l-1.1-1.3l-3-1l0.7-0.6l2.2,0.8l-0.5-2.3l0.7-0.6l0.6,3.1l1.1,1.3L17.7,14.9z"/>
	<path class="st0" d="M21.6,12c-0.6,0.4-1.2,0.5-1.7,0.4c-0.6-0.1-1.1-0.5-1.5-1.1c-0.4-0.6-0.5-1.1-0.4-1.7c0.1-0.6,0.4-1.1,1-1.5
		c0.6-0.4,1.1-0.5,1.7-0.4c0.6,0.1,1,0.5,1.4,1c0.4,0.6,0.6,1.2,0.5,1.7C22.5,11.1,22.2,11.6,21.6,12z M21.2,11.5
		c0.4-0.3,0.6-0.6,0.6-0.9c0-0.4-0.1-0.8-0.4-1.2c-0.3-0.4-0.6-0.7-1-0.8c-0.4-0.1-0.7,0-1.1,0.2C19,9,18.8,9.3,18.7,9.7
		c0,0.4,0.1,0.8,0.4,1.2c0.3,0.4,0.6,0.7,1,0.8C20.5,11.8,20.8,11.7,21.2,11.5z"/>
	<path class="st0" d="M25.7,9.6c-0.3,0.1-0.5,0.2-0.7,0.3c-0.2,0-0.4,0-0.6,0c-0.2,0-0.3-0.1-0.5-0.2c-0.2-0.1-0.3-0.2-0.4-0.4
		c-0.1-0.1-0.2-0.3-0.3-0.5L22,6.4L22.6,6l1.2,2.4C24,8.6,24,8.7,24.1,8.8c0.1,0.1,0.2,0.2,0.3,0.2c0.1,0.1,0.2,0.1,0.3,0.1
		s0.2,0,0.3,0c0.1,0,0.2-0.1,0.3-0.1c0.1-0.1,0.3-0.2,0.3-0.2c0.1-0.1,0.2-0.2,0.2-0.3c0-0.1,0.1-0.3,0-0.4c0-0.2-0.1-0.4-0.2-0.6
		l-1.2-2.4l0.7-0.4l1.2,2.3c0.1,0.2,0.2,0.4,0.2,0.5c0.1,0.2,0.1,0.3,0.1,0.5c0,0.2,0,0.4-0.1,0.5c-0.1,0.2-0.2,0.3-0.3,0.5
		C26.1,9.3,25.9,9.5,25.7,9.6z"/>
	<path class="st0" d="M28.1,8.3l-1.6-4.2L28,3.6c0.2-0.1,0.4-0.1,0.6-0.2c0.2,0,0.4,0,0.5,0c0.2,0,0.3,0.1,0.4,0.2
		c0.1,0.1,0.2,0.3,0.3,0.5C30,4.4,30,4.6,30,4.9c-0.1,0.2-0.2,0.4-0.5,0.6c0.3,0,0.6,0.2,0.8,0.4l1.1,1.2l-0.8,0.3l-1-1.1
		C29.5,6.1,29.3,6,29.2,6c-0.1,0-0.3,0-0.5,0.1l-0.6,0.2L28.9,8L28.1,8.3z M27.9,5.6l0.7-0.3c0.5-0.2,0.7-0.5,0.5-0.9
		c-0.1-0.2-0.2-0.3-0.3-0.4c-0.1,0-0.3,0-0.6,0.1l-0.8,0.3L27.9,5.6z"/>
	<path class="st0" d="M35.7,6c-0.3,0.1-0.6,0.1-0.9,0c-0.3,0-0.5-0.1-0.8-0.3c-0.2-0.1-0.5-0.3-0.6-0.6c-0.2-0.3-0.3-0.6-0.4-0.9
		C33,4,33,3.7,33,3.4c0-0.3,0.1-0.5,0.2-0.7c0.1-0.2,0.2-0.4,0.4-0.6c0.2-0.2,0.3-0.3,0.5-0.4c0.2-0.1,0.4-0.2,0.6-0.2
		c0.6-0.1,1.1-0.1,1.6,0.2l-0.2,0.6c-0.4-0.2-0.8-0.2-1.2-0.1c-0.2,0-0.4,0.1-0.5,0.2c-0.2,0.1-0.3,0.2-0.4,0.4
		c-0.1,0.2-0.2,0.4-0.2,0.6c0,0.2,0,0.5,0,0.7c0.1,0.5,0.3,0.8,0.7,1.1c0.3,0.2,0.7,0.3,1.1,0.2c0.4-0.1,0.8-0.3,1.1-0.7l0.4,0.5
		C36.8,5.6,36.3,5.9,35.7,6z"/>
	<path class="st0" d="M39.1,5.4L37,1.1l0.9-0.1c0.1,0.1,0.3,0.6,0.7,1.4c0.4,0.8,0.7,1.5,0.9,1.9c0.1-0.5,0.4-1.7,0.9-3.6l0.8-0.1
		l-1.2,4.6L39.1,5.4z"/>
	<path class="st0" d="M49.2,5.7c-0.3,0-0.5-0.1-0.7-0.2c-0.2-0.1-0.4-0.2-0.5-0.3c-0.1-0.1-0.2-0.3-0.3-0.5
		c-0.1-0.2-0.1-0.4-0.1-0.5c0-0.2,0-0.4,0-0.6l0.4-2.6L48.9,1l-0.4,2.6c0,0.2,0,0.3,0,0.5c0,0.1,0,0.3,0.1,0.4
		c0,0.1,0.1,0.2,0.2,0.3c0.1,0.1,0.2,0.1,0.3,0.2C49.1,5,49.2,5,49.3,5c0.2,0,0.3,0,0.4,0c0.1,0,0.2-0.1,0.3-0.1
		c0.1-0.1,0.2-0.2,0.3-0.3c0.1-0.2,0.1-0.3,0.2-0.6l0.4-2.6l0.8,0.1L51.3,4c0,0.2-0.1,0.4-0.1,0.6c-0.1,0.2-0.1,0.3-0.2,0.5
		c-0.1,0.2-0.2,0.3-0.4,0.4c-0.1,0.1-0.3,0.2-0.6,0.2C49.8,5.7,49.5,5.7,49.2,5.7z"/>
	<path class="st0" d="M52,6.1l1.1-4.3L54.3,2c0.1,0,0.3,0.1,0.4,0.1c0.1,0,0.2,0.1,0.3,0.1c0.1,0,0.2,0.1,0.3,0.1
		c0.1,0,0.2,0.1,0.2,0.2c0.1,0.1,0.1,0.1,0.2,0.2c0,0.1,0.1,0.2,0.1,0.3c0,0.1,0,0.2,0,0.3c0,0.1,0,0.2-0.1,0.4
		c-0.1,0.2-0.1,0.4-0.3,0.6s-0.3,0.2-0.4,0.3c-0.2,0.1-0.4,0.1-0.6,0.1c-0.2,0-0.5-0.1-0.7-0.1l-0.7-0.2l-0.5,1.9L52,6.1z M53.4,3.7
		L54,3.9c0.1,0,0.3,0.1,0.4,0.1c0.1,0,0.2,0,0.3,0s0.2-0.1,0.2-0.1s0.1-0.2,0.1-0.3c0-0.1,0-0.1,0-0.2c0-0.1,0-0.1,0-0.1
		c0,0,0-0.1,0-0.1C55,3.1,55,3,55,3c0,0-0.1-0.1-0.1-0.1c-0.1,0-0.1,0-0.1-0.1c0,0-0.1,0-0.2-0.1c-0.1,0-0.1,0-0.2-0.1
		c0,0-0.1,0-0.2-0.1l-0.5-0.1L53.4,3.7z"/>
	<path class="st0" d="M55.7,7.1l1.5-4.2L58,3.1l-1.3,3.6l1.9,0.7l-0.2,0.6L55.7,7.1z"/>
	<path class="st0" d="M60.8,9.2c-0.6-0.3-1-0.7-1.2-1.3c-0.2-0.6-0.1-1.2,0.2-1.8c0.3-0.6,0.7-1,1.3-1.2s1.1-0.1,1.8,0.2
		c0.6,0.3,1,0.7,1.2,1.3s0.1,1.1-0.2,1.8c-0.3,0.6-0.7,1.1-1.3,1.3C62,9.6,61.4,9.5,60.8,9.2z M61.1,8.6c0.4,0.2,0.8,0.2,1.1,0.1
		c0.3-0.2,0.6-0.5,0.9-0.9c0.2-0.5,0.3-0.9,0.2-1.2c-0.1-0.4-0.3-0.6-0.7-0.8c-0.4-0.2-0.8-0.2-1.1-0.1c-0.3,0.1-0.6,0.5-0.9,0.9
		c-0.2,0.5-0.3,0.9-0.2,1.3S60.7,8.4,61.1,8.6z"/>
	<path class="st0" d="M63,10.3L67,7.5l0.7,0.4l-0.9,4.7L66,12.2l0.2-1.2l-1.5-1l-1,0.7L63,10.3z M65.3,9.6l1,0.7
		c0.2-0.7,0.3-1.3,0.5-1.8C66.5,8.7,66,9.1,65.3,9.6z"/>
	<path class="st0" d="M67.1,13L70,9.5l1,0.8c0.7,0.6,1.1,1.1,1.2,1.7c0.1,0.6-0.1,1.1-0.5,1.7c-0.5,0.6-1,0.9-1.6,0.9
		c-0.6,0-1.2-0.2-1.8-0.8L67.1,13z M68.1,13l0.5,0.4c0.4,0.3,0.8,0.5,1.2,0.5c0.4,0,0.8-0.2,1.1-0.6c0.3-0.4,0.4-0.8,0.4-1.2
		c-0.1-0.4-0.3-0.8-0.8-1.2l-0.4-0.3L68.1,13z"/>
	<path class="st0" d="M72.6,18.1l1.3-1.1l1-3l0.6,0.7l-0.8,2.2l2.3-0.5l0.6,0.7l-3.1,0.6l-1.3,1.2L72.6,18.1z"/>
	<path class="st0" d="M75.6,21.9c-0.4-0.6-0.5-1.1-0.4-1.7c0.1-0.6,0.5-1.1,1-1.5c0.6-0.4,1.1-0.6,1.7-0.5c0.6,0.1,1.1,0.4,1.5,1
		c0.4,0.6,0.5,1.1,0.4,1.7c-0.1,0.6-0.5,1.1-1,1.5c-0.6,0.4-1.2,0.6-1.7,0.5S76,22.4,75.6,21.9z M76.1,21.5c0.3,0.4,0.6,0.6,1,0.6
		s0.8-0.1,1.2-0.4c0.4-0.3,0.7-0.6,0.8-1s0-0.7-0.2-1.1c-0.3-0.4-0.6-0.6-1-0.6c-0.4,0-0.8,0.1-1.2,0.4c-0.4,0.3-0.7,0.6-0.8,1
		C75.8,20.7,75.8,21.1,76.1,21.5z"/>
	<path class="st0" d="M78.1,25.9c-0.1-0.3-0.2-0.5-0.3-0.7c0-0.2,0-0.4,0-0.6c0-0.2,0.1-0.3,0.2-0.5c0.1-0.2,0.2-0.3,0.4-0.4
		c0.1-0.1,0.3-0.2,0.5-0.3l2.3-1.2l0.4,0.7l-2.4,1.3c-0.2,0.1-0.3,0.2-0.4,0.3c-0.1,0.1-0.2,0.2-0.2,0.3c-0.1,0.1-0.1,0.2-0.1,0.3
		c0,0.1,0,0.2,0,0.3c0,0.1,0.1,0.2,0.1,0.3c0.1,0.1,0.2,0.2,0.2,0.3c0.1,0.1,0.2,0.2,0.3,0.2c0.1,0,0.3,0,0.4,0
		c0.2,0,0.4-0.1,0.6-0.2l2.3-1.3l0.4,0.7l-2.3,1.2c-0.2,0.1-0.4,0.2-0.5,0.2c-0.2,0.1-0.3,0.1-0.5,0.1c-0.2,0-0.4,0-0.5-0.1
		c-0.2-0.1-0.3-0.2-0.5-0.3C78.3,26.4,78.2,26.2,78.1,25.9z"/>
	<path class="st0" d="M79.4,28.4l4.2-1.7l0.6,1.5c0.1,0.2,0.2,0.4,0.2,0.6c0,0.2,0,0.4,0,0.5c0,0.2-0.1,0.3-0.2,0.4
		c-0.1,0.1-0.3,0.2-0.5,0.3c-0.2,0.1-0.5,0.1-0.7,0c-0.2-0.1-0.4-0.2-0.6-0.5c0,0.3-0.2,0.6-0.4,0.8l-1.1,1.1l-0.3-0.8l1-1
		c0.2-0.2,0.3-0.3,0.3-0.4c0-0.1,0-0.3-0.1-0.5l-0.2-0.6l-1.8,0.7L79.4,28.4z M82,28.1l0.3,0.7c0.2,0.5,0.5,0.7,0.9,0.5
		c0.2-0.1,0.3-0.2,0.4-0.3c0-0.1,0-0.3-0.1-0.6l-0.3-0.8L82,28.1z"/>
	<path class="st0" d="M81.8,35.9c-0.1-0.3-0.1-0.6,0-0.9c0-0.3,0.1-0.5,0.3-0.8c0.1-0.2,0.3-0.5,0.6-0.6c0.3-0.2,0.6-0.3,0.9-0.4
		c0.3-0.1,0.6-0.1,0.8-0.1c0.3,0,0.5,0.1,0.7,0.2c0.2,0.1,0.4,0.2,0.6,0.4c0.2,0.2,0.3,0.3,0.4,0.5c0.1,0.2,0.2,0.4,0.2,0.6
		c0.1,0.6,0.1,1.1-0.1,1.6l-0.6-0.2c0.2-0.4,0.2-0.8,0.1-1.2c0-0.2-0.1-0.4-0.2-0.5c-0.1-0.1-0.2-0.3-0.4-0.4
		c-0.2-0.1-0.4-0.2-0.6-0.2c-0.2,0-0.5,0-0.7,0c-0.5,0.1-0.8,0.3-1.1,0.7c-0.2,0.3-0.3,0.7-0.2,1.1c0.1,0.4,0.3,0.8,0.7,1.1
		l-0.5,0.4C82.2,37,81.9,36.5,81.8,35.9z"/>
	<path class="st0" d="M82.4,39.3l4.2-2.2l0.1,0.9c-0.1,0.1-0.6,0.3-1.4,0.7c-0.8,0.4-1.4,0.7-1.9,0.9c0.5,0.1,1.7,0.4,3.6,0.8
		l0.1,0.8l-4.6-1.2L82.4,39.3z"/>
	<path class="st0" d="M82.3,49.4c0-0.3,0.1-0.5,0.2-0.7c0.1-0.2,0.2-0.4,0.3-0.5c0.1-0.1,0.3-0.2,0.5-0.3c0.2-0.1,0.4-0.1,0.5-0.1
		c0.2,0,0.4,0,0.6,0l2.6,0.3L87,49l-2.6-0.3c-0.2,0-0.3,0-0.5,0c-0.1,0-0.3,0-0.4,0.1c-0.1,0-0.2,0.1-0.2,0.2
		c-0.1,0.1-0.1,0.2-0.2,0.3c0,0.1-0.1,0.2-0.1,0.3c0,0.2,0,0.3,0,0.4c0,0.1,0.1,0.2,0.1,0.3c0.1,0.1,0.2,0.2,0.3,0.3
		c0.2,0.1,0.3,0.1,0.6,0.2l2.6,0.3l-0.1,0.8L84,51.5c-0.2,0-0.4-0.1-0.6-0.1c-0.2-0.1-0.3-0.1-0.5-0.2c-0.2-0.1-0.3-0.2-0.4-0.4
		c-0.1-0.1-0.2-0.3-0.2-0.6C82.3,50,82.3,49.7,82.3,49.4z"/>
	<path class="st0" d="M82,52.2l4.4,1L86,54.5c0,0.1-0.1,0.3-0.1,0.4c0,0.1-0.1,0.2-0.1,0.3c0,0.1-0.1,0.2-0.1,0.3
		c0,0.1-0.1,0.2-0.2,0.2c-0.1,0.1-0.1,0.1-0.2,0.2c-0.1,0-0.2,0.1-0.3,0.1s-0.2,0-0.3,0c-0.1,0-0.2,0-0.4-0.1
		c-0.2-0.1-0.4-0.1-0.6-0.3c-0.1-0.1-0.2-0.3-0.3-0.4c-0.1-0.2-0.1-0.4-0.1-0.6c0-0.2,0-0.5,0.1-0.7l0.2-0.7l-1.9-0.5L82,52.2z
		 M84.3,53.6l-0.2,0.7c0,0.1-0.1,0.3-0.1,0.4c0,0.1,0,0.2,0,0.3c0,0.1,0.1,0.2,0.1,0.2c0.1,0.1,0.2,0.1,0.3,0.1c0.1,0,0.1,0,0.2,0
		c0.1,0,0.1,0,0.1,0c0,0,0.1,0,0.1-0.1c0,0,0.1-0.1,0.1-0.1c0,0,0.1-0.1,0.1-0.1c0-0.1,0-0.1,0.1-0.1c0,0,0-0.1,0.1-0.2
		c0-0.1,0-0.1,0-0.2s0-0.1,0.1-0.2l0.1-0.5L84.3,53.6z"/>
	<path class="st0" d="M81,56l4.2,1.5L85,58.2l-3.6-1.2l-0.7,2l-0.6-0.2L81,56z"/>
	<path class="st0" d="M78.9,61c0.3-0.6,0.7-1,1.3-1.2c0.6-0.2,1.2-0.1,1.8,0.2c0.6,0.3,1,0.7,1.3,1.3c0.2,0.5,0.2,1.1-0.1,1.8
		c-0.3,0.6-0.7,1-1.3,1.2c-0.6,0.2-1.1,0.1-1.8-0.2c-0.6-0.3-1.1-0.7-1.3-1.3C78.6,62.2,78.6,61.7,78.9,61z M79.6,61.3
		c-0.2,0.4-0.2,0.8-0.1,1.1c0.2,0.3,0.5,0.6,1,0.8c0.5,0.2,0.9,0.3,1.2,0.2c0.4-0.1,0.6-0.3,0.8-0.7c0.2-0.4,0.2-0.8,0.1-1.1
		c-0.2-0.3-0.5-0.6-0.9-0.8c-0.5-0.2-0.9-0.3-1.3-0.2C80,60.6,79.8,60.9,79.6,61.3z"/>
	<path class="st0" d="M77.9,63.3l2.8,3.9l-0.4,0.7L75.6,67l0.5-0.7l1.2,0.2l1-1.5L77.5,64L77.9,63.3z M78.6,65.6l-0.6,1
		c0.7,0.2,1.3,0.3,1.8,0.4C79.5,66.7,79.2,66.2,78.6,65.6z"/>
	<path class="st0" d="M75.3,67.4l3.5,2.8l-0.8,1c-0.6,0.7-1.1,1.1-1.7,1.2c-0.6,0.1-1.1-0.1-1.7-0.5c-0.6-0.5-0.9-1-0.9-1.6
		c0-0.6,0.2-1.2,0.7-1.8L75.3,67.4z M75.3,68.4l-0.4,0.5c-0.3,0.4-0.5,0.8-0.5,1.2c0,0.4,0.2,0.8,0.7,1.1c0.4,0.3,0.8,0.4,1.2,0.4
		c0.4-0.1,0.8-0.3,1.1-0.8l0.3-0.4L75.3,68.4z"/>
	<path class="st0" d="M70.3,73l1.2,1.3l3,0.9l-0.7,0.6L71.6,75l0.6,2.3l-0.7,0.6l-0.6-3.1l-1.2-1.3L70.3,73z"/>
	<path class="st0" d="M66.5,76c0.6-0.4,1.1-0.6,1.7-0.5c0.6,0.1,1.1,0.4,1.5,1c0.4,0.6,0.6,1.1,0.5,1.7c-0.1,0.6-0.4,1.1-1,1.5
		c-0.5,0.4-1.1,0.5-1.7,0.4c-0.6-0.1-1.1-0.4-1.5-1c-0.4-0.6-0.6-1.2-0.5-1.7C65.6,76.9,66,76.4,66.5,76z M66.9,76.5
		c-0.4,0.3-0.6,0.6-0.6,1c0,0.4,0.1,0.8,0.4,1.2c0.3,0.4,0.6,0.7,1,0.8c0.4,0.1,0.7,0,1.1-0.3c0.4-0.3,0.6-0.6,0.6-1
		c0-0.4-0.1-0.8-0.4-1.2c-0.3-0.4-0.7-0.7-1-0.8C67.7,76.2,67.3,76.3,66.9,76.5z"/>
	<path class="st0" d="M62.5,78.5c0.3-0.1,0.5-0.2,0.7-0.3c0.2,0,0.4,0,0.6,0c0.2,0,0.3,0.1,0.5,0.2c0.2,0.1,0.3,0.2,0.4,0.4
		c0.1,0.1,0.2,0.3,0.3,0.5l1.3,2.3L65.6,82l-1.3-2.3c-0.1-0.2-0.2-0.3-0.3-0.4c-0.1-0.1-0.2-0.2-0.3-0.2c-0.1,0-0.2-0.1-0.3-0.1
		s-0.2,0-0.3,0c-0.1,0-0.2,0.1-0.3,0.1c-0.1,0.1-0.2,0.2-0.3,0.3c-0.1,0.1-0.1,0.2-0.2,0.3c0,0.1,0,0.3,0,0.4c0,0.2,0.1,0.3,0.2,0.6
		l1.3,2.3l-0.7,0.4l-1.3-2.3c-0.1-0.2-0.2-0.4-0.2-0.5c-0.1-0.2-0.1-0.3-0.1-0.5c0-0.2,0-0.4,0.1-0.5c0.1-0.2,0.2-0.3,0.3-0.5
		C62.1,78.8,62.3,78.7,62.5,78.5z"/>
	<path class="st0" d="M60.1,79.9l1.7,4.1l-1.5,0.6c-0.2,0.1-0.4,0.2-0.6,0.2c-0.2,0-0.4,0-0.5,0c-0.2,0-0.3-0.1-0.5-0.2
		c-0.1-0.1-0.2-0.3-0.3-0.5c-0.1-0.2-0.1-0.5-0.1-0.7c0.1-0.2,0.2-0.4,0.5-0.6c-0.3,0-0.6-0.2-0.8-0.4l-1.1-1.1l0.8-0.3l1,1
		c0.2,0.2,0.3,0.3,0.4,0.3c0.1,0,0.3,0,0.5-0.1l0.6-0.2l-0.7-1.7L60.1,79.9z M60.4,82.6l-0.7,0.3c-0.5,0.2-0.7,0.5-0.5,0.9
		c0.1,0.2,0.2,0.3,0.3,0.4c0.1,0,0.3,0,0.6-0.1l0.8-0.3L60.4,82.6z"/>
	<path class="st0" d="M52.6,82.4c0.3-0.1,0.6-0.1,0.9-0.1c0.3,0,0.5,0.1,0.8,0.3c0.2,0.1,0.5,0.3,0.7,0.6c0.2,0.3,0.3,0.6,0.4,0.9
		c0.1,0.3,0.1,0.6,0.1,0.8s-0.1,0.5-0.2,0.7c-0.1,0.2-0.2,0.4-0.4,0.6c-0.2,0.2-0.3,0.3-0.5,0.4c-0.2,0.1-0.4,0.2-0.6,0.2
		c-0.6,0.1-1.1,0.1-1.6-0.1l0.2-0.6c0.4,0.1,0.8,0.2,1.2,0.1c0.2,0,0.4-0.1,0.5-0.2s0.3-0.3,0.4-0.4c0.1-0.2,0.2-0.4,0.2-0.6
		c0-0.2,0-0.5-0.1-0.7c-0.1-0.5-0.3-0.8-0.7-1.1c-0.3-0.2-0.7-0.3-1.1-0.2c-0.4,0.1-0.8,0.4-1.1,0.7l-0.4-0.5
		C51.5,82.8,52,82.5,52.6,82.4z"/>
	<path class="st0" d="M49.2,83.1l2.3,4.2l-0.9,0.1c-0.1-0.1-0.3-0.6-0.7-1.4c-0.4-0.8-0.7-1.4-1-1.9c-0.1,0.5-0.4,1.7-0.8,3.6
		l-0.8,0.1l1.1-4.7L49.2,83.1z"/>
	<path class="st0" d="M39.1,83.2c0.3,0,0.5,0.1,0.7,0.2c0.2,0.1,0.4,0.2,0.5,0.3c0.1,0.1,0.2,0.3,0.3,0.5c0.1,0.2,0.1,0.4,0.1,0.5
		c0,0.2,0,0.4,0,0.6l-0.3,2.6l-0.8-0.1l0.3-2.7c0-0.2,0-0.3,0-0.5c0-0.1-0.1-0.3-0.1-0.4c0-0.1-0.1-0.2-0.2-0.2
		c-0.1-0.1-0.2-0.1-0.3-0.2c-0.1,0-0.2-0.1-0.3-0.1c-0.2,0-0.3,0-0.4,0c-0.1,0-0.2,0.1-0.3,0.2c-0.1,0.1-0.2,0.2-0.3,0.3
		c-0.1,0.2-0.1,0.3-0.1,0.6l-0.3,2.6l-0.8-0.1l0.3-2.6c0-0.2,0.1-0.4,0.1-0.6c0-0.2,0.1-0.3,0.2-0.5c0.1-0.2,0.2-0.3,0.4-0.4
		c0.1-0.1,0.3-0.2,0.6-0.2C38.5,83.2,38.8,83.2,39.1,83.2z"/>
	<path class="st0" d="M36.3,82.9l-1,4.4L34.1,87c-0.1,0-0.3-0.1-0.4-0.1c-0.1,0-0.2-0.1-0.3-0.1c-0.1,0-0.2-0.1-0.3-0.1
		c-0.1,0-0.2-0.1-0.3-0.2c-0.1-0.1-0.2-0.1-0.2-0.2c0-0.1-0.1-0.2-0.1-0.3c0-0.1,0-0.2,0-0.3c0-0.1,0-0.3,0.1-0.4
		c0.1-0.2,0.1-0.4,0.2-0.6c0.1-0.1,0.3-0.2,0.4-0.3c0.2-0.1,0.4-0.1,0.6-0.1c0.2,0,0.5,0,0.7,0.1l0.7,0.1l0.4-1.9L36.3,82.9z
		 M35,85.2l-0.7-0.1c-0.1,0-0.3-0.1-0.4-0.1c-0.1,0-0.2,0-0.3,0c-0.1,0-0.2,0.1-0.2,0.1c-0.1,0.1-0.1,0.2-0.1,0.3c0,0.1,0,0.1,0,0.2
		c0,0.1,0,0.1,0,0.1c0,0,0,0.1,0.1,0.1c0,0,0.1,0.1,0.1,0.1c0,0,0.1,0.1,0.1,0.1c0.1,0,0.1,0,0.1,0.1c0,0,0.1,0,0.2,0.1
		c0.1,0,0.1,0,0.2,0c0,0,0.1,0,0.2,0l0.5,0.1L35,85.2z"/>
	<path class="st0" d="M32.5,82l-1.4,4.3L30.4,86l1.2-3.6l-2-0.6l0.2-0.6L32.5,82z"/>
	<path class="st0" d="M27.4,80c0.6,0.3,1.1,0.7,1.2,1.3c0.2,0.6,0.1,1.1-0.2,1.8c-0.3,0.6-0.7,1.1-1.2,1.3c-0.5,0.2-1.1,0.2-1.8-0.1
		c-0.6-0.3-1-0.7-1.2-1.2c-0.2-0.5-0.1-1.1,0.1-1.8c0.3-0.6,0.7-1.1,1.2-1.3C26.2,79.6,26.8,79.7,27.4,80z M27.2,80.6
		c-0.4-0.2-0.8-0.2-1.1,0c-0.3,0.2-0.6,0.5-0.8,1C25,82,24.9,82.4,25,82.8c0.1,0.4,0.4,0.6,0.8,0.8c0.4,0.2,0.8,0.2,1.1,0
		c0.3-0.2,0.6-0.5,0.8-0.9c0.2-0.5,0.3-0.9,0.2-1.3C27.8,81,27.6,80.8,27.2,80.6z"/>
	<path class="st0" d="M25.2,79l-3.9,2.9l-0.7-0.4l0.8-4.8l0.8,0.5l-0.2,1.2l1.5,0.9l0.9-0.7L25.2,79z M22.9,79.7l-1-0.6
		c-0.2,0.7-0.3,1.3-0.4,1.8C21.8,80.6,22.2,80.3,22.9,79.7z"/>
	<path class="st0" d="M21,76.4l-2.7,3.5l-1-0.8c-0.7-0.6-1.1-1.1-1.2-1.7c-0.1-0.6,0-1.1,0.5-1.7c0.5-0.6,1-0.9,1.6-0.9
		c0.6,0,1.2,0.2,1.9,0.7L21,76.4z M20,76.5l-0.5-0.4c-0.4-0.3-0.8-0.5-1.2-0.4c-0.4,0-0.8,0.3-1.1,0.7c-0.3,0.4-0.4,0.8-0.4,1.2
		s0.3,0.8,0.8,1.1l0.4,0.3L20,76.5z"/>
	<path class="st0" d="M15.3,71.5l-1.3,1.2l-0.9,3l-0.6-0.6l0.7-2.2l-2.2,0.6l-0.6-0.7l3.1-0.7l1.3-1.2L15.3,71.5z"/>
	<path class="st0" d="M12.3,67.8c0.4,0.6,0.6,1.1,0.5,1.7s-0.4,1.1-1,1.5c-0.6,0.4-1.1,0.6-1.7,0.5c-0.6-0.1-1.1-0.4-1.5-0.9
		C8.1,70,8,69.4,8.1,68.9c0.1-0.6,0.4-1.1,1-1.5c0.6-0.4,1.1-0.6,1.7-0.5C11.4,66.9,11.8,67.2,12.3,67.8z M11.7,68.2
		c-0.3-0.4-0.6-0.6-1-0.6c-0.4,0-0.8,0.1-1.2,0.5c-0.4,0.3-0.7,0.6-0.7,1c-0.1,0.4,0,0.7,0.3,1.1c0.3,0.4,0.6,0.6,1,0.6
		c0.4,0,0.8-0.1,1.2-0.4c0.4-0.3,0.7-0.7,0.8-1C12.1,68.9,12,68.5,11.7,68.2z"/>
	<path class="st0" d="M9.7,63.8c0.1,0.2,0.2,0.5,0.3,0.7c0,0.2,0.1,0.4,0,0.6c0,0.2-0.1,0.3-0.2,0.5c-0.1,0.2-0.2,0.3-0.4,0.4
		c-0.1,0.1-0.3,0.2-0.5,0.3l-2.3,1.3L6.2,67l2.3-1.3c0.2-0.1,0.3-0.2,0.4-0.3c0.1-0.1,0.2-0.2,0.2-0.3c0-0.1,0.1-0.2,0.1-0.3
		c0-0.1,0-0.2,0-0.3s-0.1-0.2-0.1-0.3C9,64,8.9,63.9,8.8,63.8c-0.1-0.1-0.2-0.1-0.3-0.2c-0.1,0-0.3,0-0.4,0c-0.2,0-0.3,0.1-0.5,0.2
		l-2.3,1.3l-0.4-0.7l2.3-1.3c0.2-0.1,0.4-0.2,0.5-0.3c0.2-0.1,0.3-0.1,0.5-0.1c0.2,0,0.4,0,0.5,0.1C8.9,62.9,9,63,9.2,63.2
		C9.4,63.4,9.5,63.6,9.7,63.8z"/>
	<path class="st0" d="M8.3,61.4l-4.1,1.8l-0.6-1.5c-0.1-0.2-0.2-0.4-0.2-0.6s0-0.4,0-0.5c0-0.2,0.1-0.3,0.2-0.5
		C3.6,60,3.8,59.9,4,59.8c0.2-0.1,0.5-0.1,0.7-0.1c0.2,0.1,0.4,0.2,0.6,0.5c0-0.3,0.2-0.6,0.4-0.8l1.1-1.1L7.2,59l-1,1
		c-0.2,0.2-0.3,0.3-0.3,0.4c0,0.1,0,0.3,0.1,0.5l0.2,0.6L8,60.7L8.3,61.4z M5.6,61.7L5.3,61c-0.2-0.5-0.5-0.7-0.9-0.5
		c-0.2,0.1-0.3,0.2-0.4,0.4s0,0.3,0.1,0.6l0.3,0.8L5.6,61.7z"/>
	<path class="st0" d="M5.7,53.9c0.1,0.3,0.1,0.6,0.1,0.9c0,0.3-0.1,0.6-0.2,0.8c-0.1,0.3-0.3,0.5-0.6,0.7c-0.3,0.2-0.6,0.3-0.9,0.4
		c-0.3,0.1-0.6,0.1-0.8,0.1c-0.3,0-0.5-0.1-0.7-0.2c-0.2-0.1-0.4-0.2-0.6-0.4c-0.2-0.1-0.3-0.3-0.4-0.5c-0.1-0.2-0.2-0.4-0.2-0.6
		c-0.1-0.6-0.1-1.1,0.1-1.6l0.6,0.2c-0.1,0.4-0.2,0.8-0.1,1.2c0,0.2,0.1,0.3,0.2,0.5c0.1,0.1,0.3,0.3,0.4,0.4
		c0.2,0.1,0.4,0.1,0.6,0.2c0.2,0,0.5,0,0.7-0.1c0.5-0.1,0.8-0.4,1-0.7C5,54.8,5.1,54.5,5,54.1c-0.1-0.4-0.4-0.8-0.8-1.1l0.5-0.4
		C5.2,52.9,5.5,53.4,5.7,53.9z"/>
	<path class="st0" d="M4.9,50.5l-4.2,2.3L0.6,52c0.1-0.1,0.6-0.3,1.4-0.7s1.4-0.8,1.8-1c-0.5-0.1-1.7-0.3-3.6-0.7l-0.1-0.8l4.7,1
		L4.9,50.5z"/>
</g>
</svg>
