<?xml version="1.0" encoding="utf-8"?>
<!-- Generator: Adobe Illustrator 23.0.6, SVG Export Plug-In . SVG Version: 6.00 Build 0)  -->
<svg version="1.1" id="Layer_1" xmlns="http://www.w3.org/2000/svg" xmlns:xlink="http://www.w3.org/1999/xlink" x="0px" y="0px"
	 viewBox="0 0 87.4 88" style="enable-background:new 0 0 87.4 88;" xml:space="preserve">
<style type="text/css">
	.st0{fill:#6D55D3;}
</style>
<title>play</title>
<g>
	<path class="st0" d="M53.3,42.1c0,0.2,0,0.3,0,0.4c0,4.1,0,8.2,0,12.2c0,1-0.7,1.8-1.8,1.8c-5.3,0-10.5,0-15.8,0
		c-1.2,0-1.8-0.6-1.8-1.8c0-6.9,0-13.9,0-20.8c0-1.2,0.6-1.8,1.8-1.8c2.4,0,4.7,0,7.1,0c0.1,0,0.2,0,0.4,0c0,0.2,0,0.3,0,0.4
		c0,2.1,0,4.2,0,6.4c0,1.1,0.4,2,1.2,2.6c0.6,0.5,1.3,0.6,2,0.6c2.1,0,4.2,0,6.3,0C53,42.1,53.1,42.1,53.3,42.1z M42.9,47.2
		c0,0.2,0,0.3,0,0.4c0,1.7,0,3.4,0,5.1c0,0.2,0,0.3,0,0.5c0.1,0.3,0.3,0.5,0.7,0.6c0.3,0,0.6-0.1,0.7-0.4c0.1-0.2,0.1-0.4,0.1-0.6
		c0-1.7,0-3.5,0-5.2c0-0.1,0-0.2,0-0.4c0.1,0.1,0.2,0.2,0.3,0.3c0.3,0.3,0.6,0.6,0.9,0.9c0.2,0.2,0.4,0.3,0.7,0.3
		c0.3-0.1,0.5-0.2,0.6-0.5c0.1-0.3,0-0.6-0.3-0.8c-0.8-0.8-1.6-1.6-2.4-2.4c-0.4-0.4-0.8-0.4-1.3,0c-0.8,0.8-1.6,1.6-2.4,2.4
		c-0.1,0.1-0.1,0.1-0.2,0.2c-0.3,0.5-0.1,1.1,0.5,1.2c0.3,0.1,0.6-0.1,0.8-0.3C42.1,48,42.4,47.6,42.9,47.2z"/>
	<path class="st0" d="M53.2,40.6c-0.6,0-1.2,0-1.8,0c-1.6,0-3.3,0-4.9,0c-0.9,0-1.7-0.7-1.7-1.7c0-2.2,0-4.4,0-6.5
		c0-0.1,0-0.2,0-0.2C47.6,35,50.4,37.8,53.2,40.6z"/>
</g>
</svg>
