<?xml version="1.0" encoding="utf-8"?>
<!-- Generator: Adobe Illustrator 23.0.4, SVG Export Plug-In . SVG Version: 6.00 Build 0)  -->
<svg version="1.1" id="Layer_1" xmlns="http://www.w3.org/2000/svg" xmlns:xlink="http://www.w3.org/1999/xlink" x="0px" y="0px"
	 viewBox="0 0 35.5 35.5" style="enable-background:new 0 0 35.5 35.5;" xml:space="preserve">
<style type="text/css">
	.st0{fill:#34D07C;}
</style>
<title>vimeo</title>
<g>
	<g id="Layer_1-2">
		<path class="st0" d="M17.8,0C8,0,0,8,0,17.8s8,17.8,17.8,17.8s17.8-8,17.8-17.8S27.6,0,17.8,0C17.8,0,17.8,0,17.8,0z M22.6,20.5
			c-2.2,2.9-4.1,4.3-5.6,4.3c-0.9,0-1.8-0.9-2.4-2.6l-1.3-4.8c-0.5-1.7-1-2.6-1.6-2.6c-0.5,0.2-0.9,0.4-1.3,0.8l-0.8-1
			c0.8-0.7,1.6-1.4,2.4-2.1c0.7-0.7,1.5-1.2,2.4-1.4c1.3-0.1,2,0.7,2.3,2.6s0.5,3.2,0.6,3.7c0.4,1.6,0.8,2.5,1.2,2.5
			c0.3,0,0.9-0.5,1.5-1.6c0.5-0.7,0.9-1.5,1.1-2.4c0.1-0.9-0.3-1.4-1.1-1.4c-0.4,0-0.8,0.1-1.2,0.2c0.8-2.6,2.3-3.8,4.6-3.8
			c1.7,0,2.4,1.1,2.4,3.2l0,0C25.8,15.6,24.7,17.7,22.6,20.5z"/>
	</g>
</g>
</svg>
