<?xml version="1.0" encoding="utf-8"?>
<!-- Generator: Adobe Illustrator 23.0.4, SVG Export Plug-In . SVG Version: 6.00 Build 0)  -->
<svg version="1.1" id="Layer_1" xmlns="http://www.w3.org/2000/svg" xmlns:xlink="http://www.w3.org/1999/xlink" x="0px" y="0px"
	 viewBox="0 0 280 70" style="enable-background:new 0 0 280 70;" xml:space="preserve">
<style type="text/css">
	.st0{fill-rule:evenodd;clip-rule:evenodd;fill:#293376;}
</style>
<title>280-</title>
<path class="st0" d="M47.2,51.1h7.7l2-4.6l7.9,0.2l2.2,4.6h7.7l-13.7-38L47.2,51.1z M58.8,39.4c0,0,1.6-7,1.8-6.4s1.8,6.2,1.8,6.2
	L58.8,39.4L58.8,39.4z"/>
<path class="st0" d="M79.4,38c0-9.9,10.9-5,10.9-5l4.4-5c-3.8-3.6-9.7-3.4-9.7-3.4c-3,0-11.7,1-12.9,14.3C77,60,94.9,48.7,94.9,48.7
	l-4.4-5C90.4,43.7,79.4,47.9,79.4,38z"/>
<polygon class="st0" points="173.6,22.5 170.4,16.1 134.9,16.1 127.7,35.2 119.4,15.9 83.4,15.9 79.6,22.5 95.9,22.5 95.9,51.1 
	103.5,51.1 103.5,22.5 114,22.5 127.5,56.7 140.8,22.5 173.6,22.5 "/>
<polygon class="st0" points="107.3,51.3 114.2,51.3 114.2,24.9 107.4,24.9 107.3,51.3 "/>
<polygon class="st0" points="140.7,51.3 147.6,51.3 147.6,24.9 140.8,24.9 140.7,51.3 "/>
<polygon class="st0" points="165.3,51.3 172.2,51.3 172.2,24.9 165.3,24.9 165.3,51.3 "/>
<path class="st0" d="M158.5,30.6h4.4l0.2-5.4l-7.9-0.2c0,0-5.4,0-5.4,5s6.4,12.1,6.4,12.1s1.6,1.4,0.8,2.6s-7.5,0.4-7.5,0.4v6h9.7
	c2.5,0.4,4.9-1.4,5.2-3.9c0.1-0.4,0.1-0.7,0-1.1c0-5.6-7.2-13.1-7.2-13.1C156.2,31.8,156.8,30.6,158.5,30.6L158.5,30.6z"/>
<path class="st0" d="M187.5,24.1c0,0-14.5-0.4-14.1,14.1s12.9,13.9,14.1,13.9s13.3-1.2,13.1-14.7S187.5,24.1,187.5,24.1L187.5,24.1z
	 M187.7,44.9c0,0-7,1-7-6.8s6.6-6.8,6.6-6.8s5.8,0.4,6,5.6C194.1,44.5,187.7,44.9,187.7,44.9z"/>
<polygon class="st0" points="214.7,24.9 214.1,33.8 201.8,24.1 202,51.1 209.2,51.1 209.2,41 221.1,51.1 221.1,24.9 214.7,24.9 "/>
<path class="st0" d="M230.4,45.9c0.5,0.3,1,0.7,1.3,1.3c0.6,1.1,0.6,2.4,0,3.5c-0.3,0.5-0.7,1-1.3,1.3c-1.1,0.6-2.4,0.6-3.5,0
	c-0.5-0.3-1-0.7-1.3-1.3c-0.3-0.5-0.5-1.1-0.5-1.7c0-0.6,0.2-1.2,0.5-1.7c0.3-0.5,0.7-1,1.3-1.3c0.5-0.3,1.1-0.5,1.7-0.5
	C229.3,45.4,229.9,45.6,230.4,45.9L230.4,45.9z M226.7,45.3c-0.6,0.4-1.2,0.9-1.5,1.5c-0.8,1.3-0.8,2.9,0,4.2
	c0.4,0.6,0.9,1.2,1.5,1.5c0.6,0.4,1.4,0.6,2.1,0.6c0.7,0,1.4-0.2,2.1-0.6c0.6-0.4,1.2-0.9,1.5-1.5c0.4-0.6,0.6-1.4,0.6-2.1
	c0-0.7-0.2-1.4-0.6-2.1c-0.4-0.6-0.9-1.2-1.5-1.5c-0.6-0.4-1.4-0.6-2.1-0.6C228,44.7,227.3,44.9,226.7,45.3L226.7,45.3z M227.6,51.2
	v-1.9h0.4c0.2,0,0.4,0,0.6,0.2c0.3,0.3,0.6,0.7,0.8,1l0.4,0.7h0.9l-0.5-0.9c-0.2-0.3-0.4-0.6-0.7-0.9c-0.1-0.1-0.2-0.2-0.4-0.2
	c0.3,0,0.7-0.1,0.9-0.4c0.4-0.4,0.5-1.1,0.2-1.5c-0.2-0.3-0.5-0.4-0.8-0.5c-0.3-0.1-0.6-0.1-0.9-0.1h-1.5v4.5L227.6,51.2z
	 M227.6,47.3h0.8c0.2,0,0.5,0,0.7,0.1c0.3,0.1,0.4,0.3,0.4,0.6c0,0.5-0.4,0.7-1.1,0.7h-0.9V47.3L227.6,47.3z"/>
</svg>
