<svg id="Layer_1" data-name="Layer 1" xmlns="http://www.w3.org/2000/svg" viewBox="0 0 280 70"><defs><style>.cls-1{fill:#fff;fill-rule:evenodd;}</style></defs><title>280-</title><path class="cls-1" d="M47.156,51.107h7.65l2.013-4.631,7.852.2,2.214,4.629h7.651L60.845,13.257,47.156,51.107ZM58.833,39.43s1.612-7.047,1.81-6.442,1.812,6.24,1.812,6.24l-3.622.2Z"/><path class="cls-1" d="M79.367,38.021c0-9.867,10.874-5.033,10.874-5.033l4.428-5.034c-3.825-3.626-9.664-3.423-9.664-3.423-3.019,0-11.676,1.006-12.885,14.294,4.834,21.14,22.75,9.867,22.75,9.867l-4.429-5.035s-11.074,4.228-11.074-5.636Z"/><polygon class="cls-1" points="173.591 22.518 170.369 16.074 134.935 16.074 127.688 35.201 119.433 15.873 83.396 15.873 79.57 22.518 95.876 22.518 95.876 51.107 103.527 51.107 103.527 22.518 113.996 22.518 127.487 56.743 140.774 22.518 173.591 22.518 173.591 22.518"/><polygon class="cls-1" points="107.272 51.307 114.198 51.307 114.198 24.932 107.353 24.932 107.272 51.307 107.272 51.307"/><polygon class="cls-1" points="140.693 51.307 147.619 51.307 147.619 24.932 140.774 24.932 140.693 51.307 140.693 51.307"/><polygon class="cls-1" points="165.256 51.307 172.182 51.307 172.182 24.932 165.337 24.932 165.256 51.307 165.256 51.307"/><path class="cls-1" d="M158.49,30.57h4.429l.2-5.435-7.852-.2s-5.435,0-5.435,5.034,6.442,12.08,6.442,12.08,1.61,1.41.806,2.617-7.451.405-7.451.405v6.039H159.3a4.623,4.623,0,0,0,5.235-5.035c0-5.636-7.248-13.084-7.248-13.084-1.106-1.189-.52-2.418,1.207-2.418Z"/><path class="cls-1" d="M187.482,24.128s-14.5-.4-14.093,14.093,12.886,13.893,14.093,13.893,13.289-1.21,13.087-14.7-13.087-13.289-13.087-13.289Zm.2,20.738s-7.045,1.006-7.045-6.845,6.645-6.846,6.645-6.846,5.838.4,6.038,5.639c.806,7.649-5.638,8.052-5.638,8.052Z"/><polygon class="cls-1" points="214.661 24.932 214.058 33.792 201.777 24.128 201.978 51.107 209.226 51.107 209.226 41.04 221.106 51.107 221.106 24.932 214.661 24.932 214.661 24.932"/><path class="cls-1" d="M230.394,45.851a3.284,3.284,0,0,1,1.284,1.262,3.46,3.46,0,0,1,.023,3.463,3.3,3.3,0,0,1-1.266,1.282,3.446,3.446,0,0,1-3.461.006A3.3,3.3,0,0,1,225.7,50.61a3.417,3.417,0,0,1-.469-1.74,3.507,3.507,0,0,1,.465-1.738,3.28,3.28,0,0,1,1.258-1.262,3.456,3.456,0,0,1,1.738-.465,3.565,3.565,0,0,1,1.7.446Zm-3.74-.6a3.9,3.9,0,0,0-1.544,1.518,4.17,4.17,0,0,0-.021,4.169,3.979,3.979,0,0,0,1.52,1.529,4.121,4.121,0,0,0,2.086.557,4.2,4.2,0,0,0,2.07-.552,3.9,3.9,0,0,0,1.519-1.508,4.126,4.126,0,0,0,.56-2.09,4.245,4.245,0,0,0-.554-2.085,3.957,3.957,0,0,0-1.512-1.512,4.119,4.119,0,0,0-2.083-.559,4.3,4.3,0,0,0-2.041.533Zm.958,5.912v-1.9h.42a.932.932,0,0,1,.575.154,3.76,3.76,0,0,1,.751,1.042l.394.707h.877l-.546-.877a4.918,4.918,0,0,0-.661-.885,1.187,1.187,0,0,0-.38-.239,1.4,1.4,0,0,0,.9-.373,1.179,1.179,0,0,0,.169-1.54,1.236,1.236,0,0,0-.762-.49,4.822,4.822,0,0,0-.934-.066H226.88v4.47Zm0-3.852h.81a2.261,2.261,0,0,1,.718.077.586.586,0,0,1,.408.582q0,.675-1.073.674h-.863V47.307Z"/></svg>