<?xml version="1.0" encoding="utf-8"?>
<!-- Generator: Adobe Illustrator 23.0.4, SVG Export Plug-In . SVG Version: 6.00 Build 0)  -->
<svg version="1.1" id="Layer_1" xmlns="http://www.w3.org/2000/svg" xmlns:xlink="http://www.w3.org/1999/xlink" x="0px" y="0px"
	 viewBox="0 0 280 70" style="enable-background:new 0 0 280 70;" xml:space="preserve">
<style type="text/css">
	.st0{fill-rule:evenodd;clip-rule:evenodd;fill:#293376;}
</style>
<title>280-</title>
<path class="st0" d="M58.4,37.2h6.3c2.4,0,3.5,1,3.5,3c0,2.5-1.8,3.1-3.9,3.1h-5.9V37.2z M48.3,51h18.5c5.7,0,11.4-3.4,11.4-9.9
	c0.2-3.7-2.1-7.1-5.7-8.1c2.4-1.3,4-3.1,4-6.4c0-3.3-1.8-8.2-10.4-8.2H48.3V51z M58.4,26.2h5.3c2.1,0,3.4,0.6,3.4,2.2
	c0,2.1-1.3,2.7-3.4,2.7h-5.3V26.2z"/>
<path class="st0" d="M87.8,36.5c0.2-2.4,2.2-4.1,4.6-4c0,0,0.1,0,0.1,0c2.1,0,3.9,1.6,4,3.8c0,0.1,0,0.1,0,0.2H87.8z M105.1,41.2
	c0-9.2-4.1-14.5-13.5-14.5c-6.7-0.2-12.3,5.1-12.5,11.8c0,0.2,0,0.5,0,0.7c0,7.9,5.7,12.4,13.3,12.4c5.4,0,10.3-2.4,12.2-7.5h-8.4
	c-0.9,1.1-2.3,1.8-3.8,1.7c-2.8,0-4.4-1.9-4.6-4.6L105.1,41.2z"/>
<path class="st0" d="M116.1,20.1h-9v7.2h-4v5.6h4v11.3c0,6.5,4.2,7.1,8.1,7.1c1.9,0,4-0.3,5.8-0.3v-6.8c-0.7,0.1-1.4,0.1-2,0.1
	c-2.3,0-2.8-1-2.8-3.1v-8.2h4.8v-5.6h-4.8L116.1,20.1L116.1,20.1z"/>
<path class="st0" d="M122.4,51h9V38.5c0-3.8,2.1-4.6,3.6-4.6c2.6,0,3,1.9,3,4.6V51h9V34.8c0-5.4-3.9-8-8.1-8c-3.8,0-5.8,1.3-7.4,3.1
	h-0.1V18.4h-9V51z"/>
<path class="st0" d="M156.9,36.5c0.2-2.4,2.2-4.1,4.6-4c0,0,0.1,0,0.1,0c2.1,0,3.9,1.7,4,3.8c0,0.1,0,0.1,0,0.2H156.9z M174.1,41.2
	c0-9.2-4.1-14.5-13.5-14.5c-6.7-0.2-12.3,5.1-12.5,11.8c0,0.2,0,0.5,0,0.7c0,7.9,5.7,12.4,13.3,12.4c5.4,0,10.3-2.4,12.2-7.5h-8.4
	c-0.9,1.1-2.3,1.8-3.8,1.7c-2.8,0-4.4-1.9-4.6-4.6L174.1,41.2z"/>
<path class="st0" d="M196.1,34.2c-0.2-6.1-6.4-7.5-11.5-7.5c-4.7,0-11.2,1.6-11.2,7.5c0,4.1,2.8,6.2,9.7,7.4c4.2,0.7,5,1.1,5,2.5
	s-1.9,1.8-3.1,1.8c-0.9,0.1-1.7-0.2-2.4-0.7c-0.6-0.5-1-1.3-1.1-2.1h-8.6c0.1,6.1,6.2,8.3,11.8,8.3c5.7,0,12-1.8,12-8.3
	c0-3.9-2.6-5.7-5.7-6.6c-3-1-6.4-1.2-7.9-1.8c-0.5-0.2-1.1-0.5-1.1-1.2c0-1.5,1.5-1.8,2.7-1.8c0.7,0,1.4,0.2,2,0.7
	c0.6,0.4,1,1.1,1,1.8L196.1,34.2z"/>
<path class="st0" d="M222.8,18.4h-9v11.5h-0.1c-1.5-2.1-3.9-3.3-6.5-3.2c-7.9,0-10.1,6.7-10.1,12.3c0,5.9,3.2,12.5,9.9,12.5
	c4.4,0,5.8-1.7,6.9-3.2h0.1V51h8.7V18.4z M214.1,39.1c0,2.8-0.7,5.9-4,5.9s-4-3.1-4-5.9c0-2.8,0.7-5.8,4-5.8S214.1,36.4,214.1,39.1"
	/>
<path class="st0" d="M239.8,42.6c0.1,2-1.5,3.6-3.5,3.7c-0.1,0-0.2,0-0.3,0c-1.4,0.1-2.6-0.8-2.8-2.2c0-1.6,1.1-2.1,3.1-2.6
	c1.2-0.2,2.4-0.6,3.6-1.1V42.6L239.8,42.6z M248.5,36c0-4.6,0.1-9.3-11.2-9.3c-5.6,0-11.9,1.1-12.2,7.7h8.4c0-1,0.6-2.4,3.4-2.4
	c1.5,0,3,0.6,3,2.2c0,1.5-1.2,1.9-2.5,2.1c-4.6,0.9-13.4,0.6-13.4,8.1c0,5,3.8,7.2,8.3,7.2c2.9,0,5.7-0.6,7.6-2.8h0.1
	c0,0.8,0.1,1.5,0.3,2.2h9.2c-1-1.5-1.1-3.5-1.1-5.3L248.5,36z"/>
<path class="st0" d="M28.9,32.6h13.9V18.4H28.9V32.6z M37.9,27.6h-4.1v-4.2h4.1L37.9,27.6z"/>
<path class="st0" d="M248,19.6c1.7,0,3.1,1.4,3.1,3.2c0,1.7-1.4,3.1-3.2,3.1c-1.7,0-3.1-1.4-3.1-3.2C244.8,21,246.2,19.6,248,19.6
	L248,19.6z M248,20.1c-1.4,0-2.5,1.1-2.5,2.6s1.1,2.5,2.6,2.5c1.4,0,2.5-1.1,2.5-2.6C250.5,21.2,249.4,20.1,248,20.1L248,20.1z
	 M247.4,24.6h-0.6V21c0.3-0.1,0.7-0.1,1-0.1c0.4,0,0.8,0.1,1.1,0.3c0.2,0.2,0.3,0.4,0.3,0.7c0,0.4-0.3,0.8-0.7,0.9v0
	c0.3,0.1,0.5,0.3,0.6,0.9c0,0.3,0.1,0.6,0.2,0.9h-0.6c-0.1-0.3-0.2-0.6-0.2-0.9c0-0.4-0.3-0.7-0.7-0.6c0,0,0,0-0.1,0h-0.4
	L247.4,24.6L247.4,24.6z M247.4,22.6h0.4c0.5,0,0.9-0.2,0.9-0.6c0-0.3-0.2-0.6-0.9-0.6c-0.1,0-0.3,0-0.4,0V22.6L247.4,22.6z"/>
</svg>
