<svg id="Layer_1" data-name="Layer 1" xmlns="http://www.w3.org/2000/svg" viewBox="0 0 280 70"><defs><style>.cls-1{fill:#fff;fill-rule:evenodd;}</style></defs><title>280-</title><path class="cls-1" d="M58.356,37.177H64.65c2.373,0,3.51,1.049,3.51,2.967,0,2.507-1.822,3.1-3.921,3.1H58.356V37.177ZM48.324,51H66.793c5.744,0,11.4-3.377,11.4-9.9a7.944,7.944,0,0,0-5.653-8.116c2.415-1.319,4.014-3.1,4.014-6.38,0-3.329-1.825-8.163-10.4-8.163H48.324ZM58.356,26.189h5.289c2.053,0,3.419.6,3.419,2.233,0,2.1-1.32,2.693-3.419,2.693H58.356Z"/><path class="cls-1" d="M87.805,36.493a4.28,4.28,0,0,1,4.648-3.964,3.88,3.88,0,0,1,3.966,3.964Zm17.279,4.7c0-9.212-4.059-14.455-13.451-14.455A12.148,12.148,0,0,0,79.139,39.231c0,7.89,5.7,12.358,13.27,12.358,5.382,0,10.349-2.371,12.176-7.48H96.148A4.511,4.511,0,0,1,92.365,45.8c-2.827,0-4.377-1.915-4.609-4.6Z"/><path class="cls-1" d="M116.067,20.127h-9.028v7.2h-4.015V32.9h4.015V44.2c0,6.471,4.239,7.063,8.072,7.063,1.911,0,3.964-.27,5.787-.27V44.153a14.851,14.851,0,0,1-2.049.139c-2.282,0-2.782-.954-2.782-3.142V32.9H120.9V27.329h-4.831v-7.2Z"/><path class="cls-1" d="M122.4,51h9.025V38.5c0-3.79,2.054-4.56,3.605-4.56,2.644,0,2.961,1.91,2.961,4.647V51h9.03V34.762c0-5.423-3.877-8.024-8.116-8.024-3.831,0-5.835,1.322-7.387,3.145h-.093V18.439H122.4V51Z"/><path class="cls-1" d="M156.854,36.493a4.281,4.281,0,0,1,4.652-3.964,3.885,3.885,0,0,1,3.968,3.964Zm17.28,4.7c0-9.212-4.059-14.455-13.451-14.455a12.146,12.146,0,0,0-12.49,12.493c0,7.89,5.7,12.358,13.269,12.358,5.378,0,10.344-2.371,12.172-7.48H165.2a4.5,4.5,0,0,1-3.782,1.688c-2.829,0-4.378-1.915-4.609-4.6Z"/><path class="cls-1" d="M196.149,34.218c-.227-6.066-6.38-7.48-11.489-7.48-4.743,0-11.17,1.552-11.17,7.523,0,4.06,2.781,6.249,9.662,7.432,4.2.731,4.974,1.14,4.974,2.507s-1.867,1.823-3.055,1.823a3.718,3.718,0,0,1-2.419-.684,2.889,2.889,0,0,1-1.092-2.1h-8.621c.138,6.113,6.249,8.346,11.814,8.346,5.744,0,12.037-1.775,12.037-8.346,0-3.873-2.642-5.652-5.653-6.61-3.011-1-6.435-1.183-7.933-1.823-.5-.226-1.053-.548-1.053-1.231,0-1.549,1.458-1.824,2.733-1.824a3.146,3.146,0,0,1,2.01.683,2.291,2.291,0,0,1,1.049,1.781Z"/><path class="cls-1" d="M222.773,18.439H213.74V29.932h-.088a7.723,7.723,0,0,0-6.475-3.194c-7.937,0-10.078,6.749-10.078,12.314,0,5.927,3.237,12.537,9.943,12.537,4.421,0,5.788-1.687,6.928-3.19h.091v2.593h8.712Zm-8.712,20.7c0,2.828-.726,5.883-3.968,5.883s-3.965-3.055-3.965-5.883c0-2.781.731-5.836,3.965-5.836s3.968,3.054,3.968,5.836"/><path class="cls-1" d="M239.807,42.559a3.583,3.583,0,0,1-3.782,3.7,2.6,2.6,0,0,1-2.828-2.189c0-1.6,1.053-2.1,3.058-2.556a15.251,15.251,0,0,0,3.552-1.14v2.189Zm8.669-6.566c0-4.561.086-9.252-11.219-9.252-5.609,0-11.9,1.093-12.175,7.747h8.393c.041-1.005.593-2.416,3.369-2.416,1.461,0,2.963.593,2.963,2.189,0,1.507-1.231,1.872-2.459,2.1-4.605.867-13.359.593-13.359,8.073,0,4.969,3.782,7.157,8.342,7.157,2.92,0,5.7-.639,7.619-2.829h.087A6.41,6.41,0,0,0,240.359,51h9.213c-1.01-1.5-1.1-3.511-1.1-5.29Z"/><path class="cls-1" d="M28.9,32.625H42.831V18.411H28.9Zm9.025-5.01H33.805v-4.2h4.116Z"/><path class="cls-1" d="M247.994,19.558a3.143,3.143,0,1,1-.016,0Zm-.015.493a2.547,2.547,0,1,0,.016,0Zm-.593,4.517h-.555V21.041a5.636,5.636,0,0,1,.993-.087,1.865,1.865,0,0,1,1.1.265.837.837,0,0,1,.325.732.868.868,0,0,1-.691.858v.028c.311.059.525.341.593.858a2.762,2.762,0,0,0,.227.873h-.593a2.55,2.55,0,0,1-.234-.9.669.669,0,0,0-.762-.624h-.4v1.522Zm0-1.954h.41c.465,0,.858-.171.858-.608,0-.311-.223-.616-.858-.616a2.971,2.971,0,0,0-.41.028v1.2Z"/></svg>