<svg id="Layer_1" data-name="Layer 1" xmlns="http://www.w3.org/2000/svg" viewBox="0 0 280 70"><defs><style>.cls-1{fill:#fff;fill-rule:evenodd;}</style></defs><title>280-</title><path class="cls-1" d="M74.688,64.473h3.44V65.4h-2.12v1h2v.942h-2V68.47h2.2v.955h-3.52V64.473Zm121.612,0h3.773v.989h-1.227v3.963h-1.32V65.462H196.3v-.989Zm-11.211,0h1.649l1.435,2.969c.048.1.1.239.171.416s.137.4.217.653c-.044-.243-.073-.467-.093-.672a5.484,5.484,0,0,1-.03-.561V64.473h1.192v4.952h-1.642L186.5,66.348a4.036,4.036,0,0,1-.192-.462c-.057-.167-.111-.347-.16-.542q.071.442.1.813c.023.248.033.466.033.654v2.614h-1.192V64.473Zm-9.6,0h3.441V65.4h-2.12v1h2v.942h-2V68.47h2.2v.955h-3.521V64.473Zm-11.95,0h1.918l.862,2.976a2.982,2.982,0,0,1,.081.4c.022.147.038.307.048.475q.024-.274.06-.507a3.841,3.841,0,0,1,.082-.395l.863-2.948h1.888v4.952h-1.181V66.1c0-.158,0-.321.013-.491s.021-.351.04-.544c-.03.149-.064.291-.1.427s-.069.264-.106.385l-1.061,3.548h-1.127l-1.039-3.489c-.034-.12-.07-.255-.1-.4s-.065-.3-.093-.469c.015.234.028.446.038.633s.015.329.015.423v3.3h-1.1V64.473Zm-10.716,0h1.649l1.435,2.969c.048.1.106.239.171.416s.137.4.217.653c-.043-.243-.073-.467-.093-.672a5.484,5.484,0,0,1-.03-.561V64.473h1.192v4.952h-1.642l-1.49-3.077a4.224,4.224,0,0,1-.193-.462c-.058-.166-.11-.347-.16-.542q.07.442.1.813c.023.248.035.467.035.654v2.614h-1.193V64.473Zm-7.744,0H146.4v4.952h-1.321V64.473Zm-8.324,1.105-.641,1.857h1.261l-.62-1.857Zm-.771-1.105h1.593l1.875,4.952h-1.411l-.352-1.049h-1.907l-.369,1.049h-1.307l1.878-4.952Zm-10.829,0h3.773v.989h-1.226v3.963h-1.321V65.462h-1.226v-.989Zm-8.344.871v1.269h.465a1.09,1.09,0,0,0,.642-.155.539.539,0,0,0,.214-.466.546.546,0,0,0-.239-.491,1.4,1.4,0,0,0-.754-.157Zm-1.293-.871h1.969a2.636,2.636,0,0,1,1.458.319,1.086,1.086,0,0,1,.477.97,1.217,1.217,0,0,1-.251.791,1.24,1.24,0,0,1-.725.415,1.222,1.222,0,0,1,.627.811v0l.592,1.642h-1.376l-.436-1.356a.844.844,0,0,0-.285-.453,1.012,1.012,0,0,0-.565-.125h-.192v1.934h-1.293V64.473Zm-9.828,0h3.44V65.4h-2.119v1h2v.942h-2V68.47h2.2v.955h-3.52V64.473Zm-9.939,0h3.773v.989H98.3v3.963H96.98V65.462H95.754v-.989Zm-11.238,0h1.649L87.6,67.442c.049.1.106.239.172.416s.137.4.216.653c-.042-.243-.072-.467-.093-.672s-.029-.391-.029-.561V64.473h1.192v4.952H87.415l-1.491-3.077a4.036,4.036,0,0,1-.192-.462c-.058-.167-.111-.347-.16-.542q.07.442.1.813t.034.654v2.614H84.516V64.473Z"/><path class="cls-1" d="M107.842,49.343s.269,1.182.932.737.931-1.112,1.594-1.112,3.425-.52,4.088,0,.729.074,1.06.074a12.853,12.853,0,0,1,1.3.172c.847-.088.674-1.435.062-1.829-.884-.693-2.074-1.138-2.957-1.83q-.133-1-.265-2l.729-1.038V39.176q-.2-.446-.4-.891-.066-1.26-.133-2.522c-.11-.148-.221-.3-.331-.445v-.964c.221-.322.668-.643.889-.964.067-.618-.23-1.055-.163-1.673-.155-.791-.174-1.764-.328-2.556V26.268c.641-.191.8-.475.842-.763a6.1,6.1,0,0,0-.312-1.685c-.088-4.624-.132-9.43-.22-14.054.353-.552.775-.838.784-1.247.007-.319-.335-.586-.763-.945V6.61s.729-1.484,1.325-1.484a.947.947,0,0,0,1-.89.738.738,0,0,0-.6-1.187c-1.262-.026-2.692.039-3.924.013-1.086-.023-1.977-.138-3.035-.161l-1.391.074c-1.141.346-.9.966-.465,1.312a3.2,3.2,0,0,0,1.591.728,1.511,1.511,0,0,1,1.591,1q.1,4.452.2,8.9c.022,2.188.089,4.376.111,6.564s0,4.377.021,6.566q.066,3.857.133,7.714a3.765,3.765,0,0,1-.332,1.187,8.356,8.356,0,0,0-.132,2.152c.734.639.578.55.066,1.409q-.066,2.856-.133,5.712l-.53,1.039s-1.908,1.117-1.908,2.081Zm-32.1,9.221c-.982-.2-1.166-.676-.817-.957.209-.168.769-.162,1.021-.28a2.786,2.786,0,0,0,.966-.675c.379-.469.15-1.556.6-2.441.434-3.733.565-8.68.13-10.345-.26-2.564.007-11.083.007-12.163a2.069,2.069,0,0,0,.4-1.47c0-.355.24-.908-.015-1.347-.369-.422-.257-2.071-.286-3a5.4,5.4,0,0,1,.443-2.624,2.232,2.232,0,0,0,0-1.485c-.313-.73-.766.114-.736-1.354.073-3.56.206-7.143.112-10.7.021-.318.549-.376.653-.675a1.67,1.67,0,0,0,0-1.215c-.1-.205-.654.062-.817-.094-.994-.95-2.244-1.547-2.82-2.815a1.782,1.782,0,0,1,.61-1.814c.785-.39,2.244.013,3.1-.135.461-.08.754-.355,1.221-.375a78.2,78.2,0,0,1,11.034-.166c.581.058.773,1.085,1.3,1.339.727.35,1.79.275,2.347.87a4.854,4.854,0,0,1,1.647,3.066c.139,1.624.418,3.465.4,4.713a6.346,6.346,0,0,1-.791,2.887,36.19,36.19,0,0,1-2.221,3.6c-.473.7-1.318,1.352-1.516,2.152-.2.827,1.931.22,2.368.944.42.7-.359,1.511-.124,2.3.21.7,1.421.768,1.564,1.484.371,1.851-.447,3.808-.13,5.669.1.6,1.047.617,1.139,1.214.112,1.292.071,2.659.082,4.031.01,1.46.067,2.927.048,4.315-.036.523-.721.829-.782,1.349-.163,1.385.313,2.95.006,4.308-.322,1.43-1.472,2.441-1.92,3.834-.389,1.207-.279,2.97-.906,3.726a12.047,12.047,0,0,0-3.145,1.664c-1.194.888-1.957,1.906-2.324,1.939-.466.414-1.453.137-2.031.352-.533.2-.584.646-1.146.574-.444-.058-.305-.426-.652-.719a.644.644,0,0,0-.782,0c-1.17.942-.3.7-1.626.572-1.35-.124-3.977.292-5.621-.045Zm7.563-5.416.912-1.755q-.131-2.9-.26-5.8l.781-1.08V38.665c0-.886-.123-1.772-.123-2.657-.915-.757-.478-.746.261-1.619,0-.855.206-1.545.206-2.4l-.261-2.159q.2-.538.391-1.079c0-1.082.124-1.959.124-3.041,0-1.017.029-1.357.215-1.293a10.359,10.359,0,0,1,1.154,1.133l1.425,1.37c.878.844,1.733.921,1.377,2.3-.332,1.293.624,1.652.327,2.936a7.794,7.794,0,0,0-.459,2.187,2.153,2.153,0,0,0,.6,1.186c.366.42.487.394.269.912a6.586,6.586,0,0,0-.661,1.749c-.044.618.293.9.588,1.994a4.151,4.151,0,0,1,0,2.381l-.8,3.187c-.029.8-.1,1.609-.16,2.413-.086,1.225-.25,1.256-1.1,2.133-.774.795-1.77,1.476-2.517,2.188-.826.315-1.468.344-2.293.659Zm1.994-34.1a4.014,4.014,0,0,0,1.162,0c.206-.085.32-.319.619-.9.387-.751.959-1.689,1.434-1.759a10.816,10.816,0,0,0,1.216-.237s.419-.08.276-1.112-.439-2.022-.179-2.3a1.3,1.3,0,0,0,.039-1.388c-.277-.317-.54-.635-.093-1.07s.754-1.167-.313-1.048-1.054-.344-1.177-.661S87,8.33,86.391,8.3c-.608.119-1.12.08-1.1.714s-.084,3.694-.076,4.011.09,6.029.09,6.029Zm33.756,27.842c-.048.269-.667.272-.619.542.067.377.091.966.471,1.015,1.1.144,2.614-.3,3.707-.093.432.08.455.815.851,1.006.326-.006.826.006,1.238,0,.318-.166.233-.749.542-.929a1.621,1.621,0,0,1,1.316-.154c.222.082-.082.668.154.7,1.928-.074,3.651.138,5.476,0,.365-.06-.007-.581.292-.8.339-.248,1.18.184,1.238-.233.3-2.148-.166-4.547.035-6.707.065-.691.728-1.1.876-1.779.05-.226.321-.23.342-.453a7.62,7.62,0,0,0-.134-2.478,1.637,1.637,0,0,0-1.316-.242c-.294.217-.026.985-.224,1.291-.1.152-.445-.152-.541,0s.028.395.071.589c.026.117.024.215-.071.262-.508.254-1.255-.348-1.7,0s.054,1-.317,1.418c-.6.671-1.894,1.065-2.494,1.738-.714.8-.65,1.619-1.47,2.309a9.241,9.241,0,0,1-2.511.914c-.9.366-1.332,1.042-2.269,1.306-.283.079-.628-.416-.541-.7.7-2.275,1.613-4.562,2.371-6.818.486-1.448.714-2.362,1.239-3.8a22.545,22.545,0,0,1,2.14-4.628c.175-.258.758-.09.852-.387.232-.738-.2-1.575,0-2.321a2.852,2.852,0,0,1,1.213-1.394c.325-.208.844.083.988-.276.335-.839.022-1.726.233-2.6a8.055,8.055,0,0,1,.807-1.506c.343-.73.318-1.365.7-2.079a13.92,13.92,0,0,0,1.144-2.023,9.21,9.21,0,0,0,.129-2.189c.023-.243.377-.376.387-.619.12-2.912.274-5.834.1-8.743-.013-.237-.546-.228-.541-.465.018-.889.126-1.674.077-2.475-.009-.157.045-.286-.112-.292-2.423-.1-4.814-.047-7.239-.018-1.985.022-3.976-.136-5.957,0a1.078,1.078,0,0,0-.774.291,1.513,1.513,0,0,0-.284.947c.053,1.293-.025,2.7,0,4.255,0,.288.573.116.67.387a5.8,5.8,0,0,1,.233,2.4c-.02.257-.332.6-.326.861.124.9.24,1.528.4,2.389.094.332.38.593.465.928.1.4-.266,1.211.146,1.238a2.506,2.506,0,0,0,.859,0c.315-.114-.116-.691,0-1.006.082-.223.5-.23.542-.464.2-1.274-.151-2.767.051-4.042a1.478,1.478,0,0,1,.619-1.005c.285-.177.8.264,1.006,0,.285-.368,0-.79.181-1.22a4.472,4.472,0,0,1,1.161-1.626,2.97,2.97,0,0,1,1.521-.955c1.358-.141,2.983-.014,4.823-.093.173-.007.219.258.232.43a7.626,7.626,0,0,1,0,2.554,9.918,9.918,0,0,1-1.771,2.527,17.508,17.508,0,0,0-1.392,1.642c-.464.684.228,1.616-.009,2.407a8.283,8.283,0,0,1-1.419,2.339c-.421.55-1.041.832-1.435,1.4a9.9,9.9,0,0,0-1.092,2.218,10.5,10.5,0,0,0-.542,2.089c-.091.561.177,1.2-.077,1.7-.186.372-.606.3-.876.619a4.489,4.489,0,0,0-.774,1.548,7.682,7.682,0,0,1-.56,1.631c-.37.67-1.115,1.318-1.452,2.006a11.162,11.162,0,0,0-.594,2.475c-.178.788-.327,1.531-.489,2.322a13.38,13.38,0,0,0-.387,2.94c.006.3.324.508.464.773.118.225.39.456.31.7-.11.329-.725.353-.774.7a1.029,1.029,0,0,0,.3.929c.227.214.689.121.851.387a1.117,1.117,0,0,1,0,1.006c-.119.252-.538.19-.593.464-.222,1.113.051,1.906-.146,3.024Zm67.087,10.966c-.145-.462.218-.552.458-.792a2.485,2.485,0,0,0,.834-1.388,10.429,10.429,0,0,0,.384-1.108,3.282,3.282,0,0,0-.216-1.653c-.219-.52-.58-.791-.449-1.288.045-.317.764-.356,1.329-.608a1.261,1.261,0,0,0,.645-.631c.124-.318-.288-.264-.5-.668-.223-.431-.255-1.077-.428-1.4a5.351,5.351,0,0,1-.871-1.945c-.053-1.694.438-3.406.5-5.037a20.319,20.319,0,0,0,.271-3.093,4.813,4.813,0,0,0-.813-1.918,10.081,10.081,0,0,1-.9-1.731c-.287-.991,0-2.166-.172-3.182-.034-.2-.534-.444-.552-.646-.129-1.395.029-2.825-.061-4.205-.046-.259-.257-.309-.281-.572-.073-.774,0-1.527,0-2.2,0-.59-.083-1.094-.083-1.78,0-.256-.212-.432-.221-.687-.051-1.509.011-3.176-.009-4.688-.021-1.609-.12-3.065.009-4.668.022-.269.569-.263.558-.534-.05-1.228-.157-1.716-.128-2.952,0-.142.294-.473.306-.615a8.28,8.28,0,0,0-.049-2.936c-.189-.637-.667-.836-1.215-1.247-.485-.363-1.025-.953-1.472-1.284a5.282,5.282,0,0,1-1.39-1.4c-.261-.382.17-.415.652-.429a10.6,10.6,0,0,1,1.879.128c.2.031.573.374.762.446.453.177.749-.052,1.213.093a23.835,23.835,0,0,1,2.232,1.111c.543.313.719.769,1.287,1.035.1.048,1.856.55,2.06.6.475.118.769-.229,1.244-.111.552.138,1.533.416,2.152.6.348.105.57.517.926.588,1.733.346,1.423-.232,2.8,1.14.4.4,1.071.729,1.373,1.214a11.508,11.508,0,0,1,.74,2.273,10.712,10.712,0,0,1,.792,1.676c.3,1.66-.013,3.388.191,5.064.062.512.588,1.051.644,1.564a25.587,25.587,0,0,1,.006,5.861c-.081.66-.637.929-.736,1.587-.165,1.1.164,2.234.086,3.347a3.672,3.672,0,0,1-.613,1.545c-.2.332-.672.452-.822.81a16.308,16.308,0,0,0-.477,3.25c-.057,1.948-.018,3.459.066,5.406a22.362,22.362,0,0,1,.025,3.966c-.061.473-.456.731-.527,1.2-.195,1.3-.028,2.638-.154,3.948-.021.223-.351.482-.4.7a15.667,15.667,0,0,1-.693,4.292,5.3,5.3,0,0,1-1.981,2.3,7.986,7.986,0,0,1-2.507.835,7.848,7.848,0,0,0-1.717.343c-.309.161-.1.163-.384.366a.545.545,0,0,1-.6,0c-.218-.178-.15-.252-.4-.372a1.633,1.633,0,0,0-1.288,0c-.285.121-.181.344-.484.4a9.477,9.477,0,0,1-2,.259c-.4-.011-.71.168-.822-.19Zm5.761-44.078a2.474,2.474,0,0,1,1.8.32,3.173,3.173,0,0,1,1.444,1.475l.75.724a8.539,8.539,0,0,1,1.917,3.675c.067,1.412.371,3.888-.334,5.169a4.229,4.229,0,0,0-.551,1.677c-.166,1.52-.6,1.283-1.036,2.433a4.789,4.789,0,0,0-.1,1.441q-.06,3.967-.117,7.935a8.84,8.84,0,0,1-1.026,4.057,3.854,3.854,0,0,0-.61,2.074,5,5,0,0,1-.6,2.38l-.729,1.669c-.289.661-.553.9-.744.809s-.309-.5-.306-1.143q.024-4.842.05-9.686.057-5.15.111-10.3a1.719,1.719,0,0,0-.5-1.447,8.132,8.132,0,0,0-.61-2.672,4.481,4.481,0,0,1-.405-2.4q-.042-3.577-.083-7.157c-.018-1.464.313-.964,1.688-1.037ZM135.642,54.828a10.918,10.918,0,0,1-.01-3.307c.033-.233.5-.016.63-.213a1.224,1.224,0,0,0,.237-1.025c-.075-.2-.209.075-.322-.1a.816.816,0,0,1,.079-.867c.262-.332.787-.247.966-.63.244-.524-.175-1.184,0-1.734.056-.175.509.178.552,0,.2-.843-.05-1.743.078-2.6.034-.224.232-.327.257-.552a9.737,9.737,0,0,0,0-2.837c-.1-.578-.57-.995-.65-1.576a25.253,25.253,0,0,1-.11-6.522,29.1,29.1,0,0,1,1.871-5.713c.385-.96.573-.661.918-1.636a1.5,1.5,0,0,0,.079-.946c-.125-.373-.566-.659-.5-1.049.076-.476.663-.464.819-.921.213-.621-.215-1.35,0-1.971.254-.73,1.126-1.148,1.34-1.89.2-.709-.015-1.841.185-2.55a17,17,0,0,1,1.548-3.6,23.91,23.91,0,0,0,1.41-2.207,14.147,14.147,0,0,0,.4-2.443c-.492-.615-1.622.244-2.363-.024-.377-.136-.375-.751-.748-.9a3.117,3.117,0,0,0-2.128.353c-.762.571-.768,1.24-1.065,2.145-.446,1.35-.106,2.867-.662,4.177-.219.517-1.115.662-1.545,1.024-.228.19-.333.39-.631.39a.574.574,0,0,1-.63-.39,9,9,0,0,1,0-1.813c-.023-.475-.278-.958-.158-1.418.063-.24.612-.147.631-.394.235-2.708-.088-5.4-.047-7.986.015-.909.255-.774,1.15-.783,1.506-.015,3.894,0,5.626-.012,3.037-.016,6.082-.13,9.112-.046.45.032,1.037.2,1.069.65a5.312,5.312,0,0,1-.97,2.6c-.224.429-.722.708-.887,1.162-.28.77.024,1.68-.272,2.444-.18.468-1.1.554-1.274,1.024-.249.665.182,1.467-.079,2.128-.129.328-.829.14-.946.472-.4,1.125-.163,2.4-.472,3.547-.172.636-.653,1.082-.74,1.734-.236,1.771.154,3.58,0,5.359-.033.386-.442.653-.553,1.025-.259.873-.423,1.818-.722,2.679-.13.372-.609.565-.709.946-.148.558.223,1.2,0,1.734-.281.67-1.268.944-1.418,1.655-.427,2.006.247,4.12-.066,6.147-.14.906-.94,1.619-1.1,2.522-.212,1.163.153,2.538-.137,3.683a31.913,31.913,0,0,1-1.484,3.133c-.095,1.047-1.349,2.008-.665,2.8a6.282,6.282,0,0,0,3.153-.158c.44-.2-.071-1.124.315-1.419a22.747,22.747,0,0,1,3.848-1.89,15.7,15.7,0,0,0,2.378-1.262c.343-.261.382-.881.788-1.024.245-.086.3.507.551.551.881.151,1.645-.226,2.509,0,.345.091.334.556.424.9.081.309.222.643.049.911-.1.161-.479-.019-.552.158a1.97,1.97,0,0,0,0,1.182c.072.3.344.483.37.788a24.589,24.589,0,0,1,0,4.807c-.037.335-.228.685-.562.72-2.272-.1-4.375.062-6.651.069-.234-.021-.1-.436-.316-.528a4.422,4.422,0,0,0-2.267-.144c-.725.166-.786.762-1.514.908-1.314.263-2.832,0-4.157.206-.468.071-.826.468-1.286.583-.637.158-1.641.328-1.97-.24Zm-35.1,3.7c-.983.345-2.129,0-3.171.024-.321.006-.844.259-1.152.168-.337-.1-.867-.766-.657-1.047.822-1.1,2.443-1.233,3.194-2.379.441-.673.028-1.58.217-2.364.059-.24.48-.218.6-.432a.565.565,0,0,0,0-.6c-.3-.349-.488.384-.606-.662a13.86,13.86,0,0,1-.042-2.821c.055-.595.488-.47.57-.784.152-.585-.165-1.018-.008-1.6.07-.263.556-.2.691-.432a.793.793,0,0,0,0-.777c-.294-.441-1.093-.434-1.182-.957a16.13,16.13,0,0,1-.06-2.946c.018-1.015-.051-2.034.033-3.069.016-.192.451-.184.518-.364a2.365,2.365,0,0,0,0-1.122c-.038-.3.053-.906.03-1.206-.035-.46-.232-.63-.019-1.038.149-.285.635-.114.68-.432.236-1.681-.268-3.4-.086-5.092.03-.286.481-.24.556-.518a2.038,2.038,0,0,0-.039-1.381c-.093-.2-.534-.2-.551-.417-.194-2.466.143-4.8-.053-7.264-.018-.232-.585.092-.6-.91-.012-1.05-.109-2.03-.094-2.8.011-.592,1.289-.609,1.276-1.2a14.567,14.567,0,0,0-.087-2.848c-.067-.3-.456-.248-.585-.525a.944.944,0,0,1,.1-.784c.134-.319.5-.52.585-.856a4.063,4.063,0,0,0,0-1.9c-.046-.2-.4-.4-.492-.582-.179-.339-.1-.638-.337-.937-.166-.207-.654-.081-.856-.252-.518-.442-.817-.935-1.251-1.338A5.377,5.377,0,0,1,96.4,2.856a1.114,1.114,0,0,1,.36-1.228.9.9,0,0,1,.923,0c.227.121.223.6.477.639,1.112.154,2.216-.335,3.313-.094.479.1.5.709.95.912.3.135.836-.127,1.107.056a8.488,8.488,0,0,1,1.05,1.162c.4.411.752.594.958,1.176a6.265,6.265,0,0,1,.134,2.253c-.01.675.1,1.358.038,2.044-.021.23-.464.121-.525.345a1.572,1.572,0,0,0,.172,1.182c.148.256.549.125.646.4a3.922,3.922,0,0,1,.086,2.124c-.062.25-.544.089-.559.345a60.836,60.836,0,0,0,.086,9.753c.056.55.925.745.983,1.3a62.873,62.873,0,0,1-.1,9.235,3.438,3.438,0,0,1-.413,1.314c-.2.365-.075.729-.068,1.132a12.571,12.571,0,0,0,.027,1.61c.045.3.659.59.638.894a12.9,12.9,0,0,0,.112,2.063c.025.4-.7.647-.93.973a1.063,1.063,0,0,0-.132.942c.128.238.356.117.428.379a1.244,1.244,0,0,1-.075,1.016c-.12.216-.562.189-.6.432-.117.683.27,1.386.173,2.071-.03.2-.488.141-.519.346-.153,1.024.174,2.086,0,3.107-.065.386-.662.559-.69.949-.015.218.5.065.6.259.163.306-.246.939.086,1.035a7.058,7.058,0,0,0,3.584-.052c.63-.165.9-1.049,1.547-1.111.781-.073,1.358.442,2.131.582a7.337,7.337,0,0,0,3.133-.053c.59-.159.933-.785,1.539-.866a58.721,58.721,0,0,1,7.7-.15c2.5-.014,5.7-.14,7.561.063,1.06.036-.089,3.784.293,5.764.083.431.451.672.673,1.071.353.636.49.959-.427.955-1.724-.008-3.468.125-5.338.046-.368-.015-.35-.724-.691-.863-.373-.153-.816.181-1.208.086-.588-.143-1.25-.7-1.85-.777-1.6-.191-3.212.21-4.807-.012-.362-.049-.412-.749-.777-.776-3.73-.273-7.3.119-11.037-.085-.8-.044-.873-.323-1.38-.47a4.655,4.655,0,0,0-2.68.027c-1.261.59-1.256,1.706-2.57,2.167Zm44.9-14.582c-.779-.024-.831-1.275-.769-2.043.063-.784,1.089-.744,1.455-1.441.266-.507-.133-1.4.171-1.886.327-.524,1.214-.505,1.542-1.029.187-.3-.092-.874-.084-1.226.02-.836.208-1.451.17-2.286a8.818,8.818,0,0,1-.118-1.646c.112-.583.46-.441.632-1.01.214-.711-.143-1.52.085-2.227.09-.28.824-.14.772-.429-.065-.351-.706-.162-.77-.514a7.99,7.99,0,0,1,.084-3.38c.181-.656.925-1.158,1.113-1.812.2-.686-.22-1.462,0-2.141.15-.462.911-.559,1.028-1.028.278-1.109.032-2.468.319-3.574a3.716,3.716,0,0,1,.825-1.6,1.593,1.593,0,0,0,.528-.721c.143-.471-.209-.867-.128-1.353.071-.43.4-.7.608-1.088.263-.482.374-1.094.626-1.582a16.288,16.288,0,0,0,1.13-2.068c.2-.565-.227-1.487.026-2.031.358-.77,1.283-.751,1.635-1.523.286-.624-.213-1.439.086-2.057a1.337,1.337,0,0,1,1.208-.667,1.014,1.014,0,0,1,.933.582c.245.673.024,1.482.3,2.142.487,1.161,1.331,1.845,1.8,3.014.244.61-.02,1.487.129,2.127.2.869.346,1.745.633,2.591.357,1.055.867,2.077,1.166,3.148.266.948.329,1.977.534,2.942a15.5,15.5,0,0,0,.666,2.027c.1.29.455.217.538.514.147.525-.293,1.1-.171,1.628.147.635.829,1.278.942,1.92a20.33,20.33,0,0,1,.018,3.093,24.355,24.355,0,0,0,.252,2.786c.078.57.393,1.383.408,1.8.053,1.542.121,3.06.138,4.6.026,2.257.026,4.668-.087,6.92-.013.263-.327.4-.418.643a16.851,16.851,0,0,0-.867,2.422,7.681,7.681,0,0,1-.343,1.542c-.135.294-.738.535-.84.841a9.28,9.28,0,0,0,0,2.219,4.815,4.815,0,0,1-.65,1.836,13.371,13.371,0,0,0-.678,1.677c-.14.527.113,1.1-.042,1.628-.081.273-.455.405-.515.685-.147.7.129,1.46-.085,2.142-.12.384-.2.329-.572.495-.262.118-.947.249-.986-.035-.167-1.193.17-2.02-.019-3.21a36.183,36.183,0,0,0-1.155-3.6c-.171-.664.134-1.862-.181-2.47-.567-1.095-2.382-1.537-2.3-2.767a5.482,5.482,0,0,1,1.513-2.933,12.072,12.072,0,0,0,1.124-2.5,5.09,5.09,0,0,0,.369-1.758,1.79,1.79,0,0,0-.827-1.687,27.511,27.511,0,0,0-5.007-2.824c-.236-.116-.514.336-.514.6s.308.468.339.729c.09.768-.375,1.564-.042,2.261.351.737,1.737.952,1.531,1.741a1.263,1.263,0,0,1-.717.973,1.865,1.865,0,0,1-.892.161,18.1,18.1,0,0,0-2.857-.1,11.914,11.914,0,0,0-2.821,1.135,4.267,4.267,0,0,1-1.917.689Zm8.439-11.978c-.009-.756-.027-1.5-.026-2.243,0-.656.018-1.312.069-1.976.035-.432.429-.761.481-1.191.084-.71-.352-1.562-.154-2.246.081-.277.784,0,.943-.232.052-.076.159-.521.336-.9.107-.228.329-.432.329-.519a16,16,0,0,1,.087-1.811c.055-.453.126-.837.194-.839s.137.372.378.686c.277.359.37.717.613,1.1a1.335,1.335,0,0,0,.531.58c.3.117.661-.048.959.073.224.09.279.441.48.581.136.095.448-.085.479.087.143.777.02,1.818.144,2.6.029.188.443.1.452.29q.095,2.041.09,4.087,0,1.8-.1,3.608c-.017.343-.922.367-1.175.174a3.792,3.792,0,0,0-1.437-.958c-.267-.064-.253-.486-.507-.57a6.2,6.2,0,0,0-1.854-.234,12.426,12.426,0,0,1-1.315.088c-.071-.009,0-.156,0-.233ZM172.069,8.513c0,.782.085,1.631.087,2.45,0,1.056-.072,2-.069,3.064,0,1.133.089,2.384.089,3.492,0,.9-.164,2.63-.095,3.378.089.962.143,1.128,1.457,1.128a3.792,3.792,0,0,0,2.133-1.312c.435-.451.369-1.23.537-1.568a5.48,5.48,0,0,0,.753-1.523c.113-.74-.158-1.351.335-1.824a11.385,11.385,0,0,0,.378-2.778,5,5,0,0,0-1.5-2.539c-.55-.6-1.21-1.147-1.492-1.561a2.4,2.4,0,0,0-1.512-1.229c-1.115-.249-1.1-.146-1.1.822ZM166.179,50.2c-.207.822.425,1.158,1.174,1.642a27.653,27.653,0,0,1,2.428,1.785c1.377,1.128,2.315,3.189,3.212,5.22.462-.491.136-2.779.4-4.15.056-.293.372-.505.4-.8a14.324,14.324,0,0,0,0-3.213c-.049-.4-.432-.685-.535-1.071a2.1,2.1,0,0,1,0-.937c.074-.374.367-.691.4-1.07a14.088,14.088,0,0,0,0-3.347c-.063-.416-.7-.651-.67-1.071.027-.347.778-.322.8-.669a14.963,14.963,0,0,0-.395-2.944c-.277-2.225-.439-4.463-.669-6.694a9.068,9.068,0,0,1-.267-2.409c.419-1.086.8-2.2,1.2-3.079.2-.258.456.247.657.5a7.579,7.579,0,0,1,1.706,2.905c.23,1.276-.462,2.4-.315,3.694.044.376.623.308.756.662a29.093,29.093,0,0,1,1.473,5.221,42.828,42.828,0,0,1,.535,6.157,8.475,8.475,0,0,1-.268,2.676c-.365,1.227-1.127,2.206-1.5,3.391-.4,1.239-.524,1.61.789,1.609a3.706,3.706,0,0,1,1.526.221c1.075.537,1.517,1.776,2.537,2.409.22.137.508.326.812.5,1.446.809,1.6.25,1.907-1.017.4-1.673.5-3.183.754-4.835a22.663,22.663,0,0,0,.141-2.542c.052-1.207.143-2.408.081-3.614a2.583,2.583,0,0,0-.4-1.607c-.277-.319-1.095.008-1.2-.4-.149-.561.659-1.027.669-1.607a35.474,35.474,0,0,1-.449-4.507c-.03-1.818-.42-.9-1.024-1.616a2.229,2.229,0,0,1-.535-1.372c-.167-1.643.071-3.461-.18-5.093a4.072,4.072,0,0,0-.937-2.007c-.175-.2-.5.1-.617-.142-.2-.4.416-.675.182-1.057a8.437,8.437,0,0,0-2.557-2.141c-.26-.173-.716.22-.937,0a1.048,1.048,0,0,1,0-1.124,4.642,4.642,0,0,0,3.092-1.821,11.388,11.388,0,0,0,2.035-3.969c.236-.679-.066-1.473.013-2.188.147-1.323.841-2.524.609-3.835a13.768,13.768,0,0,0-2.356-5.22,6.46,6.46,0,0,0-2.5-2.142c-.81-.384-1.489-.063-2.349-.314-1-.292-1.794-.849-2.811-1.057-.792-.163-1.622.168-2.409-.014-.493-.113-.572-.666-1.071-.743-.345-.053-.7.446-1.044.475-2.4.2-4.371-.262-6.76.054-.356.047-.255.444.041.649.441.306,1.112.155,1.606.368a6.39,6.39,0,0,1,2.222,1.606,9.957,9.957,0,0,1,1.258,2.142c.2.371.785-.342,1.2-.4.53-.075.9-.09,1.232.328.3.376-.32.875-.675,1.2a14.819,14.819,0,0,1-1.838,1.433c-.434.3-1.2.564-1.523,1.144-.715,1.286.133,2.75.408,4.2.1.527.215,1.043.335,1.566.39,1.7.259,3.117.5,4.845.076.559.473,1.046.535,1.606.074.667-.046,1.158.053,1.82a8.747,8.747,0,0,0,.349.857,18.967,18.967,0,0,1,.668,4.03c.137,4.147-.108,8.21.1,12.354.019.378.584.527.663.9a3.733,3.733,0,0,1-.455,1.787c-.792,2.269-1.721,3.965-2.21,5.9Z"/><path class="cls-1" d="M203.069,2.192h-.118v.594h.165a.405.405,0,0,0,.269-.077.276.276,0,0,0,.091-.225.256.256,0,0,0-.1-.222.538.538,0,0,0-.31-.07Zm.12-.491a1.484,1.484,0,0,1,.817.188.622.622,0,0,1,.282.549.668.668,0,0,1-.134.416.75.75,0,0,1-.373.259l.55,1.094h-.861l-.443-.962h-.076v.962h-.79V1.7Zm1.817,1.3a1.833,1.833,0,0,0-.535-1.3,1.839,1.839,0,0,0-.6-.4,1.813,1.813,0,0,0-.706-.137,1.872,1.872,0,0,0-.709.134,1.715,1.715,0,0,0-.585.4,1.887,1.887,0,0,0-.406.607,1.819,1.819,0,0,0-.142.7,1.78,1.78,0,0,0,.14.7,1.891,1.891,0,0,0,1,1,1.823,1.823,0,0,0,1.406,0,1.9,1.9,0,0,0,.609-.409,1.736,1.736,0,0,0,.4-.584,1.835,1.835,0,0,0,.134-.707ZM203.159.69a2.361,2.361,0,0,1,.9.173,2.258,2.258,0,0,1,.753.5,2.287,2.287,0,0,1,.495.748,2.337,2.337,0,0,1,.173.894,2.307,2.307,0,0,1-.17.889,2.165,2.165,0,0,1-.5.732,2.5,2.5,0,0,1-.769.513,2.27,2.27,0,0,1-1.76,0,2.359,2.359,0,0,1-.75-.511,2.3,2.3,0,0,1-.509-.75,2.271,2.271,0,0,1-.176-.878,2.318,2.318,0,0,1,.177-.891,2.383,2.383,0,0,1,.514-.763,2.143,2.143,0,0,1,.733-.494,2.323,2.323,0,0,1,.887-.17Z"/></svg>