<svg id="Layer_1" data-name="Layer 1" xmlns="http://www.w3.org/2000/svg" viewBox="0 0 280 70"><defs><style>.cls-1{fill:#fff;}</style></defs><title>280-</title><path class="cls-1" d="M263.165,12.16A1.5,1.5,0,0,1,264.8,13.8V56.235a1.473,1.473,0,0,1-1.638,1.605H16.835A1.5,1.5,0,0,1,15.2,56.2V13.8a1.5,1.5,0,0,1,1.638-1.639h246.33m.035-2.685H16.8A4.047,4.047,0,0,0,12.512,13.8V56.235a4.02,4.02,0,0,0,4.288,4.29H263.2a4.02,4.02,0,0,0,4.288-4.29V13.765a4.02,4.02,0,0,0-4.288-4.29Z"/><path class="cls-1" d="M249.928,26.885V50.191H237.87V26.885h-7.276V19.679h26.629v7.206ZM228.061,50.191V19.679H216.425V30.843h-6.318V19.679H198.477V50.191h11.631V38.4h6.318V50.191Zm-45.684.967a32.6,32.6,0,0,0,12.752-2.442V32.8H181.063v6.1h3.647v5.154a9.227,9.227,0,0,1-1.764.158c-4.556,0-6.041-3.661-6.041-9.218,0-5.882,2.44-8.386,6.166-8.386a10.627,10.627,0,0,1,7.193,2.931l5.266-6.071c-3.456-3.046-7.569-4.628-13.317-4.628C172.064,18.842,165,24.686,165,35,165,46.1,171.482,51.158,182.377,51.158Zm-32.319-.967H162.2V19.679H150.058Zm-2.476,0V42.615h-9.8l0-22.936H125.824V50.191ZM256.141,47.67a.674.674,0,0,0-.279-.611,1.259,1.259,0,0,0-.64-.117h-1.137v2.364h.461v-1h.462l.519,1h.541l-.572-1C255.913,48.275,256.141,48.1,256.141,47.67Zm-1.6.284v-.662h.573c.227,0,.562,0,.562.3s-.185.363-.445.358Zm.492-2.022a2.184,2.184,0,1,0,2.176,2.177A2.185,2.185,0,0,0,255.038,45.932Zm0,3.957a1.773,1.773,0,1,1,1.766-1.78A1.775,1.775,0,0,1,255.038,49.889Zm-186.519.756c9.617,0,14.243-3.357,14.243-11.606V19.673H71.473V40.23a3.038,3.038,0,1,1-6.074,0V19.673H53.827V39.039C53.827,46.747,58.324,50.645,68.519,50.645Zm32.884-.458c7.991,0,15.537-4.508,15.537-15.529,0-10.728-6.738-14.985-14.932-14.985H86.238V50.187H101.4m-2.385-23.84c2.2,0,6,.335,6,8.3,0,8.119-3.332,8.748-5.945,8.749h-1.2V26.348h1.146M41.435,50.187C47,50.187,51.6,47.429,51.6,41.044a7.717,7.717,0,0,0-5.268-7.339c2.806-1.287,4.416-3.47,4.416-6.334,0-4.981-3.674-7.7-9.361-7.7H22.777V50.187H41.435m-3.987-24.24c1.559,0,2.722.874,2.722,2.95,0,2.44-1.144,3.2-2.778,3.2H34.065V25.947h3.383m.325,11.26c1.461,0,2.895.69,2.895,3.24,0,2.716-1.36,3.359-2.895,3.359H34.065v-6.6h3.708"/></svg>