<svg id="Layer_1" data-name="Layer 1" xmlns="http://www.w3.org/2000/svg" viewBox="0 0 280 70"><defs><style>.cls-1{fill:#fff;fill-rule:evenodd;}</style></defs><title>logo-</title><path class="cls-1" d="M88.193,40.915v2.763a22.421,22.421,0,0,0,3.9,12.157c2.229,3.34,5.2,5.315,8.6,7.46a42.2,42.2,0,0,0,11.767,4.293,72.038,72.038,0,0,0,14.5,1.561h2.676c16.685,0,33.639-4.844,44.553-10.621V50.672a62.161,62.161,0,0,1-10,4.679c-.724.223-1.866.719-2.625,1-.936.345-1.852.572-2.778.935a47.45,47.45,0,0,1-5.717,1.624c-1.986.425-3.875.964-5.957,1.382-2.145.429-4.058.66-6.286,1.052-2.062.362-4.5.487-6.7.638-2.3.159-4.681.259-7.166.259h-.518c-8.848,0-17.29-1.391-23.2-4.346-5.682-2.842-10.994-8.11-10.994-16.549v-.777a25.353,25.353,0,0,1,2.365-9.9,24.6,24.6,0,0,1,2.176-3.955c.452-.677.819-1.17,1.294-1.814.424-.575,1.085-1.2,1.417-1.691V20.451A29.6,29.6,0,0,0,95.513,24.4a32.443,32.443,0,0,0-3.4,4.544c-1.621,2.41-3.92,8.018-3.92,11.968Z"/><path class="cls-1" d="M191.807,25.977v-2.5c-.03-.046-.4-2.8-.467-3.16a15.977,15.977,0,0,0-.8-2.825,18.664,18.664,0,0,0-2.594-4.745,24.309,24.309,0,0,0-7.938-6.655C174.11,2.827,165.135.851,155.973.851H155.2a87.643,87.643,0,0,0-24.66,3.661c-1.951.552-3.539,1.122-5.356,1.724a45.5,45.5,0,0,0-5.071,2.01c-1.614.8-3.224,1.492-4.8,2.275-.837.415-4.052,2.383-4.576,2.5V15.1c.712-.167,3.336-1.616,4.345-2.044,1.4-.6,3.156-1.479,4.566-1.911.638-.2,1.695-.6,2.328-.866.771-.328,1.575-.528,2.392-.8,1.559-.522,3.3-1.111,4.951-1.525,3.552-.89,6.682-1.614,10.567-2.3A74,74,0,0,1,151.57,4.477h3.885c7.566,0,15.755,1.738,20.608,4.434a20.764,20.764,0,0,1,6.952,5.567,16.686,16.686,0,0,1,3.437,9.168v1.467a17.667,17.667,0,0,1-3.418,9.534A22.634,22.634,0,0,1,180,38.088a22.071,22.071,0,0,1-3.822,2.74v5.7c1.219-.1,4.88-2.459,5.822-3.159a24.287,24.287,0,0,0,4.612-4.455,25.456,25.456,0,0,0,3.411-5.654,24.485,24.485,0,0,0,1.144-3.347c.145-.486.629-3.919.641-3.935Z"/><path class="cls-1" d="M145.267,35.561V36.6c0,5.937,3.643,10.275,9.584,10.275h1.122a10.434,10.434,0,0,0,4.371-.983c1.4-.6,2.114-1.61,3.164-2.32L160.119,40.4a5.628,5.628,0,0,1-4.232,1.986h-.95a4.35,4.35,0,0,1-4.316-4.059v-.6H164.09V35.388a12.124,12.124,0,0,0-2.182-6.97,8.129,8.129,0,0,0-6.021-3.218h-1.641a9.37,9.37,0,0,0-6.5,3.172,11.477,11.477,0,0,0-2.48,7.189Zm5.354-2.072v.6h8.115v-.431a3.892,3.892,0,0,0-3.8-4.058h-.432a4.138,4.138,0,0,0-3.884,3.885Z"/><path class="cls-1" d="M113.405,46.527h5.267V29.863h4.749a1.858,1.858,0,0,1,1.9,1.813V46.527h5.353V31.762c0-3.5-2.384-6.217-5.871-6.217h-11.4V46.527Z"/><path class="cls-1" d="M134.56,40.31c0,3.546,2.305,6.217,5.785,6.217h3.627v-4.49h-2.677c-.793,0-1.381-.917-1.381-1.727V29.863h4.058V25.545h-4.058V19.76H134.56V40.31Z"/><path class="cls-1" d="M167.2,41.433a5.22,5.22,0,0,0,1.618,3.477,5.1,5.1,0,0,0,1.627.963,11.752,11.752,0,0,0,2.108.481V16.824H167.2V41.433Z"/><path class="cls-1" d="M103.2,30.466l.021,10.449c0,3.539,2.075,5.8,5.439,5.871V25.545h-5.333l-.127,4.92Z"/><polygon class="cls-1" points="103.304 22.61 108.656 22.61 108.656 17.515 103.304 17.515 103.304 22.61 103.304 22.61"/><path class="cls-1" d="M178.327,16.8a2.194,2.194,0,0,1,1.054.277,1.955,1.955,0,0,1,.8.793,2.158,2.158,0,0,1,0,2.14,1.991,1.991,0,0,1-.792.794,2.158,2.158,0,0,1-2.133,0,2,2,0,0,1-.794-.794,2.138,2.138,0,0,1,0-2.14,1.963,1.963,0,0,1,.8-.793,2.194,2.194,0,0,1,1.054-.277Zm0,.355a1.827,1.827,0,0,0-.879.231,1.68,1.68,0,0,0-.67.662,1.784,1.784,0,0,0,0,1.784,1.7,1.7,0,0,0,.663.662,1.781,1.781,0,0,0,1.779,0,1.664,1.664,0,0,0,.661-.662,1.794,1.794,0,0,0,0-1.784,1.655,1.655,0,0,0-.67-.662,1.823,1.823,0,0,0-.877-.231Zm-.94,2.973v-2.3h.792a1.942,1.942,0,0,1,.589.063.566.566,0,0,1,.289.223.594.594,0,0,1,.108.338.616.616,0,0,1-.18.441.714.714,0,0,1-.479.21.62.62,0,0,1,.2.122,2.578,2.578,0,0,1,.341.458l.281.45h-.455l-.2-.363a1.843,1.843,0,0,0-.389-.536.472.472,0,0,0-.3-.08h-.218v.979Zm.373-1.3h.451a.734.734,0,0,0,.442-.1.329.329,0,0,0,.06-.439.335.335,0,0,0-.157-.12,1.156,1.156,0,0,0-.373-.04h-.423v.7Z"/></svg>