<?xml version="1.0" encoding="utf-8"?>
<!-- Generator: Adobe Illustrator 23.0.4, SVG Export Plug-In . SVG Version: 6.00 Build 0)  -->
<svg version="1.1" id="Layer_1" xmlns="http://www.w3.org/2000/svg" xmlns:xlink="http://www.w3.org/1999/xlink" x="0px" y="0px"
	 viewBox="0 0 280 70" style="enable-background:new 0 0 280 70;" xml:space="preserve">
<style type="text/css">
	.st0{fill:#293376;}
</style>
<title>280-</title>
<rect id="_Path_" x="190.8" y="30.6" class="st0" width="8.9" height="4.7"/>
<rect id="_Path_2" x="158.3" y="30.6" class="st0" width="8.9" height="4.7"/>
<path class="st0" d="M51.9,20.8H37.7c-4.5,0-5.9,1.2-5.9,5.9v13.1c0,4.7,1.4,5.9,5.9,5.9h4.5v3.4h5.2v-3.4h4.5
	c4.5,0,5.9-1.2,5.9-5.9V26.7C57.8,22,56.4,20.8,51.9,20.8z M52.3,41.1h-4.9v-2.7h-5.2v2.7h-4.9v-16h15L52.3,41.1z"/>
<path id="_Path_3" class="st0" d="M80.8,41.1H67.7V20.8h-5.5v19c0,4.7,1.4,5.9,5.9,5.9h12.4c4.5,0,5.9-1.2,5.9-5.9v-19h-5.5V41.1z"
	/>
<path class="st0" d="M100.3,20.8L87.7,45.7h5.2l2.6-5.5h14.2l2.7,5.5h5.8l-12.8-24.9H100.3z M97.7,35.8l5-10.1l4.8,10.1H97.7z"/>
<path class="st0" d="M138.2,36.3c3.6,0,5.3-1.4,5.3-4.8v-5.8c0-3.5-1.7-4.8-5.3-4.8h-17.7v24.9h5.4v-9.4h3.7l8.6,9.4h7.5l-9.5-9.4
	H138.2z M125.9,32.1v-7h9.8c1.7,0,2.5,0.3,2.5,2v3c0,1.6-0.8,2-2.5,2H125.9z"/>
<polygon id="_Path_4" class="st0" points="186.3,25.1 201.8,25.1 201.8,20.8 180.7,20.8 180.7,45.7 202,45.7 202,41.1 186.3,41.1 
	"/>
<path id="_Path_5" class="st0" d="M224.5,33.9c0,0.8,0.1,2.2,0.2,4.3c-0.8-1-14.9-17.4-14.9-17.4h-3.8v24.9h5V32.3c0-0.7,0-2-0.2-4
	c0.6,0.8,14.9,17.4,14.9,17.4h3.8V20.8h-5V33.9z"/>
<rect id="_Path_6" x="234" y="20.8" class="st0" width="5.5" height="24.9"/>
<polygon id="_Path_7" class="st0" points="259.7,32.3 269.5,20.8 263.5,20.8 256.6,29.3 249.4,20.8 242.5,20.8 253.3,33 242.6,45.7 
	248.8,45.7 256.5,36.1 264.7,45.7 271.8,45.7 "/>
<polygon id="_Path_8" class="st0" points="153.7,25.1 169.3,25.1 169.3,20.8 148.2,20.8 148.2,45.7 169.5,45.7 169.5,41.1 
	153.7,41.1 "/>
<path id="_Path_9" class="st0" d="M1.2,41.1c0,3.7,1.8,4.7,5.9,4.7h14.8c4.5,0,5.9-1.2,5.9-5.9v-3.4c0-4.7-1.5-5.9-5.9-5.9H7.1v-5.4
	h15.5v2.3h4.9v-1.1c0-4.3-1.7-5.5-5.9-5.5H8.1c-4.5,0-5.9,1.2-5.9,5.9v2.8c0,4.7,1.4,5.9,5.9,5.9H23v5.7L1.2,41.1z"/>
<path class="st0" d="M274.3,40.8h1.2c0.4,0,0.8,0.1,0.8,0.7c0,0.5-0.3,0.7-0.7,0.7h-1.3L274.3,40.8z M273.5,44.5h0.8v-1.8h1.1
	c0.7,0,0.9,0.4,0.9,1.2c0,0.2,0,0.4,0.1,0.6h0.8c-0.2-0.4-0.3-0.8-0.2-1.2c0-0.7-0.4-0.9-0.6-0.9v0c0.5-0.2,0.8-0.6,0.7-1.1
	c0-0.7-0.5-1.2-1.4-1.2h-2.1L273.5,44.5z"/>
<path class="st0" d="M271.8,42.3c0,1.9,1.5,3.5,3.5,3.5c1.9,0,3.5-1.5,3.5-3.5s-1.5-3.5-3.5-3.5c0,0,0,0,0,0
	C273.4,38.9,271.8,40.4,271.8,42.3z M272.4,42.3c0-1.6,1.3-2.9,2.9-2.9c1.6,0,2.9,1.3,2.9,2.9s-1.3,2.9-2.9,2.9
	C273.7,45.3,272.4,44,272.4,42.3L272.4,42.3z"/>
</svg>
