<svg id="Layer_1" data-name="Layer 1" xmlns="http://www.w3.org/2000/svg" viewBox="0 0 280 70"><defs><style>.cls-1{fill:#fff;}</style></defs><title>280-</title><rect id="_Path_" data-name="&lt;Path&gt;" class="cls-1" x="190.82" y="30.64" width="8.936" height="4.676"/><rect id="_Path_2" data-name="&lt;Path&gt;" class="cls-1" x="158.308" y="30.64" width="8.936" height="4.676"/><path class="cls-1" d="M51.9,20.842H37.652c-4.46,0-5.885,1.206-5.885,5.889V39.86c0,4.683,1.425,5.889,5.885,5.889h4.506v3.409H47.4V45.749h4.5c4.459,0,5.884-1.206,5.884-5.889V26.731C57.782,22.048,56.357,20.842,51.9,20.842Zm.368,20.224H47.4V38.4H42.158v2.671H37.284V25.116H52.266Z"/><path id="_Path_3" data-name="&lt;Path&gt;" class="cls-1" d="M80.8,41.066H67.659V20.842H62.142V39.86c0,4.683,1.425,5.889,5.884,5.889H80.434c4.459,0,5.884-1.206,5.884-5.889V20.842H80.8Z"/><path class="cls-1" d="M100.341,20.842,87.7,45.749H92.9l2.6-5.455h14.154l2.684,5.455h5.843L105.362,20.842ZM97.7,35.805l4.977-10.136,4.8,10.136Z"/><path class="cls-1" d="M138.176,36.336c3.631,0,5.332-1.351,5.332-4.827v-5.84c0-3.475-1.7-4.827-5.332-4.827H120.435V45.749h5.425V36.336h3.662l8.562,9.413h7.48l-9.515-9.413ZM125.86,32.088v-6.95h9.834c1.7,0,2.482.337,2.482,1.979V30.11c0,1.641-.782,1.978-2.482,1.978Z"/><polygon id="_Path_4" data-name="&lt;Path&gt;" class="cls-1" points="186.26 25.09 201.793 25.09 201.793 20.842 180.743 20.842 180.743 45.749 202.023 45.749 202.023 41.066 186.26 41.066 186.26 25.09"/><path id="_Path_5" data-name="&lt;Path&gt;" class="cls-1" d="M224.512,33.923c0,.772.092,2.22.229,4.3-.827-1.014-14.887-17.377-14.887-17.377h-3.77V45.749h4.965V32.282c0-.724-.046-2.028-.229-3.958.643.771,14.887,17.425,14.887,17.425h3.77V20.842h-4.965Z"/><rect id="_Path_6" data-name="&lt;Path&gt;" class="cls-1" x="234.041" y="20.842" width="5.517" height="24.907"/><polygon id="_Path_7" data-name="&lt;Path&gt;" class="cls-1" points="259.687 32.282 269.524 20.842 263.491 20.842 256.627 29.289 249.413 20.842 242.462 20.842 253.348 32.957 242.636 45.749 248.845 45.749 256.452 36.095 264.715 45.749 271.841 45.749 259.687 32.282"/><polygon id="_Path_8" data-name="&lt;Path&gt;" class="cls-1" points="153.747 25.09 169.281 25.09 169.281 20.842 148.231 20.842 148.231 45.749 169.51 45.749 169.51 41.066 153.747 41.066 153.747 25.09"/><path id="_Path_9" data-name="&lt;Path&gt;" class="cls-1" d="M1.226,41.066c0,3.663,1.824,4.683,5.874,4.683H21.9c4.459,0,5.931-1.206,5.931-5.889V36.433c0-4.682-1.472-5.889-5.931-5.889H7.093V25.119H22.631v2.29l4.873,0V26.3c0-4.3-1.655-5.454-5.884-5.454H8.15c-4.459,0-5.884,1.206-5.884,5.889v2.751c0,4.682,1.425,5.889,5.884,5.889h14.8v5.7Z"/><path class="cls-1" d="M274.255,40.752H275.5c.4,0,.759.111.759.668,0,.459-.263.7-.747.7h-1.255Zm-.766,3.748h.766V42.7h1.126c.7,0,.87.355.87,1.157a1.222,1.222,0,0,0,.116.643h.821a1.982,1.982,0,0,1-.239-1.151c0-.691-.386-.888-.649-.924v-.012a1.064,1.064,0,0,0,.722-1.1c0-.74-.489-1.181-1.445-1.181h-2.088Z"/><path class="cls-1" d="M271.843,42.344a3.466,3.466,0,1,0,3.466-3.464A3.47,3.47,0,0,0,271.843,42.344Zm.551,0a2.915,2.915,0,1,1,2.915,2.915A2.919,2.919,0,0,1,272.394,42.344Z"/></svg>