<svg id="Layer_1" xmlns="http://www.w3.org/2000/svg" viewBox="0 0 831.5 882.7"><style>.st0{fill:#fff}</style><path class="st0" d="M594.1 519H297v116.2h178.6c-30.8 98.6-135.7 153.5-234.3 122.7-56.8-17.7-101.7-61.4-121.1-117.7H0c28.1 138.4 150.4 242.5 297 242.5 167.4 0 303.1-135.7 303.1-303.1 0-20.3-2-40.6-6-60.6z" id="G-Bottom"/><path class="st0" d="M511.4 365.3l-82.2 82.2c-73-73-191.3-73-264.3 0-20.2 20.1-35.4 44.6-44.7 71.6H0c28.1-138.3 150.4-242.5 297-242.5 80.4-.2 157.6 31.7 214.4 88.7z" id="G-Top"/><path class="st0" d="M668.5 80.6c-11.1-11.8-26.2-18.9-42.3-19.9L654.8 11l6.3-11H373.8c-43.7.2-79.1 37.1-79 80.8l.7 171c3.8-.3 7.7-.4 11.6-.4 4.1 0 8.2.2 12.2.5l-.7-171.2c-.1-30.6 24.7-55.6 55.3-55.7l231.4-1v.1l-36.7 63.4c-.5.8-1.1 2-2 3.8s-1.6 3-1.9 3.7c-4.7 9-7.1 19-7.1 29.2.1 20.2 8.5 37.1 25.4 50.4 8.7 6.9 19.2 11.2 30.3 12.3 21.4 2.2 39.5-3.9 54.1-18.3 12.6-12.4 18.8-27.4 18.8-44.9-.2-16.6-6-31-17.7-43.1zm-19 46.2c-.5 5.1-2.5 10-5.8 13.9-5.7 6.8-12.9 10.3-21.6 10.3-7.3.2-14.3-2.6-19.5-7.8-5.3-5.3-8.3-12.4-8.2-19.9 0-7 2.9-13.7 7.9-18.6 5.1-5.2 12.1-8.2 19.5-8.1l.1-.1c7.3-.1 14.4 2.7 19.5 7.9 6.2 6 8.9 13.5 8.1 22.4zm181.4-85.5h-38.8v70.5h-39.3L792.9.1l-39-.1-56.1 148.3 94.4-.3v39.5H806v280.8c-3.6 27.1-25.5 48.1-53.5 48.2l-129.5.3c1 7.8 1.7 15.8 2.1 23.8l127.5-.4c43.8-.2 79.1-35.8 79-79.5l-.7-419.4z" id="_64"/></svg>