<svg xmlns="http://www.w3.org/2000/svg" viewBox="0 0 831.54 882.73"><defs><style>.cls-1{fill:#293376}.cls-2{fill:#4f69af}</style></defs><g id="Layer_2" data-name="Layer 2"><path class="cls-1" d="M594.08 519H297v116.2h178.56a187 187 0 0 1-355.33 5H0c28.09 138.39 150.4 242.53 297 242.53 167.41 0 303.12-135.71 303.12-303.12a304.22 304.22 0 0 0-6.04-60.61z" id="G-Bottom"/><path class="cls-1" d="M511.38 365.28l-82.17 82.16a186.91 186.91 0 0 0-309 71.55H0C28.09 380.64 150.4 276.5 297 276.5a302.21 302.21 0 0 1 214.38 88.78z" id="G-Top"/><g id="_64" data-name="64"><path class="cls-2" d="M668.5 80.6a63.21 63.21 0 0 0-42.35-19.89l28.56-49.65L661.12 0h-287.3c-43.7.15-79.13 37.09-79 80.79l.73 171.05c3.83-.27 7.67-.45 11.56-.45 4.12 0 8.18.2 12.21.5l-.71-171.19A55.55 55.55 0 0 1 373.9 25l231.38-1v.13l-36.69 63.35c-.45.79-1.13 2-2 3.83s-1.59 3-1.93 3.73a62.39 62.39 0 0 0-7.08 29.18c.07 20.22 8.53 37.09 25.4 50.43A58.79 58.79 0 0 0 613.24 187q32.16 3.35 54.08-18.28c12.61-12.44 18.82-27.43 18.76-44.89Q686 98.79 668.5 80.6zm-19 46.18a25.4 25.4 0 0 1-5.79 13.9C638 147.5 630.79 151 622.13 151a26.66 26.66 0 0 1-19.5-7.8 27.49 27.49 0 0 1-8.16-19.91 25.91 25.91 0 0 1 7.91-18.61 26.69 26.69 0 0 1 19.45-8.07l.12-.12a26.81 26.81 0 0 1 19.51 7.94c6.1 6.01 8.82 13.46 8.02 22.35zM830.9 41.34h-38.76v70.47H752.8L792.86.08l-39-.08-56.09 148.26 94.37-.33v39.46H806v280.75c-3.57 27.07-25.45 48.1-53.51 48.19l-129.49.43c1 7.84 1.7 15.75 2.06 23.76l127.51-.42a79.33 79.33 0 0 0 79-79.52z"/></g></g></svg>