<?xml version="1.0" encoding="utf-8"?>
<!-- Generator: Adobe Illustrator 23.0.4, SVG Export Plug-In . SVG Version: 6.00 Build 0)  -->
<svg version="1.1" id="Layer_1" xmlns="http://www.w3.org/2000/svg" xmlns:xlink="http://www.w3.org/1999/xlink" x="0px" y="0px"
	 viewBox="0 0 134 149.2" style="enable-background:new 0 0 134 149.2;" xml:space="preserve">
<style type="text/css">
	.st0{fill:#FFFFFF;}
</style>
<g>
	<path class="st0" d="M126.9,51.5c-0.2,0-0.5-0.1-0.6-0.3c-0.2-0.3-0.1-0.7,0.3-0.9l4.2-2.4c0.3-0.2,0.7-0.1,0.9,0.3
		c0.2,0.3,0.1,0.7-0.3,0.9l-4.2,2.4C127.1,51.5,127,51.5,126.9,51.5z M133.3,58.3c0.1-0.4-0.1-0.7-0.5-0.8l-5.2-1.4
		c-0.4-0.1-0.7,0.1-0.8,0.5c-0.1,0.4,0.1,0.7,0.5,0.8l5.2,1.4c0.1,0,0.1,0,0.2,0C132.9,58.8,133.2,58.6,133.3,58.3z M122.6,46.9
		l1.3-4.2c0.1-0.4-0.1-0.7-0.4-0.8c-0.4-0.1-0.7,0.1-0.8,0.4l-1.3,4.2c-0.1,0.4,0.1,0.7,0.4,0.8c0.1,0,0.1,0,0.2,0
		C122.3,47.4,122.5,47.2,122.6,46.9z"/>
	<g>
		<path class="st0" d="M1.4,103.3c-0.3,0-0.5-0.2-0.6-0.5c-0.1-0.4,0.1-0.7,0.4-0.9l4.6-1.6c0.4-0.1,0.7,0.1,0.9,0.4
			c0.1,0.4-0.1,0.7-0.4,0.9l-4.6,1.6C1.5,103.3,1.4,103.3,1.4,103.3z"/>
		<path class="st0" d="M6.5,95.9c-0.1,0-0.2,0-0.3-0.1l-4.8-2.3C1,93.4,0.9,93,1.1,92.6c0.2-0.3,0.6-0.5,0.9-0.3l4.8,2.3
			c0.3,0.2,0.5,0.6,0.3,0.9C7,95.8,6.8,95.9,6.5,95.9z"/>
		<path class="st0" d="M7.9,110.6c-0.1,0-0.2,0-0.3-0.1c-0.3-0.2-0.4-0.6-0.3-0.9l2.1-3.9c0.2-0.3,0.6-0.4,0.9-0.3
			c0.3,0.2,0.4,0.6,0.3,0.9l-2.1,3.9C8.4,110.5,8.1,110.6,7.9,110.6z"/>
	</g>
	<path class="st0" d="M103.1,47.8c-0.2,0-0.3-0.1-0.5-0.2c-8.4-8.4-19.5-13-31.3-13c-0.4,0-0.7-0.3-0.7-0.7c0-0.4,0.3-0.7,0.7-0.7
		c12.2,0,23.6,4.7,32.3,13.4c0.3,0.3,0.3,0.7,0,1C103.5,47.8,103.3,47.8,103.1,47.8z"/>
	<path class="st0" d="M96.9,65.5c0,9.3,0,18.6,0,27.9c0,1.4,2.3,1.5,2.3,0c0-9.3,0-18.6,0-27.9C99.1,64.1,96.9,64.1,96.9,65.5
		L96.9,65.5z"/>
	<g>
		<path class="st0" d="M101.4,38.5c0.7,0.5,1.4,1.1,2.1,1.6c0.2,0.2,0.5,0.2,0.7,0.2c0.3,0,0.7-0.1,0.9-0.4c0.4-0.5,0.3-1.2-0.2-1.6
			c-0.7-0.6-1.4-1.1-2.2-1.7c-0.5-0.4-1.2-0.3-1.6,0.3C100.7,37.4,100.9,38.1,101.4,38.5z"/>
		<path class="st0" d="M95.4,34.7c0.8,0.4,1.5,0.9,2.3,1.3c0.2,0.1,0.4,0.2,0.6,0.2c0.4,0,0.8-0.2,1-0.5c0.3-0.5,0.2-1.2-0.4-1.5
			c-0.8-0.5-1.6-0.9-2.4-1.4c-0.5-0.3-1.2-0.1-1.5,0.5C94.6,33.8,94.8,34.4,95.4,34.7z"/>
		<path class="st0" d="M108.7,44.8c0.2,0.2,0.5,0.3,0.8,0.3c0.3,0,0.6-0.1,0.8-0.3c0.4-0.4,0.5-1.1,0-1.6c-0.6-0.7-1.3-1.3-2-1.9
			c-0.5-0.4-1.2-0.4-1.6,0c-0.4,0.5-0.4,1.2,0,1.6C107.4,43.6,108.1,44.2,108.7,44.8z"/>
		<path class="st0" d="M114.5,113.9c-0.5,0.7-1,1.4-1.5,2.1c-0.4,0.5-0.3,1.2,0.2,1.6c0.2,0.2,0.4,0.2,0.7,0.2
			c0.3,0,0.7-0.2,0.9-0.4c0.6-0.7,1.1-1.5,1.6-2.2c0.4-0.5,0.2-1.2-0.3-1.6C115.6,113.2,114.9,113.4,114.5,113.9z"/>
		<path class="st0" d="M113.2,50.2c0.2,0.3,0.6,0.5,0.9,0.5c0.2,0,0.5-0.1,0.7-0.2c0.5-0.4,0.6-1.1,0.2-1.6
			c-0.5-0.7-1.1-1.5-1.7-2.2c-0.4-0.5-1.1-0.5-1.6-0.2c-0.5,0.4-0.5,1.1-0.2,1.6C112.2,48.8,112.7,49.5,113.2,50.2z"/>
		<path class="st0" d="M89,31.8c0.8,0.3,1.6,0.7,2.4,1c0.1,0.1,0.3,0.1,0.5,0.1c0.4,0,0.8-0.2,1-0.7c0.3-0.6,0-1.2-0.6-1.5
			c-0.8-0.4-1.7-0.7-2.5-1.1c-0.6-0.2-1.2,0.1-1.5,0.6C88.1,30.9,88.4,31.6,89,31.8z"/>
		<path class="st0" d="M75.3,28.4c0.9,0.1,1.8,0.2,2.6,0.4c0.1,0,0.1,0,0.2,0c0.5,0,1-0.4,1.1-0.9c0.1-0.6-0.3-1.2-0.9-1.3
			c-0.9-0.1-1.8-0.3-2.7-0.4c-0.6-0.1-1.2,0.4-1.2,1C74.3,27.8,74.7,28.4,75.3,28.4z"/>
		<path class="st0" d="M82.3,29.7c0.9,0.2,1.7,0.4,2.6,0.7c0.1,0,0.2,0,0.3,0c0.5,0,0.9-0.3,1.1-0.8c0.2-0.6-0.2-1.2-0.8-1.4
			c-0.9-0.3-1.8-0.5-2.7-0.7c-0.6-0.1-1.2,0.2-1.4,0.8C81.3,28.9,81.7,29.5,82.3,29.7z"/>
		<path class="st0" d="M121.6,66.7c0.3,0.8,0.5,1.7,0.7,2.5c0.1,0.5,0.6,0.8,1.1,0.8c0.1,0,0.2,0,0.3,0c0.6-0.2,1-0.8,0.8-1.4
			c-0.2-0.9-0.5-1.8-0.8-2.7c-0.2-0.6-0.8-0.9-1.4-0.7C121.8,65.4,121.4,66.1,121.6,66.7z"/>
		<path class="st0" d="M124.4,97.7c0.2-0.9,0.5-1.8,0.6-2.7c0.1-0.6-0.3-1.2-0.9-1.3c-0.6-0.1-1.2,0.3-1.3,0.9
			c-0.2,0.9-0.4,1.7-0.6,2.6c-0.2,0.6,0.2,1.2,0.8,1.4c0.1,0,0.2,0,0.3,0C123.8,98.6,124.3,98.2,124.4,97.7z"/>
		<path class="st0" d="M117.1,56.1c0.2,0.4,0.6,0.6,1,0.6c0.2,0,0.4,0,0.6-0.1c0.5-0.3,0.7-1,0.4-1.5c-0.4-0.8-0.9-1.6-1.4-2.4
			c-0.3-0.5-1-0.7-1.6-0.4c-0.5,0.3-0.7,1-0.4,1.6C116.2,54.6,116.7,55.4,117.1,56.1z"/>
		<path class="st0" d="M125.8,90.5c0.1-0.9,0.2-1.8,0.3-2.7c0.1-0.6-0.4-1.2-1-1.2c-0.6-0.1-1.2,0.4-1.2,1c-0.1,0.9-0.2,1.8-0.3,2.6
			c-0.1,0.6,0.4,1.2,1,1.3c0.1,0,0.1,0,0.1,0C125.3,91.5,125.8,91.1,125.8,90.5z"/>
		<path class="st0" d="M124,80.5c0,0.8,0.1,1.6,0.1,2.4v0.2c0,0.6,0.5,1.1,1.1,1.1c0,0,0,0,0,0c0.6,0,1.1-0.5,1.1-1.1V83
			c0-0.8,0-1.7-0.1-2.5c0-0.6-0.6-1.1-1.2-1.1C124.5,79.4,124,79.9,124,80.5z"/>
		<path class="st0" d="M121,105.4c0.4,0,0.9-0.3,1-0.7c0.3-0.8,0.7-1.7,1-2.6c0.2-0.6-0.1-1.2-0.7-1.4c-0.6-0.2-1.2,0.1-1.4,0.7
			c-0.3,0.8-0.6,1.7-0.9,2.5c-0.2,0.6,0,1.2,0.6,1.5C120.7,105.3,120.9,105.4,121,105.4z"/>
		<path class="st0" d="M124.2,72.2c-0.6,0.1-1,0.7-0.9,1.3c0.1,0.9,0.3,1.7,0.4,2.6c0.1,0.6,0.6,1,1.1,1c0,0,0.1,0,0.1,0
			c0.6-0.1,1.1-0.6,1-1.3c-0.1-0.9-0.2-1.8-0.4-2.7C125.4,72.5,124.8,72.1,124.2,72.2z"/>
		<path class="st0" d="M119.1,60.1c0.4,0.8,0.7,1.6,1,2.4c0.2,0.4,0.6,0.7,1,0.7c0.1,0,0.3,0,0.4-0.1c0.6-0.2,0.9-0.9,0.6-1.5
			c-0.3-0.8-0.7-1.7-1.1-2.5c-0.3-0.6-0.9-0.8-1.5-0.6C119.1,58.8,118.8,59.5,119.1,60.1z"/>
		<path class="st0" d="M68.3,28.1c0.9,0,1.8,0,2.6,0c0,0,0,0,0,0c0.6,0,1.1-0.5,1.1-1.1c0-0.6-0.5-1.1-1.1-1.2c-0.9,0-1.8,0-2.8,0
			c-0.6,0-1.1,0.5-1.1,1.1C67.1,27.6,67.7,28.1,68.3,28.1z"/>
		<path class="st0" d="M119.6,107.3c-0.6-0.3-1.2-0.1-1.5,0.5c-0.4,0.8-0.8,1.6-1.3,2.3c-0.3,0.5-0.1,1.2,0.4,1.5
			c0.2,0.1,0.4,0.1,0.6,0.1c0.4,0,0.8-0.2,1-0.6c0.5-0.8,0.9-1.6,1.3-2.4C120.4,108.3,120.2,107.6,119.6,107.3z"/>
		<path class="st0" d="M19.3,110.6c0.2,0.4,0.6,0.6,1,0.6c0.2,0,0.4,0,0.5-0.1c0.5-0.3,0.7-1,0.4-1.5c-0.4-0.8-0.8-1.6-1.2-2.3
			c-0.3-0.6-0.9-0.8-1.5-0.5c-0.6,0.3-0.8,0.9-0.5,1.5C18.4,109,18.8,109.8,19.3,110.6z"/>
		<path class="st0" d="M16.1,104c0.2,0.4,0.6,0.7,1,0.7c0.1,0,0.3,0,0.4-0.1c0.6-0.2,0.9-0.9,0.6-1.5c-0.3-0.8-0.6-1.7-0.9-2.5
			c-0.2-0.6-0.8-0.9-1.4-0.7c-0.6,0.2-0.9,0.8-0.7,1.4C15.5,102.2,15.8,103.1,16.1,104z"/>
		<path class="st0" d="M13.8,90.7c0.6-0.1,1.1-0.6,1-1.3c-0.1-0.9-0.2-1.8-0.2-2.6c0-0.6-0.6-1.1-1.2-1c-0.6,0-1.1,0.6-1,1.2
			c0.1,0.9,0.2,1.8,0.3,2.7c0.1,0.6,0.6,1,1.1,1C13.7,90.7,13.7,90.7,13.8,90.7z"/>
		<path class="st0" d="M17.1,62.4c0.1,0.1,0.3,0.1,0.4,0.1c0.4,0,0.9-0.3,1-0.7c0.3-0.8,0.7-1.6,1.1-2.4c0.3-0.6,0-1.2-0.5-1.5
			c-0.6-0.3-1.2,0-1.5,0.5c-0.4,0.8-0.8,1.7-1.1,2.5C16.3,61.5,16.6,62.2,17.1,62.4z"/>
		<path class="st0" d="M13.6,76.4c0.1,0,0.1,0,0.2,0c0.6,0,1-0.4,1.1-1c0.1-0.9,0.3-1.8,0.4-2.6c0.1-0.6-0.3-1.2-0.9-1.3
			c-0.6-0.1-1.2,0.3-1.3,0.9c-0.2,0.9-0.3,1.8-0.4,2.7C12.6,75.7,13,76.3,13.6,76.4z"/>
		<path class="st0" d="M14.9,69.3c0.1,0,0.2,0,0.3,0c0.5,0,0.9-0.3,1.1-0.8c0.2-0.9,0.5-1.7,0.8-2.5c0.2-0.6-0.1-1.2-0.7-1.4
			c-0.6-0.2-1.2,0.1-1.4,0.7c-0.3,0.9-0.5,1.8-0.8,2.6C14,68.5,14.3,69.1,14.9,69.3z"/>
		<path class="st0" d="M13.2,83.5C13.2,83.5,13.2,83.5,13.2,83.5c0.6,0,1.1-0.5,1.1-1.1c0-0.9,0-1.8,0.1-2.6c0-0.6-0.4-1.2-1.1-1.2
			c-0.6,0-1.2,0.4-1.2,1.1c-0.1,0.9-0.1,1.8-0.1,2.8C12.1,83,12.6,83.5,13.2,83.5z"/>
		<path class="st0" d="M13.9,97c0.1,0.5,0.6,0.9,1.1,0.9c0.1,0,0.2,0,0.3,0c0.6-0.2,1-0.8,0.8-1.4c-0.2-0.8-0.4-1.7-0.6-2.6
			c-0.1-0.6-0.7-1-1.3-0.9c-0.6,0.1-1,0.7-0.9,1.3C13.4,95.2,13.6,96.1,13.9,97z"/>
		<path class="st0" d="M47.3,32.6c0.1,0,0.3,0,0.4-0.1c0.8-0.3,1.6-0.7,2.5-1c0.6-0.2,0.9-0.9,0.7-1.4c-0.2-0.6-0.9-0.9-1.4-0.7
			c-0.9,0.3-1.7,0.7-2.6,1c-0.6,0.2-0.8,0.9-0.6,1.5C46.4,32.3,46.8,32.6,47.3,32.6z"/>
		<path class="st0" d="M20.2,55.9c0.2,0.1,0.4,0.2,0.6,0.2c0.4,0,0.8-0.2,1-0.6c0.4-0.8,0.9-1.5,1.4-2.3c0.3-0.5,0.2-1.2-0.3-1.6
			c-0.5-0.3-1.2-0.2-1.6,0.3c-0.5,0.8-1,1.6-1.4,2.3C19.5,54.9,19.7,55.6,20.2,55.9z"/>
		<path class="st0" d="M40.8,35.8c0.2,0,0.4-0.1,0.6-0.2c0.8-0.4,1.5-0.9,2.3-1.3c0.6-0.3,0.8-1,0.5-1.5c-0.3-0.6-1-0.8-1.5-0.5
			c-0.8,0.4-1.6,0.9-2.4,1.3c-0.5,0.3-0.7,1-0.4,1.5C40.1,35.6,40.4,35.8,40.8,35.8z"/>
		<path class="st0" d="M54,30.2c0.1,0,0.2,0,0.3,0c0.8-0.2,1.7-0.5,2.6-0.7c0.6-0.1,1-0.7,0.8-1.3c-0.1-0.6-0.7-1-1.3-0.8
			c-0.9,0.2-1.8,0.4-2.7,0.7c-0.6,0.2-0.9,0.8-0.8,1.4C53.1,29.9,53.6,30.2,54,30.2z"/>
		<path class="st0" d="M34.9,39.9c0.2,0,0.5-0.1,0.7-0.2c0.7-0.5,1.4-1.1,2.1-1.6c0.5-0.4,0.6-1.1,0.3-1.6c-0.4-0.5-1.1-0.6-1.6-0.3
			c-0.7,0.5-1.5,1.1-2.2,1.6c-0.5,0.4-0.6,1.1-0.2,1.6C34.2,39.7,34.5,39.9,34.9,39.9z"/>
		<path class="st0" d="M61.1,28.7c0.1,0,0.1,0,0.2,0c0.9-0.1,1.8-0.2,2.6-0.3c0.6-0.1,1.1-0.6,1-1.2c-0.1-0.6-0.6-1.1-1.2-1
			c-0.9,0.1-1.8,0.2-2.7,0.3c-0.6,0.1-1,0.7-1,1.3C60.1,28.3,60.5,28.7,61.1,28.7z"/>
		<path class="st0" d="M29.5,44.7c0.3,0,0.6-0.1,0.8-0.3c0.6-0.6,1.3-1.2,1.9-1.8c0.5-0.4,0.5-1.1,0.1-1.6c-0.4-0.5-1.1-0.5-1.6-0.1
			c-0.7,0.6-1.3,1.3-2,1.9c-0.4,0.4-0.4,1.2,0,1.6C28.9,44.6,29.2,44.7,29.5,44.7z"/>
		<path class="st0" d="M22,113c-0.5,0.3-0.7,1-0.3,1.6c0.5,0.8,1,1.5,1.6,2.3c0.2,0.3,0.6,0.5,0.9,0.5c0.2,0,0.5-0.1,0.7-0.2
			c0.5-0.4,0.6-1.1,0.2-1.6c-0.5-0.7-1-1.4-1.5-2.2C23.2,112.8,22.5,112.6,22,113z"/>
		<path class="st0" d="M24.1,49.9c0.2,0.2,0.4,0.2,0.7,0.2c0.3,0,0.7-0.2,0.9-0.4c0.5-0.7,1.1-1.4,1.7-2.1c0.4-0.5,0.3-1.2-0.1-1.6
			c-0.5-0.4-1.2-0.3-1.6,0.1c-0.6,0.7-1.2,1.4-1.7,2.1C23.5,48.8,23.6,49.5,24.1,49.9z"/>
		<path class="st0" d="M129.5,121.1c-5.9,0-11.9,0-17.8,0c0-0.1,0.1-0.1,0.1-0.2c0.4-0.5,0.4-1.2-0.1-1.6c-0.5-0.4-1.2-0.4-1.6,0.1
			c-0.5,0.6-1,1.1-1.5,1.7c-6.7,0-13.4,0-20.2,0c-19.6,0-39.1,0-58.7,0c0-0.1-0.1-0.2-0.2-0.2c-0.6-0.6-1.2-1.3-1.8-2
			c-0.4-0.5-1.1-0.5-1.6-0.1c-0.5,0.4-0.5,1.1-0.1,1.6c0.2,0.2,0.4,0.5,0.6,0.7c-1.3,0-2.5,0-3.8,0c-5,0-10,0-15,0
			c-1.4,0-1.5,2.3,0,2.3c13.7,0,27.4,0,41.1,0c21.8,0,43.6,0,65.5,0c5,0,10,0,15,0C131,123.3,131,121.1,129.5,121.1z"/>
	</g>
	<g>
		<g>
			<path class="st0" d="M98,60.4c0.4,0,0.7-0.3,0.7-0.7v-7.4c0-0.4-0.3-0.7-0.7-0.7H41.4c-0.4,0-0.7,0.3-0.7,0.7v18.5
				c-0.7,0-1.4,0-2.2,0c-1.4,0-1.5,2.3,0,2.3c0.7,0,1.4,0,2.2,0v15.9c-0.7,0-1.4,0-2.2,0c-1.4,0-1.5,2.3,0,2.3c0.7,0,1.4,0,2.2,0
				v16.4c0,0.4,0.3,0.7,0.7,0.7h15.2v3.8h-2c-0.4,0-0.7,0.3-0.7,0.7c0,0.4,0.3,0.7,0.7,0.7h5.3c0.4,0,0.7-0.3,0.7-0.7
				c0-0.4-0.3-0.7-0.7-0.7h-2v-3.8h24.3v3.8h-2c-0.4,0-0.7,0.3-0.7,0.7c0,0.4,0.3,0.7,0.7,0.7h5.3c0.4,0,0.7-0.3,0.7-0.7
				c0-0.4-0.3-0.7-0.7-0.7h-2v-3.8H98c0.4,0,0.7-0.3,0.7-0.7v-8.5c0-0.4-0.3-0.7-0.7-0.7s-0.7,0.3-0.7,0.7v7.8H42V91.3
				c2.7,0,5.5,0,8.2,0v7.8h39.9V60.7H50.2v10.2c-2.7,0-5.5,0-8.2,0V53h55.3v6.7C97.3,60.1,97.6,60.4,98,60.4z M57.4,79.2h2.7
				c0.3-5,4.4-9.1,9.4-9.4v-3.7c0-0.4,0.3-0.7,0.7-0.7c0.4,0,0.7,0.3,0.7,0.7v3.7c5,0.3,9.1,4.4,9.4,9.4H83c0.4,0,0.7,0.3,0.7,0.7
				c0,0.4-0.3,0.7-0.7,0.7h-2.7c-0.3,5-4.4,9.1-9.4,9.4v3.7c0,0.4-0.3,0.7-0.7,0.7c-0.4,0-0.7-0.3-0.7-0.7V90
				c-5-0.3-9.1-4.4-9.4-9.4h-2.7c-0.4,0-0.7-0.3-0.7-0.7C56.7,79.5,57,79.2,57.4,79.2z M50.2,73.2v15.9c-2.7,0-5.5,0-8.2,0V73.2
				C44.8,73.2,47.5,73.2,50.2,73.2z"/>
			<path class="st0" d="M69.5,70.4c-4.7,0.3-8.5,4.1-8.9,8.9h8.9V70.4z"/>
			<path class="st0" d="M79.7,80.6h-8.9v8.9C75.6,89.1,79.4,85.3,79.7,80.6z"/>
			<path class="st0" d="M70.9,70.4v8.9h8.9C79.4,74.5,75.6,70.7,70.9,70.4z"/>
			<path class="st0" d="M69.5,89.4v-8.9h-8.9C61,85.3,64.8,89.1,69.5,89.4z"/>
		</g>
		<circle class="st0" cx="93.4" cy="57.5" r="1"/>
		<circle class="st0" cx="46.2" cy="57.5" r="1"/>
		<circle class="st0" cx="93.4" cy="102.5" r="1"/>
		<circle class="st0" cx="46.2" cy="102.5" r="1"/>
	</g>
</g>
</svg>
