<?xml version="1.0" encoding="utf-8"?>
<!-- Generator: Adobe Illustrator 23.0.4, SVG Export Plug-In . SVG Version: 6.00 Build 0)  -->
<svg version="1.1" id="Layer_1" xmlns="http://www.w3.org/2000/svg" xmlns:xlink="http://www.w3.org/1999/xlink" x="0px" y="0px"
	 viewBox="0 0 134 149.2" style="enable-background:new 0 0 134 149.2;" xml:space="preserve">
<style type="text/css">
	.st0{fill:#FFFFFF;}
</style>
<g>
	<path id="XMLID_4_" class="st0" d="M105.6,54c0-5.7-4.4-10.4-10-10.8c-0.9-2.5-2.2-4.8-3.8-7c0,0-2.3-2.8-3.1-3.6
		c-5.7-5.7-13.4-8.9-21.5-8.9s-15.7,3.2-21.5,8.9c-0.8,0.8-2.9,3.4-2.9,3.4c-1.7,2.3-3,4.7-4,7.3c-5.6,0.4-10,5.1-10,10.8
		c0,5.7,4.4,10.4,10,10.8c1.5,3.9,3.8,7.6,6.9,10.6c5.7,5.7,13.4,8.9,21.5,8.9s15.7-3.2,21.5-8.9c3.1-3.1,5.4-6.7,6.9-10.6
		C101.2,64.4,105.6,59.7,105.6,54z M69,64.9h7.9c-0.3,1.5-0.7,3-1.1,4.4H69V64.9z M39.7,62c-4.4,0-8-3.6-8-8s3.6-8,8-8h55.1
		c4.4,0,8,3.6,8,8s-3.6,8-8,8H39.7z M65.4,43.2h-7.9c0.3-1.5,0.7-3,1.1-4.4h6.8V43.2z M89.2,38.8c1,1.4,1.8,2.8,2.5,4.4H80.6
		c-0.3-1.5-0.6-3-1-4.4H89.2z M86.1,35.1L86.1,35.1C86.1,35.1,86.1,35.1,86.1,35.1l-7.7,0c-0.2-0.6-0.5-1.2-0.7-1.7
		c-0.9-2-1.9-3.7-3-5.1C79,29.6,82.9,31.9,86.1,35.1z M69,28.2c1.9,0.9,3.8,3.3,5.4,6.7c0,0.1,0.1,0.2,0.1,0.2H69V28.2z M75.8,38.8
		c0.4,1.4,0.8,2.9,1.1,4.4H69v-4.4H75.8z M60,34.9c1.5-3.4,3.4-5.8,5.4-6.7v6.9h-5.5C60,35.1,60,35,60,34.9z M48.3,35.1L48.3,35.1
		c3.2-3.2,7.1-5.5,11.4-6.8c-1.1,1.4-2.1,3.1-3,5.1c-0.2,0.5-0.5,1.1-0.7,1.7L48.3,35.1C48.3,35.1,48.3,35.1,48.3,35.1z M45.3,38.8
		h9.6c-0.4,1.4-0.7,2.9-1,4.4H42.8C43.5,41.6,44.3,40.2,45.3,38.8z M45.3,69.3c-1-1.4-1.8-2.8-2.5-4.4h11.1c0.3,1.5,0.6,3,1,4.4
		H45.3z M48.3,72.9L48.3,72.9C48.3,72.9,48.3,72.9,48.3,72.9l7.7,0c0.2,0.6,0.5,1.2,0.7,1.7c0.9,2,1.9,3.7,3,5.1
		C55.4,78.4,51.5,76.1,48.3,72.9z M65.4,79.8c-1.9-0.9-3.8-3.3-5.4-6.7c0-0.1-0.1-0.2-0.1-0.2h5.5V79.8z M58.6,69.3
		c-0.4-1.4-0.8-2.9-1.1-4.4h7.9v4.4H58.6z M74.4,73.1c-1.5,3.4-3.4,5.8-5.4,6.7v-6.9h5.5C74.5,73,74.4,73.1,74.4,73.1z M86.1,72.9
		L86.1,72.9c-3.2,3.2-7.1,5.5-11.4,6.8c1.1-1.4,2.1-3.1,3-5.1c0.2-0.5,0.5-1.1,0.7-1.7L86.1,72.9C86.1,72.9,86.1,72.9,86.1,72.9z
		 M79.6,69.3c0.4-1.4,0.7-2.9,1-4.4h11.1c-0.7,1.5-1.5,3-2.5,4.4H79.6z"/>
	<path id="XMLID_3_" class="st0" d="M57.3,48.6h-2.5L53.9,53c-0.2,1.3-0.5,2.5-0.6,3.7h0c-0.2-1.2-0.3-2.3-0.6-3.6l-0.9-4.5h-2.6
		L48.3,53c-0.3,1.3-0.5,2.6-0.7,3.8h0c-0.2-1.1-0.4-2.5-0.6-3.8l-0.8-4.4h-2.6l2.6,10.8h2.7l1-4.6c0.3-1.1,0.4-2.1,0.6-3.3h0
		c0.1,1.2,0.3,2.2,0.5,3.3l0.9,4.6h2.6L57.3,48.6z"/>
	<path id="XMLID_2_" class="st0" d="M74.1,48.6h-2.5L70.7,53c-0.2,1.3-0.5,2.5-0.6,3.7h0c-0.2-1.2-0.3-2.3-0.6-3.6l-0.9-4.5H66
		L65.1,53c-0.3,1.3-0.5,2.6-0.7,3.8h0c-0.2-1.1-0.4-2.5-0.6-3.8l-0.8-4.4h-2.6l2.6,10.8h2.7l1-4.6c0.3-1.1,0.4-2.1,0.6-3.3h0
		c0.1,1.2,0.3,2.2,0.5,3.3l0.9,4.6h2.6L74.1,48.6z"/>
	<path id="XMLID_1_" class="st0" d="M90.9,48.6h-2.5L87.5,53c-0.2,1.3-0.5,2.5-0.6,3.7h0c-0.2-1.2-0.3-2.3-0.6-3.6l-0.9-4.5h-2.6
		L81.9,53c-0.3,1.3-0.5,2.6-0.7,3.8h0c-0.2-1.1-0.4-2.5-0.6-3.8l-0.8-4.4h-2.6l2.6,10.8h2.7l1-4.6c0.3-1.1,0.4-2.1,0.6-3.3h0
		c0.1,1.2,0.3,2.2,0.5,3.3l0.9,4.6h2.6L90.9,48.6z"/>
	<path class="st0" d="M109.1,117.3c-0.8-14.1-6-19-6.2-19.2c-3.8-3.4-7.5,0-7.5,0c-7.6,5.5-7.3,26.7-7.3,27.6l0,0.5l5.3,0l0-0.5
		c0.5-5.6,4.6-7.7,4.8-7.7c5-2.8,10.1-0.2,10.1-0.2l0.9,0.4L109.1,117.3z"/>
	<path class="st0" d="M111.9,127.8H94.8v-0.6c0-4.7,3.8-8.6,8.6-8.6c4.7,0,8.6,3.8,8.6,8.6V127.8z M95.9,126.7h14.9
		c-0.3-3.9-3.5-6.9-7.4-6.9C99.4,119.8,96.2,122.9,95.9,126.7z"/>
	<g>
		<path class="st0" d="M86.4,79.6c0,0,0.9,0.7,1.9,1.6l-4.2,4.3c-0.9-0.8-2.7-2.1-2.7-2.1C81.5,83.3,83.8,81.9,86.4,79.6z"/>
		<path class="st0" d="M90.9,93.5c-0.6-1-1.3-2-2.1-3l4.7-3.6c0.9,1.2,1.8,2.4,2.5,3.6L90.9,93.5z M87.8,89.3
			c-0.8-0.9-1.7-1.9-2.6-2.8l4.2-4.2c1,1,2,2.1,2.9,3.2L87.8,89.3z"/>
		<path class="st0" d="M98,94.3c-0.3-0.7-0.8-1.7-1.1-2.4l-5.2,2.8c0.3,0.6,1,2.1,1.3,2.7C92.9,97.4,95.3,95.3,98,94.3z"/>
	</g>
	<g>
		<path class="st0" d="M104.7,62.2c0,0,0.8,0.6,1.7,1.5l-3.8,3.8c-0.8-0.7-2.4-1.9-2.4-1.9C100.2,65.6,102.3,64.3,104.7,62.2z"/>
		<path class="st0" d="M108.7,74.7c-0.6-0.9-1.2-1.8-1.9-2.7l4.2-3.3c0.8,1.1,1.6,2.2,2.3,3.2L108.7,74.7z M106,71
			c-0.7-0.9-1.5-1.7-2.3-2.5l3.8-3.8c0.9,0.9,1.8,1.9,2.6,2.8L106,71z"/>
		<path class="st0" d="M115.7,76.4c-0.3-0.6-1.3-2.5-1.6-3.1l-4.7,2.6c0.3,0.5,1.2,2.4,1.4,2.9C110.8,78.8,112.2,75.9,115.7,76.4z"
			/>
	</g>
	<path class="st0" d="M39,98c0,0-3.8-3.4-7.6,0c-0.2,0.2-5.4,5.1-6.2,19.2l-0.1,1l0.9-0.4c0.1,0,5.2-2.6,10.2,0.2
		c0.2,0.1,4.2,2.1,4.8,7.7l0,0.5l5.3,0l0-0.5C46.3,124.8,46.5,103.6,39,98z"/>
	<path class="st0" d="M39.5,127.8H22.3v-0.6c0-4.7,3.8-8.6,8.6-8.6c4.7,0,8.6,3.8,8.6,8.6V127.8z M23.5,126.7h14.9
		c-0.3-3.9-3.5-6.9-7.4-6.9S23.7,122.9,23.5,126.7z"/>
	<g>
		<path class="st0" d="M47.8,79.6c0,0-0.9,0.7-1.9,1.6l4.2,4.3c0.9-0.8,2.7-2.1,2.7-2.1C52.8,83.3,50.5,81.9,47.8,79.6z"/>
		<path class="st0" d="M38.3,90.4c0.7-1.2,1.6-2.4,2.5-3.6l4.7,3.6c-0.8,1-1.5,2-2.1,3L38.3,90.4z M41.9,85.4
			c0.9-1.1,1.9-2.1,2.9-3.2l4.2,4.2c-0.9,0.9-1.8,1.8-2.6,2.8L41.9,85.4z"/>
		<path class="st0" d="M36.3,94.3c0.3-0.7,0.8-1.7,1.1-2.4l5.2,2.8c-0.3,0.6-1,2.1-1.3,2.7C41.4,97.4,39,95.3,36.3,94.3z"/>
	</g>
	<path class="st0" d="M127.1,40.6H99V21.4h14.9l13.2,10.8L127.1,40.6z M99.9,39.8h26.4l0.1-7.2l-12.6-10.3H99.9V39.8z M121.2,37.3
		c-1.4,0-2.6-1.2-2.6-2.7c0-1.5,1.2-2.7,2.6-2.7s2.6,1.2,2.6,2.7C123.7,36.1,122.6,37.3,121.2,37.3z M121.2,32.9
		c-1,0-1.7,0.8-1.7,1.8c0,1,0.8,1.8,1.7,1.8s1.7-0.8,1.7-1.8C122.9,33.7,122.1,32.9,121.2,32.9z M113.9,37.3c-1.4,0-2.6-1.2-2.6-2.7
		c0-1.5,1.2-2.7,2.6-2.7s2.6,1.2,2.6,2.7C116.5,36.1,115.4,37.3,113.9,37.3z M113.9,32.9c-1,0-1.7,0.8-1.7,1.8c0,1,0.8,1.8,1.7,1.8
		s1.7-0.8,1.7-1.8C115.7,33.7,114.9,32.9,113.9,32.9z M106.8,37.3c-1.4,0-2.6-1.2-2.6-2.7c0-1.5,1.2-2.7,2.6-2.7s2.6,1.2,2.6,2.7
		C109.3,36.1,108.2,37.3,106.8,37.3z M106.8,32.9c-1,0-1.7,0.8-1.7,1.8c0,1,0.8,1.8,1.7,1.8s1.7-0.8,1.7-1.8
		C108.5,33.7,107.7,32.9,106.8,32.9z M111.9,29.9c-1.4,0-2.6-1.2-2.6-2.7c0-1.5,1.2-2.7,2.6-2.7s2.6,1.2,2.6,2.7
		C114.5,28.7,113.3,29.9,111.9,29.9z M111.9,25.4c-1,0-1.7,0.8-1.7,1.8c0,1,0.8,1.8,1.7,1.8s1.7-0.8,1.7-1.8
		C113.6,26.2,112.8,25.4,111.9,25.4z M104.7,29.9c-1.4,0-2.6-1.2-2.6-2.7c0-1.5,1.2-2.7,2.6-2.7c1.4,0,2.6,1.2,2.6,2.7
		C107.3,28.7,106.1,29.9,104.7,29.9z M104.7,25.4c-1,0-1.7,0.8-1.7,1.8c0,1,0.8,1.8,1.7,1.8c1,0,1.7-0.8,1.7-1.8
		C106.4,26.2,105.7,25.4,104.7,25.4z"/>
	<path class="st0" d="M96.5,40.2V21.9l-7.3,8.8C89.2,30.6,94.9,35.5,96.5,40.2z"/>
	<rect x="119.6" y="43.8" class="st0" width="6.9" height="5.9"/>
	<path class="st0" d="M123.1,54.9L123.1,54.9c-1.9,0-3.5-1.5-3.5-3.5v0h6.9v0C126.6,53.4,125,54.9,123.1,54.9z"/>
	<rect x="111.5" y="43.8" class="st0" width="6.9" height="5.9"/>
	<path class="st0" d="M114.9,54.9L114.9,54.9c-1.9,0-3.5-1.5-3.5-3.5v0h6.9v0C118.4,53.4,116.8,54.9,114.9,54.9z"/>
	<path class="st0" d="M103.6,43.8v2c0.8,0.9,1.9,2.3,2.5,3.9h4.4v-5.9H103.6z"/>
	<path class="st0" d="M114.7,94l-2.1-1.8c-0.9-0.8-1.4-2-1.3-3.1l0.1-0.8c0.1-1,0.5-1.9,1.2-2.6c-1.1-0.7-1.9-1.7-2.3-2.9l-1.7,1
		c-1.3,0.8-2,2.4-1.8,3.9l0.6,3.6c0.2,1.2,0.9,2.2,1.9,2.8l4.3,2.5l0.1,0L114.7,94L114.7,94z"/>
	<path class="st0" d="M129.5,81.7c-0.1-1.2-0.7-2.3-1.6-3l-3-2.2c-1.3-0.9-3-1-4.4-0.2l-1.8,1.1c0.9,0.9,1.5,2.2,1.5,3.5
		c0.8-0.4,1.6-0.5,2.5-0.3c0.2,0.1,0.4,0.1,0.6,0.2l0.8,0.3c1.1,0.5,1.9,1.5,2.2,2.6l0.7,2.7l2.7,0.1l0.1-0.1L129.5,81.7z"/>
	<path class="st0" d="M115.1,84.6c-0.3,0-0.5,0-0.8-0.1c-1.9-0.4-3-2.3-2.6-4.2c0.4-1.9,2.3-3,4.2-2.6c0.9,0.2,1.7,0.8,2.2,1.6
		c0.5,0.8,0.6,1.7,0.4,2.6l0,0c-0.2,0.9-0.8,1.7-1.6,2.2C116.4,84.4,115.8,84.6,115.1,84.6z M115.1,78.5c-1.2,0-2.3,0.8-2.6,2
		c-0.3,1.4,0.5,2.8,2,3.2c0.7,0.2,1.4,0.1,2-0.3c0.6-0.4,1-1,1.2-1.6v0c0.2-0.7,0.1-1.4-0.3-2c-0.4-0.6-1-1-1.6-1.2
		C115.5,78.5,115.3,78.5,115.1,78.5z"/>
	<g>
		<path class="st0" d="M29.3,62.2c0,0-0.8,0.6-1.7,1.5l3.8,3.8c0.8-0.7,2.4-1.9,2.4-1.9C33.8,65.6,31.7,64.3,29.3,62.2z"/>
		<path class="st0" d="M20.7,71.9c0.7-1.1,1.4-2.2,2.3-3.2l4.2,3.3c-0.7,0.9-1.4,1.8-1.9,2.7L20.7,71.9z M23.9,67.5
			c0.8-1,1.7-1.9,2.6-2.8l3.8,3.8c-0.8,0.8-1.6,1.6-2.3,2.5L23.9,67.5z"/>
		<path class="st0" d="M18.3,76.4c0.3-0.6,1.3-2.5,1.6-3.1l4.7,2.6c-0.3,0.5-1.2,2.4-1.4,2.9C23.2,78.8,21.8,75.9,18.3,76.4z"/>
	</g>
	<path class="st0" d="M35.2,40.6H7.1L7,32.1l13.2-10.8h14.9V40.6z M7.9,39.8h26.4V22.2H20.5L7.9,32.5L7.9,39.8z M27.4,37.3
		c-1.4,0-2.6-1.2-2.6-2.7c0-1.5,1.2-2.7,2.6-2.7c1.4,0,2.6,1.2,2.6,2.7C30,36.1,28.8,37.3,27.4,37.3z M27.4,32.9
		c-1,0-1.7,0.8-1.7,1.8c0,1,0.8,1.8,1.7,1.8c1,0,1.7-0.8,1.7-1.8C29.1,33.7,28.4,32.9,27.4,32.9z M20.2,37.3c-1.4,0-2.6-1.2-2.6-2.7
		c0-1.5,1.2-2.7,2.6-2.7c1.4,0,2.6,1.2,2.6,2.7C22.8,36.1,21.7,37.3,20.2,37.3z M20.2,32.9c-1,0-1.7,0.8-1.7,1.8
		c0,1,0.8,1.8,1.7,1.8c1,0,1.7-0.8,1.7-1.8C22,33.7,21.2,32.9,20.2,32.9z M13,37.3c-1.4,0-2.6-1.2-2.6-2.7c0-1.5,1.2-2.7,2.6-2.7
		c1.4,0,2.6,1.2,2.6,2.7C15.6,36.1,14.4,37.3,13,37.3z M13,32.9c-1,0-1.7,0.8-1.7,1.8c0,1,0.8,1.8,1.7,1.8s1.7-0.8,1.7-1.8
		C14.8,33.7,14,32.9,13,32.9z M29.5,29.9c-1.4,0-2.6-1.2-2.6-2.7c0-1.5,1.2-2.7,2.6-2.7c1.4,0,2.6,1.2,2.6,2.7
		C32.1,28.7,30.9,29.9,29.5,29.9z M29.5,25.4c-1,0-1.7,0.8-1.7,1.8c0,1,0.8,1.8,1.7,1.8c1,0,1.7-0.8,1.7-1.8
		C31.2,26.2,30.4,25.4,29.5,25.4z M22.3,29.9c-1.4,0-2.6-1.2-2.6-2.7c0-1.5,1.2-2.7,2.6-2.7s2.6,1.2,2.6,2.7
		C24.9,28.7,23.7,29.9,22.3,29.9z M22.3,25.4c-1,0-1.7,0.8-1.7,1.8c0,1,0.8,1.8,1.7,1.8s1.7-0.8,1.7-1.8
		C24,26.2,23.2,25.4,22.3,25.4z"/>
	<path class="st0" d="M37.7,40.2V21.9l7.3,8.8C44.9,30.6,39.2,35.5,37.7,40.2z"/>
	<rect x="7.6" y="43.8" class="st0" width="6.9" height="5.9"/>
	<path class="st0" d="M11.1,54.9L11.1,54.9c1.9,0,3.5-1.5,3.5-3.5v0H7.6l0,0C7.6,53.4,9.2,54.9,11.1,54.9z"/>
	<rect x="15.8" y="43.8" class="st0" width="6.9" height="5.9"/>
	<path class="st0" d="M19.2,54.9L19.2,54.9c1.9,0,3.5-1.5,3.5-3.5v0h-6.9l0,0C15.8,53.4,17.3,54.9,19.2,54.9z"/>
	<path class="st0" d="M30.6,43.8v2c-0.8,0.9-1.9,2.3-2.5,3.9h-4.4v-5.9H30.6z"/>
	<path class="st0" d="M19.3,94l2.1-1.8c0.9-0.8,1.4-2,1.3-3.1l-0.1-0.8c-0.1-1-0.5-1.9-1.2-2.6c1.1-0.7,1.9-1.7,2.3-2.9l1.7,1
		c1.3,0.8,2,2.4,1.8,3.9l-0.6,3.6c-0.2,1.2-0.9,2.2-1.9,2.8l-4.3,2.5l-0.1,0L19.3,94L19.3,94z"/>
	<path class="st0" d="M4.5,81.7c0.1-1.2,0.7-2.3,1.6-3l3-2.2c1.3-0.9,3-1,4.4-0.2l1.8,1.1c-0.9,0.9-1.5,2.2-1.5,3.5
		c-0.8-0.4-1.6-0.5-2.5-0.3c-0.2,0.1-0.4,0.1-0.6,0.2l-0.8,0.3c-1.1,0.5-1.9,1.5-2.2,2.6L7,86.7l-2.7,0.1l-0.1-0.1L4.5,81.7z"/>
	<path class="st0" d="M18.9,84.6c-0.6,0-1.3-0.2-1.8-0.5c-0.8-0.5-1.4-1.3-1.6-2.2c-0.2-0.9-0.1-1.8,0.4-2.6
		c0.5-0.8,1.3-1.4,2.2-1.6c1.9-0.4,3.8,0.7,4.2,2.6c0.4,1.9-0.7,3.8-2.6,4.2C19.4,84.6,19.2,84.6,18.9,84.6z M18.9,78.5
		c-0.2,0-0.4,0-0.6,0.1c-0.7,0.2-1.3,0.6-1.6,1.2c-0.4,0.6-0.5,1.3-0.3,2v0c0.2,0.7,0.6,1.3,1.2,1.6c0.6,0.4,1.3,0.5,2,0.3
		c1.4-0.3,2.3-1.8,2-3.2C21.2,79.3,20.1,78.5,18.9,78.5z"/>
</g>
</svg>
