<?xml version="1.0" encoding="utf-8"?>
<!-- Generator: Adobe Illustrator 23.0.4, SVG Export Plug-In . SVG Version: 6.00 Build 0)  -->
<svg version="1.1" id="Layer_1" xmlns="http://www.w3.org/2000/svg" xmlns:xlink="http://www.w3.org/1999/xlink" x="0px" y="0px"
	 viewBox="0 0 134 149.2" style="enable-background:new 0 0 134 149.2;" xml:space="preserve">
<style type="text/css">
	.st0{fill:#FFFFFF;}
</style>
<g>
	<path class="st0" d="M65.6,26.6c0.2,0,0.5-0.1,0.6-0.2l3.7-2.1c0.6-0.4,0.8-1.1,0.5-1.8c-0.4-0.6-1.1-0.8-1.8-0.5l0,0l-3.7,2.1
		c-0.6,0.4-0.8,1.1-0.5,1.8C64.6,26.3,65.1,26.6,65.6,26.6L65.6,26.6z"/>
	<path class="st0" d="M74.8,21.3c0.2,0,0.5-0.1,0.6-0.2l3.7-2.1c0.6-0.4,0.8-1.1,0.5-1.8s-1.1-0.8-1.8-0.5l0,0l-3.7,2.1
		c-0.6,0.4-0.8,1.1-0.5,1.8C74,21,74.3,21.3,74.8,21.3L74.8,21.3z"/>
	<path class="st0" d="M74.6,28.7c0.3,0.4,0.6,0.6,1.1,0.6c0.7,0,1.3-0.6,1.3-1.3c0-0.2-0.1-0.5-0.2-0.6l-2.1-3.7
		c-0.4-0.6-1.1-0.8-1.8-0.5c-0.6,0.4-0.8,1.1-0.5,1.8l0,0L74.6,28.7z"/>
	<path class="st0" d="M69.3,19.5c0.4,0.6,1.1,0.8,1.8,0.5c0.6-0.4,0.8-1.1,0.5-1.8l-2.1-3.7c-0.4-0.6-1.1-0.8-1.8-0.5
		c-0.6,0.4-0.8,1.1-0.5,1.8L69.3,19.5z"/>
	<path class="st0" d="M29,113.1c-0.6-0.1-1.3,0.5-1.4,1.1v0.1l-0.2,4.2c0,0.7,0.6,1.3,1.2,1.4h0.1c0.6,0,1.3-0.6,1.3-1.2l0.2-4.2
		C30.3,113.7,29.7,113.1,29,113.1L29,113.1z"/>
	<path class="st0" d="M29.4,102.4c-0.7,0-1.3,0.5-1.4,1.2l0,0l-0.2,4.2c0,0.7,0.6,1.3,1.2,1.4h0.2c0.6,0,1.3-0.6,1.3-1.2l0.2-4.2
		C30.7,103,30.2,102.5,29.4,102.4L29.4,102.4z"/>
	<path class="st0" d="M36.5,110.2l-4.2-0.2h-0.1c-0.7,0-1.3,0.6-1.3,1.3s0.6,1.3,1.3,1.3l4.2,0.2h0.1c0.7,0,1.3-0.6,1.3-1.3
		C37.8,110.9,37.3,110.2,36.5,110.2z"/>
	<path class="st0" d="M25.9,109.7l-4.2-0.2c-0.6-0.1-1.3,0.5-1.4,1.1v0.1c0,0.7,0.6,1.3,1.2,1.4l4.2,0.2h0.1c0.7,0,1.3-0.6,1.3-1.3
		C27.2,110.3,26.7,109.7,25.9,109.7L25.9,109.7z"/>
	<path class="st0" d="M10.2,83.4c-1.1,0-1.9,0.9-1.8,2c0,1,0.8,1.8,1.8,1.8c1.1,0,1.9-0.9,1.8-2C12,84.2,11.2,83.4,10.2,83.4z"/>
	<path class="st0" d="M112.7,122.4c-1.1,0-1.9,0.9-1.8,2c0,1,0.8,1.8,1.8,1.8c1.1,0,1.9-0.9,1.8-2
		C114.4,123.3,113.7,122.5,112.7,122.4z"/>
	<path class="st0" d="M124.8,75.3c-1.1,0-1.9,0.9-1.8,2c0,1,0.8,1.8,1.8,1.8c1.1,0,1.9-0.9,1.8-2C126.7,76.1,125.9,75.3,124.8,75.3z
		"/>
	<path class="st0" d="M111.6,46.1c-0.5,0.5-0.5,1.3,0,1.8l0,0l9.2,9.2l-9.2,9.2c-0.5,0.6-0.5,1.3,0,1.8c0.5,0.5,1.3,0.5,1.8,0
		l10.1-10.1c0.5-0.5,0.5-1.3,0-1.8l-10.1-10.1C113,45.7,112.1,45.7,111.6,46.1z"/>
	<path class="st0" d="M56.7,46.1c-0.5-0.5-1.3-0.5-1.8,0L44.7,56.3c-0.5,0.5-0.5,1.3,0,1.8l10.1,10.1c0.5,0.6,1.3,0.6,1.8,0
		c0.6-0.5,0.6-1.3,0-1.8l0,0l-9.2-9.2l9.2-9.2C57.3,47.5,57.3,46.7,56.7,46.1z"/>
	<path class="st0" d="M71.9,88.5c-1.1,0-1.9,0.9-1.8,2c0,1,0.8,1.8,1.8,1.8c1.1,0,1.9-0.9,1.8-2C73.8,89.4,72.9,88.6,71.9,88.5z"/>
	<path class="st0" d="M84.4,92.4c1.1,0,1.9-0.9,1.8-2c0-1-0.8-1.8-1.8-1.8c-1.1,0-1.9,0.9-1.8,2C82.5,91.6,83.4,92.4,84.4,92.4z"/>
	<path class="st0" d="M97.5,92.4c1.1,0,1.9-0.9,1.8-2c0-1-0.8-1.8-1.8-1.8c-1.1,0-1.9,0.9-1.8,2C95.6,91.6,96.5,92.4,97.5,92.4z"/>
	<path class="st0" d="M85.7,60.8c1.9-1.5,4.1-2.7,6.3-3.6c3-1.3,5.8-3,8.3-5c0,0,0.1,0,0.1-0.1c1.1-1,2.2-2,3.1-3.2
		c0.4-0.5,0.7-0.9,1.1-1.4c0,0,0,0,0-0.1c6.1-8.8,9.2-26.2,9.4-27v-0.1v-0.1c0-0.1,0-0.1,0-0.2c0-0.1,0-0.1,0-0.2v-0.1
		c0-0.1-0.1-0.1-0.1-0.1c0-0.1-0.1-0.1-0.1-0.2l-0.1-0.1l0,0c0,0-0.1,0-0.1-0.1c-0.1,0-0.1-0.1-0.2-0.1c0,0-0.1,0-0.1-0.1l0,0
		c-0.1,0-0.1,0-0.2,0H113H113c-0.1,0-0.1,0-0.2,0c-0.1,0-0.1,0-0.2,0s-0.2,0-0.2,0h-0.1l-0.1,0.1c-0.1,0-0.1,0.1-0.2,0.1l-0.1,0.1
		l0,0c-4.5,4.6-9.5,8.9-14.9,12.5c-3.5,2.3-7.2,4.3-11.1,6c-5,2.3-9.4,4.4-13.9,9.2L57.5,32.7l0,0l-7.3-7.2c-0.7-0.7-1.9-0.7-2.8,0
		L11.7,61.2c-0.7,0.7-0.7,2,0,2.8l7.3,7.3l0,0l64.1,64c0.7,0.7,1.9,0.7,2.8,0l0,0l35.7-35.8c0.7-0.7,0.7-2,0-2.8L85.7,60.8z
		 M90.8,54.9c-3.7,1.7-7.4,3.4-10.9,8.4l-3-0.7c-0.7-0.2-1.4,0.3-1.6,1c-0.2,0.7,0.3,1.4,1,1.6l2.2,0.5c-0.6,1-1.2,2-1.9,3
		c-0.5-0.1-1.1-0.2-1.7-0.4c-2.3-0.6-3-0.6-3.6,0.1c-0.3,0.3-0.4,0.7-0.3,1.1c0.1,0.8,0.8,1.3,2.4,2.2l0.4,0.2
		c-2.9,2.5-5,2.2-6.1,1.8c1.8-3.9,4.2-8.1,7.3-13.1c2.1-3.5,5-6.5,8.4-8.9l0,0l4.8,1.1c0.7,0.2,1.4-0.3,1.6-0.9
		c0.2-0.7-0.3-1.4-0.9-1.6c0,0,0,0-0.1,0l-2.3-0.6c1-0.6,2-1.2,3-1.8c6.3-3.5,13.1-7.5,19.7-18.1c-0.6,2.2-1.4,4.7-2.2,7l-1.3-0.3
		c-0.7-0.2-1.4,0.3-1.6,0.9c-0.2,0.7,0.3,1.4,0.9,1.6l0,0l0.9,0.2c-0.8,2.1-1.8,4.1-3,6l-3-0.6c-0.7-0.2-1.4,0.3-1.6,1
		c-0.2,0.7,0.3,1.4,1,1.6l1.8,0.4c-0.6,0.7-1.4,1.5-2.1,2.2l-4.9-1.1c-0.7-0.2-1.4,0.3-1.6,1c-0.2,0.6,0.3,1.4,0.9,1.6l2.9,0.6
		C94.6,53,92.8,54.1,90.8,54.9L90.8,54.9z M75.7,47L75,50.1c-0.2,0.7,0.3,1.4,0.9,1.6c0.7,0.2,1.4-0.3,1.6-0.9c0,0,0,0,0-0.1
		l1.4-6.2c1.2-0.8,2.4-1.5,3.7-2.1l-0.5,2.2c-0.2,0.7,0.3,1.4,1,1.6c0.7,0.2,1.4-0.3,1.6-1l0,0l0.9-4.2l1.3-0.6
		c4-1.8,7.7-3.9,11.3-6.2c1.4-0.9,2.8-1.9,4.1-2.9c0.1,0.5,0.5,0.8,0.9,1c0.1,0,0.2,0,0.3,0c0.6,0,1.1-0.5,1.3-1l0.6-2.5
		c1-0.8,1.9-1.7,2.8-2.4c-3.1,5.9-7.5,11.1-12.9,14.9l0.5-1.8c0.2-0.7-0.3-1.4-1-1.6s-1.4,0.3-1.6,1l0,0l-1,4.5
		c-1.4,0.8-2.8,1.7-4.1,2.4c-5,2.8-9.7,5.4-13.8,11.2l0.3-1.1c0.2-0.7-0.3-1.4-1-1.5c-0.6-0.1-1.4,0.3-1.5,0.9l-1.7,7.7
		c0,0.2,0,0.3,0,0.5c-1.7,2.9-3,5.4-4.2,7.8c-1-3-1.8-9,3.7-17.1C71.4,51.5,73.4,49.1,75.7,47z M28.5,52.1l8.9-8.9
		c0.7-0.7,2-0.7,2.8,0s0.7,1.9,0,2.7l-8.9,8.9c-0.7,0.7-2,0.7-2.8,0C27.9,54.1,27.9,52.9,28.5,52.1L28.5,52.1z M102.1,115.1
		c-1.8,1.8-4.7,1.8-6.5,0c-1.8-1.8-1.8-4.7,0-6.5c1.8-1.8,4.7-1.8,6.5,0C103.9,110.4,103.9,113.3,102.1,115.1L102.1,115.1z
		 M77.2,123.8l-27-26.9l-27-27l33-33l13.2,13.3c-0.6,0.8-1.2,1.7-1.8,2.6c-5.7,8.5-5.3,15-4.1,18.8L61,70.3c-0.6-0.3-1.4,0-1.8,0.6
		c-0.3,0.6-0.1,1.3,0.6,1.7l2.4,1.2l-2.7,0.5c-0.7,0.1-1.2,0.7-1.1,1.5c0.1,0.6,0.6,1.1,1.3,1.1c0.1,0,0.2,0,0.2,0l3.8-0.6
		c-2.1,4.6-3.9,9.4-5.4,14.2l-0.3,0.7c-0.2,0.6,0.1,1.3,0.6,1.6c0.2,0.1,0.4,0.2,0.6,0.2c0.5,0,0.8-0.2,1-0.6
		c0.9-1.4,2.1-2.7,3.3-3.9c1.8-1.2,2.8-2.5,2.7-3.8c-0.2-1.3-0.9-2.4-2.1-3c0.5-1.2,1-2.4,1.7-3.8l0.9,3.1c0.2,0.6,0.6,0.9,1.2,0.9
		c0.1,0,0.3,0,0.4-0.1c0.6-0.2,1.1-0.9,0.8-1.6l-0.7-2.6l2.1,1.7c0.6,0.5,1.4,0.3,1.8-0.3c0.5-0.6,0.3-1.4-0.3-1.8l-1.1-0.8
		c2.2-0.6,4.1-1.9,5.6-3.6c0.4-0.4,0.5-0.9,0.3-1.4c0.6,0.1,1-0.1,1.4-0.6c0.9-1.3,1.8-2.6,2.6-4c0.6-1.1,1.3-2.1,2.1-3.1L110,90.9
		L77.2,123.8z M63.6,84.6c0,0,0,0.5-1.3,1.4c0.3-0.6,0.5-1.3,0.7-2C63.4,84.3,63.6,84.5,63.6,84.6L63.6,84.6z"/>
</g>
</svg>
