<?xml version="1.0" encoding="utf-8"?>
<!-- Generator: Adobe Illustrator 23.0.4, SVG Export Plug-In . SVG Version: 6.00 Build 0)  -->
<svg version="1.1" id="Layer_1" xmlns="http://www.w3.org/2000/svg" xmlns:xlink="http://www.w3.org/1999/xlink" x="0px" y="0px"
	 viewBox="0 0 134 149.2" style="enable-background:new 0 0 134 149.2;" xml:space="preserve">
<style type="text/css">
	.st0{fill:#293376;}
	.st1{fill:#FFFFFF;}
</style>
<g>
	<path class="st0" d="M299.7,705c-0.7,0-1.3-0.3-1.7-1c-0.5-0.9-0.2-2.1,0.7-2.6l4.5-2.6c0.9-0.5,2.1-0.2,2.6,0.7s0.2,2.1-0.7,2.6
		l-4.5,2.6C300.4,704.9,300,705,299.7,705z"/>
	<path class="st0" d="M310.9,698.5c-0.7,0-1.3-0.3-1.7-1c-0.5-0.9-0.2-2.1,0.7-2.6l4.5-2.6c0.9-0.5,2.1-0.2,2.6,0.7s0.2,2.1-0.7,2.6
		l-4.5,2.6C311.6,698.5,311.3,698.5,310.9,698.5z"/>
	<path class="st0" d="M312.1,708.3c-0.7,0-1.3-0.3-1.7-1l-2.6-4.5c-0.5-0.9-0.2-2.1,0.7-2.6c0.9-0.5,2.1-0.2,2.6,0.7l2.6,4.5
		c0.5,0.9,0.2,2.1-0.7,2.6C312.7,708.2,312.4,708.3,312.1,708.3z"/>
	<path class="st0" d="M305.6,697.1c-0.7,0-1.3-0.3-1.7-1l-2.6-4.5c-0.5-0.9-0.2-2.1,0.7-2.6c0.9-0.5,2.1-0.2,2.6,0.7l2.6,4.5
		c0.5,0.9,0.2,2.1-0.7,2.6C306.3,697,306,697.1,305.6,697.1z"/>
	<g>
		<path class="st0" d="M227,654.7c-0.1,0-0.1,0-0.2,0l-5.1-0.6c-1-0.1-1.8-1.1-1.7-2.1s1-1.8,2.1-1.7l5.1,0.6c1,0.1,1.8,1.1,1.7,2.1
			S227.9,654.7,227,654.7z"/>
		<path class="st0" d="M231.2,651.3c-0.1,0-0.1,0-0.2,0c-1-0.1-1.8-1.1-1.7-2.1l0.6-5.9c0.1-1,1-1.8,2.1-1.7c1,0.1,1.8,1.1,1.7,2.1
			l-0.6,5.9C233,650.6,232.2,651.3,231.2,651.3z"/>
		<path class="st0" d="M239.8,656.1c-0.1,0-0.1,0-0.2,0l-5.1-0.6c-1-0.1-1.8-1.1-1.7-2.1s1-1.8,2.1-1.7l5.1,0.6
			c1,0.1,1.8,1.1,1.7,2.1C241.6,655.4,240.8,656.1,239.8,656.1z"/>
		<path class="st0" d="M229.9,664.1c-0.1,0-0.1,0-0.2,0c-1-0.1-1.8-1.1-1.7-2.1l0.6-5.1c0.1-1,1-1.8,2.1-1.7c1,0.1,1.8,1.1,1.7,2.1
			l-0.6,5.1C231.6,663.4,230.8,664.1,229.9,664.1z"/>
	</g>
	<path class="st0" d="M226.1,745.4c0.2-2.2,2.2-3.7,4.3-3.5c2.8,0.3,9.4,1.1,13.5,1.6c2,0.2,3.4,2,3.2,4l-0.1,0.9
		c-0.2,2-2.1,3.5-4.1,3.2c-4.1-0.5-10.4-1.3-13.4-1.7C227.4,749.5,225.9,747.5,226.1,745.4L226.1,745.4z"/>
	<path class="st0" d="M221.7,755.6l0.1-0.6c0.2-2,2.1-3.5,4.1-3.2c3.7,0.5,11.4,1.4,16,2c2,0.2,3.4,2,3.2,4l-0.1,0.5
		c-0.2,2-2,3.5-4,3.2c-4.7-0.5-12.5-1.4-16-1.8C222.9,759.4,221.4,757.6,221.7,755.6z"/>
	<path class="st0" d="M221.9,766.6l0.1-0.7c0.2-2,2-3.4,4-3.2c3.6,0.4,10.3,1.2,14.5,1.6c2,0.2,3.4,2,3.2,4l-0.1,0.7
		c-0.2,2-2,3.5-4,3.2c-4.3-0.5-11.2-1.3-14.5-1.6C223.1,770.5,221.7,768.6,221.9,766.6z"/>
	<path class="st0" d="M242.6,778.6c-0.2,2-2,3.4-4,3.2c-3.5-0.4-8.6-1-11.5-1.3c-2-0.2-3.4-2-3.2-4l0,0c0.2-2,2-3.4,4-3.2
		c3,0.3,8.1,0.9,11.5,1.3C241.4,774.8,242.8,776.6,242.6,778.6L242.6,778.6z"/>
	<path class="st0" d="M258.9,805.2c-1.1,0-2.2,0-3.3-0.1c-18.7-1-32.9-10.3-41-27c-6.2-12.7-7-25.2-2.5-40.6
		c0.2-0.8,1.1-1.3,1.9-1.1c0.8,0.2,1.3,1.1,1.1,1.9c-4.2,14.6-3.5,26.5,2.3,38.4c7.7,15.8,20.6,24.3,38.4,25.2
		c13.4,0.5,23.6-2,31.9-7.7c12.2-8.4,18.2-19.8,18-33.9c-0.2-12.3-4.5-23.4-13.1-33.9c-0.5-0.7-0.4-1.6,0.2-2.2
		c0.7-0.5,1.6-0.4,2.2,0.2c9,10.9,13.6,23,13.8,35.8c0.2,15.2-6.3,27.4-19.3,36.5C281.2,802.5,271.5,805.2,258.9,805.2z"/>
	<path class="st0" d="M253.3,703.4c-0.7,0-1.3-0.4-1.5-1.1c-4.5-15.8,3.7-35.2,16.7-39.3c0.6-0.2,1.3,0,1.7,0.5
		c0.4,0.5,0.5,1.2,0.1,1.7c-0.5,0.8-11.1,20.2,4.4,35.6c0.6,0.6,0.6,1.6,0,2.2c-0.6,0.6-1.6,0.6-2.2,0c-12.9-12.8-9.3-28.3-6.7-35.4
		c-9.2,5.8-14.7,21.4-11.1,33.9c0.2,0.8-0.2,1.7-1.1,1.9C253.6,703.4,253.4,703.4,253.3,703.4z"/>
	<path class="st0" d="M273.4,775.9c-3-2.5-5.1-7.4-4.3-9.9l0.3-0.9c-3.7-4.1-5.5-9.2-3.7-11.7l0.5-0.7l0.7,0.5
		c1.9,1.3,4,2.5,4.8,2.6c0-0.2-0.1-0.6-0.4-1c-3.3-4.2-4.1-8-2.2-10.9c-0.9-2-2.2-4.3-4.5-6.5c-1.5-1.5-2.1-16.7-2.9-18.8
		c-0.5-1.1-5.4-2.4-7.2,1.9c-0.9,2.1-0.3,4.3,0.1,6.5c1.4,7.7-1.9,13.7-2.6,16c-0.9,3.1-1.3,4.9-0.1,8.8c1,3.1,4.1,6.5,7.1,8.2
		c1.5,0.8,2.6,1.6,2.2,2.1c-0.5,0.7-5-1.6-6.3-3c-2.2-2.3-3.7-4.1-4.7-7.1c-0.6-1.9-1.9-1.1-3.2-0.3c-1.1,0.6-2.1,1.3-2.1,1.3
		l0.9,1.4c1.5,2.2,1.1,5.2-0.7,7l-1.3,1.3l-0.1,1l1,1.5c1.4,2.3,1,5.3-1,7.1l-1.1,1l-0.1,0.9l0.7,0.9c1.6,2.2,1.4,5.3-0.6,7.2
		c0,0,3.9,0.5,4.1,0.5c12.2,0.3,18.9-6,19.5-6c1.2,0.1,3,0.3,5.1,0.5C272,776.8,272.7,776.3,273.4,775.9z"/>
	<path class="st0" d="M301,719.1c-9.5-11.1-27.4-25.1-25.2-41.4c1.1-8.6,5.1-16.1,10.7-22.5c1.3-1.5,3.3-3,1.5-4.8
		c-1-1-4.3-0.6-5.3-0.5c-5.2,0.1-10.3,1.3-15.1,3.2c-7.3,2.9-14.4,7.7-19.2,14c-5.8,7.6-7.6,17.4-7.3,26.8c0.1,4.3,0.7,8.5,1.7,12.7
		c0.9,4.1,2.5,8.4,1.8,12.6c-0.6,3.4-3.2,6.6-7,5.9c-4.4-0.8-4.6-5.2-4.2-8.7c0.4-3.4,1.8-6.9,1.3-10.3c-0.5-3.6-2.6-5.3-6.2-3.9
		c-7.9,3.1-15.3,12.8-19.6,19.9c-5.1,8.3-7.6,18.2-8.5,27.9c-1.8,19.7,6.7,40.7,22.7,52.8c13.9,10.5,31.6,12.3,48.4,9.8
		c18.3-2.7,35.5-14.2,42.6-31.8C322.5,759.6,314.7,736.1,301,719.1c-1-1.3-2.8,0.5-1.8,1.8c12.8,15.9,20.2,37.7,12.9,57.6
		c-6.1,16.8-22.3,28.4-39.6,31.3c-17.3,2.9-35.9,1-49.8-10.6c-17.1-14.2-23.1-37.5-18.3-58.7c2.3-10.4,6.9-19.3,14.3-27.1
		c1.7-1.8,10.3-11.8,13.3-7.9c1.5,2-1.1,8.5-1.3,10.7c-0.5,4.3,0.3,9.3,4.8,11c3.9,1.5,8.4-0.4,10.4-3.9c2.6-4.6,0.9-10.7-0.2-15.5
		c-2.2-9.2-3.1-19-0.6-28.2c2.7-9.8,9.5-17,18.2-21.8c5-2.7,10.6-4.7,16.3-5.3c2.1-0.2,4.1-0.3,6.2-0.2c0.9,0.1,0.8-1-0.2,0
		c-8.4,8.4-15.2,22.5-11.4,34.3c4.3,13.7,16.1,23.5,25.1,34.1C300.2,722.2,302,720.4,301,719.1z"/>
	<path class="st0" d="M295.9,750.4c-3.3-3.5-5.9-6.7-7-8.3c-0.3,0.7-0.3,2,0.6,4.2c-0.1,0-0.1,0-0.1,0c0.4,2.4-2.5,0-3.1-0.5
		c-2.3-2.3-3.7-4.1-4.5-5.1c-0.5,0.9-0.7,2.4-0.7,4.2v1.9l-1.5-1.2c-2.4-2-4.2-3.9-5.2-5c-0.3,1-0.4,2.8,0.1,4.9
		c0.2,1-0.4,1.5-0.4,1.5c-0.3,0.2-0.6,0.4-1,0.4l0,0c-1.1,0-2.1-1.1-2.9-2.1c-1.5,2.8,0.4,6.2,2.4,8.7l0.1,0.2
		c0.3,0.6,1.1,2.3,0.1,3.2c-1,0.8-3,0.1-6.2-2c-0.5,2.4,2,7.4,6.1,10.7l0.1,0.1c0.1,0.1,0.2,0.2,0.3,0.3c0.6,0.6,1.1,1.2,0.9,1.9
		c-0.1,0.4-0.4,0.6-0.8,0.7c-0.3,0.1-0.7,0.2-2.7-1.2c0.3,2.2,2.1,5.6,4.3,7.1l0.3,0.2c0.2,0.1,0.3,0.2,0.4,0.3l0.6,0.8l-0.9,0.4
		c-2.9,1.3-5.2,3.7-5.8,5.3c1.3-0.4,3.7-1.1,6.6-1.6l2.1-0.4l-1.3,1.7c-0.8,1.1-1.2,2-1.2,2.6c1.2-0.5,3.7-1.3,8-2.3l0.4-0.1
		c0.2,0,0.6,0,0.8,0.2c0.2,0.2,0.4,0.7,0.1,1.1l-0.5,0.3c-1.6,1.1-2.1,1.8-2.1,2.2c1.5-0.6,5.1-1.9,9.4-3.1
		C300.4,771.5,298.3,758.9,295.9,750.4z"/>
	<circle class="st0" cx="291.7" cy="678.4" r="3.5"/>
	<circle class="st0" cx="258.3" cy="641.8" r="3.5"/>
	<circle class="st0" cx="224.9" cy="680" r="3.5"/>
</g>
<g>
	<g>
		<path class="st1" d="M104.4,68.3l2.2,2c0.9,0.9,2.4-0.5,1.4-1.4c-0.7-0.7-1.4-1.3-2.2-2C104.9,66,103.5,67.4,104.4,68.3z"/>
		<path class="st1" d="M109.8,73.3l2.2,2c0.9,0.9,2.4-0.5,1.4-1.4l-2.2-2C110.3,71.1,108.9,72.4,109.8,73.3z"/>
		<path class="st1" d="M104.7,74.2c-0.9,0.9,0.5,2.4,1.4,1.4c0.7-0.7,1.3-1.4,2-2.2c0.9-0.9-0.5-2.4-1.4-1.4
			C106,72.7,105.4,73.4,104.7,74.2z"/>
		<path class="st1" d="M111.1,70.2c0.7-0.7,1.3-1.4,2-2.2c0.9-0.9-0.5-2.4-1.4-1.4c-0.7,0.7-1.3,1.4-2,2.2
			C108.9,69.7,110.2,71.2,111.1,70.2z"/>
	</g>
	<path class="st1" d="M28.6,92.1c-2.8,1-5.9,0.9-8.6-0.4c-2.7-1.3-4.8-3.6-5.8-6.4c-1-2.8-0.9-5.9,0.4-8.6c1.3-2.7,3.6-4.8,6.4-5.8
		c2.8-1,5.9-0.9,8.6,0.4c2.7,1.3,4.8,3.6,5.8,6.4c1,2.8,0.9,5.9-0.4,8.6C33.7,89,31.4,91.1,28.6,92.1z M21.5,72.4
		c-2.4,0.9-4.4,2.6-5.4,4.9c-1.1,2.3-1.2,4.9-0.4,7.3c0.9,2.4,2.6,4.4,4.9,5.4s4.9,1.2,7.3,0.4c2.4-0.9,4.4-2.6,5.4-4.9
		c1.1-2.3,1.2-4.9,0.4-7.3c-0.9-2.4-2.6-4.4-4.9-5.4C26.6,71.6,24,71.5,21.5,72.4z"/>
	<path class="st1" d="M20.1,54.6c-0.2,0.1-0.4,0.1-0.6,0c-0.4-0.2-0.6-0.7-0.4-1.1l6.2-13.1c0.2-0.4,0.7-0.6,1.1-0.4
		c0.4,0.2,0.6,0.7,0.4,1.1l-6.2,13.1C20.5,54.4,20.3,54.5,20.1,54.6z"/>
	<path class="st1" d="M12.2,71.3c-0.2,0.1-0.4,0.1-0.6,0c-0.4-0.2-0.6-0.7-0.4-1.1l4.6-9.8c0.2-0.4,0.7-0.6,1.1-0.4
		c0.4,0.2,0.6,0.7,0.4,1.1l-4.6,9.8C12.6,71.1,12.4,71.3,12.2,71.3z"/>
	<path class="st1" d="M47.3,48.7c-0.2,0.1-0.4,0.1-0.6,0c-0.4-0.2-0.6-0.7-0.4-1.1l6.7-14.1c0.2-0.4,0.7-0.6,1.1-0.4
		c0.4,0.2,0.6,0.7,0.4,1.1l-6.7,14.1C47.7,48.5,47.5,48.7,47.3,48.7z"/>
	<path class="st1" d="M41.6,60.8c-0.2,0.1-0.4,0.1-0.6,0c-0.4-0.2-0.6-0.7-0.4-1.1l2.5-5.3c0.2-0.4,0.7-0.6,1.1-0.4
		c0.4,0.2,0.6,0.7,0.4,1.1l-2.5,5.3C42,60.6,41.8,60.7,41.6,60.8z"/>
	<path class="st1" d="M39.2,38.7c-0.2,0.1-0.4,0.1-0.6,0c-0.4-0.2-0.6-0.7-0.4-1.1l4.2-9c0.2-0.4,0.7-0.6,1.1-0.4
		c0.4,0.2,0.6,0.7,0.4,1.1l-4.2,9C39.6,38.4,39.4,38.6,39.2,38.7z"/>
	<path class="st1" d="M27.1,64.4c-0.2,0.1-0.4,0.1-0.6,0c-0.4-0.2-0.6-0.7-0.4-1.1l9.3-19.7c0.2-0.4,0.7-0.6,1.1-0.4
		c0.4,0.2,0.6,0.7,0.4,1.1L27.5,64C27.4,64.2,27.3,64.3,27.1,64.4z"/>
	<path class="st1" d="M21.2,76.8c-0.2,0.1-0.4,0.1-0.6,0c-0.4-0.2-0.6-0.7-0.4-1.1l4-8.4c0.2-0.4,0.7-0.6,1.1-0.4
		c0.4,0.2,0.6,0.7,0.4,1.1l-4,8.4C21.6,76.6,21.4,76.7,21.2,76.8z"/>
	<path class="st1" d="M35.9,69.5l-6.6,14.1c-0.2,0.4,0,0.9,0.4,1.1c0.2,0.1,0.4,0.1,0.6,0c0.2-0.1,0.4-0.2,0.5-0.4l6.5-13.8
		L35.9,69.5z"/>
	<path class="st1" d="M63.2,70.2c1,0,1.7-0.7,1.7-1.6c0-0.9-0.7-1.7-1.6-1.7c-0.9,0-1.7,0.8-1.7,1.7C61.5,69.4,62.2,70.1,63.2,70.2z
		"/>
	<path class="st1" d="M80.3,75.4c0.9,0,1.7-0.8,1.7-1.7c0-0.9-0.8-1.7-1.7-1.7c-0.9,0-1.7,0.8-1.6,1.7
		C78.7,74.6,79.4,75.4,80.3,75.4z"/>
	<path class="st1" d="M70.6,75.2c0.9,0,1.7-0.8,1.7-1.7c0-0.9-0.8-1.7-1.7-1.7c-0.9,0-1.7,0.8-1.6,1.7C69,74.5,69.7,75.2,70.6,75.2z
		"/>
	<path class="st1" d="M79,93.6C79,93.6,79,93.6,79,93.6C79,93.5,79,93.6,79,93.6z"/>
	<path class="st1" d="M77.4,80.5c-4.6,0-8.5-1.2-8.8-1.3c-11.3-4-14.5-13.1-14.6-13.5l2.1-0.7c0,0.1,3,8.5,13.2,12.1
		c0.1,0,12.2,3.8,18.6-2.4l1.6,1.6C86.1,79.6,81.5,80.5,77.4,80.5z"/>
	<path class="st1" d="M110.6,83.7c-0.5-3.3-3.7-5.5-7.2-5c-2.5,0.4-4.9,0.7-7.4,1c-0.6,0.1-1-0.1-1.3-0.5c-1.5-1.7-2.9-3.4-4.4-5.1
		l0,0c0,0,0,0,0,0c-0.6-0.6-1.1-1.2-1.7-1.9l-0.2-0.2c-2.5-2.9-4.6-4.6-6-5.5c-1.6,0.4-3.2,0.6-4.6,0.6c-2.4,0-4.6-0.5-6.6-1.5
		c-2.5-1.3-4.3-3.3-5.6-5.2c-4.6,0.7-9.2,2.7-9.2,2.7l0,0c-2,0.9-4,1.7-6,2.6c-0.5,0.2-0.9,0.2-1.4-0.2C47,64,45,62.5,43,61
		c-2.9-2.2-6.6-1.8-8.8,1c-2.1,2.7-1.5,6.5,1.4,8.7c3,2.3,6.1,4.7,9.2,7c1.5,1.2,3.2,1.5,5.1,1.2c0.7-0.1,1.5-0.2,2.2-0.3
		c0.8-0.2,1,0,0.7,0.8c-1.1,3.3-2.1,6.7-3.1,10c-1.2,4.1-3.2,7.8-5.1,11.6c-3.9,7.7-6.4,15.8-8.7,24.1c-0.4,1.3-0.9,2.7-0.6,4.1
		c0.8,4.2,5.3,6.8,9.3,5.1c1.8-0.7,2.9-2.1,3.4-3.9c1.1-4.7,2.2-9.4,3.3-14.1c0.2-0.8,0.5-1.5,1-2.2c2.2-3.1,4.4-6.2,6.5-9.4
		c0.4-0.6,0.8-0.7,1.4-0.5c2.3,0.8,2.3,0.7,2,3.2c-0.3,3-0.6,6-0.9,9c-0.1,1-0.3,1.9-0.8,2.8c-2.3,4-4.5,7.9-6.7,11.9
		c-1.9,3.5-0.9,6.9,2.7,8.8c3.2,1.7,7.3,0.4,8.9-2.8c2.2-4.4,4.4-8.9,6.5-13.3c1.6-3.2,2.3-6.7,3.4-10.1c1.5-4.6,2.9-9.3,4.3-13.9
		c0,0,0,0,0,0l2.2-7c0,0,0,0,0-0.1c0.5-1.7,1-3.3,1.6-5c0.2-0.6,0.3-0.9,0.9-0.3c1.5,1.2,3.1,2.3,4.5,3.5c1.4,1.3,3.2,1.7,5.1,1.4
		c3.7-0.5,7.5-1,11.2-1.5C108.7,90.3,111.1,87.2,110.6,83.7z M37.3,68.9c-1.1-0.8-1.8-1.8-1.8-3.6c0-1,0.6-2.1,1.8-2.8
		c1.2-0.7,2.5-0.7,3.6,0.1c0.6,0.4,1.1,0.9,1.7,1.2c0.6,0.3,0.5,0.7,0.3,1.3c-0.5,1.4-1.4,2.7-2.5,3.7C38.9,70.1,39,70.1,37.3,68.9z
		 M46.7,125.4c-0.4,1.4-0.7,2.8-1,4.2c-0.5,1.8-1.6,2.8-3.5,2.8c-2.7,0-4.9-2.4-4.3-4.8c0.4-1.6,1-3.2,1.4-4.8
		c0.2-0.6,0.4-0.5,0.8-0.3c1.9,1,4,1.7,6.1,2.1C46.7,124.6,46.8,124.9,46.7,125.4z M51.9,110.5c-0.5,0.7-1,1.5-1.5,2.2
		c-0.8,1-1.2,2-1.5,3.3c-0.4,2-0.9,3.9-1.4,5.8c-0.1,0.5-0.3,0.8-0.9,0.6c-2.1-0.4-4.1-1.1-6-2.1c-0.3-0.2-0.6-0.3-0.4-0.8
		c1.2-4.3,2.4-8.5,4.5-12.4c0.2-0.3,0.4-0.5,0.8-0.5c0.3,0,0.5,0.1,0.8,0.1c1.8,0.4,3.5,1.2,5.2,2C52.7,109.4,52.7,109.4,51.9,110.5
		z M65.2,131.9c-0.7,1.3-1.4,2.7-2,4.1c-0.7,1.6-2.1,2.2-3.5,2.3c-3.2,0-5.2-2.9-4-5.4c0.7-1.5,1.6-2.9,2.4-4.3
		c0.2-0.3,0.3-0.5,0.8-0.2c1.9,1.2,3.9,2,6,2.7C65.4,131.2,65.5,131.4,65.2,131.9z M72,116.2c-1.1,4.4-3.1,8.5-5.2,12.6
		c-0.1,0.3-0.3,0.5-0.7,0.4c-2.1-0.7-4.2-1.4-6-2.6c-0.5-0.3-0.5-0.6-0.2-1c0.7-1.2,1.4-2.4,2-3.6c1-1.7,2.1-3.4,2-5.5
		c0-0.8,0.2-1.6,0.2-2.4c0-0.5,0.2-0.7,0.7-0.5c2.3,0.2,4.6,0.9,6.8,1.9C72,115.4,72.1,115.7,72,116.2z M99.9,89
		c-2.1,0.3-4.2,0.6-6.3,0.9c-1.3,0.2-2.4-0.1-3.4-1c-2-1.6-4.1-3.2-6.1-4.8c-1.1-0.8-1.9-0.6-2.3,0.7c-0.2,0.5-0.3,1.1-0.5,1.6
		c-0.6,2-1.2,4-1.9,6L79,93.6c0,0.1,0,0,0,0c-2,6.3-3.9,12.6-5.9,18.8c-0.2,0.7-0.5,0.9-1.2,0.6c-2.2-1-4.4-1.6-6.8-1.8
		c-0.6-0.1-0.7-0.3-0.7-0.8c0.2-1.9,0.4-3.8,0.6-5.7c0.1-0.9-0.2-1.5-1.1-1.7c-1.5-0.5-3-0.9-4.5-1.4c-0.8-0.2-1.4,0-1.8,0.7
		c-1.1,1.6-2.2,3.1-3.2,4.7c-0.3,0.5-0.6,0.6-1.1,0.3c-2.1-1.2-4.4-2.3-6.8-2.7c-0.5-0.1-0.5-0.3-0.3-0.6c0.5-1.1,1-2.2,1.5-3.3
		c1.3-2.8,2.7-5.5,3.7-8.4c1.6-4.7,3-9.6,4.5-14.4c0.4-1.3-0.1-2-1.5-1.9c-1.5,0.1-3.1,0.3-4.6,0.6c-1.1,0.2-2.2,0.2-3.1-0.4
		c-1.9-1.4-3.7-2.8-5.6-4.2c-0.3-0.3-0.3-0.4,0-0.7c1.8-1.4,3.1-3.1,4-5.3c1,0.8,2,1.4,2.9,2.2c0.8,0.7,1.6,0.8,2.6,0.3
		c0,0,5.8-3,10.4-4.4c0.1,0,0.3-0.1,0.4-0.1c1.1-0.3,2.1-0.5,3-0.5c0.5,0,0.7,0.1,1,0.5c4,5,9.1,6.7,15.3,5c0.4-0.1,0.6-0.1,1,0.1
		c0,0,4.9,4,10.9,11.8c0.2,0.3,0.5,0.6,0.7,0.8c0.6,0.7,1.3,1,2.2,0.8c1.2-0.2,2.3-0.3,3.5-0.5c0.5-0.1,0.7,0,0.6,0.6
		c-0.2,2-0.1,4,0.8,5.9C100.7,88.9,100.4,88.9,99.9,89z M108.1,85.3c-0.4,2-1.9,3-4.5,3.2c-0.5,0-0.8-0.2-1-0.6
		c-0.6-1.3-0.9-2.6-0.9-4.1c0.1-0.5,0.1-1.2,0.2-1.8c0-0.3,0.1-0.6,0.5-0.6c0.8-0.1,1.7-0.3,2.5-0.2C107,81.3,108.5,83.3,108.1,85.3
		z"/>
	<path class="st1" d="M87.3,42.7c0,0-0.5-0.3-0.8-1.1c-0.4-1.1-0.1-1.9-0.1-1.9l2.2-8.2l-2.2-0.9L82.3,38c0,0-0.4,0.8-1.4,1.2
		c-0.8,0.4-1.4,0.2-1.4,0.2l-7.6-1.6l-1.8,4.3l5.7,2.3c0,0,1.2,0.4,1.6,1.5c0.3,0.7-0.1,2.1-0.1,2.1l-4.4,13.9l3.1,1.3l6.8-12.9
		c0,0,0.7-1.3,1.4-1.6c1.1-0.5,2.2,0.1,2.2,0.1l5.6,2.5l1.8-4.3L87.3,42.7z M79.3,43.9l-7-2.7l0.8-1.9l7.3,2.3L79.3,43.9z M91.1,49
		L84.2,46l0.9-2.3l6.8,3.5L91.1,49z"/>
	<path class="st1" d="M84.9,29.9l-3.6,6.5c0,0-0.3,0.4-0.8,0.7c-0.7,0.4-1.1,0.2-1.1,0.2l-6.4-1.2l5.8-8.8L84.9,29.9z"/>
	<path class="st1" d="M80.6,22.9l-1.1,2.7L97.4,33l1.1-2.7L80.6,22.9z M83.7,26.5c-0.4-0.2-0.6-0.6-0.4-1c0.2-0.4,0.6-0.6,1-0.4
		c0.4,0.2,0.6,0.6,0.4,1C84.5,26.5,84.1,26.6,83.7,26.5z M88.7,28.6c-0.4-0.2-0.6-0.6-0.4-1c0.2-0.4,0.6-0.6,1-0.4
		c0.4,0.2,0.6,0.6,0.4,1C89.5,28.6,89.1,28.8,88.7,28.6z M93.4,30.6c-0.4-0.2-0.6-0.6-0.4-1c0.2-0.4,0.6-0.6,1-0.4
		c0.4,0.2,0.6,0.6,0.4,1C94.2,30.6,93.8,30.8,93.4,30.6z"/>
	<path class="st1" d="M75.2,47.1c-0.3-0.6-1-0.9-1-0.9l-5.1-2.1l-4.4,10.5l6.4,7.4l4-13.1C75.1,48.9,75.5,47.8,75.2,47.1z
		 M69.1,52.9c-0.4-0.2-0.6-0.6-0.4-1c0.2-0.4,0.6-0.6,1-0.4c0.4,0.2,0.6,0.6,0.4,1C70,52.9,69.5,53.1,69.1,52.9z M71.7,50.2
		c0.2-0.4,0.6-0.6,1-0.4c0.4,0.2,0.6,0.6,0.4,1c-0.2,0.4-0.6,0.6-1,0.4C71.7,51,71.5,50.6,71.7,50.2z M70.9,52.9
		c0.2-0.4,0.6-0.6,1-0.4c0.4,0.2,0.6,0.6,0.4,1c-0.2,0.4-0.6,0.6-1,0.4C70.9,53.8,70.7,53.3,70.9,52.9z M70.4,56.9
		c-0.4-0.2-0.6-0.6-0.4-1c0.2-0.4,0.6-0.6,1-0.4c0.4,0.2,0.6,0.6,0.4,1C71.2,56.8,70.8,57,70.4,56.9z"/>
	<path class="st1" d="M90.3,32.3l-2.1,7.2c0,0-0.1,0.5,0,1.1c0.2,0.8,0.7,0.9,0.7,0.9l5.3,3.6l2.2-10.3L90.3,32.3z"/>
	<path class="st1" d="M84,52.2l-6.5,12.1l9.8-0.6l4.4-10.5l-5-2.2c0,0-0.7-0.3-1.3,0C84.6,51.2,84,52.2,84,52.2z M85,58.3
		c0.2-0.4,0.6-0.6,1-0.4c0.4,0.2,0.6,0.6,0.4,1c-0.2,0.4-0.6,0.6-1,0.4C85,59.1,84.9,58.7,85,58.3z M84.6,56c-0.4-0.2-0.6-0.6-0.4-1
		c0.2-0.4,0.6-0.6,1-0.4c0.4,0.2,0.6,0.6,0.4,1C85.4,55.9,85,56.1,84.6,56z M83.2,58.5c-0.4-0.2-0.6-0.6-0.4-1
		c0.2-0.4,0.6-0.6,1-0.4c0.4,0.2,0.6,0.6,0.4,1C84,58.4,83.6,58.6,83.2,58.5z M81.3,60.2c0.2-0.4,0.6-0.6,1-0.4
		c0.4,0.2,0.6,0.6,0.4,1c-0.2,0.4-0.6,0.6-1,0.4C81.4,61,81.2,60.6,81.3,60.2z"/>
	<path class="st1" d="M98,36l-1.8,9.1c0,0,7.4,0.1,12.6-4.6c4.4-4.1,4.7-13.3,4.7-13.3s-0.1-1.6-1.1-1.8c-1.1-0.3-1.3,1-1.3,1
		s-2.3,6.5-6.4,9C101.7,37.3,98,36,98,36z"/>
	<path class="st1" d="M76.8,26.8l-5.2,7.7c0,0-5.3-5.2-5.6-12.2c-0.2-6,6.2-12.7,6.2-12.7s1.1-1,2.1-0.5c1,0.6,0.3,1.6,0.3,1.6
		s-3,6.2-1.9,10.9C73.4,25.1,76.8,26.8,76.8,26.8z"/>
	<g>
		<path class="st1" d="M80.1,102.4c-0.5,0-0.9,0-1.4,0l-0.1-3.1c0.6,0,1.1,0,1.7,0L80.1,102.4z"/>
		<path class="st1" d="M102.4,140.8c-0.9-0.1-2.2-0.3-3.5-0.9l1.3-2.8c0.9,0.4,1.9,0.6,2.6,0.7L102.4,140.8z M105.9,140.8l-0.4-3.1
			c0.9-0.1,1.8-0.4,2.5-0.7l1.3,2.8C108.3,140.3,107.1,140.6,105.9,140.8z M95.8,137.6c-0.8-1-1.3-2.2-1.6-3.5l3-0.6
			c0.2,0.8,0.5,1.6,0.9,2.1L95.8,137.6z M112.3,137.6l-2.3-2.1c0.5-0.6,1-1.4,1.3-2.2l2.9,1.1C113.8,135.6,113.1,136.7,112.3,137.6z
			 M115,130.9l-3.1-0.3c0-0.4,0-0.6,0-0.8l0-1.8c0-0.2,0-0.3,0-0.5l3.1,0.1l0,1.8c0,0,0,0.1,0,0.3
			C115.1,130.1,115.1,130.4,115,130.9z M97.2,130.7h-3.1v-3.1h3.1V130.7z M115.6,125.3l-2.8-1.3c0.5-1.1,1.3-2.1,2.3-3l2.1,2.3
			C116.5,123.9,116,124.5,115.6,125.3z M97.2,124.4l-3.1-0.1c0-0.2,0-0.4,0-0.7c0-0.6,0-1.4-0.1-2.3l3.1-0.2c0.1,1,0.1,1.9,0.1,2.5
			C97.2,124,97.2,124.2,97.2,124.4z M119.4,121.9l-1.3-2.8c1-0.5,2-0.8,3.2-1.1l0.8,3C121.1,121.2,120.2,121.5,119.4,121.9z
			 M125,120.3l-0.4-3.1c1-0.1,2.1-0.2,3.3-0.3l0.1,3.1C127,120.1,126,120.2,125,120.3z M93.8,118.3c-0.1-1-0.3-2-0.6-3l3-0.7
			c0.2,1,0.5,2.1,0.6,3.2L93.8,118.3z M92.4,112.5c-0.3-1-0.7-1.9-1.2-2.7l2.8-1.4c0.5,1,0.9,2,1.3,3.1L92.4,112.5z M89.7,107.4
			c-0.6-0.8-1.2-1.5-1.9-2.1l2-2.3c0.9,0.7,1.6,1.6,2.4,2.5L89.7,107.4z M85.5,103.8c-0.8-0.4-1.7-0.8-2.6-1l0.8-3
			c1.1,0.3,2.2,0.7,3.2,1.2L85.5,103.8z"/>
	</g>
	<polygon class="st1" points="77.2,103.7 80.5,104.9 82.8,96.1 80,94.8 	"/>
	<path class="st1" d="M44.6,75.6l-5.9,12.5c-1.8,3.7-4.9,6.5-8.7,7.9c-3.9,1.4-8.1,1.2-11.8-0.6s-6.5-4.9-7.9-8.7
		C8.8,82.9,9,78.7,10.8,75l0.1-0.1c0.2-0.4,0-0.9-0.4-1.1c-0.4-0.2-0.9,0-1.1,0.4l-0.1,0.1c-2,4.1-2.2,8.8-0.6,13.1
		c1.5,4.3,4.7,7.7,8.8,9.7c4.1,2,8.8,2.2,13.1,0.6c4.3-1.5,7.7-4.7,9.7-8.8L46,76.6L44.6,75.6z"/>
	<path class="st1" d="M49.4,67l1.3-0.4l4.7-9.9c0.2-0.4,0-0.9-0.4-1.1c-0.4-0.2-0.9,0-1.1,0.4l-5,10.6L49.4,67z"/>
</g>
</svg>
