<?xml version="1.0" encoding="utf-8"?>
<!-- Generator: Adobe Illustrator 23.0.4, SVG Export Plug-In . SVG Version: 6.00 Build 0)  -->
<svg version="1.1" id="Layer_1" xmlns="http://www.w3.org/2000/svg" xmlns:xlink="http://www.w3.org/1999/xlink" x="0px" y="0px"
	 viewBox="0 0 134 149.2" style="enable-background:new 0 0 134 149.2;" xml:space="preserve">
<style type="text/css">
	.st0{fill:#293376;}
	.st1{fill:#FFFFFF;}
</style>
<g>
	<path class="st0" d="M299.7,705c-0.7,0-1.3-0.3-1.7-1c-0.5-0.9-0.2-2.1,0.7-2.6l4.5-2.6c0.9-0.5,2.1-0.2,2.6,0.7s0.2,2.1-0.7,2.6
		l-4.5,2.6C300.4,704.9,300,705,299.7,705z"/>
	<path class="st0" d="M310.9,698.5c-0.7,0-1.3-0.3-1.7-1c-0.5-0.9-0.2-2.1,0.7-2.6l4.5-2.6c0.9-0.5,2.1-0.2,2.6,0.7s0.2,2.1-0.7,2.6
		l-4.5,2.6C311.6,698.5,311.3,698.5,310.9,698.5z"/>
	<path class="st0" d="M312.1,708.3c-0.7,0-1.3-0.3-1.7-1l-2.6-4.5c-0.5-0.9-0.2-2.1,0.7-2.6c0.9-0.5,2.1-0.2,2.6,0.7l2.6,4.5
		c0.5,0.9,0.2,2.1-0.7,2.6C312.7,708.2,312.4,708.3,312.1,708.3z"/>
	<path class="st0" d="M305.6,697.1c-0.7,0-1.3-0.3-1.7-1l-2.6-4.5c-0.5-0.9-0.2-2.1,0.7-2.6c0.9-0.5,2.1-0.2,2.6,0.7l2.6,4.5
		c0.5,0.9,0.2,2.1-0.7,2.6C306.3,697,306,697.1,305.6,697.1z"/>
	<g>
		<path class="st0" d="M227,654.7c-0.1,0-0.1,0-0.2,0l-5.1-0.6c-1-0.1-1.8-1.1-1.7-2.1s1-1.8,2.1-1.7l5.1,0.6c1,0.1,1.8,1.1,1.7,2.1
			S227.9,654.7,227,654.7z"/>
		<path class="st0" d="M231.2,651.3c-0.1,0-0.1,0-0.2,0c-1-0.1-1.8-1.1-1.7-2.1l0.6-5.9c0.1-1,1-1.8,2.1-1.7c1,0.1,1.8,1.1,1.7,2.1
			l-0.6,5.9C233,650.6,232.2,651.3,231.2,651.3z"/>
		<path class="st0" d="M239.8,656.1c-0.1,0-0.1,0-0.2,0l-5.1-0.6c-1-0.1-1.8-1.1-1.7-2.1s1-1.8,2.1-1.7l5.1,0.6
			c1,0.1,1.8,1.1,1.7,2.1C241.6,655.4,240.8,656.1,239.8,656.1z"/>
		<path class="st0" d="M229.9,664.1c-0.1,0-0.1,0-0.2,0c-1-0.1-1.8-1.1-1.7-2.1l0.6-5.1c0.1-1,1-1.8,2.1-1.7c1,0.1,1.8,1.1,1.7,2.1
			l-0.6,5.1C231.6,663.4,230.8,664.1,229.9,664.1z"/>
	</g>
	<path class="st0" d="M226.1,745.4c0.2-2.2,2.2-3.7,4.3-3.5c2.8,0.3,9.4,1.1,13.5,1.6c2,0.2,3.4,2,3.2,4l-0.1,0.9
		c-0.2,2-2.1,3.5-4.1,3.2c-4.1-0.5-10.4-1.3-13.4-1.7C227.4,749.5,225.9,747.5,226.1,745.4L226.1,745.4z"/>
	<path class="st0" d="M221.7,755.6l0.1-0.6c0.2-2,2.1-3.5,4.1-3.2c3.7,0.5,11.4,1.4,16,2c2,0.2,3.4,2,3.2,4l-0.1,0.5
		c-0.2,2-2,3.5-4,3.2c-4.7-0.5-12.5-1.4-16-1.8C222.9,759.4,221.4,757.6,221.7,755.6z"/>
	<path class="st0" d="M221.9,766.6l0.1-0.7c0.2-2,2-3.4,4-3.2c3.6,0.4,10.3,1.2,14.5,1.6c2,0.2,3.4,2,3.2,4l-0.1,0.7
		c-0.2,2-2,3.5-4,3.2c-4.3-0.5-11.2-1.3-14.5-1.6C223.1,770.5,221.7,768.6,221.9,766.6z"/>
	<path class="st0" d="M242.6,778.6c-0.2,2-2,3.4-4,3.2c-3.5-0.4-8.6-1-11.5-1.3c-2-0.2-3.4-2-3.2-4l0,0c0.2-2,2-3.4,4-3.2
		c3,0.3,8.1,0.9,11.5,1.3C241.4,774.8,242.8,776.6,242.6,778.6L242.6,778.6z"/>
	<path class="st0" d="M258.9,805.2c-1.1,0-2.2,0-3.3-0.1c-18.7-1-32.9-10.3-41-27c-6.2-12.7-7-25.2-2.5-40.6
		c0.2-0.8,1.1-1.3,1.9-1.1c0.8,0.2,1.3,1.1,1.1,1.9c-4.2,14.6-3.5,26.5,2.3,38.4c7.7,15.8,20.6,24.3,38.4,25.2
		c13.4,0.5,23.6-2,31.9-7.7c12.2-8.4,18.2-19.8,18-33.9c-0.2-12.3-4.5-23.4-13.1-33.9c-0.5-0.7-0.4-1.6,0.2-2.2
		c0.7-0.5,1.6-0.4,2.2,0.2c9,10.9,13.6,23,13.8,35.8c0.2,15.2-6.3,27.4-19.3,36.5C281.2,802.5,271.5,805.2,258.9,805.2z"/>
	<path class="st0" d="M253.3,703.4c-0.7,0-1.3-0.4-1.5-1.1c-4.5-15.8,3.7-35.2,16.7-39.3c0.6-0.2,1.3,0,1.7,0.5
		c0.4,0.5,0.5,1.2,0.1,1.7c-0.5,0.8-11.1,20.2,4.4,35.6c0.6,0.6,0.6,1.6,0,2.2c-0.6,0.6-1.6,0.6-2.2,0c-12.9-12.8-9.3-28.3-6.7-35.4
		c-9.2,5.8-14.7,21.4-11.1,33.9c0.2,0.8-0.2,1.7-1.1,1.9C253.6,703.4,253.4,703.4,253.3,703.4z"/>
	<path class="st0" d="M273.4,775.9c-3-2.5-5.1-7.4-4.3-9.9l0.3-0.9c-3.7-4.1-5.5-9.2-3.7-11.7l0.5-0.7l0.7,0.5
		c1.9,1.3,4,2.5,4.8,2.6c0-0.2-0.1-0.6-0.4-1c-3.3-4.2-4.1-8-2.2-10.9c-0.9-2-2.2-4.3-4.5-6.5c-1.5-1.5-2.1-16.7-2.9-18.8
		c-0.5-1.1-5.4-2.4-7.2,1.9c-0.9,2.1-0.3,4.3,0.1,6.5c1.4,7.7-1.9,13.7-2.6,16c-0.9,3.1-1.3,4.9-0.1,8.8c1,3.1,4.1,6.5,7.1,8.2
		c1.5,0.8,2.6,1.6,2.2,2.1c-0.5,0.7-5-1.6-6.3-3c-2.2-2.3-3.7-4.1-4.7-7.1c-0.6-1.9-1.9-1.1-3.2-0.3c-1.1,0.6-2.1,1.3-2.1,1.3
		l0.9,1.4c1.5,2.2,1.1,5.2-0.7,7l-1.3,1.3l-0.1,1l1,1.5c1.4,2.3,1,5.3-1,7.1l-1.1,1l-0.1,0.9l0.7,0.9c1.6,2.2,1.4,5.3-0.6,7.2
		c0,0,3.9,0.5,4.1,0.5c12.2,0.3,18.9-6,19.5-6c1.2,0.1,3,0.3,5.1,0.5C272,776.8,272.7,776.3,273.4,775.9z"/>
	<path class="st0" d="M301,719.1c-9.5-11.1-27.4-25.1-25.2-41.4c1.1-8.6,5.1-16.1,10.7-22.5c1.3-1.5,3.3-3,1.5-4.8
		c-1-1-4.3-0.6-5.3-0.5c-5.2,0.1-10.3,1.3-15.1,3.2c-7.3,2.9-14.4,7.7-19.2,14c-5.8,7.6-7.6,17.4-7.3,26.8c0.1,4.3,0.7,8.5,1.7,12.7
		c0.9,4.1,2.5,8.4,1.8,12.6c-0.6,3.4-3.2,6.6-7,5.9c-4.4-0.8-4.6-5.2-4.2-8.7c0.4-3.4,1.8-6.9,1.3-10.3c-0.5-3.6-2.6-5.3-6.2-3.9
		c-7.9,3.1-15.3,12.8-19.6,19.9c-5.1,8.3-7.6,18.2-8.5,27.9c-1.8,19.7,6.7,40.7,22.7,52.8c13.9,10.5,31.6,12.3,48.4,9.8
		c18.3-2.7,35.5-14.2,42.6-31.8C322.5,759.6,314.7,736.1,301,719.1c-1-1.3-2.8,0.5-1.8,1.8c12.8,15.9,20.2,37.7,12.9,57.6
		c-6.1,16.8-22.3,28.4-39.6,31.3c-17.3,2.9-35.9,1-49.8-10.6c-17.1-14.2-23.1-37.5-18.3-58.7c2.3-10.4,6.9-19.3,14.3-27.1
		c1.7-1.8,10.3-11.8,13.3-7.9c1.5,2-1.1,8.5-1.3,10.7c-0.5,4.3,0.3,9.3,4.8,11c3.9,1.5,8.4-0.4,10.4-3.9c2.6-4.6,0.9-10.7-0.2-15.5
		c-2.2-9.2-3.1-19-0.6-28.2c2.7-9.8,9.5-17,18.2-21.8c5-2.7,10.6-4.7,16.3-5.3c2.1-0.2,4.1-0.3,6.2-0.2c0.9,0.1,0.8-1-0.2,0
		c-8.4,8.4-15.2,22.5-11.4,34.3c4.3,13.7,16.1,23.5,25.1,34.1C300.2,722.2,302,720.4,301,719.1z"/>
	<path class="st0" d="M295.9,750.4c-3.3-3.5-5.9-6.7-7-8.3c-0.3,0.7-0.3,2,0.6,4.2c-0.1,0-0.1,0-0.1,0c0.4,2.4-2.5,0-3.1-0.5
		c-2.3-2.3-3.7-4.1-4.5-5.1c-0.5,0.9-0.7,2.4-0.7,4.2v1.9l-1.5-1.2c-2.4-2-4.2-3.9-5.2-5c-0.3,1-0.4,2.8,0.1,4.9
		c0.2,1-0.4,1.5-0.4,1.5c-0.3,0.2-0.6,0.4-1,0.4l0,0c-1.1,0-2.1-1.1-2.9-2.1c-1.5,2.8,0.4,6.2,2.4,8.7l0.1,0.2
		c0.3,0.6,1.1,2.3,0.1,3.2c-1,0.8-3,0.1-6.2-2c-0.5,2.4,2,7.4,6.1,10.7l0.1,0.1c0.1,0.1,0.2,0.2,0.3,0.3c0.6,0.6,1.1,1.2,0.9,1.9
		c-0.1,0.4-0.4,0.6-0.8,0.7c-0.3,0.1-0.7,0.2-2.7-1.2c0.3,2.2,2.1,5.6,4.3,7.1l0.3,0.2c0.2,0.1,0.3,0.2,0.4,0.3l0.6,0.8l-0.9,0.4
		c-2.9,1.3-5.2,3.7-5.8,5.3c1.3-0.4,3.7-1.1,6.6-1.6l2.1-0.4l-1.3,1.7c-0.8,1.1-1.2,2-1.2,2.6c1.2-0.5,3.7-1.3,8-2.3l0.4-0.1
		c0.2,0,0.6,0,0.8,0.2c0.2,0.2,0.4,0.7,0.1,1.1l-0.5,0.3c-1.6,1.1-2.1,1.8-2.1,2.2c1.5-0.6,5.1-1.9,9.4-3.1
		C300.4,771.5,298.3,758.9,295.9,750.4z"/>
	<circle class="st0" cx="291.7" cy="678.4" r="3.5"/>
	<circle class="st0" cx="258.3" cy="641.8" r="3.5"/>
	<circle class="st0" cx="224.9" cy="680" r="3.5"/>
</g>
<g>
	<path class="st1" d="M77.3,75.3c-3,3-7.9,3-10.9,0c-3-3-3-7.9,0-10.9c3-3,6.3-1.4,9.3,1.6C78.7,69,80.3,72.3,77.3,75.3z"/>
	<path class="st1" d="M14.7,134.5c-1.2,1.2-4.3,1.7-6.7,1.9c-1.6,0.1-3-1.2-2.9-2.9c0.2-2.4,0.7-5.5,1.9-6.7c2.1-2.1,5.5-2.1,7.6,0
		C16.8,129,16.8,132.4,14.7,134.5z"/>
	<ellipse transform="matrix(0.7131 -0.7011 0.7011 0.7131 -2.0433 81.4764)" class="st1" cx="98.5" cy="43.2" rx="4.2" ry="4.2"/>
	<path class="st1" d="M97.3,49.9c-0.9-0.9-2-1.7-3.2-2.3c-0.7-1.4-1.7-2.7-2.9-3.7c-4.9-4.2-11.6-4.4-16-0.3c-2.6,2.4-4.2,6-4.3,9.7
		c-0.1,3.4,1.1,6.5,3.4,8.8c0.8,0.8,1.9,1.7,3,2.3c0.8,1.4,1.9,2.7,3,3.7c2.1,1.8,4.9,2.7,7.8,2.7c3.3,0,6.7-1.2,9.2-3.5
		c2.3-2.2,3.7-5.1,3.7-8.1C101.2,55.8,99.8,52.4,97.3,49.9z M92.9,50.9c0.3,2.8-0.4,5.3-2.3,7.5c-2.8,3.2-7.1,4.7-10.2,4.7
		c0,0,0,0,0,0c-0.3,0-0.8-0.1-1.3-0.4c-0.2-0.5-0.4-0.9-0.3-1.3c0-3,1.5-7.3,4.6-10.1c2.2-1.9,4.7-2.7,7.6-2.4
		c0.4,0,0.9,0.2,1.5,0.5C92.6,49.9,92.8,50.4,92.9,50.9z M73.2,53.3c0.1-3.1,1.4-6,3.6-8c1.7-1.6,3.9-2.4,6.1-2.4
		c2.4,0,4.8,0.9,6.9,2.7c0.3,0.3,0.7,0.6,1,1c-3.3-0.2-6.3,0.8-8.9,3c-3.1,2.7-5.2,7.1-5.4,11.3c-0.2-0.2-0.4-0.3-0.5-0.5
		C74.1,58.6,73.1,56.1,73.2,53.3z M95.9,65.6c-3.9,3.6-10.4,4-14.1,0.7c-0.4-0.3-0.7-0.7-1-1c3.6-0.2,8.4-1.9,11.5-5.5
		c2.2-2.5,3.1-5.5,2.9-8.8c0.2,0.2,0.4,0.3,0.5,0.5c2.1,2.1,3.3,4.9,3.2,7.6C98.8,61.6,97.8,63.8,95.9,65.6z"/>
	<path class="st1" d="M109.6,42.6c-0.4,0-0.8-0.3-0.8-0.8c0-4.5-3.7-8.2-8.2-8.2c-0.4,0-0.8-0.3-0.8-0.8c0-0.4,0.3-0.8,0.8-0.8
		c5.3,0,9.7,4.3,9.7,9.7C110.4,42.3,110,42.6,109.6,42.6z"/>
	<path class="st1" d="M118.5,43c-0.6,0-1.1-0.5-1.1-1.1c0-9.2-7.5-16.7-16.7-16.7c-0.6,0-1.1-0.5-1.1-1.1c0-0.6,0.5-1.1,1.1-1.1
		c10.5,0,19,8.5,19,19C119.6,42.5,119.1,43,118.5,43z"/>
	<path class="st1" d="M100.7,17c13.7,0.3,24.6,11.1,24.9,24.9c0,2.4,3.8,2.4,3.8,0C129,26,116.5,13.5,100.7,13.2
		C98.3,13.1,98.3,16.9,100.7,17L100.7,17z"/>
	<path class="st1" d="M51.9,88l1.9,1.9c0.7,0.7,1.7,1.2,2.7,1.1c1.2-0.1,2.5-0.6,3.4-1.6c1-1,1.5-2.2,1.6-3.4c0.1-1-0.4-2-1.1-2.7
		l-1.9-1.9c-0.7-0.7-1.7-1.2-2.7-1.1c-1.2,0.1-2.5,0.6-3.4,1.6c-1,1-1.5,2.2-1.6,3.4C50.7,86.3,51.1,87.3,51.9,88z"/>
	<path class="st1" d="M64.2,83.5c-0.3,0-0.6-0.1-0.8-0.3l-4.8-4.8c-0.4-0.4-0.4-1.2,0-1.6c0.4-0.4,1.2-0.4,1.6,0l4.8,4.8
		c0.4,0.4,0.4,1.2,0,1.6C64.8,83.4,64.5,83.5,64.2,83.5z"/>
	<path class="st1" d="M66.4,80.2c-0.3,0-0.6-0.1-0.8-0.3l-3.7-3.7c-0.4-0.4-0.4-1.2,0-1.6c0.4-0.4,1.2-0.4,1.6,0l3.7,3.7
		c0.4,0.4,0.4,1.2,0,1.6C66.9,80.1,66.6,80.2,66.4,80.2z"/>
	<path class="st1" d="M53.6,92.9l-4.8-4.8c-0.4-0.4-1.2-0.4-1.6,0c-0.4,0.4-0.4,1.2,0,1.6l0.3,0.3L39,98.7l-0.4-0.4
		c-0.4-0.4-1.2-0.4-1.6,0c-0.4,0.4-0.4,1.2,0,1.6l0.4,0.4l-8.5,8.5l-0.4-0.4c-0.4-0.4-1.2-0.4-1.6,0c-0.4,0.4-0.4,1.2,0,1.6l0.4,0.4
		l-3,3l-0.1-0.1c-0.4-0.4-1.2-0.4-1.6,0c-0.4,0.4-0.4,1.2,0,1.6l0.1,0.1l-1.9,1.9l-0.1-0.1c-0.4-0.4-1.2-0.4-1.6,0
		c-0.4,0.4-0.4,1.2,0,1.6l0.1,0.1l-2.8,2.8l-0.9-0.9c-0.4-0.4-1.2-0.4-1.6,0s-0.4,1.2,0,1.6l0.1,0.1l-5.4,0.2
		c-0.4,0-0.7,0.4-0.7,0.8c0,0.4,0.3,0.7,0.8,0.7l6.8-0.2l2.7,2.7l-0.2,6.8c0,0.4,0.3,0.8,0.7,0.8c0,0,0,0,0,0c0.4,0,0.7-0.3,0.8-0.7
		l0.1-5.4l0.1,0.1c0.2,0.2,0.5,0.3,0.8,0.3c0.3,0,0.6-0.1,0.8-0.3c0.4-0.4,0.4-1.2,0-1.6l-0.9-0.9l2.8-2.8l0.1,0.1
		c0.2,0.2,0.5,0.3,0.8,0.3s0.6-0.1,0.8-0.3c0.4-0.4,0.4-1.2,0-1.6l-0.1-0.1l1.9-1.9l0.1,0.1c0.2,0.2,0.5,0.3,0.8,0.3
		s0.6-0.1,0.8-0.3c0.4-0.4,0.4-1.2,0-1.6l-0.1-0.1l3-3l0.3,0.3c0.2,0.2,0.5,0.3,0.8,0.3c0.3,0,0.6-0.1,0.8-0.3
		c0.4-0.4,0.4-1.2,0-1.6l-0.3-0.3l8.5-8.5l0.3,0.3c0.2,0.2,0.5,0.3,0.8,0.3c0.3,0,0.6-0.1,0.8-0.3c0.4-0.4,0.4-1.2,0-1.6l-0.3-0.3
		l8.7-8.6l0.3,0.3c0.2,0.2,0.5,0.3,0.8,0.3c0.3,0,0.6-0.1,0.8-0.3C54.1,94,54.1,93.3,53.6,92.9z M19.3,124.3l-1.9-1.9l2.8-2.8
		l1.9,1.9L19.3,124.3z M23.7,119.9l-1.9-1.9l1.9-1.9l1.9,1.9L23.7,119.9z M27.2,116.3l-1.9-1.9l3-3l1.9,1.9L27.2,116.3z M31.8,111.8
		l-1.9-1.9l8.5-8.5l1.9,1.9L31.8,111.8z M42,101.7L40,99.8l8.7-8.6l1.9,1.9L42,101.7z"/>
	<path class="st1" d="M36.1,33.3c-0.4,0-0.8-0.2-1-0.6c-0.3-0.5-0.1-1.2,0.4-1.5l3.6-2.1c0.5-0.3,1.2-0.1,1.5,0.4
		c0.3,0.5,0.1,1.2-0.4,1.5l-3.6,2.1C36.5,33.3,36.3,33.3,36.1,33.3z M45.8,28l3.6-2.1c0.5-0.3,0.7-1,0.4-1.5c-0.3-0.5-1-0.7-1.5-0.4
		L44.7,26c-0.5,0.3-0.7,1-0.4,1.5c0.2,0.4,0.6,0.6,1,0.6C45.4,28.1,45.6,28.1,45.8,28z M46.7,35.9c0.5-0.3,0.7-1,0.4-1.5l-2.1-3.6
		c-0.3-0.5-1-0.7-1.5-0.4c-0.5,0.3-0.7,1-0.4,1.5l2.1,3.6c0.2,0.4,0.6,0.6,1,0.6C46.4,36.1,46.5,36,46.7,35.9z M41.5,26.8
		c0.5-0.3,0.7-1,0.4-1.5l-2.1-3.6c-0.3-0.5-1-0.7-1.5-0.4s-0.7,1-0.4,1.5l2.1,3.6c0.2,0.4,0.6,0.6,1,0.6
		C41.1,26.9,41.3,26.9,41.5,26.8z"/>
	<path class="st1" d="M75.4,116.8c-0.1,0-0.2,0-0.2,0l-4.1-0.9c-0.6-0.1-1-0.7-0.9-1.3c0.1-0.6,0.7-1,1.3-0.9l4.1,0.9
		c0.6,0.1,1,0.7,0.9,1.3C76.4,116.4,75.9,116.8,75.4,116.8z M86.8,118.1c0.1-0.6-0.3-1.2-0.9-1.3l-4.1-0.9c-0.6-0.1-1.2,0.3-1.3,0.9
		c-0.1,0.6,0.3,1.2,0.9,1.3l4.1,0.9c0.1,0,0.2,0,0.2,0C86.2,119,86.7,118.6,86.8,118.1z M78.1,123.8l0.9-4.1
		c0.1-0.6-0.3-1.2-0.9-1.3c-0.6-0.1-1.2,0.3-1.3,0.9l-0.9,4.1c-0.1,0.6,0.3,1.2,0.9,1.3c0.1,0,0.2,0,0.2,0
		C77.5,124.6,77.9,124.3,78.1,123.8z M80.3,113.5l0.9-4.1c0.1-0.6-0.3-1.2-0.9-1.3c-0.6-0.1-1.2,0.3-1.3,0.9l-0.9,4.1
		c-0.1,0.6,0.3,1.2,0.9,1.3c0.1,0,0.2,0,0.2,0C79.7,114.4,80.2,114,80.3,113.5z"/>
	<circle class="st1" cx="108.7" cy="88.7" r="1.7"/>
	<circle class="st1" cx="40.7" cy="59.3" r="1.7"/>
	<circle class="st1" cx="12.8" cy="81.9" r="2.6"/>
</g>
</svg>
