<?xml version="1.0" encoding="utf-8"?>
<!-- Generator: Adobe Illustrator 23.0.4, SVG Export Plug-In . SVG Version: 6.00 Build 0)  -->
<svg version="1.1" id="Layer_1" xmlns="http://www.w3.org/2000/svg" xmlns:xlink="http://www.w3.org/1999/xlink" x="0px" y="0px"
	 viewBox="0 0 134 149.2" style="enable-background:new 0 0 134 149.2;" xml:space="preserve">
<style type="text/css">
	.st0{fill:#FFFFFF;}
</style>
<g>
	<title>280-</title>
	<g>
		<path class="st0" d="M67.6,65.4l0,4.9c1.3-0.6,3.5-1.1,5.9,0.3c1.8,1.1,2.6,2.5,3,3.8c2.6-0.8,3.1-2.8,3.1-2.8
			c0.3-1.5,0-2.9-0.8-4c-0.8-0.9-2-1.6-3.3-1.7c0.2,0.9,0,1.6,0,1.6c-0.1,0.3-0.3,0.5-0.6,0.5c-0.1,0-0.1,0-0.2,0
			c-0.3-0.1-0.5-0.5-0.5-0.8c0,0,0.2-0.8-0.2-1.6c-1-1.5-2.6-2-3.8-2C69,63.5,67.6,64.1,67.6,65.4z"/>
		<path class="st0" d="M66.3,65.4c0-1.3-1.4-1.9-2.6-1.9c-1.2,0-2.8,0.5-3.8,2c-0.4,0.9-0.2,1.6-0.2,1.6c0.1,0.3-0.1,0.7-0.5,0.8
			c-0.1,0-0.1,0-0.2,0c-0.3,0-0.5-0.2-0.6-0.5c0,0-0.2-0.7,0-1.6c-1.3,0.1-2.5,0.8-3.3,1.7c-0.9,1.1-1.1,2.4-0.8,4
			c0,0.1,0.5,2.1,3.1,2.8c0.4-1.3,1.2-2.7,3-3.8c2.4-1.5,4.7-0.9,5.9-0.3L66.3,65.4z"/>
		<path class="st0" d="M65.9,76.5c0.2,0.1,0.3,0.1,0.4,0.2l0-5c-0.7-0.4-2.9-1.4-5.2,0c-1.6,1-2.3,2.3-2.5,3.4c0,0,0,0.1,0,0.1
			c0,0,0,0.1,0,0.1c-0.2,1.3,0.1,2.3,0.2,2.3c0.1,0.3-0.1,0.7-0.4,0.8c-0.1,0-0.1,0-0.2,0c-0.3,0-0.5-0.2-0.6-0.5
			c0,0-0.3-1.1-0.2-2.5c-2.5-0.7-3.5-2.3-3.9-3.2c-1.2,0.4-2.2,1.4-2.7,2.5c-0.3,0.8-0.5,2.1,0.4,3.5c0.1,0.1,0.9,1.2,2.8,1.6
			c0.4,0.1,0.6,0.4,0.5,0.8c-0.1,0.3-0.3,0.5-0.6,0.5c0,0-0.1,0-0.1,0c-1.6-0.4-2.6-1.1-3.1-1.6c-1.2,1.1-1.5,2.3-1.5,3.1
			c0,1.3,0.8,2.9,1.5,3.3c0,0,0,0,0,0c0,0,0,0,0.1,0c0.1,0.1,2,1.6,5.6,0.9c0.2-1.2,0.6-2.1,1.4-2.9c1.7-1.7,4.3-1.8,4.5-1.8h0
			c0.4,0,0.7,0.3,0.7,0.7c0,0.4-0.3,0.7-0.7,0.7c-0.2,0-4.6,0.1-4.6,4.3c0,1.3,0.4,2.4,1.3,3.1c1,0.9,2.3,1.2,3.2,1.1
			c0.4,0,0.7,0.2,0.7,0.6c0,0.4-0.2,0.7-0.6,0.7c-0.1,0-0.3,0-0.4,0c-1.4,0-2.8-0.5-3.8-1.5c-1-0.9-1.6-2.2-1.7-3.7
			c-0.6,0.1-1.2,0.1-1.8,0.1c-2,0-3.3-0.6-4.1-1c-0.6,0.8-0.8,1.9-0.6,2.9c0.2,1.4,0.9,2.3,2.1,3c0.2-0.5,0.6-1.2,1.1-1.7
			c0.3-0.2,0.7-0.2,0.9,0.1c0.2,0.3,0.2,0.7-0.1,0.9c-0.7,0.6-0.9,1.6-1,1.7c-0.3,1.9,0.4,3.2,1.1,4c0.8,0.9,1.9,1.5,3,1.7
			c-0.2-0.5-0.3-1.1-0.3-1.7c0-0.4,0.3-0.7,0.7-0.7c0,0,0,0,0,0c0.4,0,0.7,0.3,0.7,0.7c0,0.7,0.4,1.7,0.6,2c0,0,0,0,0,0
			c0.9,1.6,2.8,2.2,4.4,2.2c1,0,1.9-0.2,2.6-0.7c0.7-0.4,1-1,1-1.7l0-2.3c-0.5,0.5-1.3,0.8-2.2,0.8c0,0,0,0-0.1,0
			c-2.2,0-3.3-1.2-3.3-1.3c-0.2-0.3-0.2-0.7,0.1-0.9c0.3-0.2,0.7-0.2,0.9,0.1c0,0,0.8,0.8,2.4,0.8c1.5,0,2.1-1.4,2.2-1.7l0-6.9
			c-0.4,0.1-1,0.3-1.6,0.3c-0.7,0-1.5-0.1-2.4-0.5c-0.3-0.1-0.5-0.5-0.4-0.8c0.1-0.3,0.5-0.5,0.8-0.4c1.9,0.7,3.1,0.3,3.6,0l0-8.7
			c0-0.8-0.6-1.1-0.9-1.2c-0.7-0.3-1.8-0.1-2.5,0.7c-0.2,0.3-0.6,0.3-0.9,0.1c-0.3-0.2-0.3-0.6-0.1-0.9
			C63.1,76.3,64.7,76.1,65.9,76.5z"/>
		<path class="st0" d="M72,82.6C72,82.6,72,82.6,72,82.6c0.1,0,2.7,0,4.5,1.7c0.8,0.8,1.2,1.7,1.4,2.9c3.7,0.7,5.6-0.9,5.6-0.9
			c0,0,0,0,0.1,0c0,0,0,0,0,0c0.7-0.4,1.5-2,1.5-3.3c0-0.8-0.3-2-1.5-3.1c-0.5,0.5-1.5,1.3-3.1,1.6c0,0-0.1,0-0.1,0
			c-0.3,0-0.6-0.2-0.6-0.5c-0.1-0.4,0.1-0.7,0.5-0.8c1.9-0.4,2.7-1.6,2.8-1.6c1-1.4,0.8-2.7,0.4-3.5c-0.5-1.2-1.5-2.1-2.7-2.5
			c-0.4,0.9-1.5,2.5-3.9,3.2c0.1,1.4-0.2,2.4-0.2,2.5c-0.1,0.3-0.3,0.5-0.6,0.5c-0.1,0-0.1,0-0.2,0c-0.3-0.1-0.5-0.5-0.4-0.8
			c0-0.1,0.3-1.1,0.1-2.4c0,0,0,0,0,0c0,0,0,0,0-0.1c-0.2-1.2-0.8-2.5-2.5-3.5c-2.3-1.4-4.5-0.4-5.2,0l0,5c0.1-0.1,0.3-0.2,0.4-0.2
			c1.1-0.4,2.8-0.2,4,1.1c0.2,0.3,0.2,0.7-0.1,0.9c-0.3,0.2-0.7,0.2-0.9-0.1c-0.7-0.9-1.8-1-2.5-0.7c-0.3,0.1-0.9,0.4-0.9,1.2l0,8.7
			c0.5,0.3,1.7,0.7,3.6,0c0.3-0.1,0.7,0,0.8,0.4c0.1,0.3,0,0.7-0.4,0.8c-0.9,0.3-1.7,0.5-2.4,0.5c-0.7,0-1.2-0.1-1.6-0.3l0,6.9
			c0.1,0.3,0.7,1.7,2.2,1.7c1.6,0,2.3-0.8,2.4-0.8c0.2-0.3,0.7-0.3,0.9-0.1c0.3,0.2,0.3,0.7,0.1,0.9c0,0.1-1.1,1.3-3.3,1.3
			c0,0,0,0-0.1,0c-0.9,0-1.6-0.3-2.2-0.8l0,2.3c0,1.6,1.8,2.4,3.6,2.4c1.5,0,3.5-0.6,4.4-2.2c0,0,0,0,0,0c0.2-0.3,0.6-1.3,0.6-2
			c0-0.4,0.3-0.7,0.6-0.7c0,0,0,0,0,0c0.4,0,0.7,0.3,0.7,0.6c0,0.6-0.2,1.2-0.3,1.7c1.1-0.2,2.2-0.8,3-1.7c0.7-0.8,1.4-2.1,1-4
			c0-0.2-0.3-1.1-1-1.7c-0.3-0.2-0.3-0.7-0.1-0.9c0.2-0.3,0.7-0.3,0.9-0.1c0.6,0.5,0.9,1.2,1.1,1.7c1.2-0.7,1.9-1.6,2.1-3
			c0.1-1.1-0.1-2.1-0.6-2.9c-0.7,0.4-2.1,1-4.1,1c-0.5,0-1.1,0-1.8-0.1c-0.1,1.5-0.6,2.8-1.7,3.8c-1,0.9-2.4,1.5-3.8,1.5
			c-0.1,0-0.3,0-0.4,0c-0.4,0-0.6-0.3-0.6-0.7c0-0.4,0.3-0.6,0.7-0.6c0.9,0.1,2.2-0.2,3.2-1.1c0.8-0.8,1.3-1.8,1.3-3.1
			c0-4.3-4.4-4.3-4.6-4.3c-0.4,0-0.7-0.3-0.7-0.7C71.3,82.9,71.6,82.6,72,82.6z"/>
		<path class="st0" d="M103,80.9c-1.2,0-2.4,0.2-3.5,0.5l1.6-31.9c0-11.2-9.1-20.8-22-24.7l0,2c11.8,3.8,20.1,12.5,20.1,22.7
			L97.6,82c0,0.1,0,0.2,0,0.2c-1.4,0.7-2.6,1.8-3.6,3l1.8-35c0-8.9-6.8-16.7-16.7-20.4l0,2.1c8.8,3.5,14.8,10.4,14.8,18.2l-2.4,41.3
			l0.1-0.1c0,0.3-0.1,0.7-0.1,1l0,10.6c-1.6-0.8-4.4-2.1-9-3c-0.6,0.6-1.2,1.2-1.8,1.6c6.5,1.2,9.8,3,10.8,3.6l0,11.2l-50,0l0-11.2
			c1.1-0.7,5.1-2.9,13.3-4.1c-0.7-0.6-1.3-1.1-1.8-1.7c-6.1,1-9.7,2.5-11.6,3.5l0-10.5c0-1.8-0.4-3.4-1.1-4.9l-1.8-37.2
			c0-8.1,6.3-15.2,15.5-18.6l0-2c-10.2,3.6-17.4,11.5-17.4,20.7l1.5,34.1c-1-1-2.1-1.8-3.3-2.3l-1.6-32.5c0-10.4,8.6-19.3,20.8-23
			l0-2c-13.3,3.8-22.8,13.6-22.8,25l1.6,31.7C32,81,31,80.9,30,80.9c-6.4,0-11.5,5.2-11.5,11.5c0,5.8,4.3,10.6,10,11.4l0,27.6
			c0,0.1,0,0.2,0,0.3l-1.8,4l79.8,0l-1.9-4.3h0v0l0-27.6c5.7-0.8,10-5.6,10-11.4C114.6,86,109.4,80.9,103,80.9z M30.4,128.3l72.3,0
			l0,2.1l-72.3,0L30.4,128.3z M103.6,102c-0.5,0-0.9,0.5-0.9,1l0,18.6l-2.9,0l0-25.1c0.9,0.7,2,1.2,3.3,1.2c2.9,0,5.2-2.3,5.2-5.2
			c0-2.9-2.3-5.2-5.2-5.2c-2.9,0-5.2,2.3-5.2,5.2l0,29.1l-62.6,0l0-29.1c0-2.9-2.3-5.2-5.2-5.2c-2.9,0-5.2,2.3-5.2,5.2
			c0,2.9,2.3,5.2,5.2,5.2c1.2,0,2.4-0.4,3.3-1.2l0,25.1l-2.9,0l0-18.6c0-0.5-0.4-0.9-0.9-1c-5.1-0.3-9.1-4.5-9.1-9.6
			c0-5.3,4.3-9.6,9.6-9.6c5.3,0,9.6,4.3,9.6,9.6l0,12.3c0,0,0,0,0,0l0,12.8c0,0.5,0.4,1,1,1l51.9,0c0.5,0,1-0.4,1-1l0-12.8
			c0,0,0,0,0,0l0-12.3c0-5.3,4.3-9.6,9.6-9.6c5.3,0,9.6,4.3,9.6,9.6C112.6,97.5,108.7,101.7,103.6,102z"/>
		<polygon class="st0" points="25.9,137.6 23.6,142.6 109.6,142.5 107.4,137.6 		"/>
		<rect x="60.1" y="8.8" class="st0" width="2.6" height="1.4"/>
		<rect x="59.4" y="4.6" class="st0" width="4.1" height="1.2"/>
		<rect x="59.4" y="6.9" class="st0" width="4.1" height="1.2"/>
		<rect x="60.1" y="2.7" class="st0" width="2.6" height="1.4"/>
		<rect x="70.4" y="8.8" class="st0" width="2.6" height="1.4"/>
		<rect x="69.6" y="4.6" class="st0" width="4.1" height="1.2"/>
		<rect x="69.6" y="6.9" class="st0" width="4.1" height="1.2"/>
		<rect x="70.4" y="2.7" class="st0" width="2.6" height="1.4"/>
		<path class="st0" d="M76,30.9l0.4,0l0-19.3l-19.7,0l0,19.2C58.7,30.3,66.8,28.2,76,30.9z M65.4,27l1.4-5.2l-4.5,0l2.1-6.3l4,0
			l-1.4,3.7l3.8,0L65.7,27L65.4,27z"/>
		<path class="st0" d="M48.3,67.6c-0.3-0.5-0.5-1-0.7-1.5l-3,1.4c0.2,0.5,1,2,1.2,2.6L48.3,67.6z"/>
		<path class="st0" d="M42.1,51.8l3.2,0.8c0.2-1,0.5-1.9,1-2.8l-3-1.4C42.8,49.4,42.4,50.6,42.1,51.8z"/>
		<path class="st0" d="M52.3,39.6c0,0-0.5,0.2-1.1,0.5l1.6,2.9c0.3-0.2,0.6-0.3,0.7-0.3c0.4-0.1,1.3-0.3,2.3-0.8l-1.4-3
			c-1,0.4-1.8,0.6-1.8,0.6L52.3,39.6z"/>
		<path class="st0" d="M44,47.1l2.8,1.7c0.5-0.8,1.1-1.6,1.8-2.4l-2.4-2.2C45.3,45,44.6,46,44,47.1z"/>
		<path class="st0" d="M60,38.1l-3-1.4c-0.3,0.6-0.8,1.1-1.6,1.6l1.8,2.8C58.5,40.4,59.4,39.3,60,38.1z"/>
		<path class="st0" d="M47,64.9c-0.4-1-0.8-2-1.1-2.9l-3.2,1c0.3,1.1,0.7,2.1,1.2,3.2L47,64.9z"/>
		<path class="st0" d="M45.6,60.8c-0.3-1-0.5-2-0.6-3l-3.3,0.4c0.1,1.1,0.3,2.3,0.6,3.5L45.6,60.8z"/>
		<path class="st0" d="M41.6,55.9c0,0.3,0,0.6,0,0.9l3.3-0.1c0-0.2,0-0.5,0-0.7c0-0.8,0.1-1.5,0.2-2.2l-3.3-0.5
			C41.7,54.1,41.6,55,41.6,55.9z"/>
		<path class="st0" d="M51.8,43.7L50,40.9c-1,0.7-2,1.4-2.8,2.2l2.3,2.4C50.1,44.8,50.9,44.2,51.8,43.7z"/>
		<path class="st0" d="M60.5,36.4c0.1-0.7,0-1.5-0.2-2.2l-2.9,0.7c0,0.5,0,0.8-0.1,1.1L60.5,36.4z"/>
		<path class="st0" d="M52.3,70.3L52.3,70.3l-3.1-2.8l-3.2,3.8l3.2,2.7C49.6,73,50.6,71.4,52.3,70.3z"/>
		<path class="st0" d="M59.5,31.4L56.9,32c0.2,0.7,0.2,1.8,0.2,1.8l2.8-0.7C59.9,33.1,59.8,32.1,59.5,31.4z"/>
		<path class="st0" d="M88.5,67.5l-3-1.4c-0.2,0.5-0.5,0.9-0.7,1.5l2.5,2.5C87.6,69.5,88.3,68,88.5,67.5z"/>
		<path class="st0" d="M90.3,63l-3.2-1c-0.3,0.9-0.7,1.9-1.1,2.9l3,1.3C89.5,65.1,90,64.1,90.3,63z"/>
		<path class="st0" d="M91.3,58.2L88,57.8c-0.1,1-0.3,2-0.6,3l3.2,0.8C91,60.5,91.2,59.3,91.3,58.2z"/>
		<path class="st0" d="M73.1,38.1c0.5,1.2,1.5,2.2,2.9,3.1l1.8-2.8c-0.8-0.5-1.3-1-1.6-1.6L73.1,38.1z"/>
		<path class="st0" d="M80.5,39.5c0,0-0.8-0.2-1.8-0.6l-1.4,3c1,0.5,1.9,0.7,2.3,0.8c0.1,0.1,0.4,0.2,0.7,0.3l1.6-2.9
			c-0.6-0.3-1-0.5-1.1-0.5L80.5,39.5z"/>
		<path class="st0" d="M81.3,43.7c0.8,0.5,1.6,1.2,2.4,1.8l2.3-2.4c-0.9-0.8-1.8-1.6-2.8-2.2L81.3,43.7z"/>
		<path class="st0" d="M91.4,55.9c0-0.9-0.1-1.8-0.2-2.7L88,53.7c0.1,0.7,0.2,1.5,0.2,2.2c0,0.2,0,0.5,0,0.7l3.3,0.1
			C91.4,56.5,91.4,56.2,91.4,55.9z"/>
		<path class="st0" d="M84.5,46.4c0.7,0.7,1.3,1.5,1.8,2.4l2.8-1.7c-0.6-1-1.3-2-2.2-2.9L84.5,46.4z"/>
		<path class="st0" d="M86.8,49.8c0.4,0.9,0.7,1.8,1,2.8l3.2-0.8c-0.3-1.2-0.7-2.3-1.2-3.4L86.8,49.8z"/>
		<path class="st0" d="M72.6,36.4l3.3-0.3c-0.1-0.3-0.2-0.7-0.1-1.1l-2.9-0.7C72.6,34.9,72.5,35.6,72.6,36.4z"/>
		<path class="st0" d="M83.9,67.5l-3.2,2.7l0.1,0.1c1.7,1.1,2.7,2.7,3.2,3.7l3.2-2.7L83.9,67.5z"/>
		<path class="st0" d="M76.1,32l-2.5-0.6c-0.3,0.7-0.5,1.7-0.5,1.7l2.8,0.7C75.9,33.8,75.9,32.8,76.1,32z"/>
	</g>
</g>
</svg>
